<?xml version="1.0" encoding="utf-8" standalone="no"?>
<!DOCTYPE svg PUBLIC "-//W3C//DTD SVG 1.1//EN"
  "http://www.w3.org/Graphics/SVG/1.1/DTD/svg11.dtd">
<!-- Created with matplotlib (http://matplotlib.org/) -->
<svg height="345pt" version="1.1" viewBox="0 0 460 345" width="460pt" xmlns="http://www.w3.org/2000/svg" xmlns:xlink="http://www.w3.org/1999/xlink">
 <defs>
  <style type="text/css">
*{stroke-linecap:butt;stroke-linejoin:round;}
  </style>
 </defs>
 <g id="figure_1">
  <g id="patch_1">
   <path d="M 0 345.6 
L 460.8 345.6 
L 460.8 0 
L 0 0 
z
" style="fill:#ffffff;"/>
  </g>
  <g id="axes_1">
   <g id="patch_2">
    <path d="M 48.2 303 
L 442.05 303 
L 442.05 13.6 
L 48.2 13.6 
z
" style="fill:#ffffff;"/>
   </g>
   <g id="matplotlib.axis_1">
    <g id="xtick_1">
     <g id="line2d_1">
      <defs>
       <path d="M 0 0 
L 0 3.5 
" id="m54e9642a4f" style="stroke:#000000;stroke-width:0.8;"/>
      </defs>
      <g>
       <use style="stroke:#000000;stroke-width:0.8;" x="48.2" xlink:href="#m54e9642a4f" y="303"/>
      </g>
     </g>
     <g id="text_1">
      <!-- 0.0 -->
      <defs>
       <path d="M 31.78125 66.40625 
Q 24.171875 66.40625 20.328125 58.90625 
Q 16.5 51.421875 16.5 36.375 
Q 16.5 21.390625 20.328125 13.890625 
Q 24.171875 6.390625 31.78125 6.390625 
Q 39.453125 6.390625 43.28125 13.890625 
Q 47.125 21.390625 47.125 36.375 
Q 47.125 51.421875 43.28125 58.90625 
Q 39.453125 66.40625 31.78125 66.40625 
z
M 31.78125 74.21875 
Q 44.046875 74.21875 50.515625 64.515625 
Q 56.984375 54.828125 56.984375 36.375 
Q 56.984375 17.96875 50.515625 8.265625 
Q 44.046875 -1.421875 31.78125 -1.421875 
Q 19.53125 -1.421875 13.0625 8.265625 
Q 6.59375 17.96875 6.59375 36.375 
Q 6.59375 54.828125 13.0625 64.515625 
Q 19.53125 74.21875 31.78125 74.21875 
z
" id="DejaVuSans-30"/>
       <path d="M 10.6875 12.40625 
L 21 12.40625 
L 21 0 
L 10.6875 0 
z
" id="DejaVuSans-2e"/>
      </defs>
      <g transform="translate(40.248438 317.598437)scale(0.1 -0.1)">
       <use xlink:href="#DejaVuSans-30"/>
       <use x="63.623047" xlink:href="#DejaVuSans-2e"/>
       <use x="95.410156" xlink:href="#DejaVuSans-30"/>
      </g>
     </g>
    </g>
    <g id="xtick_2">
     <g id="line2d_2">
      <g>
       <use style="stroke:#000000;stroke-width:0.8;" x="126.97" xlink:href="#m54e9642a4f" y="303"/>
      </g>
     </g>
     <g id="text_2">
      <!-- 0.2 -->
      <defs>
       <path d="M 19.1875 8.296875 
L 53.609375 8.296875 
L 53.609375 0 
L 7.328125 0 
L 7.328125 8.296875 
Q 12.9375 14.109375 22.625 23.890625 
Q 32.328125 33.6875 34.8125 36.53125 
Q 39.546875 41.84375 41.421875 45.53125 
Q 43.3125 49.21875 43.3125 52.78125 
Q 43.3125 58.59375 39.234375 62.25 
Q 35.15625 65.921875 28.609375 65.921875 
Q 23.96875 65.921875 18.8125 64.3125 
Q 13.671875 62.703125 7.8125 59.421875 
L 7.8125 69.390625 
Q 13.765625 71.78125 18.9375 73 
Q 24.125 74.21875 28.421875 74.21875 
Q 39.75 74.21875 46.484375 68.546875 
Q 53.21875 62.890625 53.21875 53.421875 
Q 53.21875 48.921875 51.53125 44.890625 
Q 49.859375 40.875 45.40625 35.40625 
Q 44.1875 33.984375 37.640625 27.21875 
Q 31.109375 20.453125 19.1875 8.296875 
z
" id="DejaVuSans-32"/>
      </defs>
      <g transform="translate(119.018438 317.598437)scale(0.1 -0.1)">
       <use xlink:href="#DejaVuSans-30"/>
       <use x="63.623047" xlink:href="#DejaVuSans-2e"/>
       <use x="95.410156" xlink:href="#DejaVuSans-32"/>
      </g>
     </g>
    </g>
    <g id="xtick_3">
     <g id="line2d_3">
      <g>
       <use style="stroke:#000000;stroke-width:0.8;" x="205.74" xlink:href="#m54e9642a4f" y="303"/>
      </g>
     </g>
     <g id="text_3">
      <!-- 0.4 -->
      <defs>
       <path d="M 37.796875 64.3125 
L 12.890625 25.390625 
L 37.796875 25.390625 
z
M 35.203125 72.90625 
L 47.609375 72.90625 
L 47.609375 25.390625 
L 58.015625 25.390625 
L 58.015625 17.1875 
L 47.609375 17.1875 
L 47.609375 0 
L 37.796875 0 
L 37.796875 17.1875 
L 4.890625 17.1875 
L 4.890625 26.703125 
z
" id="DejaVuSans-34"/>
      </defs>
      <g transform="translate(197.788438 317.598437)scale(0.1 -0.1)">
       <use xlink:href="#DejaVuSans-30"/>
       <use x="63.623047" xlink:href="#DejaVuSans-2e"/>
       <use x="95.410156" xlink:href="#DejaVuSans-34"/>
      </g>
     </g>
    </g>
    <g id="xtick_4">
     <g id="line2d_4">
      <g>
       <use style="stroke:#000000;stroke-width:0.8;" x="284.51" xlink:href="#m54e9642a4f" y="303"/>
      </g>
     </g>
     <g id="text_4">
      <!-- 0.6 -->
      <defs>
       <path d="M 33.015625 40.375 
Q 26.375 40.375 22.484375 35.828125 
Q 18.609375 31.296875 18.609375 23.390625 
Q 18.609375 15.53125 22.484375 10.953125 
Q 26.375 6.390625 33.015625 6.390625 
Q 39.65625 6.390625 43.53125 10.953125 
Q 47.40625 15.53125 47.40625 23.390625 
Q 47.40625 31.296875 43.53125 35.828125 
Q 39.65625 40.375 33.015625 40.375 
z
M 52.59375 71.296875 
L 52.59375 62.3125 
Q 48.875 64.0625 45.09375 64.984375 
Q 41.3125 65.921875 37.59375 65.921875 
Q 27.828125 65.921875 22.671875 59.328125 
Q 17.53125 52.734375 16.796875 39.40625 
Q 19.671875 43.65625 24.015625 45.921875 
Q 28.375 48.1875 33.59375 48.1875 
Q 44.578125 48.1875 50.953125 41.515625 
Q 57.328125 34.859375 57.328125 23.390625 
Q 57.328125 12.15625 50.6875 5.359375 
Q 44.046875 -1.421875 33.015625 -1.421875 
Q 20.359375 -1.421875 13.671875 8.265625 
Q 6.984375 17.96875 6.984375 36.375 
Q 6.984375 53.65625 15.1875 63.9375 
Q 23.390625 74.21875 37.203125 74.21875 
Q 40.921875 74.21875 44.703125 73.484375 
Q 48.484375 72.75 52.59375 71.296875 
z
" id="DejaVuSans-36"/>
      </defs>
      <g transform="translate(276.558438 317.598437)scale(0.1 -0.1)">
       <use xlink:href="#DejaVuSans-30"/>
       <use x="63.623047" xlink:href="#DejaVuSans-2e"/>
       <use x="95.410156" xlink:href="#DejaVuSans-36"/>
      </g>
     </g>
    </g>
    <g id="xtick_5">
     <g id="line2d_5">
      <g>
       <use style="stroke:#000000;stroke-width:0.8;" x="363.28" xlink:href="#m54e9642a4f" y="303"/>
      </g>
     </g>
     <g id="text_5">
      <!-- 0.8 -->
      <defs>
       <path d="M 31.78125 34.625 
Q 24.75 34.625 20.71875 30.859375 
Q 16.703125 27.09375 16.703125 20.515625 
Q 16.703125 13.921875 20.71875 10.15625 
Q 24.75 6.390625 31.78125 6.390625 
Q 38.8125 6.390625 42.859375 10.171875 
Q 46.921875 13.96875 46.921875 20.515625 
Q 46.921875 27.09375 42.890625 30.859375 
Q 38.875 34.625 31.78125 34.625 
z
M 21.921875 38.8125 
Q 15.578125 40.375 12.03125 44.71875 
Q 8.5 49.078125 8.5 55.328125 
Q 8.5 64.0625 14.71875 69.140625 
Q 20.953125 74.21875 31.78125 74.21875 
Q 42.671875 74.21875 48.875 69.140625 
Q 55.078125 64.0625 55.078125 55.328125 
Q 55.078125 49.078125 51.53125 44.71875 
Q 48 40.375 41.703125 38.8125 
Q 48.828125 37.15625 52.796875 32.3125 
Q 56.78125 27.484375 56.78125 20.515625 
Q 56.78125 9.90625 50.3125 4.234375 
Q 43.84375 -1.421875 31.78125 -1.421875 
Q 19.734375 -1.421875 13.25 4.234375 
Q 6.78125 9.90625 6.78125 20.515625 
Q 6.78125 27.484375 10.78125 32.3125 
Q 14.796875 37.15625 21.921875 38.8125 
z
M 18.3125 54.390625 
Q 18.3125 48.734375 21.84375 45.5625 
Q 25.390625 42.390625 31.78125 42.390625 
Q 38.140625 42.390625 41.71875 45.5625 
Q 45.3125 48.734375 45.3125 54.390625 
Q 45.3125 60.0625 41.71875 63.234375 
Q 38.140625 66.40625 31.78125 66.40625 
Q 25.390625 66.40625 21.84375 63.234375 
Q 18.3125 60.0625 18.3125 54.390625 
z
" id="DejaVuSans-38"/>
      </defs>
      <g transform="translate(355.328438 317.598437)scale(0.1 -0.1)">
       <use xlink:href="#DejaVuSans-30"/>
       <use x="63.623047" xlink:href="#DejaVuSans-2e"/>
       <use x="95.410156" xlink:href="#DejaVuSans-38"/>
      </g>
     </g>
    </g>
    <g id="xtick_6">
     <g id="line2d_6">
      <g>
       <use style="stroke:#000000;stroke-width:0.8;" x="442.05" xlink:href="#m54e9642a4f" y="303"/>
      </g>
     </g>
     <g id="text_6">
      <!-- 1.0 -->
      <defs>
       <path d="M 12.40625 8.296875 
L 28.515625 8.296875 
L 28.515625 63.921875 
L 10.984375 60.40625 
L 10.984375 69.390625 
L 28.421875 72.90625 
L 38.28125 72.90625 
L 38.28125 8.296875 
L 54.390625 8.296875 
L 54.390625 0 
L 12.40625 0 
z
" id="DejaVuSans-31"/>
      </defs>
      <g transform="translate(434.098438 317.598437)scale(0.1 -0.1)">
       <use xlink:href="#DejaVuSans-31"/>
       <use x="63.623047" xlink:href="#DejaVuSans-2e"/>
       <use x="95.410156" xlink:href="#DejaVuSans-30"/>
      </g>
     </g>
    </g>
    <g id="text_7">
     <!-- False positive rate -->
     <defs>
      <path d="M 9.8125 72.90625 
L 51.703125 72.90625 
L 51.703125 64.59375 
L 19.671875 64.59375 
L 19.671875 43.109375 
L 48.578125 43.109375 
L 48.578125 34.8125 
L 19.671875 34.8125 
L 19.671875 0 
L 9.8125 0 
z
" id="DejaVuSans-46"/>
      <path d="M 34.28125 27.484375 
Q 23.390625 27.484375 19.1875 25 
Q 14.984375 22.515625 14.984375 16.5 
Q 14.984375 11.71875 18.140625 8.90625 
Q 21.296875 6.109375 26.703125 6.109375 
Q 34.1875 6.109375 38.703125 11.40625 
Q 43.21875 16.703125 43.21875 25.484375 
L 43.21875 27.484375 
z
M 52.203125 31.203125 
L 52.203125 0 
L 43.21875 0 
L 43.21875 8.296875 
Q 40.140625 3.328125 35.546875 0.953125 
Q 30.953125 -1.421875 24.3125 -1.421875 
Q 15.921875 -1.421875 10.953125 3.296875 
Q 6 8.015625 6 15.921875 
Q 6 25.140625 12.171875 29.828125 
Q 18.359375 34.515625 30.609375 34.515625 
L 43.21875 34.515625 
L 43.21875 35.40625 
Q 43.21875 41.609375 39.140625 45 
Q 35.0625 48.390625 27.6875 48.390625 
Q 23 48.390625 18.546875 47.265625 
Q 14.109375 46.140625 10.015625 43.890625 
L 10.015625 52.203125 
Q 14.9375 54.109375 19.578125 55.046875 
Q 24.21875 56 28.609375 56 
Q 40.484375 56 46.34375 49.84375 
Q 52.203125 43.703125 52.203125 31.203125 
z
" id="DejaVuSans-61"/>
      <path d="M 9.421875 75.984375 
L 18.40625 75.984375 
L 18.40625 0 
L 9.421875 0 
z
" id="DejaVuSans-6c"/>
      <path d="M 44.28125 53.078125 
L 44.28125 44.578125 
Q 40.484375 46.53125 36.375 47.5 
Q 32.28125 48.484375 27.875 48.484375 
Q 21.1875 48.484375 17.84375 46.4375 
Q 14.5 44.390625 14.5 40.28125 
Q 14.5 37.15625 16.890625 35.375 
Q 19.28125 33.59375 26.515625 31.984375 
L 29.59375 31.296875 
Q 39.15625 29.25 43.1875 25.515625 
Q 47.21875 21.78125 47.21875 15.09375 
Q 47.21875 7.46875 41.1875 3.015625 
Q 35.15625 -1.421875 24.609375 -1.421875 
Q 20.21875 -1.421875 15.453125 -0.5625 
Q 10.6875 0.296875 5.421875 2 
L 5.421875 11.28125 
Q 10.40625 8.6875 15.234375 7.390625 
Q 20.0625 6.109375 24.8125 6.109375 
Q 31.15625 6.109375 34.5625 8.28125 
Q 37.984375 10.453125 37.984375 14.40625 
Q 37.984375 18.0625 35.515625 20.015625 
Q 33.0625 21.96875 24.703125 23.78125 
L 21.578125 24.515625 
Q 13.234375 26.265625 9.515625 29.90625 
Q 5.8125 33.546875 5.8125 39.890625 
Q 5.8125 47.609375 11.28125 51.796875 
Q 16.75 56 26.8125 56 
Q 31.78125 56 36.171875 55.265625 
Q 40.578125 54.546875 44.28125 53.078125 
z
" id="DejaVuSans-73"/>
      <path d="M 56.203125 29.59375 
L 56.203125 25.203125 
L 14.890625 25.203125 
Q 15.484375 15.921875 20.484375 11.0625 
Q 25.484375 6.203125 34.421875 6.203125 
Q 39.59375 6.203125 44.453125 7.46875 
Q 49.3125 8.734375 54.109375 11.28125 
L 54.109375 2.78125 
Q 49.265625 0.734375 44.1875 -0.34375 
Q 39.109375 -1.421875 33.890625 -1.421875 
Q 20.796875 -1.421875 13.15625 6.1875 
Q 5.515625 13.8125 5.515625 26.8125 
Q 5.515625 40.234375 12.765625 48.109375 
Q 20.015625 56 32.328125 56 
Q 43.359375 56 49.78125 48.890625 
Q 56.203125 41.796875 56.203125 29.59375 
z
M 47.21875 32.234375 
Q 47.125 39.59375 43.09375 43.984375 
Q 39.0625 48.390625 32.421875 48.390625 
Q 24.90625 48.390625 20.390625 44.140625 
Q 15.875 39.890625 15.1875 32.171875 
z
" id="DejaVuSans-65"/>
      <path id="DejaVuSans-20"/>
      <path d="M 18.109375 8.203125 
L 18.109375 -20.796875 
L 9.078125 -20.796875 
L 9.078125 54.6875 
L 18.109375 54.6875 
L 18.109375 46.390625 
Q 20.953125 51.265625 25.265625 53.625 
Q 29.59375 56 35.59375 56 
Q 45.5625 56 51.78125 48.09375 
Q 58.015625 40.1875 58.015625 27.296875 
Q 58.015625 14.40625 51.78125 6.484375 
Q 45.5625 -1.421875 35.59375 -1.421875 
Q 29.59375 -1.421875 25.265625 0.953125 
Q 20.953125 3.328125 18.109375 8.203125 
z
M 48.6875 27.296875 
Q 48.6875 37.203125 44.609375 42.84375 
Q 40.53125 48.484375 33.40625 48.484375 
Q 26.265625 48.484375 22.1875 42.84375 
Q 18.109375 37.203125 18.109375 27.296875 
Q 18.109375 17.390625 22.1875 11.75 
Q 26.265625 6.109375 33.40625 6.109375 
Q 40.53125 6.109375 44.609375 11.75 
Q 48.6875 17.390625 48.6875 27.296875 
z
" id="DejaVuSans-70"/>
      <path d="M 30.609375 48.390625 
Q 23.390625 48.390625 19.1875 42.75 
Q 14.984375 37.109375 14.984375 27.296875 
Q 14.984375 17.484375 19.15625 11.84375 
Q 23.34375 6.203125 30.609375 6.203125 
Q 37.796875 6.203125 41.984375 11.859375 
Q 46.1875 17.53125 46.1875 27.296875 
Q 46.1875 37.015625 41.984375 42.703125 
Q 37.796875 48.390625 30.609375 48.390625 
z
M 30.609375 56 
Q 42.328125 56 49.015625 48.375 
Q 55.71875 40.765625 55.71875 27.296875 
Q 55.71875 13.875 49.015625 6.21875 
Q 42.328125 -1.421875 30.609375 -1.421875 
Q 18.84375 -1.421875 12.171875 6.21875 
Q 5.515625 13.875 5.515625 27.296875 
Q 5.515625 40.765625 12.171875 48.375 
Q 18.84375 56 30.609375 56 
z
" id="DejaVuSans-6f"/>
      <path d="M 9.421875 54.6875 
L 18.40625 54.6875 
L 18.40625 0 
L 9.421875 0 
z
M 9.421875 75.984375 
L 18.40625 75.984375 
L 18.40625 64.59375 
L 9.421875 64.59375 
z
" id="DejaVuSans-69"/>
      <path d="M 18.3125 70.21875 
L 18.3125 54.6875 
L 36.8125 54.6875 
L 36.8125 47.703125 
L 18.3125 47.703125 
L 18.3125 18.015625 
Q 18.3125 11.328125 20.140625 9.421875 
Q 21.96875 7.515625 27.59375 7.515625 
L 36.8125 7.515625 
L 36.8125 0 
L 27.59375 0 
Q 17.1875 0 13.234375 3.875 
Q 9.28125 7.765625 9.28125 18.015625 
L 9.28125 47.703125 
L 2.6875 47.703125 
L 2.6875 54.6875 
L 9.28125 54.6875 
L 9.28125 70.21875 
z
" id="DejaVuSans-74"/>
      <path d="M 2.984375 54.6875 
L 12.5 54.6875 
L 29.59375 8.796875 
L 46.6875 54.6875 
L 56.203125 54.6875 
L 35.6875 0 
L 23.484375 0 
z
" id="DejaVuSans-76"/>
      <path d="M 41.109375 46.296875 
Q 39.59375 47.171875 37.8125 47.578125 
Q 36.03125 48 33.890625 48 
Q 26.265625 48 22.1875 43.046875 
Q 18.109375 38.09375 18.109375 28.8125 
L 18.109375 0 
L 9.078125 0 
L 9.078125 54.6875 
L 18.109375 54.6875 
L 18.109375 46.1875 
Q 20.953125 51.171875 25.484375 53.578125 
Q 30.03125 56 36.53125 56 
Q 37.453125 56 38.578125 55.875 
Q 39.703125 55.765625 41.0625 55.515625 
z
" id="DejaVuSans-72"/>
     </defs>
     <g transform="translate(199.175 331.276563)scale(0.1 -0.1)">
      <use xlink:href="#DejaVuSans-46"/>
      <use x="57.378906" xlink:href="#DejaVuSans-61"/>
      <use x="118.658203" xlink:href="#DejaVuSans-6c"/>
      <use x="146.441406" xlink:href="#DejaVuSans-73"/>
      <use x="198.541016" xlink:href="#DejaVuSans-65"/>
      <use x="260.064453" xlink:href="#DejaVuSans-20"/>
      <use x="291.851562" xlink:href="#DejaVuSans-70"/>
      <use x="355.328125" xlink:href="#DejaVuSans-6f"/>
      <use x="416.509766" xlink:href="#DejaVuSans-73"/>
      <use x="468.609375" xlink:href="#DejaVuSans-69"/>
      <use x="496.392578" xlink:href="#DejaVuSans-74"/>
      <use x="535.601562" xlink:href="#DejaVuSans-69"/>
      <use x="563.384766" xlink:href="#DejaVuSans-76"/>
      <use x="622.564453" xlink:href="#DejaVuSans-65"/>
      <use x="684.087891" xlink:href="#DejaVuSans-20"/>
      <use x="715.875" xlink:href="#DejaVuSans-72"/>
      <use x="756.988281" xlink:href="#DejaVuSans-61"/>
      <use x="818.267578" xlink:href="#DejaVuSans-74"/>
      <use x="857.476562" xlink:href="#DejaVuSans-65"/>
     </g>
    </g>
   </g>
   <g id="matplotlib.axis_2">
    <g id="ytick_1">
     <g id="line2d_7">
      <defs>
       <path d="M 0 0 
L -3.5 0 
" id="mf86a17f899" style="stroke:#000000;stroke-width:0.8;"/>
      </defs>
      <g>
       <use style="stroke:#000000;stroke-width:0.8;" x="48.2" xlink:href="#mf86a17f899" y="303"/>
      </g>
     </g>
     <g id="text_8">
      <!-- 0.0 -->
      <g transform="translate(25.296875 306.799219)scale(0.1 -0.1)">
       <use xlink:href="#DejaVuSans-30"/>
       <use x="63.623047" xlink:href="#DejaVuSans-2e"/>
       <use x="95.410156" xlink:href="#DejaVuSans-30"/>
      </g>
     </g>
    </g>
    <g id="ytick_2">
     <g id="line2d_8">
      <g>
       <use style="stroke:#000000;stroke-width:0.8;" x="48.2" xlink:href="#mf86a17f899" y="245.693069"/>
      </g>
     </g>
     <g id="text_9">
      <!-- 0.2 -->
      <g transform="translate(25.296875 249.492288)scale(0.1 -0.1)">
       <use xlink:href="#DejaVuSans-30"/>
       <use x="63.623047" xlink:href="#DejaVuSans-2e"/>
       <use x="95.410156" xlink:href="#DejaVuSans-32"/>
      </g>
     </g>
    </g>
    <g id="ytick_3">
     <g id="line2d_9">
      <g>
       <use style="stroke:#000000;stroke-width:0.8;" x="48.2" xlink:href="#mf86a17f899" y="188.386139"/>
      </g>
     </g>
     <g id="text_10">
      <!-- 0.4 -->
      <g transform="translate(25.296875 192.185357)scale(0.1 -0.1)">
       <use xlink:href="#DejaVuSans-30"/>
       <use x="63.623047" xlink:href="#DejaVuSans-2e"/>
       <use x="95.410156" xlink:href="#DejaVuSans-34"/>
      </g>
     </g>
    </g>
    <g id="ytick_4">
     <g id="line2d_10">
      <g>
       <use style="stroke:#000000;stroke-width:0.8;" x="48.2" xlink:href="#mf86a17f899" y="131.079208"/>
      </g>
     </g>
     <g id="text_11">
      <!-- 0.6 -->
      <g transform="translate(25.296875 134.878427)scale(0.1 -0.1)">
       <use xlink:href="#DejaVuSans-30"/>
       <use x="63.623047" xlink:href="#DejaVuSans-2e"/>
       <use x="95.410156" xlink:href="#DejaVuSans-36"/>
      </g>
     </g>
    </g>
    <g id="ytick_5">
     <g id="line2d_11">
      <g>
       <use style="stroke:#000000;stroke-width:0.8;" x="48.2" xlink:href="#mf86a17f899" y="73.772277"/>
      </g>
     </g>
     <g id="text_12">
      <!-- 0.8 -->
      <g transform="translate(25.296875 77.571496)scale(0.1 -0.1)">
       <use xlink:href="#DejaVuSans-30"/>
       <use x="63.623047" xlink:href="#DejaVuSans-2e"/>
       <use x="95.410156" xlink:href="#DejaVuSans-38"/>
      </g>
     </g>
    </g>
    <g id="ytick_6">
     <g id="line2d_12">
      <g>
       <use style="stroke:#000000;stroke-width:0.8;" x="48.2" xlink:href="#mf86a17f899" y="16.465347"/>
      </g>
     </g>
     <g id="text_13">
      <!-- 1.0 -->
      <g transform="translate(25.296875 20.264565)scale(0.1 -0.1)">
       <use xlink:href="#DejaVuSans-31"/>
       <use x="63.623047" xlink:href="#DejaVuSans-2e"/>
       <use x="95.410156" xlink:href="#DejaVuSans-30"/>
      </g>
     </g>
    </g>
    <g id="text_14">
     <!-- True positive rate -->
     <defs>
      <path d="M -0.296875 72.90625 
L 61.375 72.90625 
L 61.375 64.59375 
L 35.5 64.59375 
L 35.5 0 
L 25.59375 0 
L 25.59375 64.59375 
L -0.296875 64.59375 
z
" id="DejaVuSans-54"/>
      <path d="M 8.5 21.578125 
L 8.5 54.6875 
L 17.484375 54.6875 
L 17.484375 21.921875 
Q 17.484375 14.15625 20.5 10.265625 
Q 23.53125 6.390625 29.59375 6.390625 
Q 36.859375 6.390625 41.078125 11.03125 
Q 45.3125 15.671875 45.3125 23.6875 
L 45.3125 54.6875 
L 54.296875 54.6875 
L 54.296875 0 
L 45.3125 0 
L 45.3125 8.40625 
Q 42.046875 3.421875 37.71875 1 
Q 33.40625 -1.421875 27.6875 -1.421875 
Q 18.265625 -1.421875 13.375 4.4375 
Q 8.5 10.296875 8.5 21.578125 
z
M 31.109375 56 
z
" id="DejaVuSans-75"/>
     </defs>
     <g transform="translate(19.217187 202.590625)rotate(-90)scale(0.1 -0.1)">
      <use xlink:href="#DejaVuSans-54"/>
      <use x="60.865234" xlink:href="#DejaVuSans-72"/>
      <use x="101.978516" xlink:href="#DejaVuSans-75"/>
      <use x="165.357422" xlink:href="#DejaVuSans-65"/>
      <use x="226.880859" xlink:href="#DejaVuSans-20"/>
      <use x="258.667969" xlink:href="#DejaVuSans-70"/>
      <use x="322.144531" xlink:href="#DejaVuSans-6f"/>
      <use x="383.326172" xlink:href="#DejaVuSans-73"/>
      <use x="435.425781" xlink:href="#DejaVuSans-69"/>
      <use x="463.208984" xlink:href="#DejaVuSans-74"/>
      <use x="502.417969" xlink:href="#DejaVuSans-69"/>
      <use x="530.201172" xlink:href="#DejaVuSans-76"/>
      <use x="589.380859" xlink:href="#DejaVuSans-65"/>
      <use x="650.904297" xlink:href="#DejaVuSans-20"/>
      <use x="682.691406" xlink:href="#DejaVuSans-72"/>
      <use x="723.804688" xlink:href="#DejaVuSans-61"/>
      <use x="785.083984" xlink:href="#DejaVuSans-74"/>
      <use x="824.292969" xlink:href="#DejaVuSans-65"/>
     </g>
    </g>
   </g>
   <g id="line2d_13">
    <path clip-path="url(#p1dd4128176)" d="M 48.2 303 
L 52.178283 300.105711 
L 56.156566 297.211421 
L 60.134848 294.317132 
L 64.113131 291.422842 
L 68.091414 288.528553 
L 72.069697 285.634263 
L 76.04798 282.739974 
L 80.026263 279.845685 
L 84.004545 276.951395 
L 87.982828 274.057106 
L 91.961111 271.162816 
L 95.939394 268.268527 
L 99.917677 265.374237 
L 103.89596 262.479948 
L 107.874242 259.585659 
L 111.852525 256.691369 
L 115.830808 253.79708 
L 119.809091 250.90279 
L 123.787374 248.008501 
L 127.765657 245.114211 
L 131.743939 242.219922 
L 135.722222 239.325633 
L 139.700505 236.431343 
L 143.678788 233.537054 
L 147.657071 230.642764 
L 151.635354 227.748475 
L 155.613636 224.854185 
L 159.591919 221.959896 
L 163.570202 219.065607 
L 167.548485 216.171317 
L 171.526768 213.277028 
L 175.505051 210.382738 
L 179.483333 207.488449 
L 183.461616 204.594159 
L 187.439899 201.69987 
L 191.418182 198.805581 
L 195.396465 195.911291 
L 199.374747 193.017002 
L 203.35303 190.122712 
L 207.331313 187.228423 
L 211.309596 184.334133 
L 215.287879 181.439844 
L 219.266162 178.545555 
L 223.244444 175.651265 
L 227.222727 172.756976 
L 231.20101 169.862686 
L 235.179293 166.968397 
L 239.157576 164.074107 
L 243.135859 161.179818 
L 247.114141 158.285529 
L 251.092424 155.391239 
L 255.070707 152.49695 
L 259.04899 149.60266 
L 263.027273 146.708371 
L 267.005556 143.814081 
L 270.983838 140.919792 
L 274.962121 138.025503 
L 278.940404 135.131213 
L 282.918687 132.236924 
L 286.89697 129.342634 
L 290.875253 126.448345 
L 294.853535 123.554055 
L 298.831818 120.659766 
L 302.810101 117.765477 
L 306.788384 114.871187 
L 310.766667 111.976898 
L 314.744949 109.082608 
L 318.723232 106.188319 
L 322.701515 103.294029 
L 326.679798 100.39974 
L 330.658081 97.505451 
L 334.636364 94.611161 
L 338.614646 91.716872 
L 342.592929 88.822582 
L 346.571212 85.928293 
L 350.549495 83.034003 
L 354.527778 80.139714 
L 358.506061 77.245425 
L 362.484343 74.351135 
L 366.462626 71.456846 
L 370.440909 68.562556 
L 374.419192 65.668267 
L 378.397475 62.773977 
L 382.375758 59.879688 
L 386.35404 56.985399 
L 390.332323 54.091109 
L 394.310606 51.19682 
L 398.288889 48.30253 
L 402.267172 45.408241 
L 406.245455 42.513951 
L 410.223737 39.619662 
L 414.20202 36.725373 
L 418.180303 33.831083 
L 422.158586 30.936794 
L 426.136869 28.042504 
L 430.115152 25.148215 
L 434.093434 22.253925 
L 438.071717 19.359636 
L 442.05 16.465347 
" style="fill:none;stroke:#cccccc;stroke-dasharray:5.55,2.4;stroke-dashoffset:0;stroke-width:1.5;"/>
   </g>
   <g id="line2d_14">
    <path clip-path="url(#p1dd4128176)" d="M 48.2 303 
L 52.1385 262.252386 
L 56.077 192.47246 
L 60.0155 160.193893 
L 63.954 142.926919 
L 67.8925 129.357154 
L 71.831 121.325259 
L 75.7695 91.254657 
L 79.708 84.355246 
L 83.6465 84.159292 
L 87.585 82.721827 
L 91.5235 82.721827 
L 95.462 82.721827 
L 99.4005 82.721827 
L 103.339 81.44408 
L 107.2775 79.52746 
L 111.216 79.52746 
L 115.1545 79.52746 
L 119.093 67.554798 
L 123.0315 54.731192 
L 126.97 54.731192 
L 130.9085 54.572645 
L 134.847 54.571474 
L 138.7855 53.293728 
L 142.724 51.696544 
L 146.6625 51.437002 
L 150.601 50.897953 
L 154.5395 41.155136 
L 158.478 23.74584 
L 162.4165 22.148657 
L 166.355 22.148657 
L 170.2935 22.148657 
L 174.232 22.148657 
L 178.1705 22.148657 
L 182.109 22.148657 
L 186.0475 22.148657 
L 189.986 21.988938 
L 193.9245 21.988938 
L 197.863 21.988938 
L 201.8015 21.988938 
L 205.74 21.988938 
L 209.6785 21.82922 
L 213.617 20.990699 
L 217.5555 20.990699 
L 221.494 20.990699 
L 225.4325 20.990699 
L 229.371 20.990699 
L 233.3095 20.990699 
L 237.248 20.990699 
L 241.1865 20.990699 
L 245.125 20.048945 
L 249.0635 19.513304 
L 253.002 19.513304 
L 256.9405 19.353586 
L 260.879 19.353586 
L 264.8175 19.319475 
L 268.756 19.216593 
L 272.6945 19.173971 
L 276.633 18.893864 
L 280.5715 18.788271 
L 284.51 18.760029 
L 288.4485 18.754642 
L 292.387 18.735065 
L 296.3255 18.632184 
L 300.264 18.594924 
L 304.2025 18.594924 
L 308.141 18.594924 
L 312.0795 18.594924 
L 316.018 18.594924 
L 319.9565 18.541685 
L 323.895 18.541685 
L 327.8335 18.488445 
L 331.772 18.456927 
L 335.7105 18.435206 
L 339.649 18.26281 
L 343.5875 16.997741 
L 347.526 16.997741 
L 351.4645 16.945709 
L 355.403 16.891262 
L 359.3415 16.891262 
L 363.28 16.891262 
L 367.2185 16.891262 
L 371.157 16.891262 
L 375.0955 16.891262 
L 379.034 16.891262 
L 382.9725 16.867544 
L 386.911 16.840571 
L 390.8495 16.838023 
L 394.788 16.834255 
L 398.7265 16.678304 
L 402.665 16.678304 
L 406.6035 16.678304 
L 410.542 16.678304 
L 414.4805 16.559459 
L 418.419 16.490995 
L 422.3575 16.465347 
L 426.296 16.465347 
L 430.2345 16.465347 
L 434.173 16.465347 
L 438.1115 16.465347 
L 442.05 16.465347 
" style="fill:none;stroke:#0000ff;stroke-linecap:square;stroke-width:1.5;"/>
   </g>
   <g id="line2d_15">
    <path clip-path="url(#p1dd4128176)" d="M 48.2 303 
L 52.1385 120.391149 
L 56.077 81.731573 
L 60.0155 71.168869 
L 63.954 66.537038 
L 67.8925 53.759573 
L 71.831 33.794783 
L 75.7695 27.406051 
L 79.708 25.968586 
L 83.6465 25.329713 
L 87.585 24.531121 
L 91.5235 23.958797 
L 95.462 23.958797 
L 99.4005 23.958797 
L 103.339 23.958797 
L 107.2775 23.160206 
L 111.216 22.78753 
L 115.1545 22.73429 
L 119.093 22.73429 
L 123.0315 22.681051 
L 126.97 22.401544 
L 130.9085 22.401544 
L 134.847 22.401544 
L 138.7855 22.401544 
L 142.724 22.401544 
L 146.6625 22.401544 
L 150.601 22.401544 
L 154.5395 22.401544 
L 158.478 22.188586 
L 162.4165 22.188586 
L 166.355 22.188586 
L 170.2935 22.188586 
L 174.232 22.188586 
L 178.1705 22.188586 
L 182.109 22.188586 
L 186.0475 22.188586 
L 189.986 22.188586 
L 193.9245 22.188586 
L 197.863 22.188586 
L 201.8015 22.188586 
L 205.74 21.709431 
L 209.6785 21.709431 
L 213.617 21.709431 
L 217.5555 21.709431 
L 221.494 21.389995 
L 225.4325 21.389995 
L 229.371 21.389995 
L 233.3095 21.177037 
L 237.248 21.177037 
L 241.1865 20.737811 
L 245.125 20.737811 
L 249.0635 20.564783 
L 253.002 20.564783 
L 256.9405 20.564783 
L 260.879 20.564783 
L 264.8175 20.564783 
L 268.756 20.564783 
L 272.6945 20.564783 
L 276.633 20.447109 
L 280.5715 20.245347 
L 284.51 20.192107 
L 288.4485 20.192107 
L 292.387 20.192107 
L 296.3255 20.192107 
L 300.264 20.192107 
L 304.2025 20.138868 
L 308.141 20.138868 
L 312.0795 20.138868 
L 316.018 20.085628 
L 319.9565 20.085628 
L 323.895 20.085628 
L 327.8335 19.646403 
L 331.772 19.420135 
L 335.7105 19.420135 
L 339.649 19.420135 
L 343.5875 18.208938 
L 347.526 18.04922 
L 351.4645 18.04922 
L 355.403 17.942741 
L 359.3415 17.942741 
L 363.28 17.942741 
L 367.2185 17.889501 
L 371.157 17.889501 
L 375.0955 17.889501 
L 379.034 17.836262 
L 382.9725 17.836262 
L 386.911 17.836262 
L 390.8495 17.663234 
L 394.788 17.383727 
L 398.7265 17.06429 
L 402.665 17.06429 
L 406.6035 16.915691 
L 410.542 16.851332 
L 414.4805 16.571825 
L 418.419 16.571825 
L 422.3575 16.518586 
L 426.296 16.518586 
L 430.2345 16.518586 
L 434.173 16.518586 
L 438.1115 16.465347 
L 442.05 16.465347 
" style="fill:none;stroke:#0000ff;stroke-dasharray:5.55,2.4;stroke-dashoffset:0;stroke-width:1.5;"/>
   </g>
   <g id="line2d_16">
    <path clip-path="url(#p1dd4128176)" d="M 48.2 303 
L 52.1385 189.88916 
L 56.077 151.131646 
L 60.0155 134.585362 
L 63.954 128.437289 
L 67.8925 127.71489 
L 71.831 125.392891 
L 75.7695 111.866326 
L 79.708 111.667298 
L 83.6465 110.871184 
L 87.585 110.207756 
L 91.5235 107.4877 
L 95.462 102.843702 
L 99.4005 99.659247 
L 103.339 83.338912 
L 107.2775 75.792416 
L 111.216 70.534747 
L 115.1545 70.534747 
L 119.093 70.215638 
L 123.0315 68.179577 
L 126.97 54.247584 
L 130.9085 51.915368 
L 134.847 50.532386 
L 138.7855 48.807473 
L 142.724 48.210387 
L 146.6625 48.011359 
L 150.601 48.011359 
L 154.5395 47.745988 
L 158.478 47.745988 
L 162.4165 47.148902 
L 166.355 46.551817 
L 170.2935 46.551817 
L 174.232 46.539747 
L 178.1705 45.158618 
L 182.109 44.561532 
L 186.0475 44.561532 
L 189.986 44.495189 
L 193.9245 44.296161 
L 197.863 44.296161 
L 201.8015 43.10199 
L 205.74 42.703933 
L 209.6785 42.703933 
L 213.617 42.387715 
L 217.5555 41.907819 
L 221.494 41.169708 
L 225.4325 40.713648 
L 229.371 40.116563 
L 233.3095 39.320449 
L 237.248 37.827736 
L 241.1865 37.34058 
L 245.125 36.338672 
L 249.0635 35.627419 
L 253.002 35.008166 
L 256.9405 35.008166 
L 260.879 34.809137 
L 264.8175 34.610109 
L 268.756 34.610109 
L 272.6945 33.813995 
L 276.633 33.216909 
L 280.5715 31.483761 
L 284.51 30.928082 
L 288.4485 30.928082 
L 292.387 30.131968 
L 296.3255 28.937797 
L 300.264 28.340712 
L 304.2025 27.743626 
L 308.141 27.743626 
L 312.0795 27.743626 
L 316.018 27.743626 
L 319.9565 27.146541 
L 323.895 26.549456 
L 327.8335 25.95237 
L 331.772 25.95237 
L 335.7105 25.95237 
L 339.649 25.923002 
L 343.5875 25.686999 
L 347.526 25.48797 
L 351.4645 24.824542 
L 355.403 23.031296 
L 359.3415 22.834258 
L 363.28 22.038144 
L 367.2185 21.839115 
L 371.157 21.839115 
L 375.0955 21.839115 
L 379.034 21.839115 
L 382.9725 21.640087 
L 386.911 21.441058 
L 390.8495 21.441058 
L 394.788 21.439493 
L 398.7265 21.374715 
L 402.665 21.336719 
L 406.6035 21.175687 
L 410.542 21.175687 
L 414.4805 21.126322 
L 418.419 21.109344 
L 422.3575 21.109344 
L 426.296 20.512259 
L 430.2345 19.371688 
L 434.173 19.119059 
L 438.1115 17.137731 
L 442.05 16.465347 
" style="fill:none;stroke:#008000;stroke-linecap:square;stroke-width:1.5;"/>
   </g>
   <g id="line2d_17">
    <path clip-path="url(#p1dd4128176)" d="M 48.2 303 
L 52.1385 94.085301 
L 56.077 83.405255 
L 60.0155 75.77583 
L 63.954 68.47812 
L 67.8925 61.512123 
L 71.831 55.939326 
L 75.7695 53.152928 
L 79.708 51.295329 
L 83.6465 50.366529 
L 87.585 50.366529 
L 91.5235 50.067986 
L 95.462 50.067986 
L 99.4005 50.067986 
L 103.339 50.001644 
L 107.2775 49.006501 
L 111.216 48.674787 
L 115.1545 47.712816 
L 119.093 46.584988 
L 123.0315 44.992761 
L 126.97 44.528361 
L 130.9085 44.063961 
L 134.847 43.467539 
L 138.7855 43.201504 
L 142.724 42.604419 
L 146.6625 42.40539 
L 150.601 41.940991 
L 154.5395 41.874648 
L 158.478 41.542934 
L 162.4165 41.542934 
L 166.355 41.542934 
L 170.2935 41.542934 
L 174.232 41.542934 
L 178.1705 41.542934 
L 182.109 41.542934 
L 186.0475 41.542934 
L 189.986 41.542934 
L 193.9245 41.542934 
L 197.863 41.542934 
L 201.8015 41.542934 
L 205.74 41.476591 
L 209.6785 41.277562 
L 213.617 41.277562 
L 217.5555 41.277562 
L 221.494 41.21122 
L 225.4325 41.21122 
L 229.371 40.348763 
L 233.3095 40.348763 
L 237.248 39.353621 
L 241.1865 39.287278 
L 245.125 39.287278 
L 249.0635 39.287278 
L 253.002 39.220935 
L 256.9405 39.220935 
L 260.879 38.955564 
L 264.8175 38.955564 
L 268.756 38.690192 
L 272.6945 38.491164 
L 276.633 38.424821 
L 280.5715 38.225793 
L 284.51 37.761393 
L 288.4485 37.562364 
L 292.387 37.429679 
L 296.3255 36.898936 
L 300.264 36.699908 
L 304.2025 36.504579 
L 308.141 35.837451 
L 312.0795 35.373051 
L 316.018 34.974994 
L 319.9565 34.806828 
L 323.895 34.046195 
L 327.8335 33.714481 
L 331.772 33.515452 
L 335.7105 33.515452 
L 339.649 33.515452 
L 343.5875 32.619824 
L 347.526 32.553481 
L 351.4645 31.888037 
L 355.403 31.425653 
L 359.3415 30.894911 
L 363.28 30.64587 
L 367.2185 30.297825 
L 371.157 28.572912 
L 375.0955 27.246055 
L 379.034 26.301027 
L 382.9725 25.521142 
L 386.911 25.322113 
L 390.8495 24.025979 
L 394.788 22.991133 
L 398.7265 22.204001 
L 402.665 21.385943 
L 406.6035 20.399935 
L 410.542 18.706458 
L 414.4805 17.858546 
L 418.419 17.055389 
L 422.3575 16.863403 
L 426.296 16.465347 
L 430.2345 16.465347 
L 434.173 16.465347 
L 438.1115 16.465347 
L 442.05 16.465347 
" style="fill:none;stroke:#008000;stroke-dasharray:5.55,2.4;stroke-dashoffset:0;stroke-width:1.5;"/>
   </g>
   <g id="line2d_18">
    <path clip-path="url(#p1dd4128176)" d="M 48.2 303 
L 52.1385 150.841042 
L 56.077 121.061107 
L 60.0155 97.411386 
L 63.954 92.874587 
L 67.8925 92.874587 
L 71.831 92.874587 
L 75.7695 85.711221 
L 79.708 85.711221 
L 83.6465 83.323432 
L 87.585 83.323432 
L 91.5235 80.935644 
L 95.462 78.547855 
L 99.4005 76.160066 
L 103.339 76.160066 
L 107.2775 76.160066 
L 111.216 76.160066 
L 115.1545 74.966172 
L 119.093 74.966172 
L 123.0315 70.190594 
L 126.97 67.40484 
L 130.9085 65.017052 
L 134.847 65.017052 
L 138.7855 65.017052 
L 142.724 65.017052 
L 146.6625 65.017052 
L 150.601 64.839294 
L 154.5395 64.619087 
L 158.478 64.619087 
L 162.4165 63.425193 
L 166.355 63.425193 
L 170.2935 63.425193 
L 174.232 62.231298 
L 178.1705 61.037404 
L 182.109 60.639439 
L 186.0475 55.863861 
L 189.986 55.465897 
L 193.9245 51.884213 
L 197.863 47.108636 
L 201.8015 45.914741 
L 205.74 44.720847 
L 209.6785 44.720847 
L 213.617 44.720847 
L 217.5555 44.720847 
L 221.494 43.526953 
L 225.4325 42.333058 
L 229.371 42.333058 
L 233.3095 41.139164 
L 237.248 39.94527 
L 241.1865 39.94527 
L 245.125 35.169692 
L 249.0635 35.169692 
L 253.002 35.169692 
L 256.9405 35.169692 
L 260.879 35.169692 
L 264.8175 35.169692 
L 268.756 35.169692 
L 272.6945 35.169692 
L 276.633 35.169692 
L 280.5715 35.169692 
L 284.51 35.169692 
L 288.4485 35.169692 
L 292.387 35.169692 
L 296.3255 35.169692 
L 300.264 35.169692 
L 304.2025 33.975798 
L 308.141 33.577833 
L 312.0795 33.179868 
L 316.018 33.179868 
L 319.9565 33.179868 
L 323.895 33.179868 
L 327.8335 33.179868 
L 331.772 32.994814 
L 335.7105 31.985974 
L 339.649 31.985974 
L 343.5875 30.792079 
L 347.526 30.792079 
L 351.4645 30.792079 
L 355.403 30.792079 
L 359.3415 30.792079 
L 363.28 30.792079 
L 367.2185 30.792079 
L 371.157 30.792079 
L 375.0955 30.792079 
L 379.034 30.792079 
L 382.9725 30.792079 
L 386.911 30.792079 
L 390.8495 30.792079 
L 394.788 30.792079 
L 398.7265 30.792079 
L 402.665 30.792079 
L 406.6035 30.792079 
L 410.542 30.792079 
L 414.4805 30.792079 
L 418.419 30.792079 
L 422.3575 30.792079 
L 426.296 30.792079 
L 430.2345 30.394114 
L 434.173 30.394114 
L 438.1115 17.659241 
L 442.05 16.465347 
" style="fill:none;stroke:#bfbf00;stroke-linecap:square;stroke-width:1.5;"/>
   </g>
   <g id="line2d_19">
    <path clip-path="url(#p1dd4128176)" d="M 48.2 303 
L 52.1385 114.390401 
L 56.077 79.934609 
L 60.0155 76.160066 
L 63.954 67.006876 
L 67.8925 59.04758 
L 71.831 51.088284 
L 75.7695 51.088284 
L 79.708 51.088284 
L 83.6465 51.088284 
L 87.585 51.088284 
L 91.5235 51.088284 
L 95.462 51.088284 
L 99.4005 51.088284 
L 103.339 51.088284 
L 107.2775 51.088284 
L 111.216 51.088284 
L 115.1545 51.088284 
L 119.093 51.088284 
L 123.0315 50.690319 
L 126.97 50.690319 
L 130.9085 50.690319 
L 134.847 50.292354 
L 138.7855 48.700495 
L 142.724 46.710671 
L 146.6625 45.516777 
L 150.601 44.720847 
L 154.5395 44.720847 
L 158.478 44.720847 
L 162.4165 44.720847 
L 166.355 44.322882 
L 170.2935 43.128988 
L 174.232 40.741199 
L 178.1705 36.761551 
L 182.109 36.363586 
L 186.0475 36.363586 
L 189.986 36.363586 
L 193.9245 36.363586 
L 197.863 36.363586 
L 201.8015 36.363586 
L 205.74 36.363586 
L 209.6785 36.363586 
L 213.617 36.363586 
L 217.5555 36.363586 
L 221.494 36.363586 
L 225.4325 36.363586 
L 229.371 36.363586 
L 233.3095 36.363586 
L 237.248 36.363586 
L 241.1865 36.363586 
L 245.125 36.363586 
L 249.0635 36.363586 
L 253.002 36.363586 
L 256.9405 36.363586 
L 260.879 36.363586 
L 264.8175 35.965622 
L 268.756 35.965622 
L 272.6945 35.965622 
L 276.633 35.965622 
L 280.5715 35.965622 
L 284.51 35.965622 
L 288.4485 35.965622 
L 292.387 35.965622 
L 296.3255 35.965622 
L 300.264 35.567657 
L 304.2025 35.169692 
L 308.141 35.169692 
L 312.0795 35.169692 
L 316.018 34.103146 
L 319.9565 33.179868 
L 323.895 33.179868 
L 327.8335 32.781903 
L 331.772 32.781903 
L 335.7105 32.781903 
L 339.649 32.781903 
L 343.5875 32.781903 
L 347.526 32.781903 
L 351.4645 32.781903 
L 355.403 32.781903 
L 359.3415 32.781903 
L 363.28 32.781903 
L 367.2185 32.781903 
L 371.157 32.781903 
L 375.0955 31.985974 
L 379.034 31.985974 
L 382.9725 28.802255 
L 386.911 20.444994 
L 390.8495 18.057206 
L 394.788 18.057206 
L 398.7265 18.057206 
L 402.665 17.914857 
L 406.6035 16.863311 
L 410.542 16.863311 
L 414.4805 16.465347 
L 418.419 16.465347 
L 422.3575 16.465347 
L 426.296 16.465347 
L 430.2345 16.465347 
L 434.173 16.465347 
L 438.1115 16.465347 
L 442.05 16.465347 
" style="fill:none;stroke:#bfbf00;stroke-dasharray:5.55,2.4;stroke-dashoffset:0;stroke-width:1.5;"/>
   </g>
   <g id="patch_3">
    <path d="M 48.2 303 
L 48.2 13.6 
" style="fill:none;stroke:#000000;stroke-linecap:square;stroke-linejoin:miter;stroke-width:0.8;"/>
   </g>
   <g id="patch_4">
    <path d="M 442.05 303 
L 442.05 13.6 
" style="fill:none;stroke:#000000;stroke-linecap:square;stroke-linejoin:miter;stroke-width:0.8;"/>
   </g>
   <g id="patch_5">
    <path d="M 48.2 303 
L 442.05 303 
" style="fill:none;stroke:#000000;stroke-linecap:square;stroke-linejoin:miter;stroke-width:0.8;"/>
   </g>
   <g id="patch_6">
    <path d="M 48.2 13.6 
L 442.05 13.6 
" style="fill:none;stroke:#000000;stroke-linecap:square;stroke-linejoin:miter;stroke-width:0.8;"/>
   </g>
   <g id="legend_1">
    <g id="patch_7">
     <path d="M 168.976563 298 
L 435.05 298 
Q 437.05 298 437.05 296 
L 437.05 208.865625 
Q 437.05 206.865625 435.05 206.865625 
L 168.976563 206.865625 
Q 166.976563 206.865625 166.976563 208.865625 
L 166.976563 296 
Q 166.976563 298 168.976563 298 
z
" style="fill:#ffffff;opacity:0.8;stroke:#cccccc;stroke-linejoin:miter;"/>
    </g>
    <g id="line2d_20">
     <path d="M 170.976563 214.965625 
L 190.976563 214.965625 
" style="fill:none;stroke:#0000ff;stroke-linecap:square;stroke-width:1.5;"/>
    </g>
    <g id="line2d_21"/>
    <g id="text_15">
     <!-- $\mu$ 1 seed node(s) mean AUC: 0.92 (std: 0.08) -->
     <defs>
      <path d="M -1.3125 -20.796875 
L 13.375 54.6875 
L 22.40625 54.6875 
L 15.765625 20.65625 
Q 15.578125 19.625 15.421875 18.359375 
Q 15.28125 17.09375 15.28125 15.828125 
Q 15.28125 11.28125 18.140625 8.828125 
Q 21 6.390625 26.3125 6.390625 
Q 33.546875 6.390625 37.984375 10.484375 
Q 42.4375 14.59375 44 22.796875 
L 50.203125 54.6875 
L 59.1875 54.6875 
L 51.03125 12.640625 
Q 50.828125 11.71875 50.75 11.03125 
Q 50.6875 10.359375 50.6875 9.8125 
Q 50.6875 8.296875 51.296875 7.59375 
Q 51.90625 6.890625 53.21875 6.890625 
Q 53.71875 6.890625 54.5625 7.125 
Q 55.421875 7.375 56.984375 8.015625 
L 55.609375 0.78125 
Q 53.46875 -0.296875 51.515625 -0.859375 
Q 49.5625 -1.421875 47.703125 -1.421875 
Q 44.484375 -1.421875 42.65625 0.625 
Q 40.828125 2.6875 40.828125 6.296875 
Q 38.09375 2.390625 34.296875 0.484375 
Q 30.515625 -1.421875 25.390625 -1.421875 
Q 20.84375 -1.421875 17.453125 0.671875 
Q 14.0625 2.78125 12.984375 6.203125 
L 7.71875 -20.796875 
z
" id="DejaVuSans-Oblique-3bc"/>
      <path d="M 45.40625 46.390625 
L 45.40625 75.984375 
L 54.390625 75.984375 
L 54.390625 0 
L 45.40625 0 
L 45.40625 8.203125 
Q 42.578125 3.328125 38.25 0.953125 
Q 33.9375 -1.421875 27.875 -1.421875 
Q 17.96875 -1.421875 11.734375 6.484375 
Q 5.515625 14.40625 5.515625 27.296875 
Q 5.515625 40.1875 11.734375 48.09375 
Q 17.96875 56 27.875 56 
Q 33.9375 56 38.25 53.625 
Q 42.578125 51.265625 45.40625 46.390625 
z
M 14.796875 27.296875 
Q 14.796875 17.390625 18.875 11.75 
Q 22.953125 6.109375 30.078125 6.109375 
Q 37.203125 6.109375 41.296875 11.75 
Q 45.40625 17.390625 45.40625 27.296875 
Q 45.40625 37.203125 41.296875 42.84375 
Q 37.203125 48.484375 30.078125 48.484375 
Q 22.953125 48.484375 18.875 42.84375 
Q 14.796875 37.203125 14.796875 27.296875 
z
" id="DejaVuSans-64"/>
      <path d="M 54.890625 33.015625 
L 54.890625 0 
L 45.90625 0 
L 45.90625 32.71875 
Q 45.90625 40.484375 42.875 44.328125 
Q 39.84375 48.1875 33.796875 48.1875 
Q 26.515625 48.1875 22.3125 43.546875 
Q 18.109375 38.921875 18.109375 30.90625 
L 18.109375 0 
L 9.078125 0 
L 9.078125 54.6875 
L 18.109375 54.6875 
L 18.109375 46.1875 
Q 21.34375 51.125 25.703125 53.5625 
Q 30.078125 56 35.796875 56 
Q 45.21875 56 50.046875 50.171875 
Q 54.890625 44.34375 54.890625 33.015625 
z
" id="DejaVuSans-6e"/>
      <path d="M 31 75.875 
Q 24.46875 64.65625 21.28125 53.65625 
Q 18.109375 42.671875 18.109375 31.390625 
Q 18.109375 20.125 21.3125 9.0625 
Q 24.515625 -2 31 -13.1875 
L 23.1875 -13.1875 
Q 15.875 -1.703125 12.234375 9.375 
Q 8.59375 20.453125 8.59375 31.390625 
Q 8.59375 42.28125 12.203125 53.3125 
Q 15.828125 64.359375 23.1875 75.875 
z
" id="DejaVuSans-28"/>
      <path d="M 8.015625 75.875 
L 15.828125 75.875 
Q 23.140625 64.359375 26.78125 53.3125 
Q 30.421875 42.28125 30.421875 31.390625 
Q 30.421875 20.453125 26.78125 9.375 
Q 23.140625 -1.703125 15.828125 -13.1875 
L 8.015625 -13.1875 
Q 14.5 -2 17.703125 9.0625 
Q 20.90625 20.125 20.90625 31.390625 
Q 20.90625 42.671875 17.703125 53.65625 
Q 14.5 64.65625 8.015625 75.875 
z
" id="DejaVuSans-29"/>
      <path d="M 52 44.1875 
Q 55.375 50.25 60.0625 53.125 
Q 64.75 56 71.09375 56 
Q 79.640625 56 84.28125 50.015625 
Q 88.921875 44.046875 88.921875 33.015625 
L 88.921875 0 
L 79.890625 0 
L 79.890625 32.71875 
Q 79.890625 40.578125 77.09375 44.375 
Q 74.3125 48.1875 68.609375 48.1875 
Q 61.625 48.1875 57.5625 43.546875 
Q 53.515625 38.921875 53.515625 30.90625 
L 53.515625 0 
L 44.484375 0 
L 44.484375 32.71875 
Q 44.484375 40.625 41.703125 44.40625 
Q 38.921875 48.1875 33.109375 48.1875 
Q 26.21875 48.1875 22.15625 43.53125 
Q 18.109375 38.875 18.109375 30.90625 
L 18.109375 0 
L 9.078125 0 
L 9.078125 54.6875 
L 18.109375 54.6875 
L 18.109375 46.1875 
Q 21.1875 51.21875 25.484375 53.609375 
Q 29.78125 56 35.6875 56 
Q 41.65625 56 45.828125 52.96875 
Q 50 49.953125 52 44.1875 
z
" id="DejaVuSans-6d"/>
      <path d="M 34.1875 63.1875 
L 20.796875 26.90625 
L 47.609375 26.90625 
z
M 28.609375 72.90625 
L 39.796875 72.90625 
L 67.578125 0 
L 57.328125 0 
L 50.6875 18.703125 
L 17.828125 18.703125 
L 11.1875 0 
L 0.78125 0 
z
" id="DejaVuSans-41"/>
      <path d="M 8.6875 72.90625 
L 18.609375 72.90625 
L 18.609375 28.609375 
Q 18.609375 16.890625 22.84375 11.734375 
Q 27.09375 6.59375 36.625 6.59375 
Q 46.09375 6.59375 50.34375 11.734375 
Q 54.59375 16.890625 54.59375 28.609375 
L 54.59375 72.90625 
L 64.5 72.90625 
L 64.5 27.390625 
Q 64.5 13.140625 57.4375 5.859375 
Q 50.390625 -1.421875 36.625 -1.421875 
Q 22.796875 -1.421875 15.734375 5.859375 
Q 8.6875 13.140625 8.6875 27.390625 
z
" id="DejaVuSans-55"/>
      <path d="M 64.40625 67.28125 
L 64.40625 56.890625 
Q 59.421875 61.53125 53.78125 63.8125 
Q 48.140625 66.109375 41.796875 66.109375 
Q 29.296875 66.109375 22.65625 58.46875 
Q 16.015625 50.828125 16.015625 36.375 
Q 16.015625 21.96875 22.65625 14.328125 
Q 29.296875 6.6875 41.796875 6.6875 
Q 48.140625 6.6875 53.78125 8.984375 
Q 59.421875 11.28125 64.40625 15.921875 
L 64.40625 5.609375 
Q 59.234375 2.09375 53.4375 0.328125 
Q 47.65625 -1.421875 41.21875 -1.421875 
Q 24.65625 -1.421875 15.125 8.703125 
Q 5.609375 18.84375 5.609375 36.375 
Q 5.609375 53.953125 15.125 64.078125 
Q 24.65625 74.21875 41.21875 74.21875 
Q 47.75 74.21875 53.53125 72.484375 
Q 59.328125 70.75 64.40625 67.28125 
z
" id="DejaVuSans-43"/>
      <path d="M 11.71875 12.40625 
L 22.015625 12.40625 
L 22.015625 0 
L 11.71875 0 
z
M 11.71875 51.703125 
L 22.015625 51.703125 
L 22.015625 39.3125 
L 11.71875 39.3125 
z
" id="DejaVuSans-3a"/>
      <path d="M 10.984375 1.515625 
L 10.984375 10.5 
Q 14.703125 8.734375 18.5 7.8125 
Q 22.3125 6.890625 25.984375 6.890625 
Q 35.75 6.890625 40.890625 13.453125 
Q 46.046875 20.015625 46.78125 33.40625 
Q 43.953125 29.203125 39.59375 26.953125 
Q 35.25 24.703125 29.984375 24.703125 
Q 19.046875 24.703125 12.671875 31.3125 
Q 6.296875 37.9375 6.296875 49.421875 
Q 6.296875 60.640625 12.9375 67.421875 
Q 19.578125 74.21875 30.609375 74.21875 
Q 43.265625 74.21875 49.921875 64.515625 
Q 56.59375 54.828125 56.59375 36.375 
Q 56.59375 19.140625 48.40625 8.859375 
Q 40.234375 -1.421875 26.421875 -1.421875 
Q 22.703125 -1.421875 18.890625 -0.6875 
Q 15.09375 0.046875 10.984375 1.515625 
z
M 30.609375 32.421875 
Q 37.25 32.421875 41.125 36.953125 
Q 45.015625 41.5 45.015625 49.421875 
Q 45.015625 57.28125 41.125 61.84375 
Q 37.25 66.40625 30.609375 66.40625 
Q 23.96875 66.40625 20.09375 61.84375 
Q 16.21875 57.28125 16.21875 49.421875 
Q 16.21875 41.5 20.09375 36.953125 
Q 23.96875 32.421875 30.609375 32.421875 
z
" id="DejaVuSans-39"/>
     </defs>
     <g transform="translate(198.976563 218.465625)scale(0.1 -0.1)">
      <use transform="translate(0 0.015625)" xlink:href="#DejaVuSans-Oblique-3bc"/>
      <use transform="translate(63.623047 0.015625)" xlink:href="#DejaVuSans-20"/>
      <use transform="translate(95.410156 0.015625)" xlink:href="#DejaVuSans-31"/>
      <use transform="translate(159.033203 0.015625)" xlink:href="#DejaVuSans-20"/>
      <use transform="translate(190.820312 0.015625)" xlink:href="#DejaVuSans-73"/>
      <use transform="translate(242.919922 0.015625)" xlink:href="#DejaVuSans-65"/>
      <use transform="translate(304.443359 0.015625)" xlink:href="#DejaVuSans-65"/>
      <use transform="translate(365.966797 0.015625)" xlink:href="#DejaVuSans-64"/>
      <use transform="translate(429.443359 0.015625)" xlink:href="#DejaVuSans-20"/>
      <use transform="translate(461.230469 0.015625)" xlink:href="#DejaVuSans-6e"/>
      <use transform="translate(524.609375 0.015625)" xlink:href="#DejaVuSans-6f"/>
      <use transform="translate(585.791016 0.015625)" xlink:href="#DejaVuSans-64"/>
      <use transform="translate(649.267578 0.015625)" xlink:href="#DejaVuSans-65"/>
      <use transform="translate(710.791016 0.015625)" xlink:href="#DejaVuSans-28"/>
      <use transform="translate(749.804688 0.015625)" xlink:href="#DejaVuSans-73"/>
      <use transform="translate(801.904297 0.015625)" xlink:href="#DejaVuSans-29"/>
      <use transform="translate(840.917969 0.015625)" xlink:href="#DejaVuSans-20"/>
      <use transform="translate(872.705078 0.015625)" xlink:href="#DejaVuSans-6d"/>
      <use transform="translate(970.117188 0.015625)" xlink:href="#DejaVuSans-65"/>
      <use transform="translate(1031.640625 0.015625)" xlink:href="#DejaVuSans-61"/>
      <use transform="translate(1092.919922 0.015625)" xlink:href="#DejaVuSans-6e"/>
      <use transform="translate(1156.298828 0.015625)" xlink:href="#DejaVuSans-20"/>
      <use transform="translate(1188.085938 0.015625)" xlink:href="#DejaVuSans-41"/>
      <use transform="translate(1256.494141 0.015625)" xlink:href="#DejaVuSans-55"/>
      <use transform="translate(1329.6875 0.015625)" xlink:href="#DejaVuSans-43"/>
      <use transform="translate(1399.511719 0.015625)" xlink:href="#DejaVuSans-3a"/>
      <use transform="translate(1433.203125 0.015625)" xlink:href="#DejaVuSans-20"/>
      <use transform="translate(1464.990234 0.015625)" xlink:href="#DejaVuSans-30"/>
      <use transform="translate(1528.613281 0.015625)" xlink:href="#DejaVuSans-2e"/>
      <use transform="translate(1560.400391 0.015625)" xlink:href="#DejaVuSans-39"/>
      <use transform="translate(1624.007812 0.015625)" xlink:href="#DejaVuSans-32"/>
      <use transform="translate(1687.630859 0.015625)" xlink:href="#DejaVuSans-20"/>
      <use transform="translate(1719.417969 0.015625)" xlink:href="#DejaVuSans-28"/>
      <use transform="translate(1758.431641 0.015625)" xlink:href="#DejaVuSans-73"/>
      <use transform="translate(1810.53125 0.015625)" xlink:href="#DejaVuSans-74"/>
      <use transform="translate(1849.740234 0.015625)" xlink:href="#DejaVuSans-64"/>
      <use transform="translate(1913.216797 0.015625)" xlink:href="#DejaVuSans-3a"/>
      <use transform="translate(1946.908203 0.015625)" xlink:href="#DejaVuSans-20"/>
      <use transform="translate(1978.695312 0.015625)" xlink:href="#DejaVuSans-30"/>
      <use transform="translate(2042.318359 0.015625)" xlink:href="#DejaVuSans-2e"/>
      <use transform="translate(2074.105469 0.015625)" xlink:href="#DejaVuSans-30"/>
      <use transform="translate(2137.728516 0.015625)" xlink:href="#DejaVuSans-38"/>
      <use transform="translate(2201.351562 0.015625)" xlink:href="#DejaVuSans-29"/>
     </g>
    </g>
    <g id="line2d_22">
     <path d="M 170.976563 229.664062 
L 190.976563 229.664062 
" style="fill:none;stroke:#0000ff;stroke-dasharray:5.55,2.4;stroke-dashoffset:0;stroke-width:1.5;"/>
    </g>
    <g id="line2d_23"/>
    <g id="text_16">
     <!-- rwr 1 seed node(s) mean AUC: 0.97 (std: 0.08) -->
     <defs>
      <path d="M 4.203125 54.6875 
L 13.1875 54.6875 
L 24.421875 12.015625 
L 35.59375 54.6875 
L 46.1875 54.6875 
L 57.421875 12.015625 
L 68.609375 54.6875 
L 77.59375 54.6875 
L 63.28125 0 
L 52.6875 0 
L 40.921875 44.828125 
L 29.109375 0 
L 18.5 0 
z
" id="DejaVuSans-77"/>
      <path d="M 8.203125 72.90625 
L 55.078125 72.90625 
L 55.078125 68.703125 
L 28.609375 0 
L 18.3125 0 
L 43.21875 64.59375 
L 8.203125 64.59375 
z
" id="DejaVuSans-37"/>
     </defs>
     <g transform="translate(198.976563 233.164062)scale(0.1 -0.1)">
      <use xlink:href="#DejaVuSans-72"/>
      <use x="41.113281" xlink:href="#DejaVuSans-77"/>
      <use x="122.900391" xlink:href="#DejaVuSans-72"/>
      <use x="164.013672" xlink:href="#DejaVuSans-20"/>
      <use x="195.800781" xlink:href="#DejaVuSans-31"/>
      <use x="259.423828" xlink:href="#DejaVuSans-20"/>
      <use x="291.210938" xlink:href="#DejaVuSans-73"/>
      <use x="343.310547" xlink:href="#DejaVuSans-65"/>
      <use x="404.833984" xlink:href="#DejaVuSans-65"/>
      <use x="466.357422" xlink:href="#DejaVuSans-64"/>
      <use x="529.833984" xlink:href="#DejaVuSans-20"/>
      <use x="561.621094" xlink:href="#DejaVuSans-6e"/>
      <use x="625" xlink:href="#DejaVuSans-6f"/>
      <use x="686.181641" xlink:href="#DejaVuSans-64"/>
      <use x="749.658203" xlink:href="#DejaVuSans-65"/>
      <use x="811.181641" xlink:href="#DejaVuSans-28"/>
      <use x="850.195312" xlink:href="#DejaVuSans-73"/>
      <use x="902.294922" xlink:href="#DejaVuSans-29"/>
      <use x="941.308594" xlink:href="#DejaVuSans-20"/>
      <use x="973.095703" xlink:href="#DejaVuSans-6d"/>
      <use x="1070.507812" xlink:href="#DejaVuSans-65"/>
      <use x="1132.03125" xlink:href="#DejaVuSans-61"/>
      <use x="1193.310547" xlink:href="#DejaVuSans-6e"/>
      <use x="1256.689453" xlink:href="#DejaVuSans-20"/>
      <use x="1288.476562" xlink:href="#DejaVuSans-41"/>
      <use x="1356.884766" xlink:href="#DejaVuSans-55"/>
      <use x="1430.078125" xlink:href="#DejaVuSans-43"/>
      <use x="1499.902344" xlink:href="#DejaVuSans-3a"/>
      <use x="1533.59375" xlink:href="#DejaVuSans-20"/>
      <use x="1565.380859" xlink:href="#DejaVuSans-30"/>
      <use x="1629.003906" xlink:href="#DejaVuSans-2e"/>
      <use x="1660.791016" xlink:href="#DejaVuSans-39"/>
      <use x="1724.414062" xlink:href="#DejaVuSans-37"/>
      <use x="1788.037109" xlink:href="#DejaVuSans-20"/>
      <use x="1819.824219" xlink:href="#DejaVuSans-28"/>
      <use x="1858.837891" xlink:href="#DejaVuSans-73"/>
      <use x="1910.9375" xlink:href="#DejaVuSans-74"/>
      <use x="1950.146484" xlink:href="#DejaVuSans-64"/>
      <use x="2013.623047" xlink:href="#DejaVuSans-3a"/>
      <use x="2047.314453" xlink:href="#DejaVuSans-20"/>
      <use x="2079.101562" xlink:href="#DejaVuSans-30"/>
      <use x="2142.724609" xlink:href="#DejaVuSans-2e"/>
      <use x="2174.511719" xlink:href="#DejaVuSans-30"/>
      <use x="2238.134766" xlink:href="#DejaVuSans-38"/>
      <use x="2301.757812" xlink:href="#DejaVuSans-29"/>
     </g>
    </g>
    <g id="line2d_24">
     <path d="M 170.976563 244.34375 
L 190.976563 244.34375 
" style="fill:none;stroke:#008000;stroke-linecap:square;stroke-width:1.5;"/>
    </g>
    <g id="line2d_25"/>
    <g id="text_17">
     <!-- $\mu$ 3 seed node(s) mean AUC: 0.89 (std: 0.14) -->
     <defs>
      <path d="M 40.578125 39.3125 
Q 47.65625 37.796875 51.625 33 
Q 55.609375 28.21875 55.609375 21.1875 
Q 55.609375 10.40625 48.1875 4.484375 
Q 40.765625 -1.421875 27.09375 -1.421875 
Q 22.515625 -1.421875 17.65625 -0.515625 
Q 12.796875 0.390625 7.625 2.203125 
L 7.625 11.71875 
Q 11.71875 9.328125 16.59375 8.109375 
Q 21.484375 6.890625 26.8125 6.890625 
Q 36.078125 6.890625 40.9375 10.546875 
Q 45.796875 14.203125 45.796875 21.1875 
Q 45.796875 27.640625 41.28125 31.265625 
Q 36.765625 34.90625 28.71875 34.90625 
L 20.21875 34.90625 
L 20.21875 43.015625 
L 29.109375 43.015625 
Q 36.375 43.015625 40.234375 45.921875 
Q 44.09375 48.828125 44.09375 54.296875 
Q 44.09375 59.90625 40.109375 62.90625 
Q 36.140625 65.921875 28.71875 65.921875 
Q 24.65625 65.921875 20.015625 65.03125 
Q 15.375 64.15625 9.8125 62.3125 
L 9.8125 71.09375 
Q 15.4375 72.65625 20.34375 73.4375 
Q 25.25 74.21875 29.59375 74.21875 
Q 40.828125 74.21875 47.359375 69.109375 
Q 53.90625 64.015625 53.90625 55.328125 
Q 53.90625 49.265625 50.4375 45.09375 
Q 46.96875 40.921875 40.578125 39.3125 
z
" id="DejaVuSans-33"/>
     </defs>
     <g transform="translate(198.976563 247.84375)scale(0.1 -0.1)">
      <use transform="translate(0 0.015625)" xlink:href="#DejaVuSans-Oblique-3bc"/>
      <use transform="translate(63.623047 0.015625)" xlink:href="#DejaVuSans-20"/>
      <use transform="translate(95.410156 0.015625)" xlink:href="#DejaVuSans-33"/>
      <use transform="translate(159.033203 0.015625)" xlink:href="#DejaVuSans-20"/>
      <use transform="translate(190.820312 0.015625)" xlink:href="#DejaVuSans-73"/>
      <use transform="translate(242.919922 0.015625)" xlink:href="#DejaVuSans-65"/>
      <use transform="translate(304.443359 0.015625)" xlink:href="#DejaVuSans-65"/>
      <use transform="translate(365.966797 0.015625)" xlink:href="#DejaVuSans-64"/>
      <use transform="translate(429.443359 0.015625)" xlink:href="#DejaVuSans-20"/>
      <use transform="translate(461.230469 0.015625)" xlink:href="#DejaVuSans-6e"/>
      <use transform="translate(524.609375 0.015625)" xlink:href="#DejaVuSans-6f"/>
      <use transform="translate(585.791016 0.015625)" xlink:href="#DejaVuSans-64"/>
      <use transform="translate(649.267578 0.015625)" xlink:href="#DejaVuSans-65"/>
      <use transform="translate(710.791016 0.015625)" xlink:href="#DejaVuSans-28"/>
      <use transform="translate(749.804688 0.015625)" xlink:href="#DejaVuSans-73"/>
      <use transform="translate(801.904297 0.015625)" xlink:href="#DejaVuSans-29"/>
      <use transform="translate(840.917969 0.015625)" xlink:href="#DejaVuSans-20"/>
      <use transform="translate(872.705078 0.015625)" xlink:href="#DejaVuSans-6d"/>
      <use transform="translate(970.117188 0.015625)" xlink:href="#DejaVuSans-65"/>
      <use transform="translate(1031.640625 0.015625)" xlink:href="#DejaVuSans-61"/>
      <use transform="translate(1092.919922 0.015625)" xlink:href="#DejaVuSans-6e"/>
      <use transform="translate(1156.298828 0.015625)" xlink:href="#DejaVuSans-20"/>
      <use transform="translate(1188.085938 0.015625)" xlink:href="#DejaVuSans-41"/>
      <use transform="translate(1256.494141 0.015625)" xlink:href="#DejaVuSans-55"/>
      <use transform="translate(1329.6875 0.015625)" xlink:href="#DejaVuSans-43"/>
      <use transform="translate(1399.511719 0.015625)" xlink:href="#DejaVuSans-3a"/>
      <use transform="translate(1433.203125 0.015625)" xlink:href="#DejaVuSans-20"/>
      <use transform="translate(1464.990234 0.015625)" xlink:href="#DejaVuSans-30"/>
      <use transform="translate(1528.613281 0.015625)" xlink:href="#DejaVuSans-2e"/>
      <use transform="translate(1560.369141 0.015625)" xlink:href="#DejaVuSans-38"/>
      <use transform="translate(1623.992188 0.015625)" xlink:href="#DejaVuSans-39"/>
      <use transform="translate(1687.615234 0.015625)" xlink:href="#DejaVuSans-20"/>
      <use transform="translate(1719.402344 0.015625)" xlink:href="#DejaVuSans-28"/>
      <use transform="translate(1758.416016 0.015625)" xlink:href="#DejaVuSans-73"/>
      <use transform="translate(1810.515625 0.015625)" xlink:href="#DejaVuSans-74"/>
      <use transform="translate(1849.724609 0.015625)" xlink:href="#DejaVuSans-64"/>
      <use transform="translate(1913.201172 0.015625)" xlink:href="#DejaVuSans-3a"/>
      <use transform="translate(1946.892578 0.015625)" xlink:href="#DejaVuSans-20"/>
      <use transform="translate(1978.679688 0.015625)" xlink:href="#DejaVuSans-30"/>
      <use transform="translate(2042.302734 0.015625)" xlink:href="#DejaVuSans-2e"/>
      <use transform="translate(2074.089844 0.015625)" xlink:href="#DejaVuSans-31"/>
      <use transform="translate(2137.712891 0.015625)" xlink:href="#DejaVuSans-34"/>
      <use transform="translate(2201.335938 0.015625)" xlink:href="#DejaVuSans-29"/>
     </g>
    </g>
    <g id="line2d_26">
     <path d="M 170.976563 259.042187 
L 190.976563 259.042187 
" style="fill:none;stroke:#008000;stroke-dasharray:5.55,2.4;stroke-dashoffset:0;stroke-width:1.5;"/>
    </g>
    <g id="line2d_27"/>
    <g id="text_18">
     <!-- rwr 3 seed node(s) mean AUC: 0.92 (std: 0.16) -->
     <g transform="translate(198.976563 262.542187)scale(0.1 -0.1)">
      <use xlink:href="#DejaVuSans-72"/>
      <use x="41.113281" xlink:href="#DejaVuSans-77"/>
      <use x="122.900391" xlink:href="#DejaVuSans-72"/>
      <use x="164.013672" xlink:href="#DejaVuSans-20"/>
      <use x="195.800781" xlink:href="#DejaVuSans-33"/>
      <use x="259.423828" xlink:href="#DejaVuSans-20"/>
      <use x="291.210938" xlink:href="#DejaVuSans-73"/>
      <use x="343.310547" xlink:href="#DejaVuSans-65"/>
      <use x="404.833984" xlink:href="#DejaVuSans-65"/>
      <use x="466.357422" xlink:href="#DejaVuSans-64"/>
      <use x="529.833984" xlink:href="#DejaVuSans-20"/>
      <use x="561.621094" xlink:href="#DejaVuSans-6e"/>
      <use x="625" xlink:href="#DejaVuSans-6f"/>
      <use x="686.181641" xlink:href="#DejaVuSans-64"/>
      <use x="749.658203" xlink:href="#DejaVuSans-65"/>
      <use x="811.181641" xlink:href="#DejaVuSans-28"/>
      <use x="850.195312" xlink:href="#DejaVuSans-73"/>
      <use x="902.294922" xlink:href="#DejaVuSans-29"/>
      <use x="941.308594" xlink:href="#DejaVuSans-20"/>
      <use x="973.095703" xlink:href="#DejaVuSans-6d"/>
      <use x="1070.507812" xlink:href="#DejaVuSans-65"/>
      <use x="1132.03125" xlink:href="#DejaVuSans-61"/>
      <use x="1193.310547" xlink:href="#DejaVuSans-6e"/>
      <use x="1256.689453" xlink:href="#DejaVuSans-20"/>
      <use x="1288.476562" xlink:href="#DejaVuSans-41"/>
      <use x="1356.884766" xlink:href="#DejaVuSans-55"/>
      <use x="1430.078125" xlink:href="#DejaVuSans-43"/>
      <use x="1499.902344" xlink:href="#DejaVuSans-3a"/>
      <use x="1533.59375" xlink:href="#DejaVuSans-20"/>
      <use x="1565.380859" xlink:href="#DejaVuSans-30"/>
      <use x="1629.003906" xlink:href="#DejaVuSans-2e"/>
      <use x="1660.791016" xlink:href="#DejaVuSans-39"/>
      <use x="1724.414062" xlink:href="#DejaVuSans-32"/>
      <use x="1788.037109" xlink:href="#DejaVuSans-20"/>
      <use x="1819.824219" xlink:href="#DejaVuSans-28"/>
      <use x="1858.837891" xlink:href="#DejaVuSans-73"/>
      <use x="1910.9375" xlink:href="#DejaVuSans-74"/>
      <use x="1950.146484" xlink:href="#DejaVuSans-64"/>
      <use x="2013.623047" xlink:href="#DejaVuSans-3a"/>
      <use x="2047.314453" xlink:href="#DejaVuSans-20"/>
      <use x="2079.101562" xlink:href="#DejaVuSans-30"/>
      <use x="2142.724609" xlink:href="#DejaVuSans-2e"/>
      <use x="2174.511719" xlink:href="#DejaVuSans-31"/>
      <use x="2238.134766" xlink:href="#DejaVuSans-36"/>
      <use x="2301.757812" xlink:href="#DejaVuSans-29"/>
     </g>
    </g>
    <g id="line2d_28">
     <path d="M 170.976563 273.721875 
L 190.976563 273.721875 
" style="fill:none;stroke:#bfbf00;stroke-linecap:square;stroke-width:1.5;"/>
    </g>
    <g id="line2d_29"/>
    <g id="text_19">
     <!-- $\mu$ 7 seed node(s) mean AUC: 0.88 (std: 0.16) -->
     <g transform="translate(198.976563 277.221875)scale(0.1 -0.1)">
      <use transform="translate(0 0.015625)" xlink:href="#DejaVuSans-Oblique-3bc"/>
      <use transform="translate(63.623047 0.015625)" xlink:href="#DejaVuSans-20"/>
      <use transform="translate(95.410156 0.015625)" xlink:href="#DejaVuSans-37"/>
      <use transform="translate(159.033203 0.015625)" xlink:href="#DejaVuSans-20"/>
      <use transform="translate(190.820312 0.015625)" xlink:href="#DejaVuSans-73"/>
      <use transform="translate(242.919922 0.015625)" xlink:href="#DejaVuSans-65"/>
      <use transform="translate(304.443359 0.015625)" xlink:href="#DejaVuSans-65"/>
      <use transform="translate(365.966797 0.015625)" xlink:href="#DejaVuSans-64"/>
      <use transform="translate(429.443359 0.015625)" xlink:href="#DejaVuSans-20"/>
      <use transform="translate(461.230469 0.015625)" xlink:href="#DejaVuSans-6e"/>
      <use transform="translate(524.609375 0.015625)" xlink:href="#DejaVuSans-6f"/>
      <use transform="translate(585.791016 0.015625)" xlink:href="#DejaVuSans-64"/>
      <use transform="translate(649.267578 0.015625)" xlink:href="#DejaVuSans-65"/>
      <use transform="translate(710.791016 0.015625)" xlink:href="#DejaVuSans-28"/>
      <use transform="translate(749.804688 0.015625)" xlink:href="#DejaVuSans-73"/>
      <use transform="translate(801.904297 0.015625)" xlink:href="#DejaVuSans-29"/>
      <use transform="translate(840.917969 0.015625)" xlink:href="#DejaVuSans-20"/>
      <use transform="translate(872.705078 0.015625)" xlink:href="#DejaVuSans-6d"/>
      <use transform="translate(970.117188 0.015625)" xlink:href="#DejaVuSans-65"/>
      <use transform="translate(1031.640625 0.015625)" xlink:href="#DejaVuSans-61"/>
      <use transform="translate(1092.919922 0.015625)" xlink:href="#DejaVuSans-6e"/>
      <use transform="translate(1156.298828 0.015625)" xlink:href="#DejaVuSans-20"/>
      <use transform="translate(1188.085938 0.015625)" xlink:href="#DejaVuSans-41"/>
      <use transform="translate(1256.494141 0.015625)" xlink:href="#DejaVuSans-55"/>
      <use transform="translate(1329.6875 0.015625)" xlink:href="#DejaVuSans-43"/>
      <use transform="translate(1399.511719 0.015625)" xlink:href="#DejaVuSans-3a"/>
      <use transform="translate(1433.203125 0.015625)" xlink:href="#DejaVuSans-20"/>
      <use transform="translate(1464.990234 0.015625)" xlink:href="#DejaVuSans-30"/>
      <use transform="translate(1528.613281 0.015625)" xlink:href="#DejaVuSans-2e"/>
      <use transform="translate(1560.369141 0.015625)" xlink:href="#DejaVuSans-38"/>
      <use transform="translate(1623.992188 0.015625)" xlink:href="#DejaVuSans-38"/>
      <use transform="translate(1687.615234 0.015625)" xlink:href="#DejaVuSans-20"/>
      <use transform="translate(1719.402344 0.015625)" xlink:href="#DejaVuSans-28"/>
      <use transform="translate(1758.416016 0.015625)" xlink:href="#DejaVuSans-73"/>
      <use transform="translate(1810.515625 0.015625)" xlink:href="#DejaVuSans-74"/>
      <use transform="translate(1849.724609 0.015625)" xlink:href="#DejaVuSans-64"/>
      <use transform="translate(1913.201172 0.015625)" xlink:href="#DejaVuSans-3a"/>
      <use transform="translate(1946.892578 0.015625)" xlink:href="#DejaVuSans-20"/>
      <use transform="translate(1978.679688 0.015625)" xlink:href="#DejaVuSans-30"/>
      <use transform="translate(2042.302734 0.015625)" xlink:href="#DejaVuSans-2e"/>
      <use transform="translate(2074.089844 0.015625)" xlink:href="#DejaVuSans-31"/>
      <use transform="translate(2137.712891 0.015625)" xlink:href="#DejaVuSans-36"/>
      <use transform="translate(2201.335938 0.015625)" xlink:href="#DejaVuSans-29"/>
     </g>
    </g>
    <g id="line2d_30">
     <path d="M 170.976563 288.420313 
L 190.976563 288.420313 
" style="fill:none;stroke:#bfbf00;stroke-dasharray:5.55,2.4;stroke-dashoffset:0;stroke-width:1.5;"/>
    </g>
    <g id="line2d_31"/>
    <g id="text_20">
     <!-- rwr 7 seed node(s) mean AUC: 0.92 (std: 0.14) -->
     <g transform="translate(198.976563 291.920313)scale(0.1 -0.1)">
      <use xlink:href="#DejaVuSans-72"/>
      <use x="41.113281" xlink:href="#DejaVuSans-77"/>
      <use x="122.900391" xlink:href="#DejaVuSans-72"/>
      <use x="164.013672" xlink:href="#DejaVuSans-20"/>
      <use x="195.800781" xlink:href="#DejaVuSans-37"/>
      <use x="259.423828" xlink:href="#DejaVuSans-20"/>
      <use x="291.210938" xlink:href="#DejaVuSans-73"/>
      <use x="343.310547" xlink:href="#DejaVuSans-65"/>
      <use x="404.833984" xlink:href="#DejaVuSans-65"/>
      <use x="466.357422" xlink:href="#DejaVuSans-64"/>
      <use x="529.833984" xlink:href="#DejaVuSans-20"/>
      <use x="561.621094" xlink:href="#DejaVuSans-6e"/>
      <use x="625" xlink:href="#DejaVuSans-6f"/>
      <use x="686.181641" xlink:href="#DejaVuSans-64"/>
      <use x="749.658203" xlink:href="#DejaVuSans-65"/>
      <use x="811.181641" xlink:href="#DejaVuSans-28"/>
      <use x="850.195312" xlink:href="#DejaVuSans-73"/>
      <use x="902.294922" xlink:href="#DejaVuSans-29"/>
      <use x="941.308594" xlink:href="#DejaVuSans-20"/>
      <use x="973.095703" xlink:href="#DejaVuSans-6d"/>
      <use x="1070.507812" xlink:href="#DejaVuSans-65"/>
      <use x="1132.03125" xlink:href="#DejaVuSans-61"/>
      <use x="1193.310547" xlink:href="#DejaVuSans-6e"/>
      <use x="1256.689453" xlink:href="#DejaVuSans-20"/>
      <use x="1288.476562" xlink:href="#DejaVuSans-41"/>
      <use x="1356.884766" xlink:href="#DejaVuSans-55"/>
      <use x="1430.078125" xlink:href="#DejaVuSans-43"/>
      <use x="1499.902344" xlink:href="#DejaVuSans-3a"/>
      <use x="1533.59375" xlink:href="#DejaVuSans-20"/>
      <use x="1565.380859" xlink:href="#DejaVuSans-30"/>
      <use x="1629.003906" xlink:href="#DejaVuSans-2e"/>
      <use x="1660.791016" xlink:href="#DejaVuSans-39"/>
      <use x="1724.414062" xlink:href="#DejaVuSans-32"/>
      <use x="1788.037109" xlink:href="#DejaVuSans-20"/>
      <use x="1819.824219" xlink:href="#DejaVuSans-28"/>
      <use x="1858.837891" xlink:href="#DejaVuSans-73"/>
      <use x="1910.9375" xlink:href="#DejaVuSans-74"/>
      <use x="1950.146484" xlink:href="#DejaVuSans-64"/>
      <use x="2013.623047" xlink:href="#DejaVuSans-3a"/>
      <use x="2047.314453" xlink:href="#DejaVuSans-20"/>
      <use x="2079.101562" xlink:href="#DejaVuSans-30"/>
      <use x="2142.724609" xlink:href="#DejaVuSans-2e"/>
      <use x="2174.511719" xlink:href="#DejaVuSans-31"/>
      <use x="2238.134766" xlink:href="#DejaVuSans-34"/>
      <use x="2301.757812" xlink:href="#DejaVuSans-29"/>
     </g>
    </g>
   </g>
  </g>
 </g>
 <defs>
  <clipPath id="p1dd4128176">
   <rect height="289.4" width="393.85" x="48.2" y="13.6"/>
  </clipPath>
 </defs>
</svg>
