<?xml version="1.0" encoding="utf-8" standalone="no"?>
<!DOCTYPE svg PUBLIC "-//W3C//DTD SVG 1.1//EN"
  "http://www.w3.org/Graphics/SVG/1.1/DTD/svg11.dtd">
<!-- Created with matplotlib (http://matplotlib.org/) -->
<svg height="345pt" version="1.1" viewBox="0 0 460 345" width="460pt" xmlns="http://www.w3.org/2000/svg" xmlns:xlink="http://www.w3.org/1999/xlink">
 <defs>
  <style type="text/css">
*{stroke-linecap:butt;stroke-linejoin:round;}
  </style>
 </defs>
 <g id="figure_1">
  <g id="patch_1">
   <path d="M 0 345.6 
L 460.8 345.6 
L 460.8 0 
L 0 0 
z
" style="fill:#ffffff;"/>
  </g>
  <g id="axes_1">
   <g id="patch_2">
    <path d="M 48.2 303 
L 442.05 303 
L 442.05 13.6 
L 48.2 13.6 
z
" style="fill:#ffffff;"/>
   </g>
   <g id="matplotlib.axis_1">
    <g id="xtick_1">
     <g id="line2d_1">
      <defs>
       <path d="M 0 0 
L 0 3.5 
" id="m9e567baa1a" style="stroke:#000000;stroke-width:0.8;"/>
      </defs>
      <g>
       <use style="stroke:#000000;stroke-width:0.8;" x="48.2" xlink:href="#m9e567baa1a" y="303"/>
      </g>
     </g>
     <g id="text_1">
      <!-- 0.0 -->
      <defs>
       <path d="M 31.78125 66.40625 
Q 24.171875 66.40625 20.328125 58.90625 
Q 16.5 51.421875 16.5 36.375 
Q 16.5 21.390625 20.328125 13.890625 
Q 24.171875 6.390625 31.78125 6.390625 
Q 39.453125 6.390625 43.28125 13.890625 
Q 47.125 21.390625 47.125 36.375 
Q 47.125 51.421875 43.28125 58.90625 
Q 39.453125 66.40625 31.78125 66.40625 
z
M 31.78125 74.21875 
Q 44.046875 74.21875 50.515625 64.515625 
Q 56.984375 54.828125 56.984375 36.375 
Q 56.984375 17.96875 50.515625 8.265625 
Q 44.046875 -1.421875 31.78125 -1.421875 
Q 19.53125 -1.421875 13.0625 8.265625 
Q 6.59375 17.96875 6.59375 36.375 
Q 6.59375 54.828125 13.0625 64.515625 
Q 19.53125 74.21875 31.78125 74.21875 
z
" id="DejaVuSans-30"/>
       <path d="M 10.6875 12.40625 
L 21 12.40625 
L 21 0 
L 10.6875 0 
z
" id="DejaVuSans-2e"/>
      </defs>
      <g transform="translate(40.248438 317.598437)scale(0.1 -0.1)">
       <use xlink:href="#DejaVuSans-30"/>
       <use x="63.623047" xlink:href="#DejaVuSans-2e"/>
       <use x="95.410156" xlink:href="#DejaVuSans-30"/>
      </g>
     </g>
    </g>
    <g id="xtick_2">
     <g id="line2d_2">
      <g>
       <use style="stroke:#000000;stroke-width:0.8;" x="126.97" xlink:href="#m9e567baa1a" y="303"/>
      </g>
     </g>
     <g id="text_2">
      <!-- 0.2 -->
      <defs>
       <path d="M 19.1875 8.296875 
L 53.609375 8.296875 
L 53.609375 0 
L 7.328125 0 
L 7.328125 8.296875 
Q 12.9375 14.109375 22.625 23.890625 
Q 32.328125 33.6875 34.8125 36.53125 
Q 39.546875 41.84375 41.421875 45.53125 
Q 43.3125 49.21875 43.3125 52.78125 
Q 43.3125 58.59375 39.234375 62.25 
Q 35.15625 65.921875 28.609375 65.921875 
Q 23.96875 65.921875 18.8125 64.3125 
Q 13.671875 62.703125 7.8125 59.421875 
L 7.8125 69.390625 
Q 13.765625 71.78125 18.9375 73 
Q 24.125 74.21875 28.421875 74.21875 
Q 39.75 74.21875 46.484375 68.546875 
Q 53.21875 62.890625 53.21875 53.421875 
Q 53.21875 48.921875 51.53125 44.890625 
Q 49.859375 40.875 45.40625 35.40625 
Q 44.1875 33.984375 37.640625 27.21875 
Q 31.109375 20.453125 19.1875 8.296875 
z
" id="DejaVuSans-32"/>
      </defs>
      <g transform="translate(119.018438 317.598437)scale(0.1 -0.1)">
       <use xlink:href="#DejaVuSans-30"/>
       <use x="63.623047" xlink:href="#DejaVuSans-2e"/>
       <use x="95.410156" xlink:href="#DejaVuSans-32"/>
      </g>
     </g>
    </g>
    <g id="xtick_3">
     <g id="line2d_3">
      <g>
       <use style="stroke:#000000;stroke-width:0.8;" x="205.74" xlink:href="#m9e567baa1a" y="303"/>
      </g>
     </g>
     <g id="text_3">
      <!-- 0.4 -->
      <defs>
       <path d="M 37.796875 64.3125 
L 12.890625 25.390625 
L 37.796875 25.390625 
z
M 35.203125 72.90625 
L 47.609375 72.90625 
L 47.609375 25.390625 
L 58.015625 25.390625 
L 58.015625 17.1875 
L 47.609375 17.1875 
L 47.609375 0 
L 37.796875 0 
L 37.796875 17.1875 
L 4.890625 17.1875 
L 4.890625 26.703125 
z
" id="DejaVuSans-34"/>
      </defs>
      <g transform="translate(197.788438 317.598437)scale(0.1 -0.1)">
       <use xlink:href="#DejaVuSans-30"/>
       <use x="63.623047" xlink:href="#DejaVuSans-2e"/>
       <use x="95.410156" xlink:href="#DejaVuSans-34"/>
      </g>
     </g>
    </g>
    <g id="xtick_4">
     <g id="line2d_4">
      <g>
       <use style="stroke:#000000;stroke-width:0.8;" x="284.51" xlink:href="#m9e567baa1a" y="303"/>
      </g>
     </g>
     <g id="text_4">
      <!-- 0.6 -->
      <defs>
       <path d="M 33.015625 40.375 
Q 26.375 40.375 22.484375 35.828125 
Q 18.609375 31.296875 18.609375 23.390625 
Q 18.609375 15.53125 22.484375 10.953125 
Q 26.375 6.390625 33.015625 6.390625 
Q 39.65625 6.390625 43.53125 10.953125 
Q 47.40625 15.53125 47.40625 23.390625 
Q 47.40625 31.296875 43.53125 35.828125 
Q 39.65625 40.375 33.015625 40.375 
z
M 52.59375 71.296875 
L 52.59375 62.3125 
Q 48.875 64.0625 45.09375 64.984375 
Q 41.3125 65.921875 37.59375 65.921875 
Q 27.828125 65.921875 22.671875 59.328125 
Q 17.53125 52.734375 16.796875 39.40625 
Q 19.671875 43.65625 24.015625 45.921875 
Q 28.375 48.1875 33.59375 48.1875 
Q 44.578125 48.1875 50.953125 41.515625 
Q 57.328125 34.859375 57.328125 23.390625 
Q 57.328125 12.15625 50.6875 5.359375 
Q 44.046875 -1.421875 33.015625 -1.421875 
Q 20.359375 -1.421875 13.671875 8.265625 
Q 6.984375 17.96875 6.984375 36.375 
Q 6.984375 53.65625 15.1875 63.9375 
Q 23.390625 74.21875 37.203125 74.21875 
Q 40.921875 74.21875 44.703125 73.484375 
Q 48.484375 72.75 52.59375 71.296875 
z
" id="DejaVuSans-36"/>
      </defs>
      <g transform="translate(276.558438 317.598437)scale(0.1 -0.1)">
       <use xlink:href="#DejaVuSans-30"/>
       <use x="63.623047" xlink:href="#DejaVuSans-2e"/>
       <use x="95.410156" xlink:href="#DejaVuSans-36"/>
      </g>
     </g>
    </g>
    <g id="xtick_5">
     <g id="line2d_5">
      <g>
       <use style="stroke:#000000;stroke-width:0.8;" x="363.28" xlink:href="#m9e567baa1a" y="303"/>
      </g>
     </g>
     <g id="text_5">
      <!-- 0.8 -->
      <defs>
       <path d="M 31.78125 34.625 
Q 24.75 34.625 20.71875 30.859375 
Q 16.703125 27.09375 16.703125 20.515625 
Q 16.703125 13.921875 20.71875 10.15625 
Q 24.75 6.390625 31.78125 6.390625 
Q 38.8125 6.390625 42.859375 10.171875 
Q 46.921875 13.96875 46.921875 20.515625 
Q 46.921875 27.09375 42.890625 30.859375 
Q 38.875 34.625 31.78125 34.625 
z
M 21.921875 38.8125 
Q 15.578125 40.375 12.03125 44.71875 
Q 8.5 49.078125 8.5 55.328125 
Q 8.5 64.0625 14.71875 69.140625 
Q 20.953125 74.21875 31.78125 74.21875 
Q 42.671875 74.21875 48.875 69.140625 
Q 55.078125 64.0625 55.078125 55.328125 
Q 55.078125 49.078125 51.53125 44.71875 
Q 48 40.375 41.703125 38.8125 
Q 48.828125 37.15625 52.796875 32.3125 
Q 56.78125 27.484375 56.78125 20.515625 
Q 56.78125 9.90625 50.3125 4.234375 
Q 43.84375 -1.421875 31.78125 -1.421875 
Q 19.734375 -1.421875 13.25 4.234375 
Q 6.78125 9.90625 6.78125 20.515625 
Q 6.78125 27.484375 10.78125 32.3125 
Q 14.796875 37.15625 21.921875 38.8125 
z
M 18.3125 54.390625 
Q 18.3125 48.734375 21.84375 45.5625 
Q 25.390625 42.390625 31.78125 42.390625 
Q 38.140625 42.390625 41.71875 45.5625 
Q 45.3125 48.734375 45.3125 54.390625 
Q 45.3125 60.0625 41.71875 63.234375 
Q 38.140625 66.40625 31.78125 66.40625 
Q 25.390625 66.40625 21.84375 63.234375 
Q 18.3125 60.0625 18.3125 54.390625 
z
" id="DejaVuSans-38"/>
      </defs>
      <g transform="translate(355.328438 317.598437)scale(0.1 -0.1)">
       <use xlink:href="#DejaVuSans-30"/>
       <use x="63.623047" xlink:href="#DejaVuSans-2e"/>
       <use x="95.410156" xlink:href="#DejaVuSans-38"/>
      </g>
     </g>
    </g>
    <g id="xtick_6">
     <g id="line2d_6">
      <g>
       <use style="stroke:#000000;stroke-width:0.8;" x="442.05" xlink:href="#m9e567baa1a" y="303"/>
      </g>
     </g>
     <g id="text_6">
      <!-- 1.0 -->
      <defs>
       <path d="M 12.40625 8.296875 
L 28.515625 8.296875 
L 28.515625 63.921875 
L 10.984375 60.40625 
L 10.984375 69.390625 
L 28.421875 72.90625 
L 38.28125 72.90625 
L 38.28125 8.296875 
L 54.390625 8.296875 
L 54.390625 0 
L 12.40625 0 
z
" id="DejaVuSans-31"/>
      </defs>
      <g transform="translate(434.098438 317.598437)scale(0.1 -0.1)">
       <use xlink:href="#DejaVuSans-31"/>
       <use x="63.623047" xlink:href="#DejaVuSans-2e"/>
       <use x="95.410156" xlink:href="#DejaVuSans-30"/>
      </g>
     </g>
    </g>
    <g id="text_7">
     <!-- False positive rate -->
     <defs>
      <path d="M 9.8125 72.90625 
L 51.703125 72.90625 
L 51.703125 64.59375 
L 19.671875 64.59375 
L 19.671875 43.109375 
L 48.578125 43.109375 
L 48.578125 34.8125 
L 19.671875 34.8125 
L 19.671875 0 
L 9.8125 0 
z
" id="DejaVuSans-46"/>
      <path d="M 34.28125 27.484375 
Q 23.390625 27.484375 19.1875 25 
Q 14.984375 22.515625 14.984375 16.5 
Q 14.984375 11.71875 18.140625 8.90625 
Q 21.296875 6.109375 26.703125 6.109375 
Q 34.1875 6.109375 38.703125 11.40625 
Q 43.21875 16.703125 43.21875 25.484375 
L 43.21875 27.484375 
z
M 52.203125 31.203125 
L 52.203125 0 
L 43.21875 0 
L 43.21875 8.296875 
Q 40.140625 3.328125 35.546875 0.953125 
Q 30.953125 -1.421875 24.3125 -1.421875 
Q 15.921875 -1.421875 10.953125 3.296875 
Q 6 8.015625 6 15.921875 
Q 6 25.140625 12.171875 29.828125 
Q 18.359375 34.515625 30.609375 34.515625 
L 43.21875 34.515625 
L 43.21875 35.40625 
Q 43.21875 41.609375 39.140625 45 
Q 35.0625 48.390625 27.6875 48.390625 
Q 23 48.390625 18.546875 47.265625 
Q 14.109375 46.140625 10.015625 43.890625 
L 10.015625 52.203125 
Q 14.9375 54.109375 19.578125 55.046875 
Q 24.21875 56 28.609375 56 
Q 40.484375 56 46.34375 49.84375 
Q 52.203125 43.703125 52.203125 31.203125 
z
" id="DejaVuSans-61"/>
      <path d="M 9.421875 75.984375 
L 18.40625 75.984375 
L 18.40625 0 
L 9.421875 0 
z
" id="DejaVuSans-6c"/>
      <path d="M 44.28125 53.078125 
L 44.28125 44.578125 
Q 40.484375 46.53125 36.375 47.5 
Q 32.28125 48.484375 27.875 48.484375 
Q 21.1875 48.484375 17.84375 46.4375 
Q 14.5 44.390625 14.5 40.28125 
Q 14.5 37.15625 16.890625 35.375 
Q 19.28125 33.59375 26.515625 31.984375 
L 29.59375 31.296875 
Q 39.15625 29.25 43.1875 25.515625 
Q 47.21875 21.78125 47.21875 15.09375 
Q 47.21875 7.46875 41.1875 3.015625 
Q 35.15625 -1.421875 24.609375 -1.421875 
Q 20.21875 -1.421875 15.453125 -0.5625 
Q 10.6875 0.296875 5.421875 2 
L 5.421875 11.28125 
Q 10.40625 8.6875 15.234375 7.390625 
Q 20.0625 6.109375 24.8125 6.109375 
Q 31.15625 6.109375 34.5625 8.28125 
Q 37.984375 10.453125 37.984375 14.40625 
Q 37.984375 18.0625 35.515625 20.015625 
Q 33.0625 21.96875 24.703125 23.78125 
L 21.578125 24.515625 
Q 13.234375 26.265625 9.515625 29.90625 
Q 5.8125 33.546875 5.8125 39.890625 
Q 5.8125 47.609375 11.28125 51.796875 
Q 16.75 56 26.8125 56 
Q 31.78125 56 36.171875 55.265625 
Q 40.578125 54.546875 44.28125 53.078125 
z
" id="DejaVuSans-73"/>
      <path d="M 56.203125 29.59375 
L 56.203125 25.203125 
L 14.890625 25.203125 
Q 15.484375 15.921875 20.484375 11.0625 
Q 25.484375 6.203125 34.421875 6.203125 
Q 39.59375 6.203125 44.453125 7.46875 
Q 49.3125 8.734375 54.109375 11.28125 
L 54.109375 2.78125 
Q 49.265625 0.734375 44.1875 -0.34375 
Q 39.109375 -1.421875 33.890625 -1.421875 
Q 20.796875 -1.421875 13.15625 6.1875 
Q 5.515625 13.8125 5.515625 26.8125 
Q 5.515625 40.234375 12.765625 48.109375 
Q 20.015625 56 32.328125 56 
Q 43.359375 56 49.78125 48.890625 
Q 56.203125 41.796875 56.203125 29.59375 
z
M 47.21875 32.234375 
Q 47.125 39.59375 43.09375 43.984375 
Q 39.0625 48.390625 32.421875 48.390625 
Q 24.90625 48.390625 20.390625 44.140625 
Q 15.875 39.890625 15.1875 32.171875 
z
" id="DejaVuSans-65"/>
      <path id="DejaVuSans-20"/>
      <path d="M 18.109375 8.203125 
L 18.109375 -20.796875 
L 9.078125 -20.796875 
L 9.078125 54.6875 
L 18.109375 54.6875 
L 18.109375 46.390625 
Q 20.953125 51.265625 25.265625 53.625 
Q 29.59375 56 35.59375 56 
Q 45.5625 56 51.78125 48.09375 
Q 58.015625 40.1875 58.015625 27.296875 
Q 58.015625 14.40625 51.78125 6.484375 
Q 45.5625 -1.421875 35.59375 -1.421875 
Q 29.59375 -1.421875 25.265625 0.953125 
Q 20.953125 3.328125 18.109375 8.203125 
z
M 48.6875 27.296875 
Q 48.6875 37.203125 44.609375 42.84375 
Q 40.53125 48.484375 33.40625 48.484375 
Q 26.265625 48.484375 22.1875 42.84375 
Q 18.109375 37.203125 18.109375 27.296875 
Q 18.109375 17.390625 22.1875 11.75 
Q 26.265625 6.109375 33.40625 6.109375 
Q 40.53125 6.109375 44.609375 11.75 
Q 48.6875 17.390625 48.6875 27.296875 
z
" id="DejaVuSans-70"/>
      <path d="M 30.609375 48.390625 
Q 23.390625 48.390625 19.1875 42.75 
Q 14.984375 37.109375 14.984375 27.296875 
Q 14.984375 17.484375 19.15625 11.84375 
Q 23.34375 6.203125 30.609375 6.203125 
Q 37.796875 6.203125 41.984375 11.859375 
Q 46.1875 17.53125 46.1875 27.296875 
Q 46.1875 37.015625 41.984375 42.703125 
Q 37.796875 48.390625 30.609375 48.390625 
z
M 30.609375 56 
Q 42.328125 56 49.015625 48.375 
Q 55.71875 40.765625 55.71875 27.296875 
Q 55.71875 13.875 49.015625 6.21875 
Q 42.328125 -1.421875 30.609375 -1.421875 
Q 18.84375 -1.421875 12.171875 6.21875 
Q 5.515625 13.875 5.515625 27.296875 
Q 5.515625 40.765625 12.171875 48.375 
Q 18.84375 56 30.609375 56 
z
" id="DejaVuSans-6f"/>
      <path d="M 9.421875 54.6875 
L 18.40625 54.6875 
L 18.40625 0 
L 9.421875 0 
z
M 9.421875 75.984375 
L 18.40625 75.984375 
L 18.40625 64.59375 
L 9.421875 64.59375 
z
" id="DejaVuSans-69"/>
      <path d="M 18.3125 70.21875 
L 18.3125 54.6875 
L 36.8125 54.6875 
L 36.8125 47.703125 
L 18.3125 47.703125 
L 18.3125 18.015625 
Q 18.3125 11.328125 20.140625 9.421875 
Q 21.96875 7.515625 27.59375 7.515625 
L 36.8125 7.515625 
L 36.8125 0 
L 27.59375 0 
Q 17.1875 0 13.234375 3.875 
Q 9.28125 7.765625 9.28125 18.015625 
L 9.28125 47.703125 
L 2.6875 47.703125 
L 2.6875 54.6875 
L 9.28125 54.6875 
L 9.28125 70.21875 
z
" id="DejaVuSans-74"/>
      <path d="M 2.984375 54.6875 
L 12.5 54.6875 
L 29.59375 8.796875 
L 46.6875 54.6875 
L 56.203125 54.6875 
L 35.6875 0 
L 23.484375 0 
z
" id="DejaVuSans-76"/>
      <path d="M 41.109375 46.296875 
Q 39.59375 47.171875 37.8125 47.578125 
Q 36.03125 48 33.890625 48 
Q 26.265625 48 22.1875 43.046875 
Q 18.109375 38.09375 18.109375 28.8125 
L 18.109375 0 
L 9.078125 0 
L 9.078125 54.6875 
L 18.109375 54.6875 
L 18.109375 46.1875 
Q 20.953125 51.171875 25.484375 53.578125 
Q 30.03125 56 36.53125 56 
Q 37.453125 56 38.578125 55.875 
Q 39.703125 55.765625 41.0625 55.515625 
z
" id="DejaVuSans-72"/>
     </defs>
     <g transform="translate(199.175 331.276563)scale(0.1 -0.1)">
      <use xlink:href="#DejaVuSans-46"/>
      <use x="57.378906" xlink:href="#DejaVuSans-61"/>
      <use x="118.658203" xlink:href="#DejaVuSans-6c"/>
      <use x="146.441406" xlink:href="#DejaVuSans-73"/>
      <use x="198.541016" xlink:href="#DejaVuSans-65"/>
      <use x="260.064453" xlink:href="#DejaVuSans-20"/>
      <use x="291.851562" xlink:href="#DejaVuSans-70"/>
      <use x="355.328125" xlink:href="#DejaVuSans-6f"/>
      <use x="416.509766" xlink:href="#DejaVuSans-73"/>
      <use x="468.609375" xlink:href="#DejaVuSans-69"/>
      <use x="496.392578" xlink:href="#DejaVuSans-74"/>
      <use x="535.601562" xlink:href="#DejaVuSans-69"/>
      <use x="563.384766" xlink:href="#DejaVuSans-76"/>
      <use x="622.564453" xlink:href="#DejaVuSans-65"/>
      <use x="684.087891" xlink:href="#DejaVuSans-20"/>
      <use x="715.875" xlink:href="#DejaVuSans-72"/>
      <use x="756.988281" xlink:href="#DejaVuSans-61"/>
      <use x="818.267578" xlink:href="#DejaVuSans-74"/>
      <use x="857.476562" xlink:href="#DejaVuSans-65"/>
     </g>
    </g>
   </g>
   <g id="matplotlib.axis_2">
    <g id="ytick_1">
     <g id="line2d_7">
      <defs>
       <path d="M 0 0 
L -3.5 0 
" id="m873b430d23" style="stroke:#000000;stroke-width:0.8;"/>
      </defs>
      <g>
       <use style="stroke:#000000;stroke-width:0.8;" x="48.2" xlink:href="#m873b430d23" y="303"/>
      </g>
     </g>
     <g id="text_8">
      <!-- 0.0 -->
      <g transform="translate(25.296875 306.799219)scale(0.1 -0.1)">
       <use xlink:href="#DejaVuSans-30"/>
       <use x="63.623047" xlink:href="#DejaVuSans-2e"/>
       <use x="95.410156" xlink:href="#DejaVuSans-30"/>
      </g>
     </g>
    </g>
    <g id="ytick_2">
     <g id="line2d_8">
      <g>
       <use style="stroke:#000000;stroke-width:0.8;" x="48.2" xlink:href="#m873b430d23" y="245.693069"/>
      </g>
     </g>
     <g id="text_9">
      <!-- 0.2 -->
      <g transform="translate(25.296875 249.492288)scale(0.1 -0.1)">
       <use xlink:href="#DejaVuSans-30"/>
       <use x="63.623047" xlink:href="#DejaVuSans-2e"/>
       <use x="95.410156" xlink:href="#DejaVuSans-32"/>
      </g>
     </g>
    </g>
    <g id="ytick_3">
     <g id="line2d_9">
      <g>
       <use style="stroke:#000000;stroke-width:0.8;" x="48.2" xlink:href="#m873b430d23" y="188.386139"/>
      </g>
     </g>
     <g id="text_10">
      <!-- 0.4 -->
      <g transform="translate(25.296875 192.185357)scale(0.1 -0.1)">
       <use xlink:href="#DejaVuSans-30"/>
       <use x="63.623047" xlink:href="#DejaVuSans-2e"/>
       <use x="95.410156" xlink:href="#DejaVuSans-34"/>
      </g>
     </g>
    </g>
    <g id="ytick_4">
     <g id="line2d_10">
      <g>
       <use style="stroke:#000000;stroke-width:0.8;" x="48.2" xlink:href="#m873b430d23" y="131.079208"/>
      </g>
     </g>
     <g id="text_11">
      <!-- 0.6 -->
      <g transform="translate(25.296875 134.878427)scale(0.1 -0.1)">
       <use xlink:href="#DejaVuSans-30"/>
       <use x="63.623047" xlink:href="#DejaVuSans-2e"/>
       <use x="95.410156" xlink:href="#DejaVuSans-36"/>
      </g>
     </g>
    </g>
    <g id="ytick_5">
     <g id="line2d_11">
      <g>
       <use style="stroke:#000000;stroke-width:0.8;" x="48.2" xlink:href="#m873b430d23" y="73.772277"/>
      </g>
     </g>
     <g id="text_12">
      <!-- 0.8 -->
      <g transform="translate(25.296875 77.571496)scale(0.1 -0.1)">
       <use xlink:href="#DejaVuSans-30"/>
       <use x="63.623047" xlink:href="#DejaVuSans-2e"/>
       <use x="95.410156" xlink:href="#DejaVuSans-38"/>
      </g>
     </g>
    </g>
    <g id="ytick_6">
     <g id="line2d_12">
      <g>
       <use style="stroke:#000000;stroke-width:0.8;" x="48.2" xlink:href="#m873b430d23" y="16.465347"/>
      </g>
     </g>
     <g id="text_13">
      <!-- 1.0 -->
      <g transform="translate(25.296875 20.264565)scale(0.1 -0.1)">
       <use xlink:href="#DejaVuSans-31"/>
       <use x="63.623047" xlink:href="#DejaVuSans-2e"/>
       <use x="95.410156" xlink:href="#DejaVuSans-30"/>
      </g>
     </g>
    </g>
    <g id="text_14">
     <!-- True positive rate -->
     <defs>
      <path d="M -0.296875 72.90625 
L 61.375 72.90625 
L 61.375 64.59375 
L 35.5 64.59375 
L 35.5 0 
L 25.59375 0 
L 25.59375 64.59375 
L -0.296875 64.59375 
z
" id="DejaVuSans-54"/>
      <path d="M 8.5 21.578125 
L 8.5 54.6875 
L 17.484375 54.6875 
L 17.484375 21.921875 
Q 17.484375 14.15625 20.5 10.265625 
Q 23.53125 6.390625 29.59375 6.390625 
Q 36.859375 6.390625 41.078125 11.03125 
Q 45.3125 15.671875 45.3125 23.6875 
L 45.3125 54.6875 
L 54.296875 54.6875 
L 54.296875 0 
L 45.3125 0 
L 45.3125 8.40625 
Q 42.046875 3.421875 37.71875 1 
Q 33.40625 -1.421875 27.6875 -1.421875 
Q 18.265625 -1.421875 13.375 4.4375 
Q 8.5 10.296875 8.5 21.578125 
z
M 31.109375 56 
z
" id="DejaVuSans-75"/>
     </defs>
     <g transform="translate(19.217187 202.590625)rotate(-90)scale(0.1 -0.1)">
      <use xlink:href="#DejaVuSans-54"/>
      <use x="60.865234" xlink:href="#DejaVuSans-72"/>
      <use x="101.978516" xlink:href="#DejaVuSans-75"/>
      <use x="165.357422" xlink:href="#DejaVuSans-65"/>
      <use x="226.880859" xlink:href="#DejaVuSans-20"/>
      <use x="258.667969" xlink:href="#DejaVuSans-70"/>
      <use x="322.144531" xlink:href="#DejaVuSans-6f"/>
      <use x="383.326172" xlink:href="#DejaVuSans-73"/>
      <use x="435.425781" xlink:href="#DejaVuSans-69"/>
      <use x="463.208984" xlink:href="#DejaVuSans-74"/>
      <use x="502.417969" xlink:href="#DejaVuSans-69"/>
      <use x="530.201172" xlink:href="#DejaVuSans-76"/>
      <use x="589.380859" xlink:href="#DejaVuSans-65"/>
      <use x="650.904297" xlink:href="#DejaVuSans-20"/>
      <use x="682.691406" xlink:href="#DejaVuSans-72"/>
      <use x="723.804688" xlink:href="#DejaVuSans-61"/>
      <use x="785.083984" xlink:href="#DejaVuSans-74"/>
      <use x="824.292969" xlink:href="#DejaVuSans-65"/>
     </g>
    </g>
   </g>
   <g id="line2d_13">
    <path clip-path="url(#p40db382d26)" d="M 48.2 303 
L 52.178283 300.105711 
L 56.156566 297.211421 
L 60.134848 294.317132 
L 64.113131 291.422842 
L 68.091414 288.528553 
L 72.069697 285.634263 
L 76.04798 282.739974 
L 80.026263 279.845685 
L 84.004545 276.951395 
L 87.982828 274.057106 
L 91.961111 271.162816 
L 95.939394 268.268527 
L 99.917677 265.374237 
L 103.89596 262.479948 
L 107.874242 259.585659 
L 111.852525 256.691369 
L 115.830808 253.79708 
L 119.809091 250.90279 
L 123.787374 248.008501 
L 127.765657 245.114211 
L 131.743939 242.219922 
L 135.722222 239.325633 
L 139.700505 236.431343 
L 143.678788 233.537054 
L 147.657071 230.642764 
L 151.635354 227.748475 
L 155.613636 224.854185 
L 159.591919 221.959896 
L 163.570202 219.065607 
L 167.548485 216.171317 
L 171.526768 213.277028 
L 175.505051 210.382738 
L 179.483333 207.488449 
L 183.461616 204.594159 
L 187.439899 201.69987 
L 191.418182 198.805581 
L 195.396465 195.911291 
L 199.374747 193.017002 
L 203.35303 190.122712 
L 207.331313 187.228423 
L 211.309596 184.334133 
L 215.287879 181.439844 
L 219.266162 178.545555 
L 223.244444 175.651265 
L 227.222727 172.756976 
L 231.20101 169.862686 
L 235.179293 166.968397 
L 239.157576 164.074107 
L 243.135859 161.179818 
L 247.114141 158.285529 
L 251.092424 155.391239 
L 255.070707 152.49695 
L 259.04899 149.60266 
L 263.027273 146.708371 
L 267.005556 143.814081 
L 270.983838 140.919792 
L 274.962121 138.025503 
L 278.940404 135.131213 
L 282.918687 132.236924 
L 286.89697 129.342634 
L 290.875253 126.448345 
L 294.853535 123.554055 
L 298.831818 120.659766 
L 302.810101 117.765477 
L 306.788384 114.871187 
L 310.766667 111.976898 
L 314.744949 109.082608 
L 318.723232 106.188319 
L 322.701515 103.294029 
L 326.679798 100.39974 
L 330.658081 97.505451 
L 334.636364 94.611161 
L 338.614646 91.716872 
L 342.592929 88.822582 
L 346.571212 85.928293 
L 350.549495 83.034003 
L 354.527778 80.139714 
L 358.506061 77.245425 
L 362.484343 74.351135 
L 366.462626 71.456846 
L 370.440909 68.562556 
L 374.419192 65.668267 
L 378.397475 62.773977 
L 382.375758 59.879688 
L 386.35404 56.985399 
L 390.332323 54.091109 
L 394.310606 51.19682 
L 398.288889 48.30253 
L 402.267172 45.408241 
L 406.245455 42.513951 
L 410.223737 39.619662 
L 414.20202 36.725373 
L 418.180303 33.831083 
L 422.158586 30.936794 
L 426.136869 28.042504 
L 430.115152 25.148215 
L 434.093434 22.253925 
L 438.071717 19.359636 
L 442.05 16.465347 
" style="fill:none;stroke:#cccccc;stroke-dasharray:5.55,2.4;stroke-dashoffset:0;stroke-width:1.5;"/>
   </g>
   <g id="line2d_14">
    <path clip-path="url(#p40db382d26)" d="M 48.2 303 
L 52.1385 275.835972 
L 56.077 268.627792 
L 60.0155 264.080861 
L 63.954 260.270264 
L 67.8925 256.829086 
L 71.831 253.736253 
L 75.7695 250.727338 
L 79.708 247.607619 
L 83.6465 243.745049 
L 87.585 240.577104 
L 91.5235 237.462925 
L 95.462 234.028708 
L 99.4005 231.307717 
L 103.339 228.501026 
L 107.2775 225.49765 
L 111.216 222.690675 
L 115.1545 219.827462 
L 119.093 217.242701 
L 123.0315 214.403259 
L 126.97 211.809812 
L 130.9085 209.341953 
L 134.847 206.753561 
L 138.7855 204.04288 
L 142.724 201.31322 
L 146.6625 198.804386 
L 150.601 195.947136 
L 154.5395 193.561317 
L 158.478 191.015293 
L 162.4165 188.524364 
L 166.355 186.026481 
L 170.2935 183.297688 
L 174.232 180.817344 
L 178.1705 178.143205 
L 182.109 175.592428 
L 186.0475 173.123243 
L 189.986 170.5901 
L 193.9245 167.98464 
L 197.863 165.425243 
L 201.8015 162.993728 
L 205.74 160.328788 
L 209.6785 157.850161 
L 213.617 155.404428 
L 217.5555 152.877553 
L 221.494 150.265957 
L 225.4325 147.581193 
L 229.371 145.313614 
L 233.3095 142.760969 
L 237.248 140.191148 
L 241.1865 137.736615 
L 245.125 135.209919 
L 249.0635 132.539456 
L 253.002 129.919641 
L 256.9405 127.369262 
L 260.879 125.060526 
L 264.8175 122.453352 
L 268.756 119.89512 
L 272.6945 117.384533 
L 276.633 115.054432 
L 280.5715 112.605513 
L 284.51 110.320684 
L 288.4485 108.075808 
L 292.387 105.843769 
L 296.3255 103.562162 
L 300.264 100.990105 
L 304.2025 98.453751 
L 308.141 96.037735 
L 312.0795 93.655791 
L 316.018 91.300489 
L 319.9565 89.009151 
L 323.895 86.64908 
L 327.8335 84.066768 
L 331.772 81.241344 
L 335.7105 78.704167 
L 339.649 76.343872 
L 343.5875 73.962652 
L 347.526 71.591516 
L 351.4645 69.191132 
L 355.403 66.691941 
L 359.3415 64.073843 
L 363.28 61.553434 
L 367.2185 59.094506 
L 371.157 56.604326 
L 375.0955 54.170701 
L 379.034 51.682816 
L 382.9725 49.398161 
L 386.911 47.069615 
L 390.8495 44.696227 
L 394.788 42.333893 
L 398.7265 40.022792 
L 402.665 37.853255 
L 406.6035 35.58811 
L 410.542 33.495741 
L 414.4805 31.467618 
L 418.419 29.319299 
L 422.3575 27.258177 
L 426.296 25.116492 
L 430.2345 22.79339 
L 434.173 20.650683 
L 438.1115 18.52937 
L 442.05 16.465347 
" style="fill:none;stroke:#0000ff;stroke-linecap:square;stroke-width:1.5;"/>
   </g>
   <g id="line2d_15">
    <path clip-path="url(#p40db382d26)" d="M 48.2 303 
L 52.1385 275.738025 
L 56.077 268.163048 
L 60.0155 263.257307 
L 63.954 258.578784 
L 67.8925 254.493197 
L 71.831 250.398521 
L 75.7695 246.375317 
L 79.708 242.32483 
L 83.6465 238.734 
L 87.585 235.447238 
L 91.5235 232.293581 
L 95.462 229.131615 
L 99.4005 226.243449 
L 103.339 223.377557 
L 107.2775 220.571766 
L 111.216 217.870216 
L 115.1545 215.244129 
L 119.093 212.55297 
L 123.0315 209.821697 
L 126.97 207.146197 
L 130.9085 204.436878 
L 134.847 201.646843 
L 138.7855 198.802352 
L 142.724 196.322603 
L 146.6625 193.555506 
L 150.601 191.035174 
L 154.5395 188.611628 
L 158.478 185.983233 
L 162.4165 183.445995 
L 166.355 181.063093 
L 170.2935 178.699159 
L 174.232 176.132451 
L 178.1705 173.591685 
L 182.109 171.308462 
L 186.0475 168.771161 
L 189.986 166.458986 
L 193.9245 163.925914 
L 197.863 161.521265 
L 201.8015 159.336268 
L 205.74 156.843551 
L 209.6785 154.354782 
L 213.617 152.098809 
L 217.5555 149.536555 
L 221.494 147.093892 
L 225.4325 144.667139 
L 229.371 142.329221 
L 233.3095 139.793526 
L 237.248 137.480195 
L 241.1865 134.892981 
L 245.125 132.578628 
L 249.0635 130.214477 
L 253.002 127.808711 
L 256.9405 125.472882 
L 260.879 123.091363 
L 264.8175 120.681671 
L 268.756 118.394483 
L 272.6945 115.825373 
L 276.633 113.314781 
L 280.5715 111.02611 
L 284.51 108.585662 
L 288.4485 106.402574 
L 292.387 103.956317 
L 296.3255 101.370396 
L 300.264 98.921018 
L 304.2025 96.483611 
L 308.141 94.20823 
L 312.0795 91.921379 
L 316.018 89.538955 
L 319.9565 87.172586 
L 323.895 84.784559 
L 327.8335 82.534657 
L 331.772 80.371467 
L 335.7105 77.925929 
L 339.649 75.413886 
L 343.5875 73.210275 
L 347.526 70.977312 
L 351.4645 68.700523 
L 355.403 66.263662 
L 359.3415 63.948399 
L 363.28 61.795297 
L 367.2185 59.710944 
L 371.157 57.210375 
L 375.0955 54.814364 
L 379.034 52.482513 
L 382.9725 50.118229 
L 386.911 47.846068 
L 390.8495 45.637108 
L 394.788 43.469808 
L 398.7265 41.365695 
L 402.665 39.189546 
L 406.6035 37.041875 
L 410.542 34.934106 
L 414.4805 32.65749 
L 418.419 30.374252 
L 422.3575 28.186735 
L 426.296 25.823271 
L 430.2345 23.412709 
L 434.173 21.179158 
L 438.1115 18.880999 
L 442.05 16.465347 
" style="fill:none;stroke:#0000ff;stroke-dasharray:5.55,2.4;stroke-dashoffset:0;stroke-width:1.5;"/>
   </g>
   <g id="line2d_16">
    <path clip-path="url(#p40db382d26)" d="M 48.2 303 
L 52.1385 259.136168 
L 56.077 246.97053 
L 60.0155 239.365404 
L 63.954 233.79683 
L 67.8925 229.228733 
L 71.831 224.924727 
L 75.7695 220.896381 
L 79.708 217.433608 
L 83.6465 212.593865 
L 87.585 208.913299 
L 91.5235 205.768264 
L 95.462 202.685654 
L 99.4005 199.955323 
L 103.339 197.230129 
L 107.2775 194.60075 
L 111.216 192.238798 
L 115.1545 189.671045 
L 119.093 187.115103 
L 123.0315 184.623065 
L 126.97 182.366668 
L 130.9085 180.061693 
L 134.847 177.713627 
L 138.7855 175.450064 
L 142.724 173.185547 
L 146.6625 170.947639 
L 150.601 168.588052 
L 154.5395 166.295911 
L 158.478 164.071701 
L 162.4165 161.806002 
L 166.355 159.535827 
L 170.2935 157.307706 
L 174.232 155.257666 
L 178.1705 153.019566 
L 182.109 150.790285 
L 186.0475 148.696368 
L 189.986 146.572226 
L 193.9245 144.429278 
L 197.863 142.239039 
L 201.8015 140.133289 
L 205.74 138.049658 
L 209.6785 136.064097 
L 213.617 133.879388 
L 217.5555 131.667628 
L 221.494 129.568713 
L 225.4325 127.54244 
L 229.371 125.584072 
L 233.3095 123.525257 
L 237.248 121.526668 
L 241.1865 119.390786 
L 245.125 117.33699 
L 249.0635 115.229034 
L 253.002 113.157663 
L 256.9405 110.970963 
L 260.879 108.865233 
L 264.8175 106.786054 
L 268.756 104.738451 
L 272.6945 102.694431 
L 276.633 100.683976 
L 280.5715 98.654074 
L 284.51 96.575197 
L 288.4485 94.456537 
L 292.387 92.38617 
L 296.3255 90.464328 
L 300.264 88.371724 
L 304.2025 86.385042 
L 308.141 84.317239 
L 312.0795 82.322236 
L 316.018 80.294718 
L 319.9565 78.328148 
L 323.895 76.375261 
L 327.8335 74.459066 
L 331.772 72.328282 
L 335.7105 70.32315 
L 339.649 68.355401 
L 343.5875 66.227514 
L 347.526 64.127314 
L 351.4645 62.064846 
L 355.403 60.037843 
L 359.3415 58.073916 
L 363.28 55.955595 
L 367.2185 53.907938 
L 371.157 51.887537 
L 375.0955 49.820143 
L 379.034 47.801057 
L 382.9725 45.854987 
L 386.911 43.917932 
L 390.8495 41.940905 
L 394.788 39.967159 
L 398.7265 37.981955 
L 402.665 35.969492 
L 406.6035 33.96536 
L 410.542 31.904347 
L 414.4805 29.924176 
L 418.419 28.008017 
L 422.3575 26.200328 
L 426.296 24.345061 
L 430.2345 22.428828 
L 434.173 20.368887 
L 438.1115 18.355245 
L 442.05 16.465347 
" style="fill:none;stroke:#008000;stroke-linecap:square;stroke-width:1.5;"/>
   </g>
   <g id="line2d_17">
    <path clip-path="url(#p40db382d26)" d="M 48.2 303 
L 52.1385 254.276948 
L 56.077 242.007698 
L 60.0155 234.776303 
L 63.954 228.604515 
L 67.8925 223.355491 
L 71.831 218.661317 
L 75.7695 214.488409 
L 79.708 210.427599 
L 83.6465 206.400439 
L 87.585 202.653462 
L 91.5235 199.329929 
L 95.462 196.186547 
L 99.4005 193.103217 
L 103.339 190.272389 
L 107.2775 187.43552 
L 111.216 184.531619 
L 115.1545 181.720248 
L 119.093 179.001062 
L 123.0315 176.392128 
L 126.97 173.914756 
L 130.9085 171.471664 
L 134.847 169.168717 
L 138.7855 166.819713 
L 142.724 164.549219 
L 146.6625 162.282451 
L 150.601 160.003016 
L 154.5395 157.836926 
L 158.478 155.708961 
L 162.4165 153.559118 
L 166.355 151.395342 
L 170.2935 149.160637 
L 174.232 147.08226 
L 178.1705 144.977889 
L 182.109 142.795178 
L 186.0475 140.695294 
L 189.986 138.709071 
L 193.9245 136.611905 
L 197.863 134.523753 
L 201.8015 132.561552 
L 205.74 130.617753 
L 209.6785 128.57987 
L 213.617 126.57865 
L 217.5555 124.63025 
L 221.494 122.681781 
L 225.4325 120.728384 
L 229.371 118.761655 
L 233.3095 116.801611 
L 237.248 114.821358 
L 241.1865 112.919373 
L 245.125 110.965773 
L 249.0635 109.060031 
L 253.002 107.227892 
L 256.9405 105.378189 
L 260.879 103.512678 
L 264.8175 101.683074 
L 268.756 99.813616 
L 272.6945 97.94352 
L 276.633 96.123335 
L 280.5715 94.281932 
L 284.51 92.493784 
L 288.4485 90.684309 
L 292.387 88.757255 
L 296.3255 86.801336 
L 300.264 84.911423 
L 304.2025 83.002689 
L 308.141 81.108119 
L 312.0795 79.113541 
L 316.018 77.089536 
L 319.9565 75.127365 
L 323.895 73.168178 
L 327.8335 71.302497 
L 331.772 69.365836 
L 335.7105 67.317829 
L 339.649 65.218526 
L 343.5875 63.233588 
L 347.526 61.331731 
L 351.4645 59.34603 
L 355.403 57.4376 
L 359.3415 55.473977 
L 363.28 53.522555 
L 367.2185 51.568841 
L 371.157 49.610136 
L 375.0955 47.649552 
L 379.034 45.729652 
L 382.9725 43.923412 
L 386.911 42.052562 
L 390.8495 40.099396 
L 394.788 38.232908 
L 398.7265 36.371869 
L 402.665 34.628132 
L 406.6035 32.926783 
L 410.542 31.270928 
L 414.4805 29.470669 
L 418.419 27.714912 
L 422.3575 25.996185 
L 426.296 24.23887 
L 430.2345 22.269764 
L 434.173 20.319266 
L 438.1115 18.461729 
L 442.05 16.465347 
" style="fill:none;stroke:#008000;stroke-dasharray:5.55,2.4;stroke-dashoffset:0;stroke-width:1.5;"/>
   </g>
   <g id="line2d_18">
    <path clip-path="url(#p40db382d26)" d="M 48.2 303 
L 52.1385 259.981743 
L 56.077 246.350307 
L 60.0155 238.413875 
L 63.954 231.893271 
L 67.8925 225.930608 
L 71.831 220.765721 
L 75.7695 216.505681 
L 79.708 212.251797 
L 83.6465 206.988546 
L 87.585 201.935854 
L 91.5235 198.025003 
L 95.462 194.126797 
L 99.4005 190.834348 
L 103.339 187.68862 
L 107.2775 184.639236 
L 111.216 181.55561 
L 115.1545 178.480069 
L 119.093 175.568825 
L 123.0315 173.008618 
L 126.97 170.568731 
L 130.9085 168.234375 
L 134.847 165.763269 
L 138.7855 163.352149 
L 142.724 161.007561 
L 146.6625 158.561157 
L 150.601 156.114515 
L 154.5395 153.970414 
L 158.478 151.932592 
L 162.4165 149.80804 
L 166.355 147.716314 
L 170.2935 145.717236 
L 174.232 143.492855 
L 178.1705 141.241482 
L 182.109 139.162288 
L 186.0475 137.174399 
L 189.986 135.068173 
L 193.9245 133.016431 
L 197.863 130.969425 
L 201.8015 129.013005 
L 205.74 126.973567 
L 209.6785 124.908195 
L 213.617 122.799358 
L 217.5555 120.761516 
L 221.494 118.710844 
L 225.4325 116.677095 
L 229.371 114.68793 
L 233.3095 112.641163 
L 237.248 110.675195 
L 241.1865 108.660594 
L 245.125 106.646145 
L 249.0635 104.54658 
L 253.002 102.517865 
L 256.9405 100.652029 
L 260.879 98.793191 
L 264.8175 96.918196 
L 268.756 95.099266 
L 272.6945 93.239508 
L 276.633 91.340126 
L 280.5715 89.317967 
L 284.51 87.417709 
L 288.4485 85.59511 
L 292.387 83.659557 
L 296.3255 81.807542 
L 300.264 80.036131 
L 304.2025 78.166027 
L 308.141 76.246708 
L 312.0795 74.416248 
L 316.018 72.573437 
L 319.9565 70.778531 
L 323.895 68.956156 
L 327.8335 67.097651 
L 331.772 65.384751 
L 335.7105 63.760152 
L 339.649 61.937121 
L 343.5875 60.172281 
L 347.526 58.418556 
L 351.4645 56.82028 
L 355.403 55.261002 
L 359.3415 53.607353 
L 363.28 51.917458 
L 367.2185 50.283676 
L 371.157 48.590796 
L 375.0955 46.772619 
L 379.034 45.064043 
L 382.9725 43.260175 
L 386.911 41.416201 
L 390.8495 39.681842 
L 394.788 37.857634 
L 398.7265 36.189019 
L 402.665 34.424726 
L 406.6035 32.682402 
L 410.542 30.983421 
L 414.4805 29.092918 
L 418.419 27.180185 
L 422.3575 25.304594 
L 426.296 23.484317 
L 430.2345 21.648959 
L 434.173 19.85281 
L 438.1115 18.05598 
L 442.05 16.465347 
" style="fill:none;stroke:#bfbf00;stroke-linecap:square;stroke-width:1.5;"/>
   </g>
   <g id="line2d_19">
    <path clip-path="url(#p40db382d26)" d="M 48.2 303 
L 52.1385 250.318229 
L 56.077 232.131927 
L 60.0155 222.810661 
L 63.954 216.104107 
L 67.8925 210.245909 
L 71.831 205.051629 
L 75.7695 200.708774 
L 79.708 196.618376 
L 83.6465 192.766238 
L 87.585 189.075462 
L 91.5235 185.393101 
L 95.462 181.918144 
L 99.4005 178.712001 
L 103.339 175.457552 
L 107.2775 172.383059 
L 111.216 169.566568 
L 115.1545 166.775231 
L 119.093 164.242902 
L 123.0315 161.87453 
L 126.97 159.48606 
L 130.9085 157.064787 
L 134.847 154.814228 
L 138.7855 152.684874 
L 142.724 150.523848 
L 146.6625 148.283547 
L 150.601 146.028311 
L 154.5395 143.875139 
L 158.478 141.740296 
L 162.4165 139.615649 
L 166.355 137.487379 
L 170.2935 135.394732 
L 174.232 133.397266 
L 178.1705 131.350121 
L 182.109 129.293353 
L 186.0475 127.280184 
L 189.986 125.245859 
L 193.9245 123.326312 
L 197.863 121.45622 
L 201.8015 119.647338 
L 205.74 117.760465 
L 209.6785 115.87347 
L 213.617 114.040324 
L 217.5555 112.224935 
L 221.494 110.467027 
L 225.4325 108.626548 
L 229.371 106.896687 
L 233.3095 105.074654 
L 237.248 103.30047 
L 241.1865 101.641735 
L 245.125 99.851061 
L 249.0635 98.101421 
L 253.002 96.443477 
L 256.9405 94.849463 
L 260.879 93.218889 
L 264.8175 91.570893 
L 268.756 89.925309 
L 272.6945 88.249545 
L 276.633 86.650119 
L 280.5715 85.09423 
L 284.51 83.38828 
L 288.4485 81.62189 
L 292.387 79.927714 
L 296.3255 78.118787 
L 300.264 76.36882 
L 304.2025 74.678041 
L 308.141 72.987165 
L 312.0795 71.366833 
L 316.018 69.815452 
L 319.9565 68.154287 
L 323.895 66.459345 
L 327.8335 64.747722 
L 331.772 63.142373 
L 335.7105 61.480011 
L 339.649 59.787545 
L 343.5875 58.125653 
L 347.526 56.535387 
L 351.4645 54.829976 
L 355.403 53.188908 
L 359.3415 51.54951 
L 363.28 49.748484 
L 367.2185 47.96575 
L 371.157 46.332974 
L 375.0955 44.662116 
L 379.034 42.952601 
L 382.9725 41.273079 
L 386.911 39.595875 
L 390.8495 37.988072 
L 394.788 36.334143 
L 398.7265 34.644103 
L 402.665 32.90219 
L 406.6035 31.138062 
L 410.542 29.367269 
L 414.4805 27.633481 
L 418.419 26.07177 
L 422.3575 24.592524 
L 426.296 23.075097 
L 430.2345 21.414038 
L 434.173 19.522584 
L 438.1115 17.911378 
L 442.05 16.465347 
" style="fill:none;stroke:#bfbf00;stroke-dasharray:5.55,2.4;stroke-dashoffset:0;stroke-width:1.5;"/>
   </g>
   <g id="line2d_20">
    <path clip-path="url(#p40db382d26)" d="M 48.2 303 
L 52.1385 265.46827 
L 56.077 252.190483 
L 60.0155 245.564528 
L 63.954 240.004027 
L 67.8925 235.601063 
L 71.831 231.515386 
L 75.7695 227.15962 
L 79.708 222.168944 
L 83.6465 216.721055 
L 87.585 211.544176 
L 91.5235 207.100252 
L 95.462 202.269042 
L 99.4005 198.492801 
L 103.339 194.915841 
L 107.2775 191.511899 
L 111.216 188.129803 
L 115.1545 184.818535 
L 119.093 181.379074 
L 123.0315 178.329656 
L 126.97 175.456688 
L 130.9085 172.441066 
L 134.847 169.799452 
L 138.7855 167.014854 
L 142.724 164.055104 
L 146.6625 161.170244 
L 150.601 158.164849 
L 154.5395 155.465587 
L 158.478 152.732636 
L 162.4165 150.003474 
L 166.355 147.450737 
L 170.2935 144.74846 
L 174.232 141.953319 
L 178.1705 139.313587 
L 182.109 136.837478 
L 186.0475 134.440473 
L 189.986 132.11533 
L 193.9245 129.89858 
L 197.863 127.506944 
L 201.8015 125.170391 
L 205.74 122.835738 
L 209.6785 120.546185 
L 213.617 118.25329 
L 217.5555 115.847325 
L 221.494 113.513973 
L 225.4325 111.199227 
L 229.371 109.052105 
L 233.3095 106.849345 
L 237.248 104.820855 
L 241.1865 102.778622 
L 245.125 100.799527 
L 249.0635 98.920489 
L 253.002 96.931804 
L 256.9405 95.09597 
L 260.879 93.127515 
L 264.8175 91.190775 
L 268.756 89.197643 
L 272.6945 87.404155 
L 276.633 85.765445 
L 280.5715 83.950735 
L 284.51 82.177218 
L 288.4485 80.358553 
L 292.387 78.479382 
L 296.3255 76.68098 
L 300.264 74.859424 
L 304.2025 72.97451 
L 308.141 71.164651 
L 312.0795 69.526884 
L 316.018 67.745994 
L 319.9565 66.093858 
L 323.895 64.346235 
L 327.8335 62.655869 
L 331.772 60.996414 
L 335.7105 59.196105 
L 339.649 57.571935 
L 343.5875 55.862852 
L 347.526 54.269108 
L 351.4645 52.719004 
L 355.403 51.177123 
L 359.3415 49.660094 
L 363.28 48.174374 
L 367.2185 46.652451 
L 371.157 45.171213 
L 375.0955 43.692523 
L 379.034 42.223385 
L 382.9725 40.70749 
L 386.911 39.155478 
L 390.8495 37.517411 
L 394.788 35.993942 
L 398.7265 34.476114 
L 402.665 32.911396 
L 406.6035 31.248733 
L 410.542 29.607061 
L 414.4805 27.790986 
L 418.419 25.867812 
L 422.3575 24.061028 
L 426.296 22.549318 
L 430.2345 20.987235 
L 434.173 19.528522 
L 438.1115 17.844967 
L 442.05 16.465347 
" style="fill:none;stroke:#ff0000;stroke-linecap:square;stroke-width:1.5;"/>
   </g>
   <g id="line2d_21">
    <path clip-path="url(#p40db382d26)" d="M 48.2 303 
L 52.1385 263.523634 
L 56.077 236.98344 
L 60.0155 223.537071 
L 63.954 214.304117 
L 67.8925 206.972327 
L 71.831 200.292716 
L 75.7695 194.195891 
L 79.708 189.178946 
L 83.6465 184.483965 
L 87.585 180.525832 
L 91.5235 176.489259 
L 95.462 172.890112 
L 99.4005 169.516314 
L 103.339 166.382124 
L 107.2775 163.452964 
L 111.216 160.508746 
L 115.1545 157.812557 
L 119.093 155.183877 
L 123.0315 152.561065 
L 126.97 150.112509 
L 130.9085 147.698351 
L 134.847 145.490751 
L 138.7855 143.334873 
L 142.724 141.381456 
L 146.6625 139.320928 
L 150.601 137.198237 
L 154.5395 135.068118 
L 158.478 132.925742 
L 162.4165 131.01785 
L 166.355 129.097333 
L 170.2935 127.072619 
L 174.232 124.995778 
L 178.1705 123.019975 
L 182.109 121.145202 
L 186.0475 119.207201 
L 189.986 117.298193 
L 193.9245 115.252093 
L 197.863 113.208214 
L 201.8015 111.279003 
L 205.74 109.246362 
L 209.6785 107.257045 
L 213.617 105.323339 
L 217.5555 103.480757 
L 221.494 101.555483 
L 225.4325 99.752167 
L 229.371 97.899914 
L 233.3095 96.0331 
L 237.248 94.100528 
L 241.1865 92.280898 
L 245.125 90.527743 
L 249.0635 88.834075 
L 253.002 87.085422 
L 256.9405 85.313921 
L 260.879 83.617833 
L 264.8175 82.000307 
L 268.756 80.316474 
L 272.6945 78.706222 
L 276.633 77.2149 
L 280.5715 75.701576 
L 284.51 74.261613 
L 288.4485 72.834516 
L 292.387 71.368397 
L 296.3255 69.799696 
L 300.264 68.373687 
L 304.2025 66.974601 
L 308.141 65.664241 
L 312.0795 64.25184 
L 316.018 62.805446 
L 319.9565 61.405713 
L 323.895 59.919624 
L 327.8335 58.508212 
L 331.772 57.078157 
L 335.7105 55.672612 
L 339.649 54.290085 
L 343.5875 52.847223 
L 347.526 51.322737 
L 351.4645 49.821646 
L 355.403 48.337848 
L 359.3415 46.99394 
L 363.28 45.657077 
L 367.2185 44.352517 
L 371.157 42.895331 
L 375.0955 41.364494 
L 379.034 39.773048 
L 382.9725 38.338022 
L 386.911 36.946598 
L 390.8495 35.542932 
L 394.788 34.133466 
L 398.7265 32.761035 
L 402.665 31.338659 
L 406.6035 29.883472 
L 410.542 28.395377 
L 414.4805 26.795913 
L 418.419 25.29149 
L 422.3575 23.701251 
L 426.296 21.958176 
L 430.2345 20.431479 
L 434.173 19.086817 
L 438.1115 17.393541 
L 442.05 16.465347 
" style="fill:none;stroke:#ff0000;stroke-dasharray:5.55,2.4;stroke-dashoffset:0;stroke-width:1.5;"/>
   </g>
   <g id="patch_3">
    <path d="M 48.2 303 
L 48.2 13.6 
" style="fill:none;stroke:#000000;stroke-linecap:square;stroke-linejoin:miter;stroke-width:0.8;"/>
   </g>
   <g id="patch_4">
    <path d="M 442.05 303 
L 442.05 13.6 
" style="fill:none;stroke:#000000;stroke-linecap:square;stroke-linejoin:miter;stroke-width:0.8;"/>
   </g>
   <g id="patch_5">
    <path d="M 48.2 303 
L 442.05 303 
" style="fill:none;stroke:#000000;stroke-linecap:square;stroke-linejoin:miter;stroke-width:0.8;"/>
   </g>
   <g id="patch_6">
    <path d="M 48.2 13.6 
L 442.05 13.6 
" style="fill:none;stroke:#000000;stroke-linecap:square;stroke-linejoin:miter;stroke-width:0.8;"/>
   </g>
   <g id="legend_1">
    <g id="patch_7">
     <path d="M 162.614063 298 
L 435.05 298 
Q 437.05 298 437.05 296 
L 437.05 179.4875 
Q 437.05 177.4875 435.05 177.4875 
L 162.614063 177.4875 
Q 160.614063 177.4875 160.614063 179.4875 
L 160.614063 296 
Q 160.614063 298 162.614063 298 
z
" style="fill:#ffffff;opacity:0.8;stroke:#cccccc;stroke-linejoin:miter;"/>
    </g>
    <g id="line2d_22">
     <path d="M 164.614063 185.5875 
L 184.614063 185.5875 
" style="fill:none;stroke:#0000ff;stroke-linecap:square;stroke-width:1.5;"/>
    </g>
    <g id="line2d_23"/>
    <g id="text_15">
     <!-- $\mu$ 1 seed node(s) mean AUC: 0.58 (std: 0.15) -->
     <defs>
      <path d="M -1.3125 -20.796875 
L 13.375 54.6875 
L 22.40625 54.6875 
L 15.765625 20.65625 
Q 15.578125 19.625 15.421875 18.359375 
Q 15.28125 17.09375 15.28125 15.828125 
Q 15.28125 11.28125 18.140625 8.828125 
Q 21 6.390625 26.3125 6.390625 
Q 33.546875 6.390625 37.984375 10.484375 
Q 42.4375 14.59375 44 22.796875 
L 50.203125 54.6875 
L 59.1875 54.6875 
L 51.03125 12.640625 
Q 50.828125 11.71875 50.75 11.03125 
Q 50.6875 10.359375 50.6875 9.8125 
Q 50.6875 8.296875 51.296875 7.59375 
Q 51.90625 6.890625 53.21875 6.890625 
Q 53.71875 6.890625 54.5625 7.125 
Q 55.421875 7.375 56.984375 8.015625 
L 55.609375 0.78125 
Q 53.46875 -0.296875 51.515625 -0.859375 
Q 49.5625 -1.421875 47.703125 -1.421875 
Q 44.484375 -1.421875 42.65625 0.625 
Q 40.828125 2.6875 40.828125 6.296875 
Q 38.09375 2.390625 34.296875 0.484375 
Q 30.515625 -1.421875 25.390625 -1.421875 
Q 20.84375 -1.421875 17.453125 0.671875 
Q 14.0625 2.78125 12.984375 6.203125 
L 7.71875 -20.796875 
z
" id="DejaVuSans-Oblique-3bc"/>
      <path d="M 45.40625 46.390625 
L 45.40625 75.984375 
L 54.390625 75.984375 
L 54.390625 0 
L 45.40625 0 
L 45.40625 8.203125 
Q 42.578125 3.328125 38.25 0.953125 
Q 33.9375 -1.421875 27.875 -1.421875 
Q 17.96875 -1.421875 11.734375 6.484375 
Q 5.515625 14.40625 5.515625 27.296875 
Q 5.515625 40.1875 11.734375 48.09375 
Q 17.96875 56 27.875 56 
Q 33.9375 56 38.25 53.625 
Q 42.578125 51.265625 45.40625 46.390625 
z
M 14.796875 27.296875 
Q 14.796875 17.390625 18.875 11.75 
Q 22.953125 6.109375 30.078125 6.109375 
Q 37.203125 6.109375 41.296875 11.75 
Q 45.40625 17.390625 45.40625 27.296875 
Q 45.40625 37.203125 41.296875 42.84375 
Q 37.203125 48.484375 30.078125 48.484375 
Q 22.953125 48.484375 18.875 42.84375 
Q 14.796875 37.203125 14.796875 27.296875 
z
" id="DejaVuSans-64"/>
      <path d="M 54.890625 33.015625 
L 54.890625 0 
L 45.90625 0 
L 45.90625 32.71875 
Q 45.90625 40.484375 42.875 44.328125 
Q 39.84375 48.1875 33.796875 48.1875 
Q 26.515625 48.1875 22.3125 43.546875 
Q 18.109375 38.921875 18.109375 30.90625 
L 18.109375 0 
L 9.078125 0 
L 9.078125 54.6875 
L 18.109375 54.6875 
L 18.109375 46.1875 
Q 21.34375 51.125 25.703125 53.5625 
Q 30.078125 56 35.796875 56 
Q 45.21875 56 50.046875 50.171875 
Q 54.890625 44.34375 54.890625 33.015625 
z
" id="DejaVuSans-6e"/>
      <path d="M 31 75.875 
Q 24.46875 64.65625 21.28125 53.65625 
Q 18.109375 42.671875 18.109375 31.390625 
Q 18.109375 20.125 21.3125 9.0625 
Q 24.515625 -2 31 -13.1875 
L 23.1875 -13.1875 
Q 15.875 -1.703125 12.234375 9.375 
Q 8.59375 20.453125 8.59375 31.390625 
Q 8.59375 42.28125 12.203125 53.3125 
Q 15.828125 64.359375 23.1875 75.875 
z
" id="DejaVuSans-28"/>
      <path d="M 8.015625 75.875 
L 15.828125 75.875 
Q 23.140625 64.359375 26.78125 53.3125 
Q 30.421875 42.28125 30.421875 31.390625 
Q 30.421875 20.453125 26.78125 9.375 
Q 23.140625 -1.703125 15.828125 -13.1875 
L 8.015625 -13.1875 
Q 14.5 -2 17.703125 9.0625 
Q 20.90625 20.125 20.90625 31.390625 
Q 20.90625 42.671875 17.703125 53.65625 
Q 14.5 64.65625 8.015625 75.875 
z
" id="DejaVuSans-29"/>
      <path d="M 52 44.1875 
Q 55.375 50.25 60.0625 53.125 
Q 64.75 56 71.09375 56 
Q 79.640625 56 84.28125 50.015625 
Q 88.921875 44.046875 88.921875 33.015625 
L 88.921875 0 
L 79.890625 0 
L 79.890625 32.71875 
Q 79.890625 40.578125 77.09375 44.375 
Q 74.3125 48.1875 68.609375 48.1875 
Q 61.625 48.1875 57.5625 43.546875 
Q 53.515625 38.921875 53.515625 30.90625 
L 53.515625 0 
L 44.484375 0 
L 44.484375 32.71875 
Q 44.484375 40.625 41.703125 44.40625 
Q 38.921875 48.1875 33.109375 48.1875 
Q 26.21875 48.1875 22.15625 43.53125 
Q 18.109375 38.875 18.109375 30.90625 
L 18.109375 0 
L 9.078125 0 
L 9.078125 54.6875 
L 18.109375 54.6875 
L 18.109375 46.1875 
Q 21.1875 51.21875 25.484375 53.609375 
Q 29.78125 56 35.6875 56 
Q 41.65625 56 45.828125 52.96875 
Q 50 49.953125 52 44.1875 
z
" id="DejaVuSans-6d"/>
      <path d="M 34.1875 63.1875 
L 20.796875 26.90625 
L 47.609375 26.90625 
z
M 28.609375 72.90625 
L 39.796875 72.90625 
L 67.578125 0 
L 57.328125 0 
L 50.6875 18.703125 
L 17.828125 18.703125 
L 11.1875 0 
L 0.78125 0 
z
" id="DejaVuSans-41"/>
      <path d="M 8.6875 72.90625 
L 18.609375 72.90625 
L 18.609375 28.609375 
Q 18.609375 16.890625 22.84375 11.734375 
Q 27.09375 6.59375 36.625 6.59375 
Q 46.09375 6.59375 50.34375 11.734375 
Q 54.59375 16.890625 54.59375 28.609375 
L 54.59375 72.90625 
L 64.5 72.90625 
L 64.5 27.390625 
Q 64.5 13.140625 57.4375 5.859375 
Q 50.390625 -1.421875 36.625 -1.421875 
Q 22.796875 -1.421875 15.734375 5.859375 
Q 8.6875 13.140625 8.6875 27.390625 
z
" id="DejaVuSans-55"/>
      <path d="M 64.40625 67.28125 
L 64.40625 56.890625 
Q 59.421875 61.53125 53.78125 63.8125 
Q 48.140625 66.109375 41.796875 66.109375 
Q 29.296875 66.109375 22.65625 58.46875 
Q 16.015625 50.828125 16.015625 36.375 
Q 16.015625 21.96875 22.65625 14.328125 
Q 29.296875 6.6875 41.796875 6.6875 
Q 48.140625 6.6875 53.78125 8.984375 
Q 59.421875 11.28125 64.40625 15.921875 
L 64.40625 5.609375 
Q 59.234375 2.09375 53.4375 0.328125 
Q 47.65625 -1.421875 41.21875 -1.421875 
Q 24.65625 -1.421875 15.125 8.703125 
Q 5.609375 18.84375 5.609375 36.375 
Q 5.609375 53.953125 15.125 64.078125 
Q 24.65625 74.21875 41.21875 74.21875 
Q 47.75 74.21875 53.53125 72.484375 
Q 59.328125 70.75 64.40625 67.28125 
z
" id="DejaVuSans-43"/>
      <path d="M 11.71875 12.40625 
L 22.015625 12.40625 
L 22.015625 0 
L 11.71875 0 
z
M 11.71875 51.703125 
L 22.015625 51.703125 
L 22.015625 39.3125 
L 11.71875 39.3125 
z
" id="DejaVuSans-3a"/>
      <path d="M 10.796875 72.90625 
L 49.515625 72.90625 
L 49.515625 64.59375 
L 19.828125 64.59375 
L 19.828125 46.734375 
Q 21.96875 47.46875 24.109375 47.828125 
Q 26.265625 48.1875 28.421875 48.1875 
Q 40.625 48.1875 47.75 41.5 
Q 54.890625 34.8125 54.890625 23.390625 
Q 54.890625 11.625 47.5625 5.09375 
Q 40.234375 -1.421875 26.90625 -1.421875 
Q 22.3125 -1.421875 17.546875 -0.640625 
Q 12.796875 0.140625 7.71875 1.703125 
L 7.71875 11.625 
Q 12.109375 9.234375 16.796875 8.0625 
Q 21.484375 6.890625 26.703125 6.890625 
Q 35.15625 6.890625 40.078125 11.328125 
Q 45.015625 15.765625 45.015625 23.390625 
Q 45.015625 31 40.078125 35.4375 
Q 35.15625 39.890625 26.703125 39.890625 
Q 22.75 39.890625 18.8125 39.015625 
Q 14.890625 38.140625 10.796875 36.28125 
z
" id="DejaVuSans-35"/>
     </defs>
     <g transform="translate(192.614063 189.0875)scale(0.1 -0.1)">
      <use transform="translate(0 0.015625)" xlink:href="#DejaVuSans-Oblique-3bc"/>
      <use transform="translate(63.623047 0.015625)" xlink:href="#DejaVuSans-20"/>
      <use transform="translate(95.410156 0.015625)" xlink:href="#DejaVuSans-31"/>
      <use transform="translate(159.033203 0.015625)" xlink:href="#DejaVuSans-20"/>
      <use transform="translate(190.820312 0.015625)" xlink:href="#DejaVuSans-73"/>
      <use transform="translate(242.919922 0.015625)" xlink:href="#DejaVuSans-65"/>
      <use transform="translate(304.443359 0.015625)" xlink:href="#DejaVuSans-65"/>
      <use transform="translate(365.966797 0.015625)" xlink:href="#DejaVuSans-64"/>
      <use transform="translate(429.443359 0.015625)" xlink:href="#DejaVuSans-20"/>
      <use transform="translate(461.230469 0.015625)" xlink:href="#DejaVuSans-6e"/>
      <use transform="translate(524.609375 0.015625)" xlink:href="#DejaVuSans-6f"/>
      <use transform="translate(585.791016 0.015625)" xlink:href="#DejaVuSans-64"/>
      <use transform="translate(649.267578 0.015625)" xlink:href="#DejaVuSans-65"/>
      <use transform="translate(710.791016 0.015625)" xlink:href="#DejaVuSans-28"/>
      <use transform="translate(749.804688 0.015625)" xlink:href="#DejaVuSans-73"/>
      <use transform="translate(801.904297 0.015625)" xlink:href="#DejaVuSans-29"/>
      <use transform="translate(840.917969 0.015625)" xlink:href="#DejaVuSans-20"/>
      <use transform="translate(872.705078 0.015625)" xlink:href="#DejaVuSans-6d"/>
      <use transform="translate(970.117188 0.015625)" xlink:href="#DejaVuSans-65"/>
      <use transform="translate(1031.640625 0.015625)" xlink:href="#DejaVuSans-61"/>
      <use transform="translate(1092.919922 0.015625)" xlink:href="#DejaVuSans-6e"/>
      <use transform="translate(1156.298828 0.015625)" xlink:href="#DejaVuSans-20"/>
      <use transform="translate(1188.085938 0.015625)" xlink:href="#DejaVuSans-41"/>
      <use transform="translate(1256.494141 0.015625)" xlink:href="#DejaVuSans-55"/>
      <use transform="translate(1329.6875 0.015625)" xlink:href="#DejaVuSans-43"/>
      <use transform="translate(1399.511719 0.015625)" xlink:href="#DejaVuSans-3a"/>
      <use transform="translate(1433.203125 0.015625)" xlink:href="#DejaVuSans-20"/>
      <use transform="translate(1464.990234 0.015625)" xlink:href="#DejaVuSans-30"/>
      <use transform="translate(1528.613281 0.015625)" xlink:href="#DejaVuSans-2e"/>
      <use transform="translate(1560.400391 0.015625)" xlink:href="#DejaVuSans-35"/>
      <use transform="translate(1624.023438 0.015625)" xlink:href="#DejaVuSans-38"/>
      <use transform="translate(1687.646484 0.015625)" xlink:href="#DejaVuSans-20"/>
      <use transform="translate(1719.433594 0.015625)" xlink:href="#DejaVuSans-28"/>
      <use transform="translate(1758.447266 0.015625)" xlink:href="#DejaVuSans-73"/>
      <use transform="translate(1810.546875 0.015625)" xlink:href="#DejaVuSans-74"/>
      <use transform="translate(1849.755859 0.015625)" xlink:href="#DejaVuSans-64"/>
      <use transform="translate(1913.232422 0.015625)" xlink:href="#DejaVuSans-3a"/>
      <use transform="translate(1946.923828 0.015625)" xlink:href="#DejaVuSans-20"/>
      <use transform="translate(1978.710938 0.015625)" xlink:href="#DejaVuSans-30"/>
      <use transform="translate(2042.333984 0.015625)" xlink:href="#DejaVuSans-2e"/>
      <use transform="translate(2074.121094 0.015625)" xlink:href="#DejaVuSans-31"/>
      <use transform="translate(2137.744141 0.015625)" xlink:href="#DejaVuSans-35"/>
      <use transform="translate(2201.367188 0.015625)" xlink:href="#DejaVuSans-29"/>
     </g>
    </g>
    <g id="line2d_24">
     <path d="M 164.614063 200.285937 
L 184.614063 200.285937 
" style="fill:none;stroke:#0000ff;stroke-dasharray:5.55,2.4;stroke-dashoffset:0;stroke-width:1.5;"/>
    </g>
    <g id="line2d_25"/>
    <g id="text_16">
     <!-- rwr 1 seed node(s) mean AUC: 0.59 (std: 0.15) -->
     <defs>
      <path d="M 4.203125 54.6875 
L 13.1875 54.6875 
L 24.421875 12.015625 
L 35.59375 54.6875 
L 46.1875 54.6875 
L 57.421875 12.015625 
L 68.609375 54.6875 
L 77.59375 54.6875 
L 63.28125 0 
L 52.6875 0 
L 40.921875 44.828125 
L 29.109375 0 
L 18.5 0 
z
" id="DejaVuSans-77"/>
      <path d="M 10.984375 1.515625 
L 10.984375 10.5 
Q 14.703125 8.734375 18.5 7.8125 
Q 22.3125 6.890625 25.984375 6.890625 
Q 35.75 6.890625 40.890625 13.453125 
Q 46.046875 20.015625 46.78125 33.40625 
Q 43.953125 29.203125 39.59375 26.953125 
Q 35.25 24.703125 29.984375 24.703125 
Q 19.046875 24.703125 12.671875 31.3125 
Q 6.296875 37.9375 6.296875 49.421875 
Q 6.296875 60.640625 12.9375 67.421875 
Q 19.578125 74.21875 30.609375 74.21875 
Q 43.265625 74.21875 49.921875 64.515625 
Q 56.59375 54.828125 56.59375 36.375 
Q 56.59375 19.140625 48.40625 8.859375 
Q 40.234375 -1.421875 26.421875 -1.421875 
Q 22.703125 -1.421875 18.890625 -0.6875 
Q 15.09375 0.046875 10.984375 1.515625 
z
M 30.609375 32.421875 
Q 37.25 32.421875 41.125 36.953125 
Q 45.015625 41.5 45.015625 49.421875 
Q 45.015625 57.28125 41.125 61.84375 
Q 37.25 66.40625 30.609375 66.40625 
Q 23.96875 66.40625 20.09375 61.84375 
Q 16.21875 57.28125 16.21875 49.421875 
Q 16.21875 41.5 20.09375 36.953125 
Q 23.96875 32.421875 30.609375 32.421875 
z
" id="DejaVuSans-39"/>
     </defs>
     <g transform="translate(192.614063 203.785937)scale(0.1 -0.1)">
      <use xlink:href="#DejaVuSans-72"/>
      <use x="41.113281" xlink:href="#DejaVuSans-77"/>
      <use x="122.900391" xlink:href="#DejaVuSans-72"/>
      <use x="164.013672" xlink:href="#DejaVuSans-20"/>
      <use x="195.800781" xlink:href="#DejaVuSans-31"/>
      <use x="259.423828" xlink:href="#DejaVuSans-20"/>
      <use x="291.210938" xlink:href="#DejaVuSans-73"/>
      <use x="343.310547" xlink:href="#DejaVuSans-65"/>
      <use x="404.833984" xlink:href="#DejaVuSans-65"/>
      <use x="466.357422" xlink:href="#DejaVuSans-64"/>
      <use x="529.833984" xlink:href="#DejaVuSans-20"/>
      <use x="561.621094" xlink:href="#DejaVuSans-6e"/>
      <use x="625" xlink:href="#DejaVuSans-6f"/>
      <use x="686.181641" xlink:href="#DejaVuSans-64"/>
      <use x="749.658203" xlink:href="#DejaVuSans-65"/>
      <use x="811.181641" xlink:href="#DejaVuSans-28"/>
      <use x="850.195312" xlink:href="#DejaVuSans-73"/>
      <use x="902.294922" xlink:href="#DejaVuSans-29"/>
      <use x="941.308594" xlink:href="#DejaVuSans-20"/>
      <use x="973.095703" xlink:href="#DejaVuSans-6d"/>
      <use x="1070.507812" xlink:href="#DejaVuSans-65"/>
      <use x="1132.03125" xlink:href="#DejaVuSans-61"/>
      <use x="1193.310547" xlink:href="#DejaVuSans-6e"/>
      <use x="1256.689453" xlink:href="#DejaVuSans-20"/>
      <use x="1288.476562" xlink:href="#DejaVuSans-41"/>
      <use x="1356.884766" xlink:href="#DejaVuSans-55"/>
      <use x="1430.078125" xlink:href="#DejaVuSans-43"/>
      <use x="1499.902344" xlink:href="#DejaVuSans-3a"/>
      <use x="1533.59375" xlink:href="#DejaVuSans-20"/>
      <use x="1565.380859" xlink:href="#DejaVuSans-30"/>
      <use x="1629.003906" xlink:href="#DejaVuSans-2e"/>
      <use x="1660.791016" xlink:href="#DejaVuSans-35"/>
      <use x="1724.414062" xlink:href="#DejaVuSans-39"/>
      <use x="1788.037109" xlink:href="#DejaVuSans-20"/>
      <use x="1819.824219" xlink:href="#DejaVuSans-28"/>
      <use x="1858.837891" xlink:href="#DejaVuSans-73"/>
      <use x="1910.9375" xlink:href="#DejaVuSans-74"/>
      <use x="1950.146484" xlink:href="#DejaVuSans-64"/>
      <use x="2013.623047" xlink:href="#DejaVuSans-3a"/>
      <use x="2047.314453" xlink:href="#DejaVuSans-20"/>
      <use x="2079.101562" xlink:href="#DejaVuSans-30"/>
      <use x="2142.724609" xlink:href="#DejaVuSans-2e"/>
      <use x="2174.511719" xlink:href="#DejaVuSans-31"/>
      <use x="2238.134766" xlink:href="#DejaVuSans-35"/>
      <use x="2301.757812" xlink:href="#DejaVuSans-29"/>
     </g>
    </g>
    <g id="line2d_26">
     <path d="M 164.614063 214.965625 
L 184.614063 214.965625 
" style="fill:none;stroke:#008000;stroke-linecap:square;stroke-width:1.5;"/>
    </g>
    <g id="line2d_27"/>
    <g id="text_17">
     <!-- $\mu$ 3 seed node(s) mean AUC: 0.64 (std: 0.16) -->
     <defs>
      <path d="M 40.578125 39.3125 
Q 47.65625 37.796875 51.625 33 
Q 55.609375 28.21875 55.609375 21.1875 
Q 55.609375 10.40625 48.1875 4.484375 
Q 40.765625 -1.421875 27.09375 -1.421875 
Q 22.515625 -1.421875 17.65625 -0.515625 
Q 12.796875 0.390625 7.625 2.203125 
L 7.625 11.71875 
Q 11.71875 9.328125 16.59375 8.109375 
Q 21.484375 6.890625 26.8125 6.890625 
Q 36.078125 6.890625 40.9375 10.546875 
Q 45.796875 14.203125 45.796875 21.1875 
Q 45.796875 27.640625 41.28125 31.265625 
Q 36.765625 34.90625 28.71875 34.90625 
L 20.21875 34.90625 
L 20.21875 43.015625 
L 29.109375 43.015625 
Q 36.375 43.015625 40.234375 45.921875 
Q 44.09375 48.828125 44.09375 54.296875 
Q 44.09375 59.90625 40.109375 62.90625 
Q 36.140625 65.921875 28.71875 65.921875 
Q 24.65625 65.921875 20.015625 65.03125 
Q 15.375 64.15625 9.8125 62.3125 
L 9.8125 71.09375 
Q 15.4375 72.65625 20.34375 73.4375 
Q 25.25 74.21875 29.59375 74.21875 
Q 40.828125 74.21875 47.359375 69.109375 
Q 53.90625 64.015625 53.90625 55.328125 
Q 53.90625 49.265625 50.4375 45.09375 
Q 46.96875 40.921875 40.578125 39.3125 
z
" id="DejaVuSans-33"/>
     </defs>
     <g transform="translate(192.614063 218.465625)scale(0.1 -0.1)">
      <use transform="translate(0 0.015625)" xlink:href="#DejaVuSans-Oblique-3bc"/>
      <use transform="translate(63.623047 0.015625)" xlink:href="#DejaVuSans-20"/>
      <use transform="translate(95.410156 0.015625)" xlink:href="#DejaVuSans-33"/>
      <use transform="translate(159.033203 0.015625)" xlink:href="#DejaVuSans-20"/>
      <use transform="translate(190.820312 0.015625)" xlink:href="#DejaVuSans-73"/>
      <use transform="translate(242.919922 0.015625)" xlink:href="#DejaVuSans-65"/>
      <use transform="translate(304.443359 0.015625)" xlink:href="#DejaVuSans-65"/>
      <use transform="translate(365.966797 0.015625)" xlink:href="#DejaVuSans-64"/>
      <use transform="translate(429.443359 0.015625)" xlink:href="#DejaVuSans-20"/>
      <use transform="translate(461.230469 0.015625)" xlink:href="#DejaVuSans-6e"/>
      <use transform="translate(524.609375 0.015625)" xlink:href="#DejaVuSans-6f"/>
      <use transform="translate(585.791016 0.015625)" xlink:href="#DejaVuSans-64"/>
      <use transform="translate(649.267578 0.015625)" xlink:href="#DejaVuSans-65"/>
      <use transform="translate(710.791016 0.015625)" xlink:href="#DejaVuSans-28"/>
      <use transform="translate(749.804688 0.015625)" xlink:href="#DejaVuSans-73"/>
      <use transform="translate(801.904297 0.015625)" xlink:href="#DejaVuSans-29"/>
      <use transform="translate(840.917969 0.015625)" xlink:href="#DejaVuSans-20"/>
      <use transform="translate(872.705078 0.015625)" xlink:href="#DejaVuSans-6d"/>
      <use transform="translate(970.117188 0.015625)" xlink:href="#DejaVuSans-65"/>
      <use transform="translate(1031.640625 0.015625)" xlink:href="#DejaVuSans-61"/>
      <use transform="translate(1092.919922 0.015625)" xlink:href="#DejaVuSans-6e"/>
      <use transform="translate(1156.298828 0.015625)" xlink:href="#DejaVuSans-20"/>
      <use transform="translate(1188.085938 0.015625)" xlink:href="#DejaVuSans-41"/>
      <use transform="translate(1256.494141 0.015625)" xlink:href="#DejaVuSans-55"/>
      <use transform="translate(1329.6875 0.015625)" xlink:href="#DejaVuSans-43"/>
      <use transform="translate(1399.511719 0.015625)" xlink:href="#DejaVuSans-3a"/>
      <use transform="translate(1433.203125 0.015625)" xlink:href="#DejaVuSans-20"/>
      <use transform="translate(1464.990234 0.015625)" xlink:href="#DejaVuSans-30"/>
      <use transform="translate(1528.613281 0.015625)" xlink:href="#DejaVuSans-2e"/>
      <use transform="translate(1560.400391 0.015625)" xlink:href="#DejaVuSans-36"/>
      <use transform="translate(1624.023438 0.015625)" xlink:href="#DejaVuSans-34"/>
      <use transform="translate(1687.646484 0.015625)" xlink:href="#DejaVuSans-20"/>
      <use transform="translate(1719.433594 0.015625)" xlink:href="#DejaVuSans-28"/>
      <use transform="translate(1758.447266 0.015625)" xlink:href="#DejaVuSans-73"/>
      <use transform="translate(1810.546875 0.015625)" xlink:href="#DejaVuSans-74"/>
      <use transform="translate(1849.755859 0.015625)" xlink:href="#DejaVuSans-64"/>
      <use transform="translate(1913.232422 0.015625)" xlink:href="#DejaVuSans-3a"/>
      <use transform="translate(1946.923828 0.015625)" xlink:href="#DejaVuSans-20"/>
      <use transform="translate(1978.710938 0.015625)" xlink:href="#DejaVuSans-30"/>
      <use transform="translate(2042.333984 0.015625)" xlink:href="#DejaVuSans-2e"/>
      <use transform="translate(2074.121094 0.015625)" xlink:href="#DejaVuSans-31"/>
      <use transform="translate(2137.744141 0.015625)" xlink:href="#DejaVuSans-36"/>
      <use transform="translate(2201.367188 0.015625)" xlink:href="#DejaVuSans-29"/>
     </g>
    </g>
    <g id="line2d_28">
     <path d="M 164.614063 229.664062 
L 184.614063 229.664062 
" style="fill:none;stroke:#008000;stroke-dasharray:5.55,2.4;stroke-dashoffset:0;stroke-width:1.5;"/>
    </g>
    <g id="line2d_29"/>
    <g id="text_18">
     <!-- rwr 3 seed node(s) mean AUC: 0.65 (std: 0.16) -->
     <g transform="translate(192.614063 233.164062)scale(0.1 -0.1)">
      <use xlink:href="#DejaVuSans-72"/>
      <use x="41.113281" xlink:href="#DejaVuSans-77"/>
      <use x="122.900391" xlink:href="#DejaVuSans-72"/>
      <use x="164.013672" xlink:href="#DejaVuSans-20"/>
      <use x="195.800781" xlink:href="#DejaVuSans-33"/>
      <use x="259.423828" xlink:href="#DejaVuSans-20"/>
      <use x="291.210938" xlink:href="#DejaVuSans-73"/>
      <use x="343.310547" xlink:href="#DejaVuSans-65"/>
      <use x="404.833984" xlink:href="#DejaVuSans-65"/>
      <use x="466.357422" xlink:href="#DejaVuSans-64"/>
      <use x="529.833984" xlink:href="#DejaVuSans-20"/>
      <use x="561.621094" xlink:href="#DejaVuSans-6e"/>
      <use x="625" xlink:href="#DejaVuSans-6f"/>
      <use x="686.181641" xlink:href="#DejaVuSans-64"/>
      <use x="749.658203" xlink:href="#DejaVuSans-65"/>
      <use x="811.181641" xlink:href="#DejaVuSans-28"/>
      <use x="850.195312" xlink:href="#DejaVuSans-73"/>
      <use x="902.294922" xlink:href="#DejaVuSans-29"/>
      <use x="941.308594" xlink:href="#DejaVuSans-20"/>
      <use x="973.095703" xlink:href="#DejaVuSans-6d"/>
      <use x="1070.507812" xlink:href="#DejaVuSans-65"/>
      <use x="1132.03125" xlink:href="#DejaVuSans-61"/>
      <use x="1193.310547" xlink:href="#DejaVuSans-6e"/>
      <use x="1256.689453" xlink:href="#DejaVuSans-20"/>
      <use x="1288.476562" xlink:href="#DejaVuSans-41"/>
      <use x="1356.884766" xlink:href="#DejaVuSans-55"/>
      <use x="1430.078125" xlink:href="#DejaVuSans-43"/>
      <use x="1499.902344" xlink:href="#DejaVuSans-3a"/>
      <use x="1533.59375" xlink:href="#DejaVuSans-20"/>
      <use x="1565.380859" xlink:href="#DejaVuSans-30"/>
      <use x="1629.003906" xlink:href="#DejaVuSans-2e"/>
      <use x="1660.791016" xlink:href="#DejaVuSans-36"/>
      <use x="1724.414062" xlink:href="#DejaVuSans-35"/>
      <use x="1788.037109" xlink:href="#DejaVuSans-20"/>
      <use x="1819.824219" xlink:href="#DejaVuSans-28"/>
      <use x="1858.837891" xlink:href="#DejaVuSans-73"/>
      <use x="1910.9375" xlink:href="#DejaVuSans-74"/>
      <use x="1950.146484" xlink:href="#DejaVuSans-64"/>
      <use x="2013.623047" xlink:href="#DejaVuSans-3a"/>
      <use x="2047.314453" xlink:href="#DejaVuSans-20"/>
      <use x="2079.101562" xlink:href="#DejaVuSans-30"/>
      <use x="2142.724609" xlink:href="#DejaVuSans-2e"/>
      <use x="2174.511719" xlink:href="#DejaVuSans-31"/>
      <use x="2238.134766" xlink:href="#DejaVuSans-36"/>
      <use x="2301.757812" xlink:href="#DejaVuSans-29"/>
     </g>
    </g>
    <g id="line2d_30">
     <path d="M 164.614063 244.34375 
L 184.614063 244.34375 
" style="fill:none;stroke:#bfbf00;stroke-linecap:square;stroke-width:1.5;"/>
    </g>
    <g id="line2d_31"/>
    <g id="text_19">
     <!-- $\mu$ 7 seed node(s) mean AUC: 0.66 (std: 0.16) -->
     <defs>
      <path d="M 8.203125 72.90625 
L 55.078125 72.90625 
L 55.078125 68.703125 
L 28.609375 0 
L 18.3125 0 
L 43.21875 64.59375 
L 8.203125 64.59375 
z
" id="DejaVuSans-37"/>
     </defs>
     <g transform="translate(192.614063 247.84375)scale(0.1 -0.1)">
      <use transform="translate(0 0.015625)" xlink:href="#DejaVuSans-Oblique-3bc"/>
      <use transform="translate(63.623047 0.015625)" xlink:href="#DejaVuSans-20"/>
      <use transform="translate(95.410156 0.015625)" xlink:href="#DejaVuSans-37"/>
      <use transform="translate(159.033203 0.015625)" xlink:href="#DejaVuSans-20"/>
      <use transform="translate(190.820312 0.015625)" xlink:href="#DejaVuSans-73"/>
      <use transform="translate(242.919922 0.015625)" xlink:href="#DejaVuSans-65"/>
      <use transform="translate(304.443359 0.015625)" xlink:href="#DejaVuSans-65"/>
      <use transform="translate(365.966797 0.015625)" xlink:href="#DejaVuSans-64"/>
      <use transform="translate(429.443359 0.015625)" xlink:href="#DejaVuSans-20"/>
      <use transform="translate(461.230469 0.015625)" xlink:href="#DejaVuSans-6e"/>
      <use transform="translate(524.609375 0.015625)" xlink:href="#DejaVuSans-6f"/>
      <use transform="translate(585.791016 0.015625)" xlink:href="#DejaVuSans-64"/>
      <use transform="translate(649.267578 0.015625)" xlink:href="#DejaVuSans-65"/>
      <use transform="translate(710.791016 0.015625)" xlink:href="#DejaVuSans-28"/>
      <use transform="translate(749.804688 0.015625)" xlink:href="#DejaVuSans-73"/>
      <use transform="translate(801.904297 0.015625)" xlink:href="#DejaVuSans-29"/>
      <use transform="translate(840.917969 0.015625)" xlink:href="#DejaVuSans-20"/>
      <use transform="translate(872.705078 0.015625)" xlink:href="#DejaVuSans-6d"/>
      <use transform="translate(970.117188 0.015625)" xlink:href="#DejaVuSans-65"/>
      <use transform="translate(1031.640625 0.015625)" xlink:href="#DejaVuSans-61"/>
      <use transform="translate(1092.919922 0.015625)" xlink:href="#DejaVuSans-6e"/>
      <use transform="translate(1156.298828 0.015625)" xlink:href="#DejaVuSans-20"/>
      <use transform="translate(1188.085938 0.015625)" xlink:href="#DejaVuSans-41"/>
      <use transform="translate(1256.494141 0.015625)" xlink:href="#DejaVuSans-55"/>
      <use transform="translate(1329.6875 0.015625)" xlink:href="#DejaVuSans-43"/>
      <use transform="translate(1399.511719 0.015625)" xlink:href="#DejaVuSans-3a"/>
      <use transform="translate(1433.203125 0.015625)" xlink:href="#DejaVuSans-20"/>
      <use transform="translate(1464.990234 0.015625)" xlink:href="#DejaVuSans-30"/>
      <use transform="translate(1528.613281 0.015625)" xlink:href="#DejaVuSans-2e"/>
      <use transform="translate(1560.400391 0.015625)" xlink:href="#DejaVuSans-36"/>
      <use transform="translate(1624.023438 0.015625)" xlink:href="#DejaVuSans-36"/>
      <use transform="translate(1687.646484 0.015625)" xlink:href="#DejaVuSans-20"/>
      <use transform="translate(1719.433594 0.015625)" xlink:href="#DejaVuSans-28"/>
      <use transform="translate(1758.447266 0.015625)" xlink:href="#DejaVuSans-73"/>
      <use transform="translate(1810.546875 0.015625)" xlink:href="#DejaVuSans-74"/>
      <use transform="translate(1849.755859 0.015625)" xlink:href="#DejaVuSans-64"/>
      <use transform="translate(1913.232422 0.015625)" xlink:href="#DejaVuSans-3a"/>
      <use transform="translate(1946.923828 0.015625)" xlink:href="#DejaVuSans-20"/>
      <use transform="translate(1978.710938 0.015625)" xlink:href="#DejaVuSans-30"/>
      <use transform="translate(2042.333984 0.015625)" xlink:href="#DejaVuSans-2e"/>
      <use transform="translate(2074.121094 0.015625)" xlink:href="#DejaVuSans-31"/>
      <use transform="translate(2137.744141 0.015625)" xlink:href="#DejaVuSans-36"/>
      <use transform="translate(2201.367188 0.015625)" xlink:href="#DejaVuSans-29"/>
     </g>
    </g>
    <g id="line2d_32">
     <path d="M 164.614063 259.042188 
L 184.614063 259.042188 
" style="fill:none;stroke:#bfbf00;stroke-dasharray:5.55,2.4;stroke-dashoffset:0;stroke-width:1.5;"/>
    </g>
    <g id="line2d_33"/>
    <g id="text_20">
     <!-- rwr 7 seed node(s) mean AUC: 0.69 (std: 0.16) -->
     <g transform="translate(192.614063 262.542188)scale(0.1 -0.1)">
      <use xlink:href="#DejaVuSans-72"/>
      <use x="41.113281" xlink:href="#DejaVuSans-77"/>
      <use x="122.900391" xlink:href="#DejaVuSans-72"/>
      <use x="164.013672" xlink:href="#DejaVuSans-20"/>
      <use x="195.800781" xlink:href="#DejaVuSans-37"/>
      <use x="259.423828" xlink:href="#DejaVuSans-20"/>
      <use x="291.210938" xlink:href="#DejaVuSans-73"/>
      <use x="343.310547" xlink:href="#DejaVuSans-65"/>
      <use x="404.833984" xlink:href="#DejaVuSans-65"/>
      <use x="466.357422" xlink:href="#DejaVuSans-64"/>
      <use x="529.833984" xlink:href="#DejaVuSans-20"/>
      <use x="561.621094" xlink:href="#DejaVuSans-6e"/>
      <use x="625" xlink:href="#DejaVuSans-6f"/>
      <use x="686.181641" xlink:href="#DejaVuSans-64"/>
      <use x="749.658203" xlink:href="#DejaVuSans-65"/>
      <use x="811.181641" xlink:href="#DejaVuSans-28"/>
      <use x="850.195312" xlink:href="#DejaVuSans-73"/>
      <use x="902.294922" xlink:href="#DejaVuSans-29"/>
      <use x="941.308594" xlink:href="#DejaVuSans-20"/>
      <use x="973.095703" xlink:href="#DejaVuSans-6d"/>
      <use x="1070.507812" xlink:href="#DejaVuSans-65"/>
      <use x="1132.03125" xlink:href="#DejaVuSans-61"/>
      <use x="1193.310547" xlink:href="#DejaVuSans-6e"/>
      <use x="1256.689453" xlink:href="#DejaVuSans-20"/>
      <use x="1288.476562" xlink:href="#DejaVuSans-41"/>
      <use x="1356.884766" xlink:href="#DejaVuSans-55"/>
      <use x="1430.078125" xlink:href="#DejaVuSans-43"/>
      <use x="1499.902344" xlink:href="#DejaVuSans-3a"/>
      <use x="1533.59375" xlink:href="#DejaVuSans-20"/>
      <use x="1565.380859" xlink:href="#DejaVuSans-30"/>
      <use x="1629.003906" xlink:href="#DejaVuSans-2e"/>
      <use x="1660.791016" xlink:href="#DejaVuSans-36"/>
      <use x="1724.414062" xlink:href="#DejaVuSans-39"/>
      <use x="1788.037109" xlink:href="#DejaVuSans-20"/>
      <use x="1819.824219" xlink:href="#DejaVuSans-28"/>
      <use x="1858.837891" xlink:href="#DejaVuSans-73"/>
      <use x="1910.9375" xlink:href="#DejaVuSans-74"/>
      <use x="1950.146484" xlink:href="#DejaVuSans-64"/>
      <use x="2013.623047" xlink:href="#DejaVuSans-3a"/>
      <use x="2047.314453" xlink:href="#DejaVuSans-20"/>
      <use x="2079.101562" xlink:href="#DejaVuSans-30"/>
      <use x="2142.724609" xlink:href="#DejaVuSans-2e"/>
      <use x="2174.511719" xlink:href="#DejaVuSans-31"/>
      <use x="2238.134766" xlink:href="#DejaVuSans-36"/>
      <use x="2301.757812" xlink:href="#DejaVuSans-29"/>
     </g>
    </g>
    <g id="line2d_34">
     <path d="M 164.614063 273.721875 
L 184.614063 273.721875 
" style="fill:none;stroke:#ff0000;stroke-linecap:square;stroke-width:1.5;"/>
    </g>
    <g id="line2d_35"/>
    <g id="text_21">
     <!-- $\mu$ 15 seed node(s) mean AUC: 0.67 (std: 0.14) -->
     <g transform="translate(192.614063 277.221875)scale(0.1 -0.1)">
      <use transform="translate(0 0.015625)" xlink:href="#DejaVuSans-Oblique-3bc"/>
      <use transform="translate(63.623047 0.015625)" xlink:href="#DejaVuSans-20"/>
      <use transform="translate(95.410156 0.015625)" xlink:href="#DejaVuSans-31"/>
      <use transform="translate(159.033203 0.015625)" xlink:href="#DejaVuSans-35"/>
      <use transform="translate(222.65625 0.015625)" xlink:href="#DejaVuSans-20"/>
      <use transform="translate(254.443359 0.015625)" xlink:href="#DejaVuSans-73"/>
      <use transform="translate(306.542969 0.015625)" xlink:href="#DejaVuSans-65"/>
      <use transform="translate(368.066406 0.015625)" xlink:href="#DejaVuSans-65"/>
      <use transform="translate(429.589844 0.015625)" xlink:href="#DejaVuSans-64"/>
      <use transform="translate(493.066406 0.015625)" xlink:href="#DejaVuSans-20"/>
      <use transform="translate(524.853516 0.015625)" xlink:href="#DejaVuSans-6e"/>
      <use transform="translate(588.232422 0.015625)" xlink:href="#DejaVuSans-6f"/>
      <use transform="translate(649.414062 0.015625)" xlink:href="#DejaVuSans-64"/>
      <use transform="translate(712.890625 0.015625)" xlink:href="#DejaVuSans-65"/>
      <use transform="translate(774.414062 0.015625)" xlink:href="#DejaVuSans-28"/>
      <use transform="translate(813.427734 0.015625)" xlink:href="#DejaVuSans-73"/>
      <use transform="translate(865.527344 0.015625)" xlink:href="#DejaVuSans-29"/>
      <use transform="translate(904.541016 0.015625)" xlink:href="#DejaVuSans-20"/>
      <use transform="translate(936.328125 0.015625)" xlink:href="#DejaVuSans-6d"/>
      <use transform="translate(1033.740234 0.015625)" xlink:href="#DejaVuSans-65"/>
      <use transform="translate(1095.263672 0.015625)" xlink:href="#DejaVuSans-61"/>
      <use transform="translate(1156.542969 0.015625)" xlink:href="#DejaVuSans-6e"/>
      <use transform="translate(1219.921875 0.015625)" xlink:href="#DejaVuSans-20"/>
      <use transform="translate(1251.708984 0.015625)" xlink:href="#DejaVuSans-41"/>
      <use transform="translate(1320.117188 0.015625)" xlink:href="#DejaVuSans-55"/>
      <use transform="translate(1393.310547 0.015625)" xlink:href="#DejaVuSans-43"/>
      <use transform="translate(1463.134766 0.015625)" xlink:href="#DejaVuSans-3a"/>
      <use transform="translate(1496.826172 0.015625)" xlink:href="#DejaVuSans-20"/>
      <use transform="translate(1528.613281 0.015625)" xlink:href="#DejaVuSans-30"/>
      <use transform="translate(1592.236328 0.015625)" xlink:href="#DejaVuSans-2e"/>
      <use transform="translate(1624.023438 0.015625)" xlink:href="#DejaVuSans-36"/>
      <use transform="translate(1687.646484 0.015625)" xlink:href="#DejaVuSans-37"/>
      <use transform="translate(1751.269531 0.015625)" xlink:href="#DejaVuSans-20"/>
      <use transform="translate(1783.056641 0.015625)" xlink:href="#DejaVuSans-28"/>
      <use transform="translate(1822.070312 0.015625)" xlink:href="#DejaVuSans-73"/>
      <use transform="translate(1874.169922 0.015625)" xlink:href="#DejaVuSans-74"/>
      <use transform="translate(1913.378906 0.015625)" xlink:href="#DejaVuSans-64"/>
      <use transform="translate(1976.855469 0.015625)" xlink:href="#DejaVuSans-3a"/>
      <use transform="translate(2010.546875 0.015625)" xlink:href="#DejaVuSans-20"/>
      <use transform="translate(2042.333984 0.015625)" xlink:href="#DejaVuSans-30"/>
      <use transform="translate(2105.957031 0.015625)" xlink:href="#DejaVuSans-2e"/>
      <use transform="translate(2137.744141 0.015625)" xlink:href="#DejaVuSans-31"/>
      <use transform="translate(2201.367188 0.015625)" xlink:href="#DejaVuSans-34"/>
      <use transform="translate(2264.990234 0.015625)" xlink:href="#DejaVuSans-29"/>
     </g>
    </g>
    <g id="line2d_36">
     <path d="M 164.614063 288.420313 
L 184.614063 288.420313 
" style="fill:none;stroke:#ff0000;stroke-dasharray:5.55,2.4;stroke-dashoffset:0;stroke-width:1.5;"/>
    </g>
    <g id="line2d_37"/>
    <g id="text_22">
     <!-- rwr 15 seed node(s) mean AUC: 0.71 (std: 0.14) -->
     <g transform="translate(192.614063 291.920313)scale(0.1 -0.1)">
      <use xlink:href="#DejaVuSans-72"/>
      <use x="41.113281" xlink:href="#DejaVuSans-77"/>
      <use x="122.900391" xlink:href="#DejaVuSans-72"/>
      <use x="164.013672" xlink:href="#DejaVuSans-20"/>
      <use x="195.800781" xlink:href="#DejaVuSans-31"/>
      <use x="259.423828" xlink:href="#DejaVuSans-35"/>
      <use x="323.046875" xlink:href="#DejaVuSans-20"/>
      <use x="354.833984" xlink:href="#DejaVuSans-73"/>
      <use x="406.933594" xlink:href="#DejaVuSans-65"/>
      <use x="468.457031" xlink:href="#DejaVuSans-65"/>
      <use x="529.980469" xlink:href="#DejaVuSans-64"/>
      <use x="593.457031" xlink:href="#DejaVuSans-20"/>
      <use x="625.244141" xlink:href="#DejaVuSans-6e"/>
      <use x="688.623047" xlink:href="#DejaVuSans-6f"/>
      <use x="749.804688" xlink:href="#DejaVuSans-64"/>
      <use x="813.28125" xlink:href="#DejaVuSans-65"/>
      <use x="874.804688" xlink:href="#DejaVuSans-28"/>
      <use x="913.818359" xlink:href="#DejaVuSans-73"/>
      <use x="965.917969" xlink:href="#DejaVuSans-29"/>
      <use x="1004.931641" xlink:href="#DejaVuSans-20"/>
      <use x="1036.71875" xlink:href="#DejaVuSans-6d"/>
      <use x="1134.130859" xlink:href="#DejaVuSans-65"/>
      <use x="1195.654297" xlink:href="#DejaVuSans-61"/>
      <use x="1256.933594" xlink:href="#DejaVuSans-6e"/>
      <use x="1320.3125" xlink:href="#DejaVuSans-20"/>
      <use x="1352.099609" xlink:href="#DejaVuSans-41"/>
      <use x="1420.507812" xlink:href="#DejaVuSans-55"/>
      <use x="1493.701172" xlink:href="#DejaVuSans-43"/>
      <use x="1563.525391" xlink:href="#DejaVuSans-3a"/>
      <use x="1597.216797" xlink:href="#DejaVuSans-20"/>
      <use x="1629.003906" xlink:href="#DejaVuSans-30"/>
      <use x="1692.626953" xlink:href="#DejaVuSans-2e"/>
      <use x="1724.414062" xlink:href="#DejaVuSans-37"/>
      <use x="1788.037109" xlink:href="#DejaVuSans-31"/>
      <use x="1851.660156" xlink:href="#DejaVuSans-20"/>
      <use x="1883.447266" xlink:href="#DejaVuSans-28"/>
      <use x="1922.460938" xlink:href="#DejaVuSans-73"/>
      <use x="1974.560547" xlink:href="#DejaVuSans-74"/>
      <use x="2013.769531" xlink:href="#DejaVuSans-64"/>
      <use x="2077.246094" xlink:href="#DejaVuSans-3a"/>
      <use x="2110.9375" xlink:href="#DejaVuSans-20"/>
      <use x="2142.724609" xlink:href="#DejaVuSans-30"/>
      <use x="2206.347656" xlink:href="#DejaVuSans-2e"/>
      <use x="2238.134766" xlink:href="#DejaVuSans-31"/>
      <use x="2301.757812" xlink:href="#DejaVuSans-34"/>
      <use x="2365.380859" xlink:href="#DejaVuSans-29"/>
     </g>
    </g>
   </g>
  </g>
 </g>
 <defs>
  <clipPath id="p40db382d26">
   <rect height="289.4" width="393.85" x="48.2" y="13.6"/>
  </clipPath>
 </defs>
</svg>
