<?xml version="1.0" encoding="utf-8" standalone="no"?>
<!DOCTYPE svg PUBLIC "-//W3C//DTD SVG 1.1//EN"
  "http://www.w3.org/Graphics/SVG/1.1/DTD/svg11.dtd">
<!-- Created with matplotlib (http://matplotlib.org/) -->
<svg height="345pt" version="1.1" viewBox="0 0 460 345" width="460pt" xmlns="http://www.w3.org/2000/svg" xmlns:xlink="http://www.w3.org/1999/xlink">
 <defs>
  <style type="text/css">
*{stroke-linecap:butt;stroke-linejoin:round;}
  </style>
 </defs>
 <g id="figure_1">
  <g id="patch_1">
   <path d="M 0 345.6 
L 460.8 345.6 
L 460.8 0 
L 0 0 
z
" style="fill:#ffffff;"/>
  </g>
  <g id="axes_1">
   <g id="patch_2">
    <path d="M 48.2 303 
L 442.05 303 
L 442.05 13.6 
L 48.2 13.6 
z
" style="fill:#ffffff;"/>
   </g>
   <g id="matplotlib.axis_1">
    <g id="xtick_1">
     <g id="line2d_1">
      <defs>
       <path d="M 0 0 
L 0 3.5 
" id="mb18afca1db" style="stroke:#000000;stroke-width:0.8;"/>
      </defs>
      <g>
       <use style="stroke:#000000;stroke-width:0.8;" x="48.2" xlink:href="#mb18afca1db" y="303"/>
      </g>
     </g>
     <g id="text_1">
      <!-- 0.0 -->
      <defs>
       <path d="M 31.78125 66.40625 
Q 24.171875 66.40625 20.328125 58.90625 
Q 16.5 51.421875 16.5 36.375 
Q 16.5 21.390625 20.328125 13.890625 
Q 24.171875 6.390625 31.78125 6.390625 
Q 39.453125 6.390625 43.28125 13.890625 
Q 47.125 21.390625 47.125 36.375 
Q 47.125 51.421875 43.28125 58.90625 
Q 39.453125 66.40625 31.78125 66.40625 
z
M 31.78125 74.21875 
Q 44.046875 74.21875 50.515625 64.515625 
Q 56.984375 54.828125 56.984375 36.375 
Q 56.984375 17.96875 50.515625 8.265625 
Q 44.046875 -1.421875 31.78125 -1.421875 
Q 19.53125 -1.421875 13.0625 8.265625 
Q 6.59375 17.96875 6.59375 36.375 
Q 6.59375 54.828125 13.0625 64.515625 
Q 19.53125 74.21875 31.78125 74.21875 
z
" id="DejaVuSans-30"/>
       <path d="M 10.6875 12.40625 
L 21 12.40625 
L 21 0 
L 10.6875 0 
z
" id="DejaVuSans-2e"/>
      </defs>
      <g transform="translate(40.248438 317.598437)scale(0.1 -0.1)">
       <use xlink:href="#DejaVuSans-30"/>
       <use x="63.623047" xlink:href="#DejaVuSans-2e"/>
       <use x="95.410156" xlink:href="#DejaVuSans-30"/>
      </g>
     </g>
    </g>
    <g id="xtick_2">
     <g id="line2d_2">
      <g>
       <use style="stroke:#000000;stroke-width:0.8;" x="126.97" xlink:href="#mb18afca1db" y="303"/>
      </g>
     </g>
     <g id="text_2">
      <!-- 0.2 -->
      <defs>
       <path d="M 19.1875 8.296875 
L 53.609375 8.296875 
L 53.609375 0 
L 7.328125 0 
L 7.328125 8.296875 
Q 12.9375 14.109375 22.625 23.890625 
Q 32.328125 33.6875 34.8125 36.53125 
Q 39.546875 41.84375 41.421875 45.53125 
Q 43.3125 49.21875 43.3125 52.78125 
Q 43.3125 58.59375 39.234375 62.25 
Q 35.15625 65.921875 28.609375 65.921875 
Q 23.96875 65.921875 18.8125 64.3125 
Q 13.671875 62.703125 7.8125 59.421875 
L 7.8125 69.390625 
Q 13.765625 71.78125 18.9375 73 
Q 24.125 74.21875 28.421875 74.21875 
Q 39.75 74.21875 46.484375 68.546875 
Q 53.21875 62.890625 53.21875 53.421875 
Q 53.21875 48.921875 51.53125 44.890625 
Q 49.859375 40.875 45.40625 35.40625 
Q 44.1875 33.984375 37.640625 27.21875 
Q 31.109375 20.453125 19.1875 8.296875 
z
" id="DejaVuSans-32"/>
      </defs>
      <g transform="translate(119.018438 317.598437)scale(0.1 -0.1)">
       <use xlink:href="#DejaVuSans-30"/>
       <use x="63.623047" xlink:href="#DejaVuSans-2e"/>
       <use x="95.410156" xlink:href="#DejaVuSans-32"/>
      </g>
     </g>
    </g>
    <g id="xtick_3">
     <g id="line2d_3">
      <g>
       <use style="stroke:#000000;stroke-width:0.8;" x="205.74" xlink:href="#mb18afca1db" y="303"/>
      </g>
     </g>
     <g id="text_3">
      <!-- 0.4 -->
      <defs>
       <path d="M 37.796875 64.3125 
L 12.890625 25.390625 
L 37.796875 25.390625 
z
M 35.203125 72.90625 
L 47.609375 72.90625 
L 47.609375 25.390625 
L 58.015625 25.390625 
L 58.015625 17.1875 
L 47.609375 17.1875 
L 47.609375 0 
L 37.796875 0 
L 37.796875 17.1875 
L 4.890625 17.1875 
L 4.890625 26.703125 
z
" id="DejaVuSans-34"/>
      </defs>
      <g transform="translate(197.788438 317.598437)scale(0.1 -0.1)">
       <use xlink:href="#DejaVuSans-30"/>
       <use x="63.623047" xlink:href="#DejaVuSans-2e"/>
       <use x="95.410156" xlink:href="#DejaVuSans-34"/>
      </g>
     </g>
    </g>
    <g id="xtick_4">
     <g id="line2d_4">
      <g>
       <use style="stroke:#000000;stroke-width:0.8;" x="284.51" xlink:href="#mb18afca1db" y="303"/>
      </g>
     </g>
     <g id="text_4">
      <!-- 0.6 -->
      <defs>
       <path d="M 33.015625 40.375 
Q 26.375 40.375 22.484375 35.828125 
Q 18.609375 31.296875 18.609375 23.390625 
Q 18.609375 15.53125 22.484375 10.953125 
Q 26.375 6.390625 33.015625 6.390625 
Q 39.65625 6.390625 43.53125 10.953125 
Q 47.40625 15.53125 47.40625 23.390625 
Q 47.40625 31.296875 43.53125 35.828125 
Q 39.65625 40.375 33.015625 40.375 
z
M 52.59375 71.296875 
L 52.59375 62.3125 
Q 48.875 64.0625 45.09375 64.984375 
Q 41.3125 65.921875 37.59375 65.921875 
Q 27.828125 65.921875 22.671875 59.328125 
Q 17.53125 52.734375 16.796875 39.40625 
Q 19.671875 43.65625 24.015625 45.921875 
Q 28.375 48.1875 33.59375 48.1875 
Q 44.578125 48.1875 50.953125 41.515625 
Q 57.328125 34.859375 57.328125 23.390625 
Q 57.328125 12.15625 50.6875 5.359375 
Q 44.046875 -1.421875 33.015625 -1.421875 
Q 20.359375 -1.421875 13.671875 8.265625 
Q 6.984375 17.96875 6.984375 36.375 
Q 6.984375 53.65625 15.1875 63.9375 
Q 23.390625 74.21875 37.203125 74.21875 
Q 40.921875 74.21875 44.703125 73.484375 
Q 48.484375 72.75 52.59375 71.296875 
z
" id="DejaVuSans-36"/>
      </defs>
      <g transform="translate(276.558438 317.598437)scale(0.1 -0.1)">
       <use xlink:href="#DejaVuSans-30"/>
       <use x="63.623047" xlink:href="#DejaVuSans-2e"/>
       <use x="95.410156" xlink:href="#DejaVuSans-36"/>
      </g>
     </g>
    </g>
    <g id="xtick_5">
     <g id="line2d_5">
      <g>
       <use style="stroke:#000000;stroke-width:0.8;" x="363.28" xlink:href="#mb18afca1db" y="303"/>
      </g>
     </g>
     <g id="text_5">
      <!-- 0.8 -->
      <defs>
       <path d="M 31.78125 34.625 
Q 24.75 34.625 20.71875 30.859375 
Q 16.703125 27.09375 16.703125 20.515625 
Q 16.703125 13.921875 20.71875 10.15625 
Q 24.75 6.390625 31.78125 6.390625 
Q 38.8125 6.390625 42.859375 10.171875 
Q 46.921875 13.96875 46.921875 20.515625 
Q 46.921875 27.09375 42.890625 30.859375 
Q 38.875 34.625 31.78125 34.625 
z
M 21.921875 38.8125 
Q 15.578125 40.375 12.03125 44.71875 
Q 8.5 49.078125 8.5 55.328125 
Q 8.5 64.0625 14.71875 69.140625 
Q 20.953125 74.21875 31.78125 74.21875 
Q 42.671875 74.21875 48.875 69.140625 
Q 55.078125 64.0625 55.078125 55.328125 
Q 55.078125 49.078125 51.53125 44.71875 
Q 48 40.375 41.703125 38.8125 
Q 48.828125 37.15625 52.796875 32.3125 
Q 56.78125 27.484375 56.78125 20.515625 
Q 56.78125 9.90625 50.3125 4.234375 
Q 43.84375 -1.421875 31.78125 -1.421875 
Q 19.734375 -1.421875 13.25 4.234375 
Q 6.78125 9.90625 6.78125 20.515625 
Q 6.78125 27.484375 10.78125 32.3125 
Q 14.796875 37.15625 21.921875 38.8125 
z
M 18.3125 54.390625 
Q 18.3125 48.734375 21.84375 45.5625 
Q 25.390625 42.390625 31.78125 42.390625 
Q 38.140625 42.390625 41.71875 45.5625 
Q 45.3125 48.734375 45.3125 54.390625 
Q 45.3125 60.0625 41.71875 63.234375 
Q 38.140625 66.40625 31.78125 66.40625 
Q 25.390625 66.40625 21.84375 63.234375 
Q 18.3125 60.0625 18.3125 54.390625 
z
" id="DejaVuSans-38"/>
      </defs>
      <g transform="translate(355.328438 317.598437)scale(0.1 -0.1)">
       <use xlink:href="#DejaVuSans-30"/>
       <use x="63.623047" xlink:href="#DejaVuSans-2e"/>
       <use x="95.410156" xlink:href="#DejaVuSans-38"/>
      </g>
     </g>
    </g>
    <g id="xtick_6">
     <g id="line2d_6">
      <g>
       <use style="stroke:#000000;stroke-width:0.8;" x="442.05" xlink:href="#mb18afca1db" y="303"/>
      </g>
     </g>
     <g id="text_6">
      <!-- 1.0 -->
      <defs>
       <path d="M 12.40625 8.296875 
L 28.515625 8.296875 
L 28.515625 63.921875 
L 10.984375 60.40625 
L 10.984375 69.390625 
L 28.421875 72.90625 
L 38.28125 72.90625 
L 38.28125 8.296875 
L 54.390625 8.296875 
L 54.390625 0 
L 12.40625 0 
z
" id="DejaVuSans-31"/>
      </defs>
      <g transform="translate(434.098438 317.598437)scale(0.1 -0.1)">
       <use xlink:href="#DejaVuSans-31"/>
       <use x="63.623047" xlink:href="#DejaVuSans-2e"/>
       <use x="95.410156" xlink:href="#DejaVuSans-30"/>
      </g>
     </g>
    </g>
    <g id="text_7">
     <!-- False positive rate -->
     <defs>
      <path d="M 9.8125 72.90625 
L 51.703125 72.90625 
L 51.703125 64.59375 
L 19.671875 64.59375 
L 19.671875 43.109375 
L 48.578125 43.109375 
L 48.578125 34.8125 
L 19.671875 34.8125 
L 19.671875 0 
L 9.8125 0 
z
" id="DejaVuSans-46"/>
      <path d="M 34.28125 27.484375 
Q 23.390625 27.484375 19.1875 25 
Q 14.984375 22.515625 14.984375 16.5 
Q 14.984375 11.71875 18.140625 8.90625 
Q 21.296875 6.109375 26.703125 6.109375 
Q 34.1875 6.109375 38.703125 11.40625 
Q 43.21875 16.703125 43.21875 25.484375 
L 43.21875 27.484375 
z
M 52.203125 31.203125 
L 52.203125 0 
L 43.21875 0 
L 43.21875 8.296875 
Q 40.140625 3.328125 35.546875 0.953125 
Q 30.953125 -1.421875 24.3125 -1.421875 
Q 15.921875 -1.421875 10.953125 3.296875 
Q 6 8.015625 6 15.921875 
Q 6 25.140625 12.171875 29.828125 
Q 18.359375 34.515625 30.609375 34.515625 
L 43.21875 34.515625 
L 43.21875 35.40625 
Q 43.21875 41.609375 39.140625 45 
Q 35.0625 48.390625 27.6875 48.390625 
Q 23 48.390625 18.546875 47.265625 
Q 14.109375 46.140625 10.015625 43.890625 
L 10.015625 52.203125 
Q 14.9375 54.109375 19.578125 55.046875 
Q 24.21875 56 28.609375 56 
Q 40.484375 56 46.34375 49.84375 
Q 52.203125 43.703125 52.203125 31.203125 
z
" id="DejaVuSans-61"/>
      <path d="M 9.421875 75.984375 
L 18.40625 75.984375 
L 18.40625 0 
L 9.421875 0 
z
" id="DejaVuSans-6c"/>
      <path d="M 44.28125 53.078125 
L 44.28125 44.578125 
Q 40.484375 46.53125 36.375 47.5 
Q 32.28125 48.484375 27.875 48.484375 
Q 21.1875 48.484375 17.84375 46.4375 
Q 14.5 44.390625 14.5 40.28125 
Q 14.5 37.15625 16.890625 35.375 
Q 19.28125 33.59375 26.515625 31.984375 
L 29.59375 31.296875 
Q 39.15625 29.25 43.1875 25.515625 
Q 47.21875 21.78125 47.21875 15.09375 
Q 47.21875 7.46875 41.1875 3.015625 
Q 35.15625 -1.421875 24.609375 -1.421875 
Q 20.21875 -1.421875 15.453125 -0.5625 
Q 10.6875 0.296875 5.421875 2 
L 5.421875 11.28125 
Q 10.40625 8.6875 15.234375 7.390625 
Q 20.0625 6.109375 24.8125 6.109375 
Q 31.15625 6.109375 34.5625 8.28125 
Q 37.984375 10.453125 37.984375 14.40625 
Q 37.984375 18.0625 35.515625 20.015625 
Q 33.0625 21.96875 24.703125 23.78125 
L 21.578125 24.515625 
Q 13.234375 26.265625 9.515625 29.90625 
Q 5.8125 33.546875 5.8125 39.890625 
Q 5.8125 47.609375 11.28125 51.796875 
Q 16.75 56 26.8125 56 
Q 31.78125 56 36.171875 55.265625 
Q 40.578125 54.546875 44.28125 53.078125 
z
" id="DejaVuSans-73"/>
      <path d="M 56.203125 29.59375 
L 56.203125 25.203125 
L 14.890625 25.203125 
Q 15.484375 15.921875 20.484375 11.0625 
Q 25.484375 6.203125 34.421875 6.203125 
Q 39.59375 6.203125 44.453125 7.46875 
Q 49.3125 8.734375 54.109375 11.28125 
L 54.109375 2.78125 
Q 49.265625 0.734375 44.1875 -0.34375 
Q 39.109375 -1.421875 33.890625 -1.421875 
Q 20.796875 -1.421875 13.15625 6.1875 
Q 5.515625 13.8125 5.515625 26.8125 
Q 5.515625 40.234375 12.765625 48.109375 
Q 20.015625 56 32.328125 56 
Q 43.359375 56 49.78125 48.890625 
Q 56.203125 41.796875 56.203125 29.59375 
z
M 47.21875 32.234375 
Q 47.125 39.59375 43.09375 43.984375 
Q 39.0625 48.390625 32.421875 48.390625 
Q 24.90625 48.390625 20.390625 44.140625 
Q 15.875 39.890625 15.1875 32.171875 
z
" id="DejaVuSans-65"/>
      <path id="DejaVuSans-20"/>
      <path d="M 18.109375 8.203125 
L 18.109375 -20.796875 
L 9.078125 -20.796875 
L 9.078125 54.6875 
L 18.109375 54.6875 
L 18.109375 46.390625 
Q 20.953125 51.265625 25.265625 53.625 
Q 29.59375 56 35.59375 56 
Q 45.5625 56 51.78125 48.09375 
Q 58.015625 40.1875 58.015625 27.296875 
Q 58.015625 14.40625 51.78125 6.484375 
Q 45.5625 -1.421875 35.59375 -1.421875 
Q 29.59375 -1.421875 25.265625 0.953125 
Q 20.953125 3.328125 18.109375 8.203125 
z
M 48.6875 27.296875 
Q 48.6875 37.203125 44.609375 42.84375 
Q 40.53125 48.484375 33.40625 48.484375 
Q 26.265625 48.484375 22.1875 42.84375 
Q 18.109375 37.203125 18.109375 27.296875 
Q 18.109375 17.390625 22.1875 11.75 
Q 26.265625 6.109375 33.40625 6.109375 
Q 40.53125 6.109375 44.609375 11.75 
Q 48.6875 17.390625 48.6875 27.296875 
z
" id="DejaVuSans-70"/>
      <path d="M 30.609375 48.390625 
Q 23.390625 48.390625 19.1875 42.75 
Q 14.984375 37.109375 14.984375 27.296875 
Q 14.984375 17.484375 19.15625 11.84375 
Q 23.34375 6.203125 30.609375 6.203125 
Q 37.796875 6.203125 41.984375 11.859375 
Q 46.1875 17.53125 46.1875 27.296875 
Q 46.1875 37.015625 41.984375 42.703125 
Q 37.796875 48.390625 30.609375 48.390625 
z
M 30.609375 56 
Q 42.328125 56 49.015625 48.375 
Q 55.71875 40.765625 55.71875 27.296875 
Q 55.71875 13.875 49.015625 6.21875 
Q 42.328125 -1.421875 30.609375 -1.421875 
Q 18.84375 -1.421875 12.171875 6.21875 
Q 5.515625 13.875 5.515625 27.296875 
Q 5.515625 40.765625 12.171875 48.375 
Q 18.84375 56 30.609375 56 
z
" id="DejaVuSans-6f"/>
      <path d="M 9.421875 54.6875 
L 18.40625 54.6875 
L 18.40625 0 
L 9.421875 0 
z
M 9.421875 75.984375 
L 18.40625 75.984375 
L 18.40625 64.59375 
L 9.421875 64.59375 
z
" id="DejaVuSans-69"/>
      <path d="M 18.3125 70.21875 
L 18.3125 54.6875 
L 36.8125 54.6875 
L 36.8125 47.703125 
L 18.3125 47.703125 
L 18.3125 18.015625 
Q 18.3125 11.328125 20.140625 9.421875 
Q 21.96875 7.515625 27.59375 7.515625 
L 36.8125 7.515625 
L 36.8125 0 
L 27.59375 0 
Q 17.1875 0 13.234375 3.875 
Q 9.28125 7.765625 9.28125 18.015625 
L 9.28125 47.703125 
L 2.6875 47.703125 
L 2.6875 54.6875 
L 9.28125 54.6875 
L 9.28125 70.21875 
z
" id="DejaVuSans-74"/>
      <path d="M 2.984375 54.6875 
L 12.5 54.6875 
L 29.59375 8.796875 
L 46.6875 54.6875 
L 56.203125 54.6875 
L 35.6875 0 
L 23.484375 0 
z
" id="DejaVuSans-76"/>
      <path d="M 41.109375 46.296875 
Q 39.59375 47.171875 37.8125 47.578125 
Q 36.03125 48 33.890625 48 
Q 26.265625 48 22.1875 43.046875 
Q 18.109375 38.09375 18.109375 28.8125 
L 18.109375 0 
L 9.078125 0 
L 9.078125 54.6875 
L 18.109375 54.6875 
L 18.109375 46.1875 
Q 20.953125 51.171875 25.484375 53.578125 
Q 30.03125 56 36.53125 56 
Q 37.453125 56 38.578125 55.875 
Q 39.703125 55.765625 41.0625 55.515625 
z
" id="DejaVuSans-72"/>
     </defs>
     <g transform="translate(199.175 331.276563)scale(0.1 -0.1)">
      <use xlink:href="#DejaVuSans-46"/>
      <use x="57.378906" xlink:href="#DejaVuSans-61"/>
      <use x="118.658203" xlink:href="#DejaVuSans-6c"/>
      <use x="146.441406" xlink:href="#DejaVuSans-73"/>
      <use x="198.541016" xlink:href="#DejaVuSans-65"/>
      <use x="260.064453" xlink:href="#DejaVuSans-20"/>
      <use x="291.851562" xlink:href="#DejaVuSans-70"/>
      <use x="355.328125" xlink:href="#DejaVuSans-6f"/>
      <use x="416.509766" xlink:href="#DejaVuSans-73"/>
      <use x="468.609375" xlink:href="#DejaVuSans-69"/>
      <use x="496.392578" xlink:href="#DejaVuSans-74"/>
      <use x="535.601562" xlink:href="#DejaVuSans-69"/>
      <use x="563.384766" xlink:href="#DejaVuSans-76"/>
      <use x="622.564453" xlink:href="#DejaVuSans-65"/>
      <use x="684.087891" xlink:href="#DejaVuSans-20"/>
      <use x="715.875" xlink:href="#DejaVuSans-72"/>
      <use x="756.988281" xlink:href="#DejaVuSans-61"/>
      <use x="818.267578" xlink:href="#DejaVuSans-74"/>
      <use x="857.476562" xlink:href="#DejaVuSans-65"/>
     </g>
    </g>
   </g>
   <g id="matplotlib.axis_2">
    <g id="ytick_1">
     <g id="line2d_7">
      <defs>
       <path d="M 0 0 
L -3.5 0 
" id="m8cd3e62899" style="stroke:#000000;stroke-width:0.8;"/>
      </defs>
      <g>
       <use style="stroke:#000000;stroke-width:0.8;" x="48.2" xlink:href="#m8cd3e62899" y="303"/>
      </g>
     </g>
     <g id="text_8">
      <!-- 0.0 -->
      <g transform="translate(25.296875 306.799219)scale(0.1 -0.1)">
       <use xlink:href="#DejaVuSans-30"/>
       <use x="63.623047" xlink:href="#DejaVuSans-2e"/>
       <use x="95.410156" xlink:href="#DejaVuSans-30"/>
      </g>
     </g>
    </g>
    <g id="ytick_2">
     <g id="line2d_8">
      <g>
       <use style="stroke:#000000;stroke-width:0.8;" x="48.2" xlink:href="#m8cd3e62899" y="245.693069"/>
      </g>
     </g>
     <g id="text_9">
      <!-- 0.2 -->
      <g transform="translate(25.296875 249.492288)scale(0.1 -0.1)">
       <use xlink:href="#DejaVuSans-30"/>
       <use x="63.623047" xlink:href="#DejaVuSans-2e"/>
       <use x="95.410156" xlink:href="#DejaVuSans-32"/>
      </g>
     </g>
    </g>
    <g id="ytick_3">
     <g id="line2d_9">
      <g>
       <use style="stroke:#000000;stroke-width:0.8;" x="48.2" xlink:href="#m8cd3e62899" y="188.386139"/>
      </g>
     </g>
     <g id="text_10">
      <!-- 0.4 -->
      <g transform="translate(25.296875 192.185357)scale(0.1 -0.1)">
       <use xlink:href="#DejaVuSans-30"/>
       <use x="63.623047" xlink:href="#DejaVuSans-2e"/>
       <use x="95.410156" xlink:href="#DejaVuSans-34"/>
      </g>
     </g>
    </g>
    <g id="ytick_4">
     <g id="line2d_10">
      <g>
       <use style="stroke:#000000;stroke-width:0.8;" x="48.2" xlink:href="#m8cd3e62899" y="131.079208"/>
      </g>
     </g>
     <g id="text_11">
      <!-- 0.6 -->
      <g transform="translate(25.296875 134.878427)scale(0.1 -0.1)">
       <use xlink:href="#DejaVuSans-30"/>
       <use x="63.623047" xlink:href="#DejaVuSans-2e"/>
       <use x="95.410156" xlink:href="#DejaVuSans-36"/>
      </g>
     </g>
    </g>
    <g id="ytick_5">
     <g id="line2d_11">
      <g>
       <use style="stroke:#000000;stroke-width:0.8;" x="48.2" xlink:href="#m8cd3e62899" y="73.772277"/>
      </g>
     </g>
     <g id="text_12">
      <!-- 0.8 -->
      <g transform="translate(25.296875 77.571496)scale(0.1 -0.1)">
       <use xlink:href="#DejaVuSans-30"/>
       <use x="63.623047" xlink:href="#DejaVuSans-2e"/>
       <use x="95.410156" xlink:href="#DejaVuSans-38"/>
      </g>
     </g>
    </g>
    <g id="ytick_6">
     <g id="line2d_12">
      <g>
       <use style="stroke:#000000;stroke-width:0.8;" x="48.2" xlink:href="#m8cd3e62899" y="16.465347"/>
      </g>
     </g>
     <g id="text_13">
      <!-- 1.0 -->
      <g transform="translate(25.296875 20.264565)scale(0.1 -0.1)">
       <use xlink:href="#DejaVuSans-31"/>
       <use x="63.623047" xlink:href="#DejaVuSans-2e"/>
       <use x="95.410156" xlink:href="#DejaVuSans-30"/>
      </g>
     </g>
    </g>
    <g id="text_14">
     <!-- True positive rate -->
     <defs>
      <path d="M -0.296875 72.90625 
L 61.375 72.90625 
L 61.375 64.59375 
L 35.5 64.59375 
L 35.5 0 
L 25.59375 0 
L 25.59375 64.59375 
L -0.296875 64.59375 
z
" id="DejaVuSans-54"/>
      <path d="M 8.5 21.578125 
L 8.5 54.6875 
L 17.484375 54.6875 
L 17.484375 21.921875 
Q 17.484375 14.15625 20.5 10.265625 
Q 23.53125 6.390625 29.59375 6.390625 
Q 36.859375 6.390625 41.078125 11.03125 
Q 45.3125 15.671875 45.3125 23.6875 
L 45.3125 54.6875 
L 54.296875 54.6875 
L 54.296875 0 
L 45.3125 0 
L 45.3125 8.40625 
Q 42.046875 3.421875 37.71875 1 
Q 33.40625 -1.421875 27.6875 -1.421875 
Q 18.265625 -1.421875 13.375 4.4375 
Q 8.5 10.296875 8.5 21.578125 
z
M 31.109375 56 
z
" id="DejaVuSans-75"/>
     </defs>
     <g transform="translate(19.217187 202.590625)rotate(-90)scale(0.1 -0.1)">
      <use xlink:href="#DejaVuSans-54"/>
      <use x="60.865234" xlink:href="#DejaVuSans-72"/>
      <use x="101.978516" xlink:href="#DejaVuSans-75"/>
      <use x="165.357422" xlink:href="#DejaVuSans-65"/>
      <use x="226.880859" xlink:href="#DejaVuSans-20"/>
      <use x="258.667969" xlink:href="#DejaVuSans-70"/>
      <use x="322.144531" xlink:href="#DejaVuSans-6f"/>
      <use x="383.326172" xlink:href="#DejaVuSans-73"/>
      <use x="435.425781" xlink:href="#DejaVuSans-69"/>
      <use x="463.208984" xlink:href="#DejaVuSans-74"/>
      <use x="502.417969" xlink:href="#DejaVuSans-69"/>
      <use x="530.201172" xlink:href="#DejaVuSans-76"/>
      <use x="589.380859" xlink:href="#DejaVuSans-65"/>
      <use x="650.904297" xlink:href="#DejaVuSans-20"/>
      <use x="682.691406" xlink:href="#DejaVuSans-72"/>
      <use x="723.804688" xlink:href="#DejaVuSans-61"/>
      <use x="785.083984" xlink:href="#DejaVuSans-74"/>
      <use x="824.292969" xlink:href="#DejaVuSans-65"/>
     </g>
    </g>
   </g>
   <g id="line2d_13">
    <path clip-path="url(#p44039ba984)" d="M 48.2 303 
L 52.178283 300.105711 
L 56.156566 297.211421 
L 60.134848 294.317132 
L 64.113131 291.422842 
L 68.091414 288.528553 
L 72.069697 285.634263 
L 76.04798 282.739974 
L 80.026263 279.845685 
L 84.004545 276.951395 
L 87.982828 274.057106 
L 91.961111 271.162816 
L 95.939394 268.268527 
L 99.917677 265.374237 
L 103.89596 262.479948 
L 107.874242 259.585659 
L 111.852525 256.691369 
L 115.830808 253.79708 
L 119.809091 250.90279 
L 123.787374 248.008501 
L 127.765657 245.114211 
L 131.743939 242.219922 
L 135.722222 239.325633 
L 139.700505 236.431343 
L 143.678788 233.537054 
L 147.657071 230.642764 
L 151.635354 227.748475 
L 155.613636 224.854185 
L 159.591919 221.959896 
L 163.570202 219.065607 
L 167.548485 216.171317 
L 171.526768 213.277028 
L 175.505051 210.382738 
L 179.483333 207.488449 
L 183.461616 204.594159 
L 187.439899 201.69987 
L 191.418182 198.805581 
L 195.396465 195.911291 
L 199.374747 193.017002 
L 203.35303 190.122712 
L 207.331313 187.228423 
L 211.309596 184.334133 
L 215.287879 181.439844 
L 219.266162 178.545555 
L 223.244444 175.651265 
L 227.222727 172.756976 
L 231.20101 169.862686 
L 235.179293 166.968397 
L 239.157576 164.074107 
L 243.135859 161.179818 
L 247.114141 158.285529 
L 251.092424 155.391239 
L 255.070707 152.49695 
L 259.04899 149.60266 
L 263.027273 146.708371 
L 267.005556 143.814081 
L 270.983838 140.919792 
L 274.962121 138.025503 
L 278.940404 135.131213 
L 282.918687 132.236924 
L 286.89697 129.342634 
L 290.875253 126.448345 
L 294.853535 123.554055 
L 298.831818 120.659766 
L 302.810101 117.765477 
L 306.788384 114.871187 
L 310.766667 111.976898 
L 314.744949 109.082608 
L 318.723232 106.188319 
L 322.701515 103.294029 
L 326.679798 100.39974 
L 330.658081 97.505451 
L 334.636364 94.611161 
L 338.614646 91.716872 
L 342.592929 88.822582 
L 346.571212 85.928293 
L 350.549495 83.034003 
L 354.527778 80.139714 
L 358.506061 77.245425 
L 362.484343 74.351135 
L 366.462626 71.456846 
L 370.440909 68.562556 
L 374.419192 65.668267 
L 378.397475 62.773977 
L 382.375758 59.879688 
L 386.35404 56.985399 
L 390.332323 54.091109 
L 394.310606 51.19682 
L 398.288889 48.30253 
L 402.267172 45.408241 
L 406.245455 42.513951 
L 410.223737 39.619662 
L 414.20202 36.725373 
L 418.180303 33.831083 
L 422.158586 30.936794 
L 426.136869 28.042504 
L 430.115152 25.148215 
L 434.093434 22.253925 
L 438.071717 19.359636 
L 442.05 16.465347 
" style="fill:none;stroke:#cccccc;stroke-dasharray:5.55,2.4;stroke-dashoffset:0;stroke-width:1.5;"/>
   </g>
   <g id="line2d_14">
    <path clip-path="url(#p44039ba984)" d="M 48.2 303 
L 52.1385 293.497034 
L 56.077 288.802534 
L 60.0155 284.592365 
L 63.954 280.947145 
L 67.8925 277.464046 
L 71.831 273.729759 
L 75.7695 270.327935 
L 79.708 266.856705 
L 83.6465 263.727411 
L 87.585 260.667258 
L 91.5235 257.871764 
L 95.462 254.876867 
L 99.4005 251.691379 
L 103.339 248.685256 
L 107.2775 245.687165 
L 111.216 242.778989 
L 115.1545 240.01824 
L 119.093 237.070257 
L 123.0315 234.181809 
L 126.97 231.243978 
L 130.9085 228.294032 
L 134.847 225.561478 
L 138.7855 222.906597 
L 142.724 220.169059 
L 146.6625 217.265156 
L 150.601 214.390783 
L 154.5395 211.644748 
L 158.478 208.900177 
L 162.4165 206.011873 
L 166.355 203.238749 
L 170.2935 200.48307 
L 174.232 197.602393 
L 178.1705 194.94064 
L 182.109 192.359056 
L 186.0475 189.683132 
L 189.986 187.054104 
L 193.9245 184.203272 
L 197.863 181.435794 
L 201.8015 178.702195 
L 205.74 175.883015 
L 209.6785 173.021959 
L 213.617 170.23357 
L 217.5555 167.28736 
L 221.494 164.411866 
L 225.4325 161.566891 
L 229.371 158.842213 
L 233.3095 156.106581 
L 237.248 153.289187 
L 241.1865 150.48441 
L 245.125 147.627076 
L 249.0635 144.795035 
L 253.002 142.013699 
L 256.9405 139.252829 
L 260.879 136.485003 
L 264.8175 133.713614 
L 268.756 130.836249 
L 272.6945 127.917461 
L 276.633 124.970413 
L 280.5715 122.228146 
L 284.51 119.504193 
L 288.4485 116.667931 
L 292.387 113.883725 
L 296.3255 111.174204 
L 300.264 108.446304 
L 304.2025 105.617436 
L 308.141 102.80932 
L 312.0795 100.034958 
L 316.018 97.280857 
L 319.9565 94.493824 
L 323.895 91.73212 
L 327.8335 88.950604 
L 331.772 86.232028 
L 335.7105 83.55441 
L 339.649 80.832534 
L 343.5875 78.159563 
L 347.526 75.5315 
L 351.4645 72.910363 
L 355.403 70.294672 
L 359.3415 67.712248 
L 363.28 65.169017 
L 367.2185 62.655434 
L 371.157 60.151643 
L 375.0955 57.641592 
L 379.034 55.125699 
L 382.9725 52.66015 
L 386.911 50.204109 
L 390.8495 47.728381 
L 394.788 45.26475 
L 398.7265 42.760695 
L 402.665 40.180733 
L 406.6035 37.576367 
L 410.542 34.96761 
L 414.4805 32.389311 
L 418.419 29.914815 
L 422.3575 27.487367 
L 426.296 25.121256 
L 430.2345 22.846054 
L 434.173 20.698205 
L 438.1115 18.590036 
L 442.05 16.465347 
" style="fill:none;stroke:#0000ff;stroke-linecap:square;stroke-width:1.5;"/>
   </g>
   <g id="line2d_15">
    <path clip-path="url(#p44039ba984)" d="M 48.2 303 
L 52.1385 290.978852 
L 56.077 283.859639 
L 60.0155 277.859549 
L 63.954 272.525645 
L 67.8925 267.542901 
L 71.831 263.009189 
L 75.7695 258.558264 
L 79.708 254.412798 
L 83.6465 250.350677 
L 87.585 246.543636 
L 91.5235 242.746966 
L 95.462 239.211975 
L 99.4005 235.76308 
L 103.339 232.507365 
L 107.2775 229.283563 
L 111.216 226.13164 
L 115.1545 223.062516 
L 119.093 219.964907 
L 123.0315 216.925649 
L 126.97 213.975535 
L 130.9085 211.033773 
L 134.847 208.003228 
L 138.7855 205.162579 
L 142.724 202.296197 
L 146.6625 199.431685 
L 150.601 196.486437 
L 154.5395 193.571923 
L 158.478 190.754327 
L 162.4165 187.955438 
L 166.355 185.228733 
L 170.2935 182.526151 
L 174.232 179.834468 
L 178.1705 177.000352 
L 182.109 174.381366 
L 186.0475 171.713718 
L 189.986 169.052532 
L 193.9245 166.460544 
L 197.863 163.753928 
L 201.8015 161.11233 
L 205.74 158.537645 
L 209.6785 156.015963 
L 213.617 153.484199 
L 217.5555 150.858762 
L 221.494 148.353695 
L 225.4325 145.820228 
L 229.371 143.281949 
L 233.3095 140.737852 
L 237.248 138.182542 
L 241.1865 135.764735 
L 245.125 133.212498 
L 249.0635 130.765687 
L 253.002 128.096982 
L 256.9405 125.630792 
L 260.879 123.3114 
L 264.8175 120.923533 
L 268.756 118.492657 
L 272.6945 116.191245 
L 276.633 113.768736 
L 280.5715 111.419563 
L 284.51 108.967478 
L 288.4485 106.574777 
L 292.387 104.152587 
L 296.3255 101.765237 
L 300.264 99.493841 
L 304.2025 97.142773 
L 308.141 94.783508 
L 312.0795 92.567982 
L 316.018 90.274601 
L 319.9565 87.912483 
L 323.895 85.618046 
L 327.8335 83.233207 
L 331.772 80.858216 
L 335.7105 78.533543 
L 339.649 76.298131 
L 343.5875 73.978472 
L 347.526 71.633776 
L 351.4645 69.319095 
L 355.403 67.02339 
L 359.3415 64.729886 
L 363.28 62.473 
L 367.2185 60.319542 
L 371.157 58.044792 
L 375.0955 55.678058 
L 379.034 53.403632 
L 382.9725 51.050574 
L 386.911 48.728288 
L 390.8495 46.323244 
L 394.788 43.933409 
L 398.7265 41.470941 
L 402.665 38.974189 
L 406.6035 36.523985 
L 410.542 34.056224 
L 414.4805 31.618055 
L 418.419 29.089575 
L 422.3575 26.667206 
L 426.296 24.327539 
L 430.2345 21.943445 
L 434.173 19.748688 
L 438.1115 18.005309 
L 442.05 16.465347 
" style="fill:none;stroke:#0000ff;stroke-dasharray:5.55,2.4;stroke-dashoffset:0;stroke-width:1.5;"/>
   </g>
   <g id="line2d_16">
    <path clip-path="url(#p44039ba984)" d="M 48.2 303 
L 52.1385 266.868422 
L 56.077 255.481005 
L 60.0155 248.743032 
L 63.954 242.610803 
L 67.8925 237.953836 
L 71.831 233.706125 
L 75.7695 229.510082 
L 79.708 225.508678 
L 83.6465 222.102287 
L 87.585 218.721374 
L 91.5235 215.461623 
L 95.462 212.279609 
L 99.4005 208.928808 
L 103.339 205.871946 
L 107.2775 203.004558 
L 111.216 200.284248 
L 115.1545 197.74661 
L 119.093 195.078619 
L 123.0315 192.540877 
L 126.97 189.925017 
L 130.9085 187.324048 
L 134.847 184.897277 
L 138.7855 182.342621 
L 142.724 179.70945 
L 146.6625 177.181146 
L 150.601 174.511127 
L 154.5395 172.096244 
L 158.478 169.586616 
L 162.4165 167.016493 
L 166.355 164.725652 
L 170.2935 162.37346 
L 174.232 159.971781 
L 178.1705 157.722776 
L 182.109 155.47208 
L 186.0475 152.977435 
L 189.986 150.650241 
L 193.9245 148.259646 
L 197.863 145.984294 
L 201.8015 143.674523 
L 205.74 141.437529 
L 209.6785 139.124102 
L 213.617 136.763114 
L 217.5555 134.409022 
L 221.494 132.001238 
L 225.4325 129.589397 
L 229.371 127.258392 
L 233.3095 124.924192 
L 237.248 122.439533 
L 241.1865 120.071864 
L 245.125 117.760276 
L 249.0635 115.317038 
L 253.002 112.905612 
L 256.9405 110.50749 
L 260.879 107.95062 
L 264.8175 105.584387 
L 268.756 103.222672 
L 272.6945 100.863475 
L 276.633 98.319542 
L 280.5715 96.012462 
L 284.51 93.771763 
L 288.4485 91.381058 
L 292.387 89.185161 
L 296.3255 87.076033 
L 300.264 84.958233 
L 304.2025 82.756781 
L 308.141 80.588829 
L 312.0795 78.428362 
L 316.018 76.329953 
L 319.9565 74.224907 
L 323.895 72.196789 
L 327.8335 70.139484 
L 331.772 68.147003 
L 335.7105 66.145393 
L 339.649 64.207716 
L 343.5875 62.276586 
L 347.526 60.321597 
L 351.4645 58.403634 
L 355.403 56.459568 
L 359.3415 54.485548 
L 363.28 52.485819 
L 367.2185 50.562558 
L 371.157 48.666638 
L 375.0955 46.791832 
L 379.034 44.910379 
L 382.9725 43.003108 
L 386.911 41.116467 
L 390.8495 39.38634 
L 394.788 37.573597 
L 398.7265 35.876213 
L 402.665 34.076936 
L 406.6035 32.266133 
L 410.542 30.397506 
L 414.4805 28.562532 
L 418.419 26.768627 
L 422.3575 24.968301 
L 426.296 23.257394 
L 430.2345 21.468851 
L 434.173 19.732013 
L 438.1115 18.1012 
L 442.05 16.465347 
" style="fill:none;stroke:#008000;stroke-linecap:square;stroke-width:1.5;"/>
   </g>
   <g id="line2d_17">
    <path clip-path="url(#p44039ba984)" d="M 48.2 303 
L 52.1385 263.383333 
L 56.077 250.857636 
L 60.0155 243.169122 
L 63.954 237.318104 
L 67.8925 232.482455 
L 71.831 228.134154 
L 75.7695 224.334553 
L 79.708 220.687471 
L 83.6465 217.313171 
L 87.585 213.960499 
L 91.5235 211.014814 
L 95.462 208.093624 
L 99.4005 205.302583 
L 103.339 202.565448 
L 107.2775 199.930905 
L 111.216 197.410473 
L 115.1545 194.936611 
L 119.093 192.508094 
L 123.0315 190.082841 
L 126.97 187.686938 
L 130.9085 185.387633 
L 134.847 183.110266 
L 138.7855 180.821814 
L 142.724 178.534987 
L 146.6625 176.211748 
L 150.601 173.981753 
L 154.5395 171.731267 
L 158.478 169.388988 
L 162.4165 167.097649 
L 166.355 164.724436 
L 170.2935 162.395907 
L 174.232 160.112455 
L 178.1705 157.710697 
L 182.109 155.352871 
L 186.0475 152.944295 
L 189.986 150.470477 
L 193.9245 148.090636 
L 197.863 145.708024 
L 201.8015 143.296112 
L 205.74 140.908356 
L 209.6785 138.60847 
L 213.617 136.13478 
L 217.5555 133.669456 
L 221.494 131.194152 
L 225.4325 128.619026 
L 229.371 126.223622 
L 233.3095 123.837253 
L 237.248 121.370623 
L 241.1865 118.960133 
L 245.125 116.498699 
L 249.0635 114.073148 
L 253.002 111.493789 
L 256.9405 109.017265 
L 260.879 106.629461 
L 264.8175 104.145031 
L 268.756 101.778962 
L 272.6945 99.673321 
L 276.633 97.402189 
L 280.5715 95.14114 
L 284.51 92.954571 
L 288.4485 90.858832 
L 292.387 88.748227 
L 296.3255 86.701944 
L 300.264 84.733107 
L 304.2025 82.787063 
L 308.141 80.943598 
L 312.0795 79.093806 
L 316.018 77.25083 
L 319.9565 75.419007 
L 323.895 73.605332 
L 327.8335 71.769174 
L 331.772 69.956036 
L 335.7105 68.111014 
L 339.649 66.347249 
L 343.5875 64.560666 
L 347.526 62.731666 
L 351.4645 60.897574 
L 355.403 59.049889 
L 359.3415 57.193284 
L 363.28 55.405484 
L 367.2185 53.589296 
L 371.157 51.671848 
L 375.0955 49.665753 
L 379.034 47.850237 
L 382.9725 46.000759 
L 386.911 44.002487 
L 390.8495 42.033243 
L 394.788 40.06656 
L 398.7265 38.133431 
L 402.665 36.071396 
L 406.6035 33.940664 
L 410.542 31.829987 
L 414.4805 29.776507 
L 418.419 27.68208 
L 422.3575 25.735235 
L 426.296 23.634387 
L 430.2345 21.428599 
L 434.173 19.400797 
L 438.1115 17.748887 
L 442.05 16.465347 
" style="fill:none;stroke:#008000;stroke-dasharray:5.55,2.4;stroke-dashoffset:0;stroke-width:1.5;"/>
   </g>
   <g id="line2d_18">
    <path clip-path="url(#p44039ba984)" d="M 48.2 303 
L 52.1385 254.679681 
L 56.077 236.976994 
L 60.0155 225.643396 
L 63.954 217.063835 
L 67.8925 211.048209 
L 71.831 205.710323 
L 75.7695 201.166699 
L 79.708 196.734158 
L 83.6465 192.718671 
L 87.585 188.954581 
L 91.5235 184.849204 
L 95.462 181.404034 
L 99.4005 177.514865 
L 103.339 173.979106 
L 107.2775 170.719525 
L 111.216 167.872996 
L 115.1545 165.19193 
L 119.093 162.505185 
L 123.0315 159.945224 
L 126.97 157.66879 
L 130.9085 155.193337 
L 134.847 153.054615 
L 138.7855 150.785841 
L 142.724 148.547759 
L 146.6625 146.214534 
L 150.601 143.967446 
L 154.5395 141.5864 
L 158.478 139.595538 
L 162.4165 137.610797 
L 166.355 135.489712 
L 170.2935 133.479081 
L 174.232 131.587578 
L 178.1705 129.838732 
L 182.109 128.111007 
L 186.0475 126.273536 
L 189.986 124.411805 
L 193.9245 122.596034 
L 197.863 120.87164 
L 201.8015 119.134139 
L 205.74 117.455472 
L 209.6785 115.784299 
L 213.617 114.031709 
L 217.5555 112.340755 
L 221.494 110.549729 
L 225.4325 108.565105 
L 229.371 106.522487 
L 233.3095 104.700229 
L 237.248 102.530932 
L 241.1865 100.501681 
L 245.125 98.458058 
L 249.0635 96.355102 
L 253.002 94.429527 
L 256.9405 92.564302 
L 260.879 90.623749 
L 264.8175 88.85964 
L 268.756 87.019724 
L 272.6945 85.2137 
L 276.633 82.97973 
L 280.5715 80.870268 
L 284.51 78.466858 
L 288.4485 76.439223 
L 292.387 74.673897 
L 296.3255 72.955543 
L 300.264 71.212258 
L 304.2025 69.380231 
L 308.141 67.548905 
L 312.0795 65.884648 
L 316.018 64.103552 
L 319.9565 62.423426 
L 323.895 60.765994 
L 327.8335 59.172127 
L 331.772 57.640961 
L 335.7105 56.024874 
L 339.649 54.540551 
L 343.5875 53.039008 
L 347.526 51.494425 
L 351.4645 49.94213 
L 355.403 48.383679 
L 359.3415 46.741558 
L 363.28 45.172127 
L 367.2185 43.526821 
L 371.157 42.08859 
L 375.0955 40.584636 
L 379.034 38.950034 
L 382.9725 37.35065 
L 386.911 35.97646 
L 390.8495 34.599582 
L 394.788 33.239315 
L 398.7265 31.837969 
L 402.665 30.514589 
L 406.6035 29.124232 
L 410.542 27.708987 
L 414.4805 26.416928 
L 418.419 25.060357 
L 422.3575 23.700532 
L 426.296 22.317183 
L 430.2345 20.778757 
L 434.173 19.332306 
L 438.1115 17.837018 
L 442.05 16.465347 
" style="fill:none;stroke:#bfbf00;stroke-linecap:square;stroke-width:1.5;"/>
   </g>
   <g id="line2d_19">
    <path clip-path="url(#p44039ba984)" d="M 48.2 303 
L 52.1385 247.108122 
L 56.077 227.527131 
L 60.0155 216.559287 
L 63.954 208.825902 
L 67.8925 202.994481 
L 71.831 198.382174 
L 75.7695 194.464663 
L 79.708 191.18448 
L 83.6465 188.200501 
L 87.585 184.907873 
L 91.5235 182.146121 
L 95.462 179.592935 
L 99.4005 177.289804 
L 103.339 174.96404 
L 107.2775 172.666109 
L 111.216 170.640928 
L 115.1545 168.670007 
L 119.093 166.457853 
L 123.0315 164.426696 
L 126.97 162.437063 
L 130.9085 160.363262 
L 134.847 158.490484 
L 138.7855 156.500696 
L 142.724 154.385578 
L 146.6625 152.274673 
L 150.601 150.326586 
L 154.5395 148.319222 
L 158.478 146.280255 
L 162.4165 144.174424 
L 166.355 142.250772 
L 170.2935 140.412333 
L 174.232 138.507719 
L 178.1705 136.614889 
L 182.109 134.649378 
L 186.0475 132.690869 
L 189.986 130.680301 
L 193.9245 128.566895 
L 197.863 126.449584 
L 201.8015 124.247743 
L 205.74 122.013864 
L 209.6785 119.62153 
L 213.617 117.319671 
L 217.5555 115.019507 
L 221.494 112.700602 
L 225.4325 110.375978 
L 229.371 107.915099 
L 233.3095 105.479759 
L 237.248 103.181079 
L 241.1865 100.909547 
L 245.125 98.426456 
L 249.0635 95.899865 
L 253.002 93.49232 
L 256.9405 91.239973 
L 260.879 89.030449 
L 264.8175 86.66139 
L 268.756 84.369365 
L 272.6945 82.260103 
L 276.633 80.029506 
L 280.5715 78.115018 
L 284.51 76.103936 
L 288.4485 74.201179 
L 292.387 72.337579 
L 296.3255 70.710992 
L 300.264 69.154807 
L 304.2025 67.608244 
L 308.141 65.948769 
L 312.0795 64.481726 
L 316.018 63.027309 
L 319.9565 61.538376 
L 323.895 60.150952 
L 327.8335 58.677318 
L 331.772 57.203499 
L 335.7105 55.75045 
L 339.649 54.438628 
L 343.5875 53.140175 
L 347.526 51.80585 
L 351.4645 50.575937 
L 355.403 49.29822 
L 359.3415 47.915879 
L 363.28 46.564277 
L 367.2185 45.149355 
L 371.157 43.59508 
L 375.0955 42.020584 
L 379.034 40.478044 
L 382.9725 39.13895 
L 386.911 37.602839 
L 390.8495 36.078628 
L 394.788 34.723191 
L 398.7265 33.282338 
L 402.665 31.689555 
L 406.6035 30.163458 
L 410.542 28.47499 
L 414.4805 26.726225 
L 418.419 24.926621 
L 422.3575 23.191793 
L 426.296 21.593218 
L 430.2345 19.918812 
L 434.173 18.638114 
L 438.1115 17.266628 
L 442.05 16.465347 
" style="fill:none;stroke:#bfbf00;stroke-dasharray:5.55,2.4;stroke-dashoffset:0;stroke-width:1.5;"/>
   </g>
   <g id="line2d_20">
    <path clip-path="url(#p44039ba984)" d="M 48.2 303 
L 52.1385 262.972494 
L 56.077 241.456139 
L 60.0155 228.313911 
L 63.954 215.848116 
L 67.8925 207.184818 
L 71.831 201.763794 
L 75.7695 196.700704 
L 79.708 192.793867 
L 83.6465 188.919455 
L 87.585 184.095282 
L 91.5235 180.189562 
L 95.462 176.818403 
L 99.4005 173.018528 
L 103.339 169.4609 
L 107.2775 166.37572 
L 111.216 163.065408 
L 115.1545 159.862064 
L 119.093 156.471303 
L 123.0315 153.329151 
L 126.97 150.650576 
L 130.9085 148.197831 
L 134.847 146.128858 
L 138.7855 144.029499 
L 142.724 142.005818 
L 146.6625 140.142548 
L 150.601 138.017197 
L 154.5395 135.864933 
L 158.478 133.370446 
L 162.4165 130.97454 
L 166.355 128.837472 
L 170.2935 126.968781 
L 174.232 125.28063 
L 178.1705 123.630813 
L 182.109 122.096204 
L 186.0475 120.36347 
L 189.986 118.78783 
L 193.9245 117.004216 
L 197.863 115.036262 
L 201.8015 113.141379 
L 205.74 111.176176 
L 209.6785 109.058925 
L 213.617 106.915009 
L 217.5555 105.274253 
L 221.494 103.222385 
L 225.4325 101.49671 
L 229.371 99.878265 
L 233.3095 98.236018 
L 237.248 96.388681 
L 241.1865 94.428596 
L 245.125 91.935039 
L 249.0635 89.254653 
L 253.002 87.142665 
L 256.9405 84.813826 
L 260.879 82.718063 
L 264.8175 80.720505 
L 268.756 78.923185 
L 272.6945 77.191213 
L 276.633 75.499388 
L 280.5715 73.647193 
L 284.51 72.031732 
L 288.4485 70.480085 
L 292.387 69.093693 
L 296.3255 67.524837 
L 300.264 66.168727 
L 304.2025 64.843624 
L 308.141 63.431923 
L 312.0795 62.062369 
L 316.018 60.640912 
L 319.9565 59.123562 
L 323.895 57.652166 
L 327.8335 56.15609 
L 331.772 54.684323 
L 335.7105 53.27513 
L 339.649 51.746452 
L 343.5875 50.323806 
L 347.526 48.990161 
L 351.4645 47.619764 
L 355.403 46.24627 
L 359.3415 44.849436 
L 363.28 43.479893 
L 367.2185 42.132774 
L 371.157 40.725101 
L 375.0955 39.396818 
L 379.034 38.196928 
L 382.9725 36.615646 
L 386.911 34.800472 
L 390.8495 33.497479 
L 394.788 32.163474 
L 398.7265 30.844402 
L 402.665 29.549516 
L 406.6035 28.2809 
L 410.542 26.882015 
L 414.4805 25.598293 
L 418.419 24.319042 
L 422.3575 23.002628 
L 426.296 21.498193 
L 430.2345 20.353196 
L 434.173 18.908236 
L 438.1115 17.53358 
L 442.05 16.465347 
" style="fill:none;stroke:#ff0000;stroke-linecap:square;stroke-width:1.5;"/>
   </g>
   <g id="line2d_21">
    <path clip-path="url(#p44039ba984)" d="M 48.2 303 
L 52.1385 257.136199 
L 56.077 230.415233 
L 60.0155 215.744901 
L 63.954 202.461628 
L 67.8925 194.249474 
L 71.831 188.011399 
L 75.7695 183.06809 
L 79.708 179.529574 
L 83.6465 176.073999 
L 87.585 172.119363 
L 91.5235 169.259593 
L 95.462 166.564655 
L 99.4005 163.339463 
L 103.339 160.491443 
L 107.2775 158.334665 
L 111.216 156.18874 
L 115.1545 154.396164 
L 119.093 152.514547 
L 123.0315 150.571803 
L 126.97 148.684318 
L 130.9085 146.956636 
L 134.847 145.105422 
L 138.7855 143.049107 
L 142.724 140.984185 
L 146.6625 138.778488 
L 150.601 136.950589 
L 154.5395 135.464219 
L 158.478 133.810192 
L 162.4165 131.83523 
L 166.355 129.986683 
L 170.2935 128.292119 
L 174.232 126.520568 
L 178.1705 124.765403 
L 182.109 123.032125 
L 186.0475 121.30503 
L 189.986 119.813942 
L 193.9245 118.426665 
L 197.863 116.781055 
L 201.8015 115.182196 
L 205.74 113.40662 
L 209.6785 111.607631 
L 213.617 109.653877 
L 217.5555 107.533076 
L 221.494 105.821493 
L 225.4325 103.558777 
L 229.371 101.371068 
L 233.3095 99.466964 
L 237.248 97.536254 
L 241.1865 95.727313 
L 245.125 93.505702 
L 249.0635 91.462041 
L 253.002 89.139026 
L 256.9405 86.733727 
L 260.879 84.493671 
L 264.8175 82.497431 
L 268.756 80.251058 
L 272.6945 78.343162 
L 276.633 76.608047 
L 280.5715 74.800434 
L 284.51 73.012926 
L 288.4485 71.482472 
L 292.387 69.624758 
L 296.3255 67.517358 
L 300.264 65.152411 
L 304.2025 62.878461 
L 308.141 60.937879 
L 312.0795 59.077435 
L 316.018 57.371722 
L 319.9565 55.846981 
L 323.895 54.478009 
L 327.8335 53.201056 
L 331.772 51.979209 
L 335.7105 50.750278 
L 339.649 49.61633 
L 343.5875 48.42532 
L 347.526 47.211586 
L 351.4645 46.174911 
L 355.403 45.152167 
L 359.3415 43.990081 
L 363.28 42.682247 
L 367.2185 41.559553 
L 371.157 40.468634 
L 375.0955 39.254255 
L 379.034 38.10453 
L 382.9725 36.879101 
L 386.911 35.46866 
L 390.8495 34.094223 
L 394.788 33.000172 
L 398.7265 31.8934 
L 402.665 30.605711 
L 406.6035 29.192531 
L 410.542 27.88502 
L 414.4805 26.394876 
L 418.419 25.041655 
L 422.3575 23.18212 
L 426.296 21.568085 
L 430.2345 19.963429 
L 434.173 18.669158 
L 438.1115 17.244389 
L 442.05 16.465347 
" style="fill:none;stroke:#ff0000;stroke-dasharray:5.55,2.4;stroke-dashoffset:0;stroke-width:1.5;"/>
   </g>
   <g id="patch_3">
    <path d="M 48.2 303 
L 48.2 13.6 
" style="fill:none;stroke:#000000;stroke-linecap:square;stroke-linejoin:miter;stroke-width:0.8;"/>
   </g>
   <g id="patch_4">
    <path d="M 442.05 303 
L 442.05 13.6 
" style="fill:none;stroke:#000000;stroke-linecap:square;stroke-linejoin:miter;stroke-width:0.8;"/>
   </g>
   <g id="patch_5">
    <path d="M 48.2 303 
L 442.05 303 
" style="fill:none;stroke:#000000;stroke-linecap:square;stroke-linejoin:miter;stroke-width:0.8;"/>
   </g>
   <g id="patch_6">
    <path d="M 48.2 13.6 
L 442.05 13.6 
" style="fill:none;stroke:#000000;stroke-linecap:square;stroke-linejoin:miter;stroke-width:0.8;"/>
   </g>
   <g id="legend_1">
    <g id="patch_7">
     <path d="M 162.614063 298 
L 435.05 298 
Q 437.05 298 437.05 296 
L 437.05 179.4875 
Q 437.05 177.4875 435.05 177.4875 
L 162.614063 177.4875 
Q 160.614063 177.4875 160.614063 179.4875 
L 160.614063 296 
Q 160.614063 298 162.614063 298 
z
" style="fill:#ffffff;opacity:0.8;stroke:#cccccc;stroke-linejoin:miter;"/>
    </g>
    <g id="line2d_22">
     <path d="M 164.614063 185.5875 
L 184.614063 185.5875 
" style="fill:none;stroke:#0000ff;stroke-linecap:square;stroke-width:1.5;"/>
    </g>
    <g id="line2d_23"/>
    <g id="text_15">
     <!-- $\mu$ 1 seed node(s) mean AUC: 0.54 (std: 0.08) -->
     <defs>
      <path d="M -1.3125 -20.796875 
L 13.375 54.6875 
L 22.40625 54.6875 
L 15.765625 20.65625 
Q 15.578125 19.625 15.421875 18.359375 
Q 15.28125 17.09375 15.28125 15.828125 
Q 15.28125 11.28125 18.140625 8.828125 
Q 21 6.390625 26.3125 6.390625 
Q 33.546875 6.390625 37.984375 10.484375 
Q 42.4375 14.59375 44 22.796875 
L 50.203125 54.6875 
L 59.1875 54.6875 
L 51.03125 12.640625 
Q 50.828125 11.71875 50.75 11.03125 
Q 50.6875 10.359375 50.6875 9.8125 
Q 50.6875 8.296875 51.296875 7.59375 
Q 51.90625 6.890625 53.21875 6.890625 
Q 53.71875 6.890625 54.5625 7.125 
Q 55.421875 7.375 56.984375 8.015625 
L 55.609375 0.78125 
Q 53.46875 -0.296875 51.515625 -0.859375 
Q 49.5625 -1.421875 47.703125 -1.421875 
Q 44.484375 -1.421875 42.65625 0.625 
Q 40.828125 2.6875 40.828125 6.296875 
Q 38.09375 2.390625 34.296875 0.484375 
Q 30.515625 -1.421875 25.390625 -1.421875 
Q 20.84375 -1.421875 17.453125 0.671875 
Q 14.0625 2.78125 12.984375 6.203125 
L 7.71875 -20.796875 
z
" id="DejaVuSans-Oblique-3bc"/>
      <path d="M 45.40625 46.390625 
L 45.40625 75.984375 
L 54.390625 75.984375 
L 54.390625 0 
L 45.40625 0 
L 45.40625 8.203125 
Q 42.578125 3.328125 38.25 0.953125 
Q 33.9375 -1.421875 27.875 -1.421875 
Q 17.96875 -1.421875 11.734375 6.484375 
Q 5.515625 14.40625 5.515625 27.296875 
Q 5.515625 40.1875 11.734375 48.09375 
Q 17.96875 56 27.875 56 
Q 33.9375 56 38.25 53.625 
Q 42.578125 51.265625 45.40625 46.390625 
z
M 14.796875 27.296875 
Q 14.796875 17.390625 18.875 11.75 
Q 22.953125 6.109375 30.078125 6.109375 
Q 37.203125 6.109375 41.296875 11.75 
Q 45.40625 17.390625 45.40625 27.296875 
Q 45.40625 37.203125 41.296875 42.84375 
Q 37.203125 48.484375 30.078125 48.484375 
Q 22.953125 48.484375 18.875 42.84375 
Q 14.796875 37.203125 14.796875 27.296875 
z
" id="DejaVuSans-64"/>
      <path d="M 54.890625 33.015625 
L 54.890625 0 
L 45.90625 0 
L 45.90625 32.71875 
Q 45.90625 40.484375 42.875 44.328125 
Q 39.84375 48.1875 33.796875 48.1875 
Q 26.515625 48.1875 22.3125 43.546875 
Q 18.109375 38.921875 18.109375 30.90625 
L 18.109375 0 
L 9.078125 0 
L 9.078125 54.6875 
L 18.109375 54.6875 
L 18.109375 46.1875 
Q 21.34375 51.125 25.703125 53.5625 
Q 30.078125 56 35.796875 56 
Q 45.21875 56 50.046875 50.171875 
Q 54.890625 44.34375 54.890625 33.015625 
z
" id="DejaVuSans-6e"/>
      <path d="M 31 75.875 
Q 24.46875 64.65625 21.28125 53.65625 
Q 18.109375 42.671875 18.109375 31.390625 
Q 18.109375 20.125 21.3125 9.0625 
Q 24.515625 -2 31 -13.1875 
L 23.1875 -13.1875 
Q 15.875 -1.703125 12.234375 9.375 
Q 8.59375 20.453125 8.59375 31.390625 
Q 8.59375 42.28125 12.203125 53.3125 
Q 15.828125 64.359375 23.1875 75.875 
z
" id="DejaVuSans-28"/>
      <path d="M 8.015625 75.875 
L 15.828125 75.875 
Q 23.140625 64.359375 26.78125 53.3125 
Q 30.421875 42.28125 30.421875 31.390625 
Q 30.421875 20.453125 26.78125 9.375 
Q 23.140625 -1.703125 15.828125 -13.1875 
L 8.015625 -13.1875 
Q 14.5 -2 17.703125 9.0625 
Q 20.90625 20.125 20.90625 31.390625 
Q 20.90625 42.671875 17.703125 53.65625 
Q 14.5 64.65625 8.015625 75.875 
z
" id="DejaVuSans-29"/>
      <path d="M 52 44.1875 
Q 55.375 50.25 60.0625 53.125 
Q 64.75 56 71.09375 56 
Q 79.640625 56 84.28125 50.015625 
Q 88.921875 44.046875 88.921875 33.015625 
L 88.921875 0 
L 79.890625 0 
L 79.890625 32.71875 
Q 79.890625 40.578125 77.09375 44.375 
Q 74.3125 48.1875 68.609375 48.1875 
Q 61.625 48.1875 57.5625 43.546875 
Q 53.515625 38.921875 53.515625 30.90625 
L 53.515625 0 
L 44.484375 0 
L 44.484375 32.71875 
Q 44.484375 40.625 41.703125 44.40625 
Q 38.921875 48.1875 33.109375 48.1875 
Q 26.21875 48.1875 22.15625 43.53125 
Q 18.109375 38.875 18.109375 30.90625 
L 18.109375 0 
L 9.078125 0 
L 9.078125 54.6875 
L 18.109375 54.6875 
L 18.109375 46.1875 
Q 21.1875 51.21875 25.484375 53.609375 
Q 29.78125 56 35.6875 56 
Q 41.65625 56 45.828125 52.96875 
Q 50 49.953125 52 44.1875 
z
" id="DejaVuSans-6d"/>
      <path d="M 34.1875 63.1875 
L 20.796875 26.90625 
L 47.609375 26.90625 
z
M 28.609375 72.90625 
L 39.796875 72.90625 
L 67.578125 0 
L 57.328125 0 
L 50.6875 18.703125 
L 17.828125 18.703125 
L 11.1875 0 
L 0.78125 0 
z
" id="DejaVuSans-41"/>
      <path d="M 8.6875 72.90625 
L 18.609375 72.90625 
L 18.609375 28.609375 
Q 18.609375 16.890625 22.84375 11.734375 
Q 27.09375 6.59375 36.625 6.59375 
Q 46.09375 6.59375 50.34375 11.734375 
Q 54.59375 16.890625 54.59375 28.609375 
L 54.59375 72.90625 
L 64.5 72.90625 
L 64.5 27.390625 
Q 64.5 13.140625 57.4375 5.859375 
Q 50.390625 -1.421875 36.625 -1.421875 
Q 22.796875 -1.421875 15.734375 5.859375 
Q 8.6875 13.140625 8.6875 27.390625 
z
" id="DejaVuSans-55"/>
      <path d="M 64.40625 67.28125 
L 64.40625 56.890625 
Q 59.421875 61.53125 53.78125 63.8125 
Q 48.140625 66.109375 41.796875 66.109375 
Q 29.296875 66.109375 22.65625 58.46875 
Q 16.015625 50.828125 16.015625 36.375 
Q 16.015625 21.96875 22.65625 14.328125 
Q 29.296875 6.6875 41.796875 6.6875 
Q 48.140625 6.6875 53.78125 8.984375 
Q 59.421875 11.28125 64.40625 15.921875 
L 64.40625 5.609375 
Q 59.234375 2.09375 53.4375 0.328125 
Q 47.65625 -1.421875 41.21875 -1.421875 
Q 24.65625 -1.421875 15.125 8.703125 
Q 5.609375 18.84375 5.609375 36.375 
Q 5.609375 53.953125 15.125 64.078125 
Q 24.65625 74.21875 41.21875 74.21875 
Q 47.75 74.21875 53.53125 72.484375 
Q 59.328125 70.75 64.40625 67.28125 
z
" id="DejaVuSans-43"/>
      <path d="M 11.71875 12.40625 
L 22.015625 12.40625 
L 22.015625 0 
L 11.71875 0 
z
M 11.71875 51.703125 
L 22.015625 51.703125 
L 22.015625 39.3125 
L 11.71875 39.3125 
z
" id="DejaVuSans-3a"/>
      <path d="M 10.796875 72.90625 
L 49.515625 72.90625 
L 49.515625 64.59375 
L 19.828125 64.59375 
L 19.828125 46.734375 
Q 21.96875 47.46875 24.109375 47.828125 
Q 26.265625 48.1875 28.421875 48.1875 
Q 40.625 48.1875 47.75 41.5 
Q 54.890625 34.8125 54.890625 23.390625 
Q 54.890625 11.625 47.5625 5.09375 
Q 40.234375 -1.421875 26.90625 -1.421875 
Q 22.3125 -1.421875 17.546875 -0.640625 
Q 12.796875 0.140625 7.71875 1.703125 
L 7.71875 11.625 
Q 12.109375 9.234375 16.796875 8.0625 
Q 21.484375 6.890625 26.703125 6.890625 
Q 35.15625 6.890625 40.078125 11.328125 
Q 45.015625 15.765625 45.015625 23.390625 
Q 45.015625 31 40.078125 35.4375 
Q 35.15625 39.890625 26.703125 39.890625 
Q 22.75 39.890625 18.8125 39.015625 
Q 14.890625 38.140625 10.796875 36.28125 
z
" id="DejaVuSans-35"/>
     </defs>
     <g transform="translate(192.614063 189.0875)scale(0.1 -0.1)">
      <use transform="translate(0 0.015625)" xlink:href="#DejaVuSans-Oblique-3bc"/>
      <use transform="translate(63.623047 0.015625)" xlink:href="#DejaVuSans-20"/>
      <use transform="translate(95.410156 0.015625)" xlink:href="#DejaVuSans-31"/>
      <use transform="translate(159.033203 0.015625)" xlink:href="#DejaVuSans-20"/>
      <use transform="translate(190.820312 0.015625)" xlink:href="#DejaVuSans-73"/>
      <use transform="translate(242.919922 0.015625)" xlink:href="#DejaVuSans-65"/>
      <use transform="translate(304.443359 0.015625)" xlink:href="#DejaVuSans-65"/>
      <use transform="translate(365.966797 0.015625)" xlink:href="#DejaVuSans-64"/>
      <use transform="translate(429.443359 0.015625)" xlink:href="#DejaVuSans-20"/>
      <use transform="translate(461.230469 0.015625)" xlink:href="#DejaVuSans-6e"/>
      <use transform="translate(524.609375 0.015625)" xlink:href="#DejaVuSans-6f"/>
      <use transform="translate(585.791016 0.015625)" xlink:href="#DejaVuSans-64"/>
      <use transform="translate(649.267578 0.015625)" xlink:href="#DejaVuSans-65"/>
      <use transform="translate(710.791016 0.015625)" xlink:href="#DejaVuSans-28"/>
      <use transform="translate(749.804688 0.015625)" xlink:href="#DejaVuSans-73"/>
      <use transform="translate(801.904297 0.015625)" xlink:href="#DejaVuSans-29"/>
      <use transform="translate(840.917969 0.015625)" xlink:href="#DejaVuSans-20"/>
      <use transform="translate(872.705078 0.015625)" xlink:href="#DejaVuSans-6d"/>
      <use transform="translate(970.117188 0.015625)" xlink:href="#DejaVuSans-65"/>
      <use transform="translate(1031.640625 0.015625)" xlink:href="#DejaVuSans-61"/>
      <use transform="translate(1092.919922 0.015625)" xlink:href="#DejaVuSans-6e"/>
      <use transform="translate(1156.298828 0.015625)" xlink:href="#DejaVuSans-20"/>
      <use transform="translate(1188.085938 0.015625)" xlink:href="#DejaVuSans-41"/>
      <use transform="translate(1256.494141 0.015625)" xlink:href="#DejaVuSans-55"/>
      <use transform="translate(1329.6875 0.015625)" xlink:href="#DejaVuSans-43"/>
      <use transform="translate(1399.511719 0.015625)" xlink:href="#DejaVuSans-3a"/>
      <use transform="translate(1433.203125 0.015625)" xlink:href="#DejaVuSans-20"/>
      <use transform="translate(1464.990234 0.015625)" xlink:href="#DejaVuSans-30"/>
      <use transform="translate(1528.613281 0.015625)" xlink:href="#DejaVuSans-2e"/>
      <use transform="translate(1560.400391 0.015625)" xlink:href="#DejaVuSans-35"/>
      <use transform="translate(1624.023438 0.015625)" xlink:href="#DejaVuSans-34"/>
      <use transform="translate(1687.646484 0.015625)" xlink:href="#DejaVuSans-20"/>
      <use transform="translate(1719.433594 0.015625)" xlink:href="#DejaVuSans-28"/>
      <use transform="translate(1758.447266 0.015625)" xlink:href="#DejaVuSans-73"/>
      <use transform="translate(1810.546875 0.015625)" xlink:href="#DejaVuSans-74"/>
      <use transform="translate(1849.755859 0.015625)" xlink:href="#DejaVuSans-64"/>
      <use transform="translate(1913.232422 0.015625)" xlink:href="#DejaVuSans-3a"/>
      <use transform="translate(1946.923828 0.015625)" xlink:href="#DejaVuSans-20"/>
      <use transform="translate(1978.710938 0.015625)" xlink:href="#DejaVuSans-30"/>
      <use transform="translate(2042.333984 0.015625)" xlink:href="#DejaVuSans-2e"/>
      <use transform="translate(2074.121094 0.015625)" xlink:href="#DejaVuSans-30"/>
      <use transform="translate(2137.744141 0.015625)" xlink:href="#DejaVuSans-38"/>
      <use transform="translate(2201.367188 0.015625)" xlink:href="#DejaVuSans-29"/>
     </g>
    </g>
    <g id="line2d_24">
     <path d="M 164.614063 200.285937 
L 184.614063 200.285937 
" style="fill:none;stroke:#0000ff;stroke-dasharray:5.55,2.4;stroke-dashoffset:0;stroke-width:1.5;"/>
    </g>
    <g id="line2d_25"/>
    <g id="text_16">
     <!-- rwr 1 seed node(s) mean AUC: 0.57 (std: 0.11) -->
     <defs>
      <path d="M 4.203125 54.6875 
L 13.1875 54.6875 
L 24.421875 12.015625 
L 35.59375 54.6875 
L 46.1875 54.6875 
L 57.421875 12.015625 
L 68.609375 54.6875 
L 77.59375 54.6875 
L 63.28125 0 
L 52.6875 0 
L 40.921875 44.828125 
L 29.109375 0 
L 18.5 0 
z
" id="DejaVuSans-77"/>
      <path d="M 8.203125 72.90625 
L 55.078125 72.90625 
L 55.078125 68.703125 
L 28.609375 0 
L 18.3125 0 
L 43.21875 64.59375 
L 8.203125 64.59375 
z
" id="DejaVuSans-37"/>
     </defs>
     <g transform="translate(192.614063 203.785937)scale(0.1 -0.1)">
      <use xlink:href="#DejaVuSans-72"/>
      <use x="41.113281" xlink:href="#DejaVuSans-77"/>
      <use x="122.900391" xlink:href="#DejaVuSans-72"/>
      <use x="164.013672" xlink:href="#DejaVuSans-20"/>
      <use x="195.800781" xlink:href="#DejaVuSans-31"/>
      <use x="259.423828" xlink:href="#DejaVuSans-20"/>
      <use x="291.210938" xlink:href="#DejaVuSans-73"/>
      <use x="343.310547" xlink:href="#DejaVuSans-65"/>
      <use x="404.833984" xlink:href="#DejaVuSans-65"/>
      <use x="466.357422" xlink:href="#DejaVuSans-64"/>
      <use x="529.833984" xlink:href="#DejaVuSans-20"/>
      <use x="561.621094" xlink:href="#DejaVuSans-6e"/>
      <use x="625" xlink:href="#DejaVuSans-6f"/>
      <use x="686.181641" xlink:href="#DejaVuSans-64"/>
      <use x="749.658203" xlink:href="#DejaVuSans-65"/>
      <use x="811.181641" xlink:href="#DejaVuSans-28"/>
      <use x="850.195312" xlink:href="#DejaVuSans-73"/>
      <use x="902.294922" xlink:href="#DejaVuSans-29"/>
      <use x="941.308594" xlink:href="#DejaVuSans-20"/>
      <use x="973.095703" xlink:href="#DejaVuSans-6d"/>
      <use x="1070.507812" xlink:href="#DejaVuSans-65"/>
      <use x="1132.03125" xlink:href="#DejaVuSans-61"/>
      <use x="1193.310547" xlink:href="#DejaVuSans-6e"/>
      <use x="1256.689453" xlink:href="#DejaVuSans-20"/>
      <use x="1288.476562" xlink:href="#DejaVuSans-41"/>
      <use x="1356.884766" xlink:href="#DejaVuSans-55"/>
      <use x="1430.078125" xlink:href="#DejaVuSans-43"/>
      <use x="1499.902344" xlink:href="#DejaVuSans-3a"/>
      <use x="1533.59375" xlink:href="#DejaVuSans-20"/>
      <use x="1565.380859" xlink:href="#DejaVuSans-30"/>
      <use x="1629.003906" xlink:href="#DejaVuSans-2e"/>
      <use x="1660.791016" xlink:href="#DejaVuSans-35"/>
      <use x="1724.414062" xlink:href="#DejaVuSans-37"/>
      <use x="1788.037109" xlink:href="#DejaVuSans-20"/>
      <use x="1819.824219" xlink:href="#DejaVuSans-28"/>
      <use x="1858.837891" xlink:href="#DejaVuSans-73"/>
      <use x="1910.9375" xlink:href="#DejaVuSans-74"/>
      <use x="1950.146484" xlink:href="#DejaVuSans-64"/>
      <use x="2013.623047" xlink:href="#DejaVuSans-3a"/>
      <use x="2047.314453" xlink:href="#DejaVuSans-20"/>
      <use x="2079.101562" xlink:href="#DejaVuSans-30"/>
      <use x="2142.724609" xlink:href="#DejaVuSans-2e"/>
      <use x="2174.511719" xlink:href="#DejaVuSans-31"/>
      <use x="2238.134766" xlink:href="#DejaVuSans-31"/>
      <use x="2301.757812" xlink:href="#DejaVuSans-29"/>
     </g>
    </g>
    <g id="line2d_26">
     <path d="M 164.614063 214.965625 
L 184.614063 214.965625 
" style="fill:none;stroke:#008000;stroke-linecap:square;stroke-width:1.5;"/>
    </g>
    <g id="line2d_27"/>
    <g id="text_17">
     <!-- $\mu$ 3 seed node(s) mean AUC: 0.63 (std: 0.15) -->
     <defs>
      <path d="M 40.578125 39.3125 
Q 47.65625 37.796875 51.625 33 
Q 55.609375 28.21875 55.609375 21.1875 
Q 55.609375 10.40625 48.1875 4.484375 
Q 40.765625 -1.421875 27.09375 -1.421875 
Q 22.515625 -1.421875 17.65625 -0.515625 
Q 12.796875 0.390625 7.625 2.203125 
L 7.625 11.71875 
Q 11.71875 9.328125 16.59375 8.109375 
Q 21.484375 6.890625 26.8125 6.890625 
Q 36.078125 6.890625 40.9375 10.546875 
Q 45.796875 14.203125 45.796875 21.1875 
Q 45.796875 27.640625 41.28125 31.265625 
Q 36.765625 34.90625 28.71875 34.90625 
L 20.21875 34.90625 
L 20.21875 43.015625 
L 29.109375 43.015625 
Q 36.375 43.015625 40.234375 45.921875 
Q 44.09375 48.828125 44.09375 54.296875 
Q 44.09375 59.90625 40.109375 62.90625 
Q 36.140625 65.921875 28.71875 65.921875 
Q 24.65625 65.921875 20.015625 65.03125 
Q 15.375 64.15625 9.8125 62.3125 
L 9.8125 71.09375 
Q 15.4375 72.65625 20.34375 73.4375 
Q 25.25 74.21875 29.59375 74.21875 
Q 40.828125 74.21875 47.359375 69.109375 
Q 53.90625 64.015625 53.90625 55.328125 
Q 53.90625 49.265625 50.4375 45.09375 
Q 46.96875 40.921875 40.578125 39.3125 
z
" id="DejaVuSans-33"/>
     </defs>
     <g transform="translate(192.614063 218.465625)scale(0.1 -0.1)">
      <use transform="translate(0 0.015625)" xlink:href="#DejaVuSans-Oblique-3bc"/>
      <use transform="translate(63.623047 0.015625)" xlink:href="#DejaVuSans-20"/>
      <use transform="translate(95.410156 0.015625)" xlink:href="#DejaVuSans-33"/>
      <use transform="translate(159.033203 0.015625)" xlink:href="#DejaVuSans-20"/>
      <use transform="translate(190.820312 0.015625)" xlink:href="#DejaVuSans-73"/>
      <use transform="translate(242.919922 0.015625)" xlink:href="#DejaVuSans-65"/>
      <use transform="translate(304.443359 0.015625)" xlink:href="#DejaVuSans-65"/>
      <use transform="translate(365.966797 0.015625)" xlink:href="#DejaVuSans-64"/>
      <use transform="translate(429.443359 0.015625)" xlink:href="#DejaVuSans-20"/>
      <use transform="translate(461.230469 0.015625)" xlink:href="#DejaVuSans-6e"/>
      <use transform="translate(524.609375 0.015625)" xlink:href="#DejaVuSans-6f"/>
      <use transform="translate(585.791016 0.015625)" xlink:href="#DejaVuSans-64"/>
      <use transform="translate(649.267578 0.015625)" xlink:href="#DejaVuSans-65"/>
      <use transform="translate(710.791016 0.015625)" xlink:href="#DejaVuSans-28"/>
      <use transform="translate(749.804688 0.015625)" xlink:href="#DejaVuSans-73"/>
      <use transform="translate(801.904297 0.015625)" xlink:href="#DejaVuSans-29"/>
      <use transform="translate(840.917969 0.015625)" xlink:href="#DejaVuSans-20"/>
      <use transform="translate(872.705078 0.015625)" xlink:href="#DejaVuSans-6d"/>
      <use transform="translate(970.117188 0.015625)" xlink:href="#DejaVuSans-65"/>
      <use transform="translate(1031.640625 0.015625)" xlink:href="#DejaVuSans-61"/>
      <use transform="translate(1092.919922 0.015625)" xlink:href="#DejaVuSans-6e"/>
      <use transform="translate(1156.298828 0.015625)" xlink:href="#DejaVuSans-20"/>
      <use transform="translate(1188.085938 0.015625)" xlink:href="#DejaVuSans-41"/>
      <use transform="translate(1256.494141 0.015625)" xlink:href="#DejaVuSans-55"/>
      <use transform="translate(1329.6875 0.015625)" xlink:href="#DejaVuSans-43"/>
      <use transform="translate(1399.511719 0.015625)" xlink:href="#DejaVuSans-3a"/>
      <use transform="translate(1433.203125 0.015625)" xlink:href="#DejaVuSans-20"/>
      <use transform="translate(1464.990234 0.015625)" xlink:href="#DejaVuSans-30"/>
      <use transform="translate(1528.613281 0.015625)" xlink:href="#DejaVuSans-2e"/>
      <use transform="translate(1560.400391 0.015625)" xlink:href="#DejaVuSans-36"/>
      <use transform="translate(1624.023438 0.015625)" xlink:href="#DejaVuSans-33"/>
      <use transform="translate(1687.646484 0.015625)" xlink:href="#DejaVuSans-20"/>
      <use transform="translate(1719.433594 0.015625)" xlink:href="#DejaVuSans-28"/>
      <use transform="translate(1758.447266 0.015625)" xlink:href="#DejaVuSans-73"/>
      <use transform="translate(1810.546875 0.015625)" xlink:href="#DejaVuSans-74"/>
      <use transform="translate(1849.755859 0.015625)" xlink:href="#DejaVuSans-64"/>
      <use transform="translate(1913.232422 0.015625)" xlink:href="#DejaVuSans-3a"/>
      <use transform="translate(1946.923828 0.015625)" xlink:href="#DejaVuSans-20"/>
      <use transform="translate(1978.710938 0.015625)" xlink:href="#DejaVuSans-30"/>
      <use transform="translate(2042.333984 0.015625)" xlink:href="#DejaVuSans-2e"/>
      <use transform="translate(2074.121094 0.015625)" xlink:href="#DejaVuSans-31"/>
      <use transform="translate(2137.744141 0.015625)" xlink:href="#DejaVuSans-35"/>
      <use transform="translate(2201.367188 0.015625)" xlink:href="#DejaVuSans-29"/>
     </g>
    </g>
    <g id="line2d_28">
     <path d="M 164.614063 229.664062 
L 184.614063 229.664062 
" style="fill:none;stroke:#008000;stroke-dasharray:5.55,2.4;stroke-dashoffset:0;stroke-width:1.5;"/>
    </g>
    <g id="line2d_29"/>
    <g id="text_18">
     <!-- rwr 3 seed node(s) mean AUC: 0.63 (std: 0.16) -->
     <g transform="translate(192.614063 233.164062)scale(0.1 -0.1)">
      <use xlink:href="#DejaVuSans-72"/>
      <use x="41.113281" xlink:href="#DejaVuSans-77"/>
      <use x="122.900391" xlink:href="#DejaVuSans-72"/>
      <use x="164.013672" xlink:href="#DejaVuSans-20"/>
      <use x="195.800781" xlink:href="#DejaVuSans-33"/>
      <use x="259.423828" xlink:href="#DejaVuSans-20"/>
      <use x="291.210938" xlink:href="#DejaVuSans-73"/>
      <use x="343.310547" xlink:href="#DejaVuSans-65"/>
      <use x="404.833984" xlink:href="#DejaVuSans-65"/>
      <use x="466.357422" xlink:href="#DejaVuSans-64"/>
      <use x="529.833984" xlink:href="#DejaVuSans-20"/>
      <use x="561.621094" xlink:href="#DejaVuSans-6e"/>
      <use x="625" xlink:href="#DejaVuSans-6f"/>
      <use x="686.181641" xlink:href="#DejaVuSans-64"/>
      <use x="749.658203" xlink:href="#DejaVuSans-65"/>
      <use x="811.181641" xlink:href="#DejaVuSans-28"/>
      <use x="850.195312" xlink:href="#DejaVuSans-73"/>
      <use x="902.294922" xlink:href="#DejaVuSans-29"/>
      <use x="941.308594" xlink:href="#DejaVuSans-20"/>
      <use x="973.095703" xlink:href="#DejaVuSans-6d"/>
      <use x="1070.507812" xlink:href="#DejaVuSans-65"/>
      <use x="1132.03125" xlink:href="#DejaVuSans-61"/>
      <use x="1193.310547" xlink:href="#DejaVuSans-6e"/>
      <use x="1256.689453" xlink:href="#DejaVuSans-20"/>
      <use x="1288.476562" xlink:href="#DejaVuSans-41"/>
      <use x="1356.884766" xlink:href="#DejaVuSans-55"/>
      <use x="1430.078125" xlink:href="#DejaVuSans-43"/>
      <use x="1499.902344" xlink:href="#DejaVuSans-3a"/>
      <use x="1533.59375" xlink:href="#DejaVuSans-20"/>
      <use x="1565.380859" xlink:href="#DejaVuSans-30"/>
      <use x="1629.003906" xlink:href="#DejaVuSans-2e"/>
      <use x="1660.791016" xlink:href="#DejaVuSans-36"/>
      <use x="1724.414062" xlink:href="#DejaVuSans-33"/>
      <use x="1788.037109" xlink:href="#DejaVuSans-20"/>
      <use x="1819.824219" xlink:href="#DejaVuSans-28"/>
      <use x="1858.837891" xlink:href="#DejaVuSans-73"/>
      <use x="1910.9375" xlink:href="#DejaVuSans-74"/>
      <use x="1950.146484" xlink:href="#DejaVuSans-64"/>
      <use x="2013.623047" xlink:href="#DejaVuSans-3a"/>
      <use x="2047.314453" xlink:href="#DejaVuSans-20"/>
      <use x="2079.101562" xlink:href="#DejaVuSans-30"/>
      <use x="2142.724609" xlink:href="#DejaVuSans-2e"/>
      <use x="2174.511719" xlink:href="#DejaVuSans-31"/>
      <use x="2238.134766" xlink:href="#DejaVuSans-36"/>
      <use x="2301.757812" xlink:href="#DejaVuSans-29"/>
     </g>
    </g>
    <g id="line2d_30">
     <path d="M 164.614063 244.34375 
L 184.614063 244.34375 
" style="fill:none;stroke:#bfbf00;stroke-linecap:square;stroke-width:1.5;"/>
    </g>
    <g id="line2d_31"/>
    <g id="text_19">
     <!-- $\mu$ 7 seed node(s) mean AUC: 0.69 (std: 0.16) -->
     <defs>
      <path d="M 10.984375 1.515625 
L 10.984375 10.5 
Q 14.703125 8.734375 18.5 7.8125 
Q 22.3125 6.890625 25.984375 6.890625 
Q 35.75 6.890625 40.890625 13.453125 
Q 46.046875 20.015625 46.78125 33.40625 
Q 43.953125 29.203125 39.59375 26.953125 
Q 35.25 24.703125 29.984375 24.703125 
Q 19.046875 24.703125 12.671875 31.3125 
Q 6.296875 37.9375 6.296875 49.421875 
Q 6.296875 60.640625 12.9375 67.421875 
Q 19.578125 74.21875 30.609375 74.21875 
Q 43.265625 74.21875 49.921875 64.515625 
Q 56.59375 54.828125 56.59375 36.375 
Q 56.59375 19.140625 48.40625 8.859375 
Q 40.234375 -1.421875 26.421875 -1.421875 
Q 22.703125 -1.421875 18.890625 -0.6875 
Q 15.09375 0.046875 10.984375 1.515625 
z
M 30.609375 32.421875 
Q 37.25 32.421875 41.125 36.953125 
Q 45.015625 41.5 45.015625 49.421875 
Q 45.015625 57.28125 41.125 61.84375 
Q 37.25 66.40625 30.609375 66.40625 
Q 23.96875 66.40625 20.09375 61.84375 
Q 16.21875 57.28125 16.21875 49.421875 
Q 16.21875 41.5 20.09375 36.953125 
Q 23.96875 32.421875 30.609375 32.421875 
z
" id="DejaVuSans-39"/>
     </defs>
     <g transform="translate(192.614063 247.84375)scale(0.1 -0.1)">
      <use transform="translate(0 0.015625)" xlink:href="#DejaVuSans-Oblique-3bc"/>
      <use transform="translate(63.623047 0.015625)" xlink:href="#DejaVuSans-20"/>
      <use transform="translate(95.410156 0.015625)" xlink:href="#DejaVuSans-37"/>
      <use transform="translate(159.033203 0.015625)" xlink:href="#DejaVuSans-20"/>
      <use transform="translate(190.820312 0.015625)" xlink:href="#DejaVuSans-73"/>
      <use transform="translate(242.919922 0.015625)" xlink:href="#DejaVuSans-65"/>
      <use transform="translate(304.443359 0.015625)" xlink:href="#DejaVuSans-65"/>
      <use transform="translate(365.966797 0.015625)" xlink:href="#DejaVuSans-64"/>
      <use transform="translate(429.443359 0.015625)" xlink:href="#DejaVuSans-20"/>
      <use transform="translate(461.230469 0.015625)" xlink:href="#DejaVuSans-6e"/>
      <use transform="translate(524.609375 0.015625)" xlink:href="#DejaVuSans-6f"/>
      <use transform="translate(585.791016 0.015625)" xlink:href="#DejaVuSans-64"/>
      <use transform="translate(649.267578 0.015625)" xlink:href="#DejaVuSans-65"/>
      <use transform="translate(710.791016 0.015625)" xlink:href="#DejaVuSans-28"/>
      <use transform="translate(749.804688 0.015625)" xlink:href="#DejaVuSans-73"/>
      <use transform="translate(801.904297 0.015625)" xlink:href="#DejaVuSans-29"/>
      <use transform="translate(840.917969 0.015625)" xlink:href="#DejaVuSans-20"/>
      <use transform="translate(872.705078 0.015625)" xlink:href="#DejaVuSans-6d"/>
      <use transform="translate(970.117188 0.015625)" xlink:href="#DejaVuSans-65"/>
      <use transform="translate(1031.640625 0.015625)" xlink:href="#DejaVuSans-61"/>
      <use transform="translate(1092.919922 0.015625)" xlink:href="#DejaVuSans-6e"/>
      <use transform="translate(1156.298828 0.015625)" xlink:href="#DejaVuSans-20"/>
      <use transform="translate(1188.085938 0.015625)" xlink:href="#DejaVuSans-41"/>
      <use transform="translate(1256.494141 0.015625)" xlink:href="#DejaVuSans-55"/>
      <use transform="translate(1329.6875 0.015625)" xlink:href="#DejaVuSans-43"/>
      <use transform="translate(1399.511719 0.015625)" xlink:href="#DejaVuSans-3a"/>
      <use transform="translate(1433.203125 0.015625)" xlink:href="#DejaVuSans-20"/>
      <use transform="translate(1464.990234 0.015625)" xlink:href="#DejaVuSans-30"/>
      <use transform="translate(1528.613281 0.015625)" xlink:href="#DejaVuSans-2e"/>
      <use transform="translate(1560.400391 0.015625)" xlink:href="#DejaVuSans-36"/>
      <use transform="translate(1624.023438 0.015625)" xlink:href="#DejaVuSans-39"/>
      <use transform="translate(1687.646484 0.015625)" xlink:href="#DejaVuSans-20"/>
      <use transform="translate(1719.433594 0.015625)" xlink:href="#DejaVuSans-28"/>
      <use transform="translate(1758.447266 0.015625)" xlink:href="#DejaVuSans-73"/>
      <use transform="translate(1810.546875 0.015625)" xlink:href="#DejaVuSans-74"/>
      <use transform="translate(1849.755859 0.015625)" xlink:href="#DejaVuSans-64"/>
      <use transform="translate(1913.232422 0.015625)" xlink:href="#DejaVuSans-3a"/>
      <use transform="translate(1946.923828 0.015625)" xlink:href="#DejaVuSans-20"/>
      <use transform="translate(1978.710938 0.015625)" xlink:href="#DejaVuSans-30"/>
      <use transform="translate(2042.333984 0.015625)" xlink:href="#DejaVuSans-2e"/>
      <use transform="translate(2074.121094 0.015625)" xlink:href="#DejaVuSans-31"/>
      <use transform="translate(2137.744141 0.015625)" xlink:href="#DejaVuSans-36"/>
      <use transform="translate(2201.367188 0.015625)" xlink:href="#DejaVuSans-29"/>
     </g>
    </g>
    <g id="line2d_32">
     <path d="M 164.614063 259.042188 
L 184.614063 259.042188 
" style="fill:none;stroke:#bfbf00;stroke-dasharray:5.55,2.4;stroke-dashoffset:0;stroke-width:1.5;"/>
    </g>
    <g id="line2d_33"/>
    <g id="text_20">
     <!-- rwr 7 seed node(s) mean AUC: 0.69 (std: 0.16) -->
     <g transform="translate(192.614063 262.542188)scale(0.1 -0.1)">
      <use xlink:href="#DejaVuSans-72"/>
      <use x="41.113281" xlink:href="#DejaVuSans-77"/>
      <use x="122.900391" xlink:href="#DejaVuSans-72"/>
      <use x="164.013672" xlink:href="#DejaVuSans-20"/>
      <use x="195.800781" xlink:href="#DejaVuSans-37"/>
      <use x="259.423828" xlink:href="#DejaVuSans-20"/>
      <use x="291.210938" xlink:href="#DejaVuSans-73"/>
      <use x="343.310547" xlink:href="#DejaVuSans-65"/>
      <use x="404.833984" xlink:href="#DejaVuSans-65"/>
      <use x="466.357422" xlink:href="#DejaVuSans-64"/>
      <use x="529.833984" xlink:href="#DejaVuSans-20"/>
      <use x="561.621094" xlink:href="#DejaVuSans-6e"/>
      <use x="625" xlink:href="#DejaVuSans-6f"/>
      <use x="686.181641" xlink:href="#DejaVuSans-64"/>
      <use x="749.658203" xlink:href="#DejaVuSans-65"/>
      <use x="811.181641" xlink:href="#DejaVuSans-28"/>
      <use x="850.195312" xlink:href="#DejaVuSans-73"/>
      <use x="902.294922" xlink:href="#DejaVuSans-29"/>
      <use x="941.308594" xlink:href="#DejaVuSans-20"/>
      <use x="973.095703" xlink:href="#DejaVuSans-6d"/>
      <use x="1070.507812" xlink:href="#DejaVuSans-65"/>
      <use x="1132.03125" xlink:href="#DejaVuSans-61"/>
      <use x="1193.310547" xlink:href="#DejaVuSans-6e"/>
      <use x="1256.689453" xlink:href="#DejaVuSans-20"/>
      <use x="1288.476562" xlink:href="#DejaVuSans-41"/>
      <use x="1356.884766" xlink:href="#DejaVuSans-55"/>
      <use x="1430.078125" xlink:href="#DejaVuSans-43"/>
      <use x="1499.902344" xlink:href="#DejaVuSans-3a"/>
      <use x="1533.59375" xlink:href="#DejaVuSans-20"/>
      <use x="1565.380859" xlink:href="#DejaVuSans-30"/>
      <use x="1629.003906" xlink:href="#DejaVuSans-2e"/>
      <use x="1660.791016" xlink:href="#DejaVuSans-36"/>
      <use x="1724.414062" xlink:href="#DejaVuSans-39"/>
      <use x="1788.037109" xlink:href="#DejaVuSans-20"/>
      <use x="1819.824219" xlink:href="#DejaVuSans-28"/>
      <use x="1858.837891" xlink:href="#DejaVuSans-73"/>
      <use x="1910.9375" xlink:href="#DejaVuSans-74"/>
      <use x="1950.146484" xlink:href="#DejaVuSans-64"/>
      <use x="2013.623047" xlink:href="#DejaVuSans-3a"/>
      <use x="2047.314453" xlink:href="#DejaVuSans-20"/>
      <use x="2079.101562" xlink:href="#DejaVuSans-30"/>
      <use x="2142.724609" xlink:href="#DejaVuSans-2e"/>
      <use x="2174.511719" xlink:href="#DejaVuSans-31"/>
      <use x="2238.134766" xlink:href="#DejaVuSans-36"/>
      <use x="2301.757812" xlink:href="#DejaVuSans-29"/>
     </g>
    </g>
    <g id="line2d_34">
     <path d="M 164.614063 273.721875 
L 184.614063 273.721875 
" style="fill:none;stroke:#ff0000;stroke-linecap:square;stroke-width:1.5;"/>
    </g>
    <g id="line2d_35"/>
    <g id="text_21">
     <!-- $\mu$ 15 seed node(s) mean AUC: 0.71 (std: 0.15) -->
     <g transform="translate(192.614063 277.221875)scale(0.1 -0.1)">
      <use transform="translate(0 0.015625)" xlink:href="#DejaVuSans-Oblique-3bc"/>
      <use transform="translate(63.623047 0.015625)" xlink:href="#DejaVuSans-20"/>
      <use transform="translate(95.410156 0.015625)" xlink:href="#DejaVuSans-31"/>
      <use transform="translate(159.033203 0.015625)" xlink:href="#DejaVuSans-35"/>
      <use transform="translate(222.65625 0.015625)" xlink:href="#DejaVuSans-20"/>
      <use transform="translate(254.443359 0.015625)" xlink:href="#DejaVuSans-73"/>
      <use transform="translate(306.542969 0.015625)" xlink:href="#DejaVuSans-65"/>
      <use transform="translate(368.066406 0.015625)" xlink:href="#DejaVuSans-65"/>
      <use transform="translate(429.589844 0.015625)" xlink:href="#DejaVuSans-64"/>
      <use transform="translate(493.066406 0.015625)" xlink:href="#DejaVuSans-20"/>
      <use transform="translate(524.853516 0.015625)" xlink:href="#DejaVuSans-6e"/>
      <use transform="translate(588.232422 0.015625)" xlink:href="#DejaVuSans-6f"/>
      <use transform="translate(649.414062 0.015625)" xlink:href="#DejaVuSans-64"/>
      <use transform="translate(712.890625 0.015625)" xlink:href="#DejaVuSans-65"/>
      <use transform="translate(774.414062 0.015625)" xlink:href="#DejaVuSans-28"/>
      <use transform="translate(813.427734 0.015625)" xlink:href="#DejaVuSans-73"/>
      <use transform="translate(865.527344 0.015625)" xlink:href="#DejaVuSans-29"/>
      <use transform="translate(904.541016 0.015625)" xlink:href="#DejaVuSans-20"/>
      <use transform="translate(936.328125 0.015625)" xlink:href="#DejaVuSans-6d"/>
      <use transform="translate(1033.740234 0.015625)" xlink:href="#DejaVuSans-65"/>
      <use transform="translate(1095.263672 0.015625)" xlink:href="#DejaVuSans-61"/>
      <use transform="translate(1156.542969 0.015625)" xlink:href="#DejaVuSans-6e"/>
      <use transform="translate(1219.921875 0.015625)" xlink:href="#DejaVuSans-20"/>
      <use transform="translate(1251.708984 0.015625)" xlink:href="#DejaVuSans-41"/>
      <use transform="translate(1320.117188 0.015625)" xlink:href="#DejaVuSans-55"/>
      <use transform="translate(1393.310547 0.015625)" xlink:href="#DejaVuSans-43"/>
      <use transform="translate(1463.134766 0.015625)" xlink:href="#DejaVuSans-3a"/>
      <use transform="translate(1496.826172 0.015625)" xlink:href="#DejaVuSans-20"/>
      <use transform="translate(1528.613281 0.015625)" xlink:href="#DejaVuSans-30"/>
      <use transform="translate(1592.236328 0.015625)" xlink:href="#DejaVuSans-2e"/>
      <use transform="translate(1623.914062 0.015625)" xlink:href="#DejaVuSans-37"/>
      <use transform="translate(1687.537109 0.015625)" xlink:href="#DejaVuSans-31"/>
      <use transform="translate(1751.160156 0.015625)" xlink:href="#DejaVuSans-20"/>
      <use transform="translate(1782.947266 0.015625)" xlink:href="#DejaVuSans-28"/>
      <use transform="translate(1821.960938 0.015625)" xlink:href="#DejaVuSans-73"/>
      <use transform="translate(1874.060547 0.015625)" xlink:href="#DejaVuSans-74"/>
      <use transform="translate(1913.269531 0.015625)" xlink:href="#DejaVuSans-64"/>
      <use transform="translate(1976.746094 0.015625)" xlink:href="#DejaVuSans-3a"/>
      <use transform="translate(2010.4375 0.015625)" xlink:href="#DejaVuSans-20"/>
      <use transform="translate(2042.224609 0.015625)" xlink:href="#DejaVuSans-30"/>
      <use transform="translate(2105.847656 0.015625)" xlink:href="#DejaVuSans-2e"/>
      <use transform="translate(2137.634766 0.015625)" xlink:href="#DejaVuSans-31"/>
      <use transform="translate(2201.257812 0.015625)" xlink:href="#DejaVuSans-35"/>
      <use transform="translate(2264.880859 0.015625)" xlink:href="#DejaVuSans-29"/>
     </g>
    </g>
    <g id="line2d_36">
     <path d="M 164.614063 288.420313 
L 184.614063 288.420313 
" style="fill:none;stroke:#ff0000;stroke-dasharray:5.55,2.4;stroke-dashoffset:0;stroke-width:1.5;"/>
    </g>
    <g id="line2d_37"/>
    <g id="text_22">
     <!-- rwr 15 seed node(s) mean AUC: 0.71 (std: 0.16) -->
     <g transform="translate(192.614063 291.920313)scale(0.1 -0.1)">
      <use xlink:href="#DejaVuSans-72"/>
      <use x="41.113281" xlink:href="#DejaVuSans-77"/>
      <use x="122.900391" xlink:href="#DejaVuSans-72"/>
      <use x="164.013672" xlink:href="#DejaVuSans-20"/>
      <use x="195.800781" xlink:href="#DejaVuSans-31"/>
      <use x="259.423828" xlink:href="#DejaVuSans-35"/>
      <use x="323.046875" xlink:href="#DejaVuSans-20"/>
      <use x="354.833984" xlink:href="#DejaVuSans-73"/>
      <use x="406.933594" xlink:href="#DejaVuSans-65"/>
      <use x="468.457031" xlink:href="#DejaVuSans-65"/>
      <use x="529.980469" xlink:href="#DejaVuSans-64"/>
      <use x="593.457031" xlink:href="#DejaVuSans-20"/>
      <use x="625.244141" xlink:href="#DejaVuSans-6e"/>
      <use x="688.623047" xlink:href="#DejaVuSans-6f"/>
      <use x="749.804688" xlink:href="#DejaVuSans-64"/>
      <use x="813.28125" xlink:href="#DejaVuSans-65"/>
      <use x="874.804688" xlink:href="#DejaVuSans-28"/>
      <use x="913.818359" xlink:href="#DejaVuSans-73"/>
      <use x="965.917969" xlink:href="#DejaVuSans-29"/>
      <use x="1004.931641" xlink:href="#DejaVuSans-20"/>
      <use x="1036.71875" xlink:href="#DejaVuSans-6d"/>
      <use x="1134.130859" xlink:href="#DejaVuSans-65"/>
      <use x="1195.654297" xlink:href="#DejaVuSans-61"/>
      <use x="1256.933594" xlink:href="#DejaVuSans-6e"/>
      <use x="1320.3125" xlink:href="#DejaVuSans-20"/>
      <use x="1352.099609" xlink:href="#DejaVuSans-41"/>
      <use x="1420.507812" xlink:href="#DejaVuSans-55"/>
      <use x="1493.701172" xlink:href="#DejaVuSans-43"/>
      <use x="1563.525391" xlink:href="#DejaVuSans-3a"/>
      <use x="1597.216797" xlink:href="#DejaVuSans-20"/>
      <use x="1629.003906" xlink:href="#DejaVuSans-30"/>
      <use x="1692.626953" xlink:href="#DejaVuSans-2e"/>
      <use x="1724.414062" xlink:href="#DejaVuSans-37"/>
      <use x="1788.037109" xlink:href="#DejaVuSans-31"/>
      <use x="1851.660156" xlink:href="#DejaVuSans-20"/>
      <use x="1883.447266" xlink:href="#DejaVuSans-28"/>
      <use x="1922.460938" xlink:href="#DejaVuSans-73"/>
      <use x="1974.560547" xlink:href="#DejaVuSans-74"/>
      <use x="2013.769531" xlink:href="#DejaVuSans-64"/>
      <use x="2077.246094" xlink:href="#DejaVuSans-3a"/>
      <use x="2110.9375" xlink:href="#DejaVuSans-20"/>
      <use x="2142.724609" xlink:href="#DejaVuSans-30"/>
      <use x="2206.347656" xlink:href="#DejaVuSans-2e"/>
      <use x="2238.134766" xlink:href="#DejaVuSans-31"/>
      <use x="2301.757812" xlink:href="#DejaVuSans-36"/>
      <use x="2365.380859" xlink:href="#DejaVuSans-29"/>
     </g>
    </g>
   </g>
  </g>
 </g>
 <defs>
  <clipPath id="p44039ba984">
   <rect height="289.4" width="393.85" x="48.2" y="13.6"/>
  </clipPath>
 </defs>
</svg>
