<?xml version="1.0" encoding="utf-8" standalone="no"?>
<!DOCTYPE svg PUBLIC "-//W3C//DTD SVG 1.1//EN"
  "http://www.w3.org/Graphics/SVG/1.1/DTD/svg11.dtd">
<!-- Created with matplotlib (http://matplotlib.org/) -->
<svg height="345pt" version="1.1" viewBox="0 0 460 345" width="460pt" xmlns="http://www.w3.org/2000/svg" xmlns:xlink="http://www.w3.org/1999/xlink">
 <defs>
  <style type="text/css">
*{stroke-linecap:butt;stroke-linejoin:round;}
  </style>
 </defs>
 <g id="figure_1">
  <g id="patch_1">
   <path d="M 0 345.6 
L 460.8 345.6 
L 460.8 0 
L 0 0 
z
" style="fill:#ffffff;"/>
  </g>
  <g id="axes_1">
   <g id="patch_2">
    <path d="M 48.2 303 
L 442.05 303 
L 442.05 13.6 
L 48.2 13.6 
z
" style="fill:#ffffff;"/>
   </g>
   <g id="matplotlib.axis_1">
    <g id="xtick_1">
     <g id="line2d_1">
      <defs>
       <path d="M 0 0 
L 0 3.5 
" id="mebdec77d73" style="stroke:#000000;stroke-width:0.8;"/>
      </defs>
      <g>
       <use style="stroke:#000000;stroke-width:0.8;" x="48.2" xlink:href="#mebdec77d73" y="303"/>
      </g>
     </g>
     <g id="text_1">
      <!-- 0.0 -->
      <defs>
       <path d="M 31.78125 66.40625 
Q 24.171875 66.40625 20.328125 58.90625 
Q 16.5 51.421875 16.5 36.375 
Q 16.5 21.390625 20.328125 13.890625 
Q 24.171875 6.390625 31.78125 6.390625 
Q 39.453125 6.390625 43.28125 13.890625 
Q 47.125 21.390625 47.125 36.375 
Q 47.125 51.421875 43.28125 58.90625 
Q 39.453125 66.40625 31.78125 66.40625 
z
M 31.78125 74.21875 
Q 44.046875 74.21875 50.515625 64.515625 
Q 56.984375 54.828125 56.984375 36.375 
Q 56.984375 17.96875 50.515625 8.265625 
Q 44.046875 -1.421875 31.78125 -1.421875 
Q 19.53125 -1.421875 13.0625 8.265625 
Q 6.59375 17.96875 6.59375 36.375 
Q 6.59375 54.828125 13.0625 64.515625 
Q 19.53125 74.21875 31.78125 74.21875 
z
" id="DejaVuSans-30"/>
       <path d="M 10.6875 12.40625 
L 21 12.40625 
L 21 0 
L 10.6875 0 
z
" id="DejaVuSans-2e"/>
      </defs>
      <g transform="translate(40.248438 317.598437)scale(0.1 -0.1)">
       <use xlink:href="#DejaVuSans-30"/>
       <use x="63.623047" xlink:href="#DejaVuSans-2e"/>
       <use x="95.410156" xlink:href="#DejaVuSans-30"/>
      </g>
     </g>
    </g>
    <g id="xtick_2">
     <g id="line2d_2">
      <g>
       <use style="stroke:#000000;stroke-width:0.8;" x="126.97" xlink:href="#mebdec77d73" y="303"/>
      </g>
     </g>
     <g id="text_2">
      <!-- 0.2 -->
      <defs>
       <path d="M 19.1875 8.296875 
L 53.609375 8.296875 
L 53.609375 0 
L 7.328125 0 
L 7.328125 8.296875 
Q 12.9375 14.109375 22.625 23.890625 
Q 32.328125 33.6875 34.8125 36.53125 
Q 39.546875 41.84375 41.421875 45.53125 
Q 43.3125 49.21875 43.3125 52.78125 
Q 43.3125 58.59375 39.234375 62.25 
Q 35.15625 65.921875 28.609375 65.921875 
Q 23.96875 65.921875 18.8125 64.3125 
Q 13.671875 62.703125 7.8125 59.421875 
L 7.8125 69.390625 
Q 13.765625 71.78125 18.9375 73 
Q 24.125 74.21875 28.421875 74.21875 
Q 39.75 74.21875 46.484375 68.546875 
Q 53.21875 62.890625 53.21875 53.421875 
Q 53.21875 48.921875 51.53125 44.890625 
Q 49.859375 40.875 45.40625 35.40625 
Q 44.1875 33.984375 37.640625 27.21875 
Q 31.109375 20.453125 19.1875 8.296875 
z
" id="DejaVuSans-32"/>
      </defs>
      <g transform="translate(119.018438 317.598437)scale(0.1 -0.1)">
       <use xlink:href="#DejaVuSans-30"/>
       <use x="63.623047" xlink:href="#DejaVuSans-2e"/>
       <use x="95.410156" xlink:href="#DejaVuSans-32"/>
      </g>
     </g>
    </g>
    <g id="xtick_3">
     <g id="line2d_3">
      <g>
       <use style="stroke:#000000;stroke-width:0.8;" x="205.74" xlink:href="#mebdec77d73" y="303"/>
      </g>
     </g>
     <g id="text_3">
      <!-- 0.4 -->
      <defs>
       <path d="M 37.796875 64.3125 
L 12.890625 25.390625 
L 37.796875 25.390625 
z
M 35.203125 72.90625 
L 47.609375 72.90625 
L 47.609375 25.390625 
L 58.015625 25.390625 
L 58.015625 17.1875 
L 47.609375 17.1875 
L 47.609375 0 
L 37.796875 0 
L 37.796875 17.1875 
L 4.890625 17.1875 
L 4.890625 26.703125 
z
" id="DejaVuSans-34"/>
      </defs>
      <g transform="translate(197.788438 317.598437)scale(0.1 -0.1)">
       <use xlink:href="#DejaVuSans-30"/>
       <use x="63.623047" xlink:href="#DejaVuSans-2e"/>
       <use x="95.410156" xlink:href="#DejaVuSans-34"/>
      </g>
     </g>
    </g>
    <g id="xtick_4">
     <g id="line2d_4">
      <g>
       <use style="stroke:#000000;stroke-width:0.8;" x="284.51" xlink:href="#mebdec77d73" y="303"/>
      </g>
     </g>
     <g id="text_4">
      <!-- 0.6 -->
      <defs>
       <path d="M 33.015625 40.375 
Q 26.375 40.375 22.484375 35.828125 
Q 18.609375 31.296875 18.609375 23.390625 
Q 18.609375 15.53125 22.484375 10.953125 
Q 26.375 6.390625 33.015625 6.390625 
Q 39.65625 6.390625 43.53125 10.953125 
Q 47.40625 15.53125 47.40625 23.390625 
Q 47.40625 31.296875 43.53125 35.828125 
Q 39.65625 40.375 33.015625 40.375 
z
M 52.59375 71.296875 
L 52.59375 62.3125 
Q 48.875 64.0625 45.09375 64.984375 
Q 41.3125 65.921875 37.59375 65.921875 
Q 27.828125 65.921875 22.671875 59.328125 
Q 17.53125 52.734375 16.796875 39.40625 
Q 19.671875 43.65625 24.015625 45.921875 
Q 28.375 48.1875 33.59375 48.1875 
Q 44.578125 48.1875 50.953125 41.515625 
Q 57.328125 34.859375 57.328125 23.390625 
Q 57.328125 12.15625 50.6875 5.359375 
Q 44.046875 -1.421875 33.015625 -1.421875 
Q 20.359375 -1.421875 13.671875 8.265625 
Q 6.984375 17.96875 6.984375 36.375 
Q 6.984375 53.65625 15.1875 63.9375 
Q 23.390625 74.21875 37.203125 74.21875 
Q 40.921875 74.21875 44.703125 73.484375 
Q 48.484375 72.75 52.59375 71.296875 
z
" id="DejaVuSans-36"/>
      </defs>
      <g transform="translate(276.558438 317.598437)scale(0.1 -0.1)">
       <use xlink:href="#DejaVuSans-30"/>
       <use x="63.623047" xlink:href="#DejaVuSans-2e"/>
       <use x="95.410156" xlink:href="#DejaVuSans-36"/>
      </g>
     </g>
    </g>
    <g id="xtick_5">
     <g id="line2d_5">
      <g>
       <use style="stroke:#000000;stroke-width:0.8;" x="363.28" xlink:href="#mebdec77d73" y="303"/>
      </g>
     </g>
     <g id="text_5">
      <!-- 0.8 -->
      <defs>
       <path d="M 31.78125 34.625 
Q 24.75 34.625 20.71875 30.859375 
Q 16.703125 27.09375 16.703125 20.515625 
Q 16.703125 13.921875 20.71875 10.15625 
Q 24.75 6.390625 31.78125 6.390625 
Q 38.8125 6.390625 42.859375 10.171875 
Q 46.921875 13.96875 46.921875 20.515625 
Q 46.921875 27.09375 42.890625 30.859375 
Q 38.875 34.625 31.78125 34.625 
z
M 21.921875 38.8125 
Q 15.578125 40.375 12.03125 44.71875 
Q 8.5 49.078125 8.5 55.328125 
Q 8.5 64.0625 14.71875 69.140625 
Q 20.953125 74.21875 31.78125 74.21875 
Q 42.671875 74.21875 48.875 69.140625 
Q 55.078125 64.0625 55.078125 55.328125 
Q 55.078125 49.078125 51.53125 44.71875 
Q 48 40.375 41.703125 38.8125 
Q 48.828125 37.15625 52.796875 32.3125 
Q 56.78125 27.484375 56.78125 20.515625 
Q 56.78125 9.90625 50.3125 4.234375 
Q 43.84375 -1.421875 31.78125 -1.421875 
Q 19.734375 -1.421875 13.25 4.234375 
Q 6.78125 9.90625 6.78125 20.515625 
Q 6.78125 27.484375 10.78125 32.3125 
Q 14.796875 37.15625 21.921875 38.8125 
z
M 18.3125 54.390625 
Q 18.3125 48.734375 21.84375 45.5625 
Q 25.390625 42.390625 31.78125 42.390625 
Q 38.140625 42.390625 41.71875 45.5625 
Q 45.3125 48.734375 45.3125 54.390625 
Q 45.3125 60.0625 41.71875 63.234375 
Q 38.140625 66.40625 31.78125 66.40625 
Q 25.390625 66.40625 21.84375 63.234375 
Q 18.3125 60.0625 18.3125 54.390625 
z
" id="DejaVuSans-38"/>
      </defs>
      <g transform="translate(355.328438 317.598437)scale(0.1 -0.1)">
       <use xlink:href="#DejaVuSans-30"/>
       <use x="63.623047" xlink:href="#DejaVuSans-2e"/>
       <use x="95.410156" xlink:href="#DejaVuSans-38"/>
      </g>
     </g>
    </g>
    <g id="xtick_6">
     <g id="line2d_6">
      <g>
       <use style="stroke:#000000;stroke-width:0.8;" x="442.05" xlink:href="#mebdec77d73" y="303"/>
      </g>
     </g>
     <g id="text_6">
      <!-- 1.0 -->
      <defs>
       <path d="M 12.40625 8.296875 
L 28.515625 8.296875 
L 28.515625 63.921875 
L 10.984375 60.40625 
L 10.984375 69.390625 
L 28.421875 72.90625 
L 38.28125 72.90625 
L 38.28125 8.296875 
L 54.390625 8.296875 
L 54.390625 0 
L 12.40625 0 
z
" id="DejaVuSans-31"/>
      </defs>
      <g transform="translate(434.098438 317.598437)scale(0.1 -0.1)">
       <use xlink:href="#DejaVuSans-31"/>
       <use x="63.623047" xlink:href="#DejaVuSans-2e"/>
       <use x="95.410156" xlink:href="#DejaVuSans-30"/>
      </g>
     </g>
    </g>
    <g id="text_7">
     <!-- False positive rate -->
     <defs>
      <path d="M 9.8125 72.90625 
L 51.703125 72.90625 
L 51.703125 64.59375 
L 19.671875 64.59375 
L 19.671875 43.109375 
L 48.578125 43.109375 
L 48.578125 34.8125 
L 19.671875 34.8125 
L 19.671875 0 
L 9.8125 0 
z
" id="DejaVuSans-46"/>
      <path d="M 34.28125 27.484375 
Q 23.390625 27.484375 19.1875 25 
Q 14.984375 22.515625 14.984375 16.5 
Q 14.984375 11.71875 18.140625 8.90625 
Q 21.296875 6.109375 26.703125 6.109375 
Q 34.1875 6.109375 38.703125 11.40625 
Q 43.21875 16.703125 43.21875 25.484375 
L 43.21875 27.484375 
z
M 52.203125 31.203125 
L 52.203125 0 
L 43.21875 0 
L 43.21875 8.296875 
Q 40.140625 3.328125 35.546875 0.953125 
Q 30.953125 -1.421875 24.3125 -1.421875 
Q 15.921875 -1.421875 10.953125 3.296875 
Q 6 8.015625 6 15.921875 
Q 6 25.140625 12.171875 29.828125 
Q 18.359375 34.515625 30.609375 34.515625 
L 43.21875 34.515625 
L 43.21875 35.40625 
Q 43.21875 41.609375 39.140625 45 
Q 35.0625 48.390625 27.6875 48.390625 
Q 23 48.390625 18.546875 47.265625 
Q 14.109375 46.140625 10.015625 43.890625 
L 10.015625 52.203125 
Q 14.9375 54.109375 19.578125 55.046875 
Q 24.21875 56 28.609375 56 
Q 40.484375 56 46.34375 49.84375 
Q 52.203125 43.703125 52.203125 31.203125 
z
" id="DejaVuSans-61"/>
      <path d="M 9.421875 75.984375 
L 18.40625 75.984375 
L 18.40625 0 
L 9.421875 0 
z
" id="DejaVuSans-6c"/>
      <path d="M 44.28125 53.078125 
L 44.28125 44.578125 
Q 40.484375 46.53125 36.375 47.5 
Q 32.28125 48.484375 27.875 48.484375 
Q 21.1875 48.484375 17.84375 46.4375 
Q 14.5 44.390625 14.5 40.28125 
Q 14.5 37.15625 16.890625 35.375 
Q 19.28125 33.59375 26.515625 31.984375 
L 29.59375 31.296875 
Q 39.15625 29.25 43.1875 25.515625 
Q 47.21875 21.78125 47.21875 15.09375 
Q 47.21875 7.46875 41.1875 3.015625 
Q 35.15625 -1.421875 24.609375 -1.421875 
Q 20.21875 -1.421875 15.453125 -0.5625 
Q 10.6875 0.296875 5.421875 2 
L 5.421875 11.28125 
Q 10.40625 8.6875 15.234375 7.390625 
Q 20.0625 6.109375 24.8125 6.109375 
Q 31.15625 6.109375 34.5625 8.28125 
Q 37.984375 10.453125 37.984375 14.40625 
Q 37.984375 18.0625 35.515625 20.015625 
Q 33.0625 21.96875 24.703125 23.78125 
L 21.578125 24.515625 
Q 13.234375 26.265625 9.515625 29.90625 
Q 5.8125 33.546875 5.8125 39.890625 
Q 5.8125 47.609375 11.28125 51.796875 
Q 16.75 56 26.8125 56 
Q 31.78125 56 36.171875 55.265625 
Q 40.578125 54.546875 44.28125 53.078125 
z
" id="DejaVuSans-73"/>
      <path d="M 56.203125 29.59375 
L 56.203125 25.203125 
L 14.890625 25.203125 
Q 15.484375 15.921875 20.484375 11.0625 
Q 25.484375 6.203125 34.421875 6.203125 
Q 39.59375 6.203125 44.453125 7.46875 
Q 49.3125 8.734375 54.109375 11.28125 
L 54.109375 2.78125 
Q 49.265625 0.734375 44.1875 -0.34375 
Q 39.109375 -1.421875 33.890625 -1.421875 
Q 20.796875 -1.421875 13.15625 6.1875 
Q 5.515625 13.8125 5.515625 26.8125 
Q 5.515625 40.234375 12.765625 48.109375 
Q 20.015625 56 32.328125 56 
Q 43.359375 56 49.78125 48.890625 
Q 56.203125 41.796875 56.203125 29.59375 
z
M 47.21875 32.234375 
Q 47.125 39.59375 43.09375 43.984375 
Q 39.0625 48.390625 32.421875 48.390625 
Q 24.90625 48.390625 20.390625 44.140625 
Q 15.875 39.890625 15.1875 32.171875 
z
" id="DejaVuSans-65"/>
      <path id="DejaVuSans-20"/>
      <path d="M 18.109375 8.203125 
L 18.109375 -20.796875 
L 9.078125 -20.796875 
L 9.078125 54.6875 
L 18.109375 54.6875 
L 18.109375 46.390625 
Q 20.953125 51.265625 25.265625 53.625 
Q 29.59375 56 35.59375 56 
Q 45.5625 56 51.78125 48.09375 
Q 58.015625 40.1875 58.015625 27.296875 
Q 58.015625 14.40625 51.78125 6.484375 
Q 45.5625 -1.421875 35.59375 -1.421875 
Q 29.59375 -1.421875 25.265625 0.953125 
Q 20.953125 3.328125 18.109375 8.203125 
z
M 48.6875 27.296875 
Q 48.6875 37.203125 44.609375 42.84375 
Q 40.53125 48.484375 33.40625 48.484375 
Q 26.265625 48.484375 22.1875 42.84375 
Q 18.109375 37.203125 18.109375 27.296875 
Q 18.109375 17.390625 22.1875 11.75 
Q 26.265625 6.109375 33.40625 6.109375 
Q 40.53125 6.109375 44.609375 11.75 
Q 48.6875 17.390625 48.6875 27.296875 
z
" id="DejaVuSans-70"/>
      <path d="M 30.609375 48.390625 
Q 23.390625 48.390625 19.1875 42.75 
Q 14.984375 37.109375 14.984375 27.296875 
Q 14.984375 17.484375 19.15625 11.84375 
Q 23.34375 6.203125 30.609375 6.203125 
Q 37.796875 6.203125 41.984375 11.859375 
Q 46.1875 17.53125 46.1875 27.296875 
Q 46.1875 37.015625 41.984375 42.703125 
Q 37.796875 48.390625 30.609375 48.390625 
z
M 30.609375 56 
Q 42.328125 56 49.015625 48.375 
Q 55.71875 40.765625 55.71875 27.296875 
Q 55.71875 13.875 49.015625 6.21875 
Q 42.328125 -1.421875 30.609375 -1.421875 
Q 18.84375 -1.421875 12.171875 6.21875 
Q 5.515625 13.875 5.515625 27.296875 
Q 5.515625 40.765625 12.171875 48.375 
Q 18.84375 56 30.609375 56 
z
" id="DejaVuSans-6f"/>
      <path d="M 9.421875 54.6875 
L 18.40625 54.6875 
L 18.40625 0 
L 9.421875 0 
z
M 9.421875 75.984375 
L 18.40625 75.984375 
L 18.40625 64.59375 
L 9.421875 64.59375 
z
" id="DejaVuSans-69"/>
      <path d="M 18.3125 70.21875 
L 18.3125 54.6875 
L 36.8125 54.6875 
L 36.8125 47.703125 
L 18.3125 47.703125 
L 18.3125 18.015625 
Q 18.3125 11.328125 20.140625 9.421875 
Q 21.96875 7.515625 27.59375 7.515625 
L 36.8125 7.515625 
L 36.8125 0 
L 27.59375 0 
Q 17.1875 0 13.234375 3.875 
Q 9.28125 7.765625 9.28125 18.015625 
L 9.28125 47.703125 
L 2.6875 47.703125 
L 2.6875 54.6875 
L 9.28125 54.6875 
L 9.28125 70.21875 
z
" id="DejaVuSans-74"/>
      <path d="M 2.984375 54.6875 
L 12.5 54.6875 
L 29.59375 8.796875 
L 46.6875 54.6875 
L 56.203125 54.6875 
L 35.6875 0 
L 23.484375 0 
z
" id="DejaVuSans-76"/>
      <path d="M 41.109375 46.296875 
Q 39.59375 47.171875 37.8125 47.578125 
Q 36.03125 48 33.890625 48 
Q 26.265625 48 22.1875 43.046875 
Q 18.109375 38.09375 18.109375 28.8125 
L 18.109375 0 
L 9.078125 0 
L 9.078125 54.6875 
L 18.109375 54.6875 
L 18.109375 46.1875 
Q 20.953125 51.171875 25.484375 53.578125 
Q 30.03125 56 36.53125 56 
Q 37.453125 56 38.578125 55.875 
Q 39.703125 55.765625 41.0625 55.515625 
z
" id="DejaVuSans-72"/>
     </defs>
     <g transform="translate(199.175 331.276563)scale(0.1 -0.1)">
      <use xlink:href="#DejaVuSans-46"/>
      <use x="57.378906" xlink:href="#DejaVuSans-61"/>
      <use x="118.658203" xlink:href="#DejaVuSans-6c"/>
      <use x="146.441406" xlink:href="#DejaVuSans-73"/>
      <use x="198.541016" xlink:href="#DejaVuSans-65"/>
      <use x="260.064453" xlink:href="#DejaVuSans-20"/>
      <use x="291.851562" xlink:href="#DejaVuSans-70"/>
      <use x="355.328125" xlink:href="#DejaVuSans-6f"/>
      <use x="416.509766" xlink:href="#DejaVuSans-73"/>
      <use x="468.609375" xlink:href="#DejaVuSans-69"/>
      <use x="496.392578" xlink:href="#DejaVuSans-74"/>
      <use x="535.601562" xlink:href="#DejaVuSans-69"/>
      <use x="563.384766" xlink:href="#DejaVuSans-76"/>
      <use x="622.564453" xlink:href="#DejaVuSans-65"/>
      <use x="684.087891" xlink:href="#DejaVuSans-20"/>
      <use x="715.875" xlink:href="#DejaVuSans-72"/>
      <use x="756.988281" xlink:href="#DejaVuSans-61"/>
      <use x="818.267578" xlink:href="#DejaVuSans-74"/>
      <use x="857.476562" xlink:href="#DejaVuSans-65"/>
     </g>
    </g>
   </g>
   <g id="matplotlib.axis_2">
    <g id="ytick_1">
     <g id="line2d_7">
      <defs>
       <path d="M 0 0 
L -3.5 0 
" id="m825e3c0a14" style="stroke:#000000;stroke-width:0.8;"/>
      </defs>
      <g>
       <use style="stroke:#000000;stroke-width:0.8;" x="48.2" xlink:href="#m825e3c0a14" y="303"/>
      </g>
     </g>
     <g id="text_8">
      <!-- 0.0 -->
      <g transform="translate(25.296875 306.799219)scale(0.1 -0.1)">
       <use xlink:href="#DejaVuSans-30"/>
       <use x="63.623047" xlink:href="#DejaVuSans-2e"/>
       <use x="95.410156" xlink:href="#DejaVuSans-30"/>
      </g>
     </g>
    </g>
    <g id="ytick_2">
     <g id="line2d_8">
      <g>
       <use style="stroke:#000000;stroke-width:0.8;" x="48.2" xlink:href="#m825e3c0a14" y="245.693069"/>
      </g>
     </g>
     <g id="text_9">
      <!-- 0.2 -->
      <g transform="translate(25.296875 249.492288)scale(0.1 -0.1)">
       <use xlink:href="#DejaVuSans-30"/>
       <use x="63.623047" xlink:href="#DejaVuSans-2e"/>
       <use x="95.410156" xlink:href="#DejaVuSans-32"/>
      </g>
     </g>
    </g>
    <g id="ytick_3">
     <g id="line2d_9">
      <g>
       <use style="stroke:#000000;stroke-width:0.8;" x="48.2" xlink:href="#m825e3c0a14" y="188.386139"/>
      </g>
     </g>
     <g id="text_10">
      <!-- 0.4 -->
      <g transform="translate(25.296875 192.185357)scale(0.1 -0.1)">
       <use xlink:href="#DejaVuSans-30"/>
       <use x="63.623047" xlink:href="#DejaVuSans-2e"/>
       <use x="95.410156" xlink:href="#DejaVuSans-34"/>
      </g>
     </g>
    </g>
    <g id="ytick_4">
     <g id="line2d_10">
      <g>
       <use style="stroke:#000000;stroke-width:0.8;" x="48.2" xlink:href="#m825e3c0a14" y="131.079208"/>
      </g>
     </g>
     <g id="text_11">
      <!-- 0.6 -->
      <g transform="translate(25.296875 134.878427)scale(0.1 -0.1)">
       <use xlink:href="#DejaVuSans-30"/>
       <use x="63.623047" xlink:href="#DejaVuSans-2e"/>
       <use x="95.410156" xlink:href="#DejaVuSans-36"/>
      </g>
     </g>
    </g>
    <g id="ytick_5">
     <g id="line2d_11">
      <g>
       <use style="stroke:#000000;stroke-width:0.8;" x="48.2" xlink:href="#m825e3c0a14" y="73.772277"/>
      </g>
     </g>
     <g id="text_12">
      <!-- 0.8 -->
      <g transform="translate(25.296875 77.571496)scale(0.1 -0.1)">
       <use xlink:href="#DejaVuSans-30"/>
       <use x="63.623047" xlink:href="#DejaVuSans-2e"/>
       <use x="95.410156" xlink:href="#DejaVuSans-38"/>
      </g>
     </g>
    </g>
    <g id="ytick_6">
     <g id="line2d_12">
      <g>
       <use style="stroke:#000000;stroke-width:0.8;" x="48.2" xlink:href="#m825e3c0a14" y="16.465347"/>
      </g>
     </g>
     <g id="text_13">
      <!-- 1.0 -->
      <g transform="translate(25.296875 20.264565)scale(0.1 -0.1)">
       <use xlink:href="#DejaVuSans-31"/>
       <use x="63.623047" xlink:href="#DejaVuSans-2e"/>
       <use x="95.410156" xlink:href="#DejaVuSans-30"/>
      </g>
     </g>
    </g>
    <g id="text_14">
     <!-- True positive rate -->
     <defs>
      <path d="M -0.296875 72.90625 
L 61.375 72.90625 
L 61.375 64.59375 
L 35.5 64.59375 
L 35.5 0 
L 25.59375 0 
L 25.59375 64.59375 
L -0.296875 64.59375 
z
" id="DejaVuSans-54"/>
      <path d="M 8.5 21.578125 
L 8.5 54.6875 
L 17.484375 54.6875 
L 17.484375 21.921875 
Q 17.484375 14.15625 20.5 10.265625 
Q 23.53125 6.390625 29.59375 6.390625 
Q 36.859375 6.390625 41.078125 11.03125 
Q 45.3125 15.671875 45.3125 23.6875 
L 45.3125 54.6875 
L 54.296875 54.6875 
L 54.296875 0 
L 45.3125 0 
L 45.3125 8.40625 
Q 42.046875 3.421875 37.71875 1 
Q 33.40625 -1.421875 27.6875 -1.421875 
Q 18.265625 -1.421875 13.375 4.4375 
Q 8.5 10.296875 8.5 21.578125 
z
M 31.109375 56 
z
" id="DejaVuSans-75"/>
     </defs>
     <g transform="translate(19.217187 202.590625)rotate(-90)scale(0.1 -0.1)">
      <use xlink:href="#DejaVuSans-54"/>
      <use x="60.865234" xlink:href="#DejaVuSans-72"/>
      <use x="101.978516" xlink:href="#DejaVuSans-75"/>
      <use x="165.357422" xlink:href="#DejaVuSans-65"/>
      <use x="226.880859" xlink:href="#DejaVuSans-20"/>
      <use x="258.667969" xlink:href="#DejaVuSans-70"/>
      <use x="322.144531" xlink:href="#DejaVuSans-6f"/>
      <use x="383.326172" xlink:href="#DejaVuSans-73"/>
      <use x="435.425781" xlink:href="#DejaVuSans-69"/>
      <use x="463.208984" xlink:href="#DejaVuSans-74"/>
      <use x="502.417969" xlink:href="#DejaVuSans-69"/>
      <use x="530.201172" xlink:href="#DejaVuSans-76"/>
      <use x="589.380859" xlink:href="#DejaVuSans-65"/>
      <use x="650.904297" xlink:href="#DejaVuSans-20"/>
      <use x="682.691406" xlink:href="#DejaVuSans-72"/>
      <use x="723.804688" xlink:href="#DejaVuSans-61"/>
      <use x="785.083984" xlink:href="#DejaVuSans-74"/>
      <use x="824.292969" xlink:href="#DejaVuSans-65"/>
     </g>
    </g>
   </g>
   <g id="line2d_13">
    <path clip-path="url(#p3774bb399b)" d="M 48.2 303 
L 52.178283 300.105711 
L 56.156566 297.211421 
L 60.134848 294.317132 
L 64.113131 291.422842 
L 68.091414 288.528553 
L 72.069697 285.634263 
L 76.04798 282.739974 
L 80.026263 279.845685 
L 84.004545 276.951395 
L 87.982828 274.057106 
L 91.961111 271.162816 
L 95.939394 268.268527 
L 99.917677 265.374237 
L 103.89596 262.479948 
L 107.874242 259.585659 
L 111.852525 256.691369 
L 115.830808 253.79708 
L 119.809091 250.90279 
L 123.787374 248.008501 
L 127.765657 245.114211 
L 131.743939 242.219922 
L 135.722222 239.325633 
L 139.700505 236.431343 
L 143.678788 233.537054 
L 147.657071 230.642764 
L 151.635354 227.748475 
L 155.613636 224.854185 
L 159.591919 221.959896 
L 163.570202 219.065607 
L 167.548485 216.171317 
L 171.526768 213.277028 
L 175.505051 210.382738 
L 179.483333 207.488449 
L 183.461616 204.594159 
L 187.439899 201.69987 
L 191.418182 198.805581 
L 195.396465 195.911291 
L 199.374747 193.017002 
L 203.35303 190.122712 
L 207.331313 187.228423 
L 211.309596 184.334133 
L 215.287879 181.439844 
L 219.266162 178.545555 
L 223.244444 175.651265 
L 227.222727 172.756976 
L 231.20101 169.862686 
L 235.179293 166.968397 
L 239.157576 164.074107 
L 243.135859 161.179818 
L 247.114141 158.285529 
L 251.092424 155.391239 
L 255.070707 152.49695 
L 259.04899 149.60266 
L 263.027273 146.708371 
L 267.005556 143.814081 
L 270.983838 140.919792 
L 274.962121 138.025503 
L 278.940404 135.131213 
L 282.918687 132.236924 
L 286.89697 129.342634 
L 290.875253 126.448345 
L 294.853535 123.554055 
L 298.831818 120.659766 
L 302.810101 117.765477 
L 306.788384 114.871187 
L 310.766667 111.976898 
L 314.744949 109.082608 
L 318.723232 106.188319 
L 322.701515 103.294029 
L 326.679798 100.39974 
L 330.658081 97.505451 
L 334.636364 94.611161 
L 338.614646 91.716872 
L 342.592929 88.822582 
L 346.571212 85.928293 
L 350.549495 83.034003 
L 354.527778 80.139714 
L 358.506061 77.245425 
L 362.484343 74.351135 
L 366.462626 71.456846 
L 370.440909 68.562556 
L 374.419192 65.668267 
L 378.397475 62.773977 
L 382.375758 59.879688 
L 386.35404 56.985399 
L 390.332323 54.091109 
L 394.310606 51.19682 
L 398.288889 48.30253 
L 402.267172 45.408241 
L 406.245455 42.513951 
L 410.223737 39.619662 
L 414.20202 36.725373 
L 418.180303 33.831083 
L 422.158586 30.936794 
L 426.136869 28.042504 
L 430.115152 25.148215 
L 434.093434 22.253925 
L 438.071717 19.359636 
L 442.05 16.465347 
" style="fill:none;stroke:#cccccc;stroke-dasharray:5.55,2.4;stroke-dashoffset:0;stroke-width:1.5;"/>
   </g>
   <g id="line2d_14">
    <path clip-path="url(#p3774bb399b)" d="M 48.2 303 
L 52.1385 174.935128 
L 56.077 147.366864 
L 60.0155 133.811077 
L 63.954 123.234383 
L 67.8925 115.497742 
L 71.831 109.186583 
L 75.7695 106.416538 
L 79.708 99.550619 
L 83.6465 95.371737 
L 87.585 89.156048 
L 91.5235 85.174599 
L 95.462 82.39854 
L 99.4005 79.796311 
L 103.339 77.040484 
L 107.2775 74.202416 
L 111.216 72.979897 
L 115.1545 71.448071 
L 119.093 69.243169 
L 123.0315 67.195764 
L 126.97 64.96958 
L 130.9085 63.531575 
L 134.847 61.626306 
L 138.7855 60.647065 
L 142.724 59.430218 
L 146.6625 57.761686 
L 150.601 56.663099 
L 154.5395 55.808972 
L 158.478 54.367556 
L 162.4165 52.32903 
L 166.355 51.542617 
L 170.2935 50.064932 
L 174.232 49.38954 
L 178.1705 48.173032 
L 182.109 47.1368 
L 186.0475 46.557857 
L 189.986 45.759476 
L 193.9245 45.130649 
L 197.863 44.41253 
L 201.8015 43.251705 
L 205.74 42.052428 
L 209.6785 41.081384 
L 213.617 40.204805 
L 217.5555 39.323552 
L 221.494 38.623317 
L 225.4325 37.660759 
L 229.371 36.78196 
L 233.3095 36.058324 
L 237.248 35.204039 
L 241.1865 34.241616 
L 245.125 33.461409 
L 249.0635 32.793732 
L 253.002 32.408927 
L 256.9405 31.692181 
L 260.879 30.820592 
L 264.8175 30.031195 
L 268.756 29.421271 
L 272.6945 29.093044 
L 276.633 28.755684 
L 280.5715 28.114323 
L 284.51 27.608687 
L 288.4485 27.032503 
L 292.387 26.384424 
L 296.3255 25.865802 
L 300.264 25.457395 
L 304.2025 24.870612 
L 308.141 24.286132 
L 312.0795 23.877268 
L 316.018 23.587986 
L 319.9565 23.261474 
L 323.895 22.863649 
L 327.8335 22.638807 
L 331.772 22.402996 
L 335.7105 22.14655 
L 339.649 21.912845 
L 343.5875 21.68896 
L 347.526 21.370917 
L 351.4645 21.132284 
L 355.403 20.997443 
L 359.3415 20.648715 
L 363.28 20.267472 
L 367.2185 19.872134 
L 371.157 19.567824 
L 375.0955 19.411676 
L 379.034 19.076281 
L 382.9725 18.726477 
L 386.911 18.384977 
L 390.8495 18.203277 
L 394.788 18.074869 
L 398.7265 17.898594 
L 402.665 17.752257 
L 406.6035 17.634506 
L 410.542 17.512233 
L 414.4805 17.366601 
L 418.419 17.187482 
L 422.3575 17.007133 
L 426.296 16.833805 
L 430.2345 16.708353 
L 434.173 16.628079 
L 438.1115 16.546893 
L 442.05 16.465347 
" style="fill:none;stroke:#0000ff;stroke-linecap:square;stroke-width:1.5;"/>
   </g>
   <g id="line2d_15">
    <path clip-path="url(#p3774bb399b)" d="M 48.2 303 
L 52.1385 170.384637 
L 56.077 142.869308 
L 60.0155 122.114078 
L 63.954 105.10869 
L 67.8925 90.686598 
L 71.831 76.74256 
L 75.7695 68.32089 
L 79.708 62.286836 
L 83.6465 55.040707 
L 87.585 49.251939 
L 91.5235 44.43857 
L 95.462 40.779886 
L 99.4005 38.102665 
L 103.339 35.79416 
L 107.2775 33.488298 
L 111.216 31.56617 
L 115.1545 29.296519 
L 119.093 27.774975 
L 123.0315 26.567221 
L 126.97 25.584739 
L 130.9085 24.528599 
L 134.847 23.681201 
L 138.7855 22.791307 
L 142.724 22.2675 
L 146.6625 21.667144 
L 150.601 20.872068 
L 154.5395 20.427141 
L 158.478 19.741087 
L 162.4165 19.417939 
L 166.355 18.891937 
L 170.2935 18.475395 
L 174.232 18.156401 
L 178.1705 17.94032 
L 182.109 17.71453 
L 186.0475 17.634454 
L 189.986 17.262311 
L 193.9245 17.193569 
L 197.863 16.992221 
L 201.8015 16.965611 
L 205.74 16.925697 
L 209.6785 16.892434 
L 213.617 16.829014 
L 217.5555 16.809057 
L 221.494 16.809057 
L 225.4325 16.809057 
L 229.371 16.802404 
L 233.3095 16.802404 
L 237.248 16.789099 
L 241.1865 16.64718 
L 245.125 16.640528 
L 249.0635 16.633875 
L 253.002 16.627223 
L 256.9405 16.620571 
L 260.879 16.613918 
L 264.8175 16.613918 
L 268.756 16.607266 
L 272.6945 16.607266 
L 276.633 16.607266 
L 280.5715 16.607266 
L 284.51 16.607266 
L 288.4485 16.607266 
L 292.387 16.607266 
L 296.3255 16.607266 
L 300.264 16.607266 
L 304.2025 16.607266 
L 308.141 16.465347 
L 312.0795 16.465347 
L 316.018 16.465347 
L 319.9565 16.465347 
L 323.895 16.465347 
L 327.8335 16.465347 
L 331.772 16.465347 
L 335.7105 16.465347 
L 339.649 16.465347 
L 343.5875 16.465347 
L 347.526 16.465347 
L 351.4645 16.465347 
L 355.403 16.465347 
L 359.3415 16.465347 
L 363.28 16.465347 
L 367.2185 16.465347 
L 371.157 16.465347 
L 375.0955 16.465347 
L 379.034 16.465347 
L 382.9725 16.465347 
L 386.911 16.465347 
L 390.8495 16.465347 
L 394.788 16.465347 
L 398.7265 16.465347 
L 402.665 16.465347 
L 406.6035 16.465347 
L 410.542 16.465347 
L 414.4805 16.465347 
L 418.419 16.465347 
L 422.3575 16.465347 
L 426.296 16.465347 
L 430.2345 16.465347 
L 434.173 16.465347 
L 438.1115 16.465347 
L 442.05 16.465347 
" style="fill:none;stroke:#0000ff;stroke-dasharray:5.55,2.4;stroke-dashoffset:0;stroke-width:1.5;"/>
   </g>
   <g id="line2d_16">
    <path clip-path="url(#p3774bb399b)" d="M 48.2 303 
L 52.1385 164.222863 
L 56.077 136.326265 
L 60.0155 122.447337 
L 63.954 110.878225 
L 67.8925 102.263235 
L 71.831 96.082487 
L 75.7695 92.989085 
L 79.708 86.429119 
L 83.6465 81.294603 
L 87.585 73.126173 
L 91.5235 67.89183 
L 95.462 64.502764 
L 99.4005 62.096363 
L 103.339 59.972761 
L 107.2775 58.220069 
L 111.216 57.148891 
L 115.1545 56.302103 
L 119.093 55.107573 
L 123.0315 53.988518 
L 126.97 52.431741 
L 130.9085 51.096112 
L 134.847 49.46104 
L 138.7855 48.409267 
L 142.724 47.531144 
L 146.6625 46.54114 
L 150.601 45.25665 
L 154.5395 44.55982 
L 158.478 43.519378 
L 162.4165 42.340607 
L 166.355 41.283655 
L 170.2935 39.340343 
L 174.232 38.521354 
L 178.1705 37.998505 
L 182.109 37.368136 
L 186.0475 36.724844 
L 189.986 36.165748 
L 193.9245 35.643498 
L 197.863 34.609853 
L 201.8015 34.15535 
L 205.74 33.710321 
L 209.6785 33.042568 
L 213.617 32.437223 
L 217.5555 31.821946 
L 221.494 31.376736 
L 225.4325 30.898028 
L 229.371 30.531522 
L 233.3095 30.058002 
L 237.248 29.407856 
L 241.1865 28.732094 
L 245.125 27.937604 
L 249.0635 27.17183 
L 253.002 26.422841 
L 256.9405 25.734097 
L 260.879 25.227401 
L 264.8175 24.728726 
L 268.756 24.33452 
L 272.6945 23.918496 
L 276.633 23.581184 
L 280.5715 23.252934 
L 284.51 22.949239 
L 288.4485 22.57436 
L 292.387 22.385213 
L 296.3255 22.199429 
L 300.264 22.081687 
L 304.2025 21.95109 
L 308.141 21.561943 
L 312.0795 21.274019 
L 316.018 20.938785 
L 319.9565 20.765288 
L 323.895 20.509671 
L 327.8335 20.1018 
L 331.772 19.481073 
L 335.7105 19.006954 
L 339.649 18.711651 
L 343.5875 18.508869 
L 347.526 18.342745 
L 351.4645 18.203076 
L 355.403 18.119829 
L 359.3415 17.849552 
L 363.28 17.649439 
L 367.2185 17.449561 
L 371.157 17.238353 
L 375.0955 17.107172 
L 379.034 17.058119 
L 382.9725 17.019787 
L 386.911 16.973619 
L 390.8495 16.932917 
L 394.788 16.882532 
L 398.7265 16.833241 
L 402.665 16.783631 
L 406.6035 16.738256 
L 410.542 16.694713 
L 414.4805 16.64992 
L 418.419 16.602545 
L 422.3575 16.561555 
L 426.296 16.489634 
L 430.2345 16.465898 
L 434.173 16.465347 
L 438.1115 16.465347 
L 442.05 16.465347 
" style="fill:none;stroke:#008000;stroke-linecap:square;stroke-width:1.5;"/>
   </g>
   <g id="line2d_17">
    <path clip-path="url(#p3774bb399b)" d="M 48.2 303 
L 52.1385 198.0693 
L 56.077 165.245973 
L 60.0155 134.042569 
L 63.954 115.188242 
L 67.8925 97.826703 
L 71.831 80.190772 
L 75.7695 63.879324 
L 79.708 51.673731 
L 83.6465 43.772131 
L 87.585 38.243205 
L 91.5235 34.575634 
L 95.462 31.196232 
L 99.4005 28.57745 
L 103.339 26.458935 
L 107.2775 25.051022 
L 111.216 23.638516 
L 115.1545 22.509076 
L 119.093 21.654036 
L 123.0315 21.070236 
L 126.97 20.596621 
L 130.9085 20.091989 
L 134.847 19.730646 
L 138.7855 19.357918 
L 142.724 18.924939 
L 146.6625 18.676577 
L 150.601 18.473653 
L 154.5395 18.303262 
L 158.478 18.142316 
L 162.4165 17.96537 
L 166.355 17.585197 
L 170.2935 17.400231 
L 174.232 17.149178 
L 178.1705 16.966801 
L 182.109 16.835266 
L 186.0475 16.715608 
L 189.986 16.625321 
L 193.9245 16.569453 
L 197.863 16.538192 
L 201.8015 16.510275 
L 205.74 16.488029 
L 209.6785 16.482358 
L 213.617 16.476688 
L 217.5555 16.474798 
L 221.494 16.472907 
L 225.4325 16.469127 
L 229.371 16.465347 
L 233.3095 16.465347 
L 237.248 16.465347 
L 241.1865 16.465347 
L 245.125 16.465347 
L 249.0635 16.465347 
L 253.002 16.465347 
L 256.9405 16.465347 
L 260.879 16.465347 
L 264.8175 16.465347 
L 268.756 16.465347 
L 272.6945 16.465347 
L 276.633 16.465347 
L 280.5715 16.465347 
L 284.51 16.465347 
L 288.4485 16.465347 
L 292.387 16.465347 
L 296.3255 16.465347 
L 300.264 16.465347 
L 304.2025 16.465347 
L 308.141 16.465347 
L 312.0795 16.465347 
L 316.018 16.465347 
L 319.9565 16.465347 
L 323.895 16.465347 
L 327.8335 16.465347 
L 331.772 16.465347 
L 335.7105 16.465347 
L 339.649 16.465347 
L 343.5875 16.465347 
L 347.526 16.465347 
L 351.4645 16.465347 
L 355.403 16.465347 
L 359.3415 16.465347 
L 363.28 16.465347 
L 367.2185 16.465347 
L 371.157 16.465347 
L 375.0955 16.465347 
L 379.034 16.465347 
L 382.9725 16.465347 
L 386.911 16.465347 
L 390.8495 16.465347 
L 394.788 16.465347 
L 398.7265 16.465347 
L 402.665 16.465347 
L 406.6035 16.465347 
L 410.542 16.465347 
L 414.4805 16.465347 
L 418.419 16.465347 
L 422.3575 16.465347 
L 426.296 16.465347 
L 430.2345 16.465347 
L 434.173 16.465347 
L 438.1115 16.465347 
L 442.05 16.465347 
" style="fill:none;stroke:#008000;stroke-dasharray:5.55,2.4;stroke-dashoffset:0;stroke-width:1.5;"/>
   </g>
   <g id="line2d_18">
    <path clip-path="url(#p3774bb399b)" d="M 48.2 303 
L 52.1385 163.921155 
L 56.077 140.46513 
L 60.0155 125.35274 
L 63.954 112.974953 
L 67.8925 101.134051 
L 71.831 92.840714 
L 75.7695 91.102133 
L 79.708 83.176709 
L 83.6465 78.887835 
L 87.585 70.02479 
L 91.5235 67.355619 
L 95.462 65.390214 
L 99.4005 63.846872 
L 103.339 61.727718 
L 107.2775 60.084785 
L 111.216 58.667737 
L 115.1545 57.765047 
L 119.093 56.114831 
L 123.0315 55.383274 
L 126.97 52.880135 
L 130.9085 51.831767 
L 134.847 51.135228 
L 138.7855 50.336946 
L 142.724 49.222969 
L 146.6625 48.615528 
L 150.601 47.85267 
L 154.5395 46.997968 
L 158.478 45.956186 
L 162.4165 45.017162 
L 166.355 44.223809 
L 170.2935 42.925144 
L 174.232 41.061392 
L 178.1705 40.189233 
L 182.109 39.580097 
L 186.0475 39.011686 
L 189.986 38.510543 
L 193.9245 37.948473 
L 197.863 37.284424 
L 201.8015 36.783316 
L 205.74 36.419761 
L 209.6785 35.904951 
L 213.617 35.46453 
L 217.5555 35.020872 
L 221.494 34.521062 
L 225.4325 33.845968 
L 229.371 33.250571 
L 233.3095 32.777115 
L 237.248 32.315392 
L 241.1865 31.506435 
L 245.125 30.219868 
L 249.0635 29.71494 
L 253.002 29.175711 
L 256.9405 28.425931 
L 260.879 27.898748 
L 264.8175 27.250734 
L 268.756 26.54622 
L 272.6945 26.263118 
L 276.633 25.778216 
L 280.5715 25.156307 
L 284.51 24.709439 
L 288.4485 24.210945 
L 292.387 23.786068 
L 296.3255 23.30955 
L 300.264 22.947525 
L 304.2025 22.71291 
L 308.141 22.403632 
L 312.0795 22.078475 
L 316.018 21.859724 
L 319.9565 21.596788 
L 323.895 21.218827 
L 327.8335 20.878775 
L 331.772 20.503706 
L 335.7105 20.12494 
L 339.649 19.94928 
L 343.5875 19.590672 
L 347.526 19.242713 
L 351.4645 18.907066 
L 355.403 18.498053 
L 359.3415 18.120188 
L 363.28 17.800718 
L 367.2185 17.42355 
L 371.157 17.355049 
L 375.0955 17.300698 
L 379.034 17.254538 
L 382.9725 17.201078 
L 386.911 17.16711 
L 390.8495 17.106975 
L 394.788 17.041783 
L 398.7265 16.976542 
L 402.665 16.857451 
L 406.6035 16.776197 
L 410.542 16.697084 
L 414.4805 16.645172 
L 418.419 16.601095 
L 422.3575 16.558058 
L 426.296 16.473585 
L 430.2345 16.465347 
L 434.173 16.465347 
L 438.1115 16.465347 
L 442.05 16.465347 
" style="fill:none;stroke:#bfbf00;stroke-linecap:square;stroke-width:1.5;"/>
   </g>
   <g id="line2d_19">
    <path clip-path="url(#p3774bb399b)" d="M 48.2 303 
L 52.1385 209.831529 
L 56.077 186.213778 
L 60.0155 147.144569 
L 63.954 126.661961 
L 67.8925 112.523562 
L 71.831 97.454841 
L 75.7695 80.996664 
L 79.708 63.284573 
L 83.6465 48.510789 
L 87.585 39.367095 
L 91.5235 33.722318 
L 95.462 29.905407 
L 99.4005 27.39605 
L 103.339 25.523168 
L 107.2775 24.114878 
L 111.216 22.895894 
L 115.1545 21.980127 
L 119.093 21.093304 
L 123.0315 20.57529 
L 126.97 20.241195 
L 130.9085 19.841083 
L 134.847 19.517766 
L 138.7855 19.269033 
L 142.724 19.050402 
L 146.6625 18.873872 
L 150.601 18.740807 
L 154.5395 18.55044 
L 158.478 18.370262 
L 162.4165 18.220393 
L 166.355 18.022073 
L 170.2935 17.839789 
L 174.232 17.678527 
L 178.1705 17.361679 
L 182.109 16.922218 
L 186.0475 16.719943 
L 189.986 16.598105 
L 193.9245 16.539249 
L 197.863 16.487014 
L 201.8015 16.47618 
L 205.74 16.473472 
L 209.6785 16.470763 
L 213.617 16.468055 
L 217.5555 16.468055 
L 221.494 16.468055 
L 225.4325 16.465347 
L 229.371 16.465347 
L 233.3095 16.465347 
L 237.248 16.465347 
L 241.1865 16.465347 
L 245.125 16.465347 
L 249.0635 16.465347 
L 253.002 16.465347 
L 256.9405 16.465347 
L 260.879 16.465347 
L 264.8175 16.465347 
L 268.756 16.465347 
L 272.6945 16.465347 
L 276.633 16.465347 
L 280.5715 16.465347 
L 284.51 16.465347 
L 288.4485 16.465347 
L 292.387 16.465347 
L 296.3255 16.465347 
L 300.264 16.465347 
L 304.2025 16.465347 
L 308.141 16.465347 
L 312.0795 16.465347 
L 316.018 16.465347 
L 319.9565 16.465347 
L 323.895 16.465347 
L 327.8335 16.465347 
L 331.772 16.465347 
L 335.7105 16.465347 
L 339.649 16.465347 
L 343.5875 16.465347 
L 347.526 16.465347 
L 351.4645 16.465347 
L 355.403 16.465347 
L 359.3415 16.465347 
L 363.28 16.465347 
L 367.2185 16.465347 
L 371.157 16.465347 
L 375.0955 16.465347 
L 379.034 16.465347 
L 382.9725 16.465347 
L 386.911 16.465347 
L 390.8495 16.465347 
L 394.788 16.465347 
L 398.7265 16.465347 
L 402.665 16.465347 
L 406.6035 16.465347 
L 410.542 16.465347 
L 414.4805 16.465347 
L 418.419 16.465347 
L 422.3575 16.465347 
L 426.296 16.465347 
L 430.2345 16.465347 
L 434.173 16.465347 
L 438.1115 16.465347 
L 442.05 16.465347 
" style="fill:none;stroke:#bfbf00;stroke-dasharray:5.55,2.4;stroke-dashoffset:0;stroke-width:1.5;"/>
   </g>
   <g id="line2d_20">
    <path clip-path="url(#p3774bb399b)" d="M 48.2 303 
L 52.1385 192.585046 
L 56.077 156.152928 
L 60.0155 142.677163 
L 63.954 121.197152 
L 67.8925 111.339015 
L 71.831 105.700672 
L 75.7695 100.168849 
L 79.708 89.525118 
L 83.6465 84.042947 
L 87.585 78.957262 
L 91.5235 77.339645 
L 95.462 76.457041 
L 99.4005 74.995831 
L 103.339 70.276141 
L 107.2775 68.120949 
L 111.216 66.002362 
L 115.1545 64.310368 
L 119.093 61.53733 
L 123.0315 60.43146 
L 126.97 58.790834 
L 130.9085 57.663832 
L 134.847 56.363498 
L 138.7855 54.164749 
L 142.724 53.150651 
L 146.6625 51.954872 
L 150.601 50.572477 
L 154.5395 48.7534 
L 158.478 47.185874 
L 162.4165 46.284369 
L 166.355 45.569044 
L 170.2935 45.036811 
L 174.232 43.651872 
L 178.1705 43.050546 
L 182.109 42.414685 
L 186.0475 41.944143 
L 189.986 41.298327 
L 193.9245 40.696576 
L 197.863 39.988258 
L 201.8015 39.222616 
L 205.74 38.328248 
L 209.6785 37.463546 
L 213.617 35.447029 
L 217.5555 34.062459 
L 221.494 33.330409 
L 225.4325 32.684862 
L 229.371 32.065715 
L 233.3095 31.618249 
L 237.248 31.167641 
L 241.1865 30.697942 
L 245.125 30.164804 
L 249.0635 29.567026 
L 253.002 29.00544 
L 256.9405 28.565306 
L 260.879 28.140612 
L 264.8175 27.564955 
L 268.756 27.084525 
L 272.6945 26.651921 
L 276.633 26.293306 
L 280.5715 25.96837 
L 284.51 25.771712 
L 288.4485 25.615813 
L 292.387 25.207928 
L 296.3255 24.968491 
L 300.264 24.656811 
L 304.2025 24.359274 
L 308.141 23.958276 
L 312.0795 23.740033 
L 316.018 23.493009 
L 319.9565 23.207191 
L 323.895 22.708644 
L 327.8335 22.239818 
L 331.772 21.811651 
L 335.7105 21.266012 
L 339.649 20.972596 
L 343.5875 20.628871 
L 347.526 20.158419 
L 351.4645 19.546477 
L 355.403 19.346754 
L 359.3415 18.991088 
L 363.28 18.884894 
L 367.2185 18.739294 
L 371.157 18.521386 
L 375.0955 18.385301 
L 379.034 18.327679 
L 382.9725 18.19269 
L 386.911 18.114945 
L 390.8495 17.984353 
L 394.788 17.775078 
L 398.7265 17.603197 
L 402.665 17.341017 
L 406.6035 17.115089 
L 410.542 16.896034 
L 414.4805 16.713993 
L 418.419 16.599263 
L 422.3575 16.553487 
L 426.296 16.47846 
L 430.2345 16.465347 
L 434.173 16.465347 
L 438.1115 16.465347 
L 442.05 16.465347 
" style="fill:none;stroke:#ff0000;stroke-linecap:square;stroke-width:1.5;"/>
   </g>
   <g id="line2d_21">
    <path clip-path="url(#p3774bb399b)" d="M 48.2 303 
L 52.1385 251.734223 
L 56.077 228.067935 
L 60.0155 205.417219 
L 63.954 190.64897 
L 67.8925 176.62504 
L 71.831 160.837814 
L 75.7695 141.86884 
L 79.708 117.755413 
L 83.6465 87.079148 
L 87.585 60.53441 
L 91.5235 44.368981 
L 95.462 33.883845 
L 99.4005 28.514204 
L 103.339 25.611122 
L 107.2775 24.122086 
L 111.216 23.542419 
L 115.1545 23.052141 
L 119.093 22.598665 
L 123.0315 22.025764 
L 126.97 21.176652 
L 130.9085 20.548126 
L 134.847 20.091746 
L 138.7855 19.755154 
L 142.724 19.467501 
L 146.6625 19.184974 
L 150.601 18.893464 
L 154.5395 18.636517 
L 158.478 18.379571 
L 162.4165 18.122624 
L 166.355 17.796798 
L 170.2935 17.555424 
L 174.232 17.26314 
L 178.1705 17.077467 
L 182.109 16.92294 
L 186.0475 16.739663 
L 189.986 16.595317 
L 193.9245 16.504278 
L 197.863 16.496492 
L 201.8015 16.480919 
L 205.74 16.465347 
L 209.6785 16.465347 
L 213.617 16.465347 
L 217.5555 16.465347 
L 221.494 16.465347 
L 225.4325 16.465347 
L 229.371 16.465347 
L 233.3095 16.465347 
L 237.248 16.465347 
L 241.1865 16.465347 
L 245.125 16.465347 
L 249.0635 16.465347 
L 253.002 16.465347 
L 256.9405 16.465347 
L 260.879 16.465347 
L 264.8175 16.465347 
L 268.756 16.465347 
L 272.6945 16.465347 
L 276.633 16.465347 
L 280.5715 16.465347 
L 284.51 16.465347 
L 288.4485 16.465347 
L 292.387 16.465347 
L 296.3255 16.465347 
L 300.264 16.465347 
L 304.2025 16.465347 
L 308.141 16.465347 
L 312.0795 16.465347 
L 316.018 16.465347 
L 319.9565 16.465347 
L 323.895 16.465347 
L 327.8335 16.465347 
L 331.772 16.465347 
L 335.7105 16.465347 
L 339.649 16.465347 
L 343.5875 16.465347 
L 347.526 16.465347 
L 351.4645 16.465347 
L 355.403 16.465347 
L 359.3415 16.465347 
L 363.28 16.465347 
L 367.2185 16.465347 
L 371.157 16.465347 
L 375.0955 16.465347 
L 379.034 16.465347 
L 382.9725 16.465347 
L 386.911 16.465347 
L 390.8495 16.465347 
L 394.788 16.465347 
L 398.7265 16.465347 
L 402.665 16.465347 
L 406.6035 16.465347 
L 410.542 16.465347 
L 414.4805 16.465347 
L 418.419 16.465347 
L 422.3575 16.465347 
L 426.296 16.465347 
L 430.2345 16.465347 
L 434.173 16.465347 
L 438.1115 16.465347 
L 442.05 16.465347 
" style="fill:none;stroke:#ff0000;stroke-dasharray:5.55,2.4;stroke-dashoffset:0;stroke-width:1.5;"/>
   </g>
   <g id="patch_3">
    <path d="M 48.2 303 
L 48.2 13.6 
" style="fill:none;stroke:#000000;stroke-linecap:square;stroke-linejoin:miter;stroke-width:0.8;"/>
   </g>
   <g id="patch_4">
    <path d="M 442.05 303 
L 442.05 13.6 
" style="fill:none;stroke:#000000;stroke-linecap:square;stroke-linejoin:miter;stroke-width:0.8;"/>
   </g>
   <g id="patch_5">
    <path d="M 48.2 303 
L 442.05 303 
" style="fill:none;stroke:#000000;stroke-linecap:square;stroke-linejoin:miter;stroke-width:0.8;"/>
   </g>
   <g id="patch_6">
    <path d="M 48.2 13.6 
L 442.05 13.6 
" style="fill:none;stroke:#000000;stroke-linecap:square;stroke-linejoin:miter;stroke-width:0.8;"/>
   </g>
   <g id="legend_1">
    <g id="patch_7">
     <path d="M 162.614063 298 
L 435.05 298 
Q 437.05 298 437.05 296 
L 437.05 179.4875 
Q 437.05 177.4875 435.05 177.4875 
L 162.614063 177.4875 
Q 160.614063 177.4875 160.614063 179.4875 
L 160.614063 296 
Q 160.614063 298 162.614063 298 
z
" style="fill:#ffffff;opacity:0.8;stroke:#cccccc;stroke-linejoin:miter;"/>
    </g>
    <g id="line2d_22">
     <path d="M 164.614063 185.5875 
L 184.614063 185.5875 
" style="fill:none;stroke:#0000ff;stroke-linecap:square;stroke-width:1.5;"/>
    </g>
    <g id="line2d_23"/>
    <g id="text_15">
     <!-- $\mu$ 1 seed node(s) mean AUC: 0.90 (std: 0.13) -->
     <defs>
      <path d="M -1.3125 -20.796875 
L 13.375 54.6875 
L 22.40625 54.6875 
L 15.765625 20.65625 
Q 15.578125 19.625 15.421875 18.359375 
Q 15.28125 17.09375 15.28125 15.828125 
Q 15.28125 11.28125 18.140625 8.828125 
Q 21 6.390625 26.3125 6.390625 
Q 33.546875 6.390625 37.984375 10.484375 
Q 42.4375 14.59375 44 22.796875 
L 50.203125 54.6875 
L 59.1875 54.6875 
L 51.03125 12.640625 
Q 50.828125 11.71875 50.75 11.03125 
Q 50.6875 10.359375 50.6875 9.8125 
Q 50.6875 8.296875 51.296875 7.59375 
Q 51.90625 6.890625 53.21875 6.890625 
Q 53.71875 6.890625 54.5625 7.125 
Q 55.421875 7.375 56.984375 8.015625 
L 55.609375 0.78125 
Q 53.46875 -0.296875 51.515625 -0.859375 
Q 49.5625 -1.421875 47.703125 -1.421875 
Q 44.484375 -1.421875 42.65625 0.625 
Q 40.828125 2.6875 40.828125 6.296875 
Q 38.09375 2.390625 34.296875 0.484375 
Q 30.515625 -1.421875 25.390625 -1.421875 
Q 20.84375 -1.421875 17.453125 0.671875 
Q 14.0625 2.78125 12.984375 6.203125 
L 7.71875 -20.796875 
z
" id="DejaVuSans-Oblique-3bc"/>
      <path d="M 45.40625 46.390625 
L 45.40625 75.984375 
L 54.390625 75.984375 
L 54.390625 0 
L 45.40625 0 
L 45.40625 8.203125 
Q 42.578125 3.328125 38.25 0.953125 
Q 33.9375 -1.421875 27.875 -1.421875 
Q 17.96875 -1.421875 11.734375 6.484375 
Q 5.515625 14.40625 5.515625 27.296875 
Q 5.515625 40.1875 11.734375 48.09375 
Q 17.96875 56 27.875 56 
Q 33.9375 56 38.25 53.625 
Q 42.578125 51.265625 45.40625 46.390625 
z
M 14.796875 27.296875 
Q 14.796875 17.390625 18.875 11.75 
Q 22.953125 6.109375 30.078125 6.109375 
Q 37.203125 6.109375 41.296875 11.75 
Q 45.40625 17.390625 45.40625 27.296875 
Q 45.40625 37.203125 41.296875 42.84375 
Q 37.203125 48.484375 30.078125 48.484375 
Q 22.953125 48.484375 18.875 42.84375 
Q 14.796875 37.203125 14.796875 27.296875 
z
" id="DejaVuSans-64"/>
      <path d="M 54.890625 33.015625 
L 54.890625 0 
L 45.90625 0 
L 45.90625 32.71875 
Q 45.90625 40.484375 42.875 44.328125 
Q 39.84375 48.1875 33.796875 48.1875 
Q 26.515625 48.1875 22.3125 43.546875 
Q 18.109375 38.921875 18.109375 30.90625 
L 18.109375 0 
L 9.078125 0 
L 9.078125 54.6875 
L 18.109375 54.6875 
L 18.109375 46.1875 
Q 21.34375 51.125 25.703125 53.5625 
Q 30.078125 56 35.796875 56 
Q 45.21875 56 50.046875 50.171875 
Q 54.890625 44.34375 54.890625 33.015625 
z
" id="DejaVuSans-6e"/>
      <path d="M 31 75.875 
Q 24.46875 64.65625 21.28125 53.65625 
Q 18.109375 42.671875 18.109375 31.390625 
Q 18.109375 20.125 21.3125 9.0625 
Q 24.515625 -2 31 -13.1875 
L 23.1875 -13.1875 
Q 15.875 -1.703125 12.234375 9.375 
Q 8.59375 20.453125 8.59375 31.390625 
Q 8.59375 42.28125 12.203125 53.3125 
Q 15.828125 64.359375 23.1875 75.875 
z
" id="DejaVuSans-28"/>
      <path d="M 8.015625 75.875 
L 15.828125 75.875 
Q 23.140625 64.359375 26.78125 53.3125 
Q 30.421875 42.28125 30.421875 31.390625 
Q 30.421875 20.453125 26.78125 9.375 
Q 23.140625 -1.703125 15.828125 -13.1875 
L 8.015625 -13.1875 
Q 14.5 -2 17.703125 9.0625 
Q 20.90625 20.125 20.90625 31.390625 
Q 20.90625 42.671875 17.703125 53.65625 
Q 14.5 64.65625 8.015625 75.875 
z
" id="DejaVuSans-29"/>
      <path d="M 52 44.1875 
Q 55.375 50.25 60.0625 53.125 
Q 64.75 56 71.09375 56 
Q 79.640625 56 84.28125 50.015625 
Q 88.921875 44.046875 88.921875 33.015625 
L 88.921875 0 
L 79.890625 0 
L 79.890625 32.71875 
Q 79.890625 40.578125 77.09375 44.375 
Q 74.3125 48.1875 68.609375 48.1875 
Q 61.625 48.1875 57.5625 43.546875 
Q 53.515625 38.921875 53.515625 30.90625 
L 53.515625 0 
L 44.484375 0 
L 44.484375 32.71875 
Q 44.484375 40.625 41.703125 44.40625 
Q 38.921875 48.1875 33.109375 48.1875 
Q 26.21875 48.1875 22.15625 43.53125 
Q 18.109375 38.875 18.109375 30.90625 
L 18.109375 0 
L 9.078125 0 
L 9.078125 54.6875 
L 18.109375 54.6875 
L 18.109375 46.1875 
Q 21.1875 51.21875 25.484375 53.609375 
Q 29.78125 56 35.6875 56 
Q 41.65625 56 45.828125 52.96875 
Q 50 49.953125 52 44.1875 
z
" id="DejaVuSans-6d"/>
      <path d="M 34.1875 63.1875 
L 20.796875 26.90625 
L 47.609375 26.90625 
z
M 28.609375 72.90625 
L 39.796875 72.90625 
L 67.578125 0 
L 57.328125 0 
L 50.6875 18.703125 
L 17.828125 18.703125 
L 11.1875 0 
L 0.78125 0 
z
" id="DejaVuSans-41"/>
      <path d="M 8.6875 72.90625 
L 18.609375 72.90625 
L 18.609375 28.609375 
Q 18.609375 16.890625 22.84375 11.734375 
Q 27.09375 6.59375 36.625 6.59375 
Q 46.09375 6.59375 50.34375 11.734375 
Q 54.59375 16.890625 54.59375 28.609375 
L 54.59375 72.90625 
L 64.5 72.90625 
L 64.5 27.390625 
Q 64.5 13.140625 57.4375 5.859375 
Q 50.390625 -1.421875 36.625 -1.421875 
Q 22.796875 -1.421875 15.734375 5.859375 
Q 8.6875 13.140625 8.6875 27.390625 
z
" id="DejaVuSans-55"/>
      <path d="M 64.40625 67.28125 
L 64.40625 56.890625 
Q 59.421875 61.53125 53.78125 63.8125 
Q 48.140625 66.109375 41.796875 66.109375 
Q 29.296875 66.109375 22.65625 58.46875 
Q 16.015625 50.828125 16.015625 36.375 
Q 16.015625 21.96875 22.65625 14.328125 
Q 29.296875 6.6875 41.796875 6.6875 
Q 48.140625 6.6875 53.78125 8.984375 
Q 59.421875 11.28125 64.40625 15.921875 
L 64.40625 5.609375 
Q 59.234375 2.09375 53.4375 0.328125 
Q 47.65625 -1.421875 41.21875 -1.421875 
Q 24.65625 -1.421875 15.125 8.703125 
Q 5.609375 18.84375 5.609375 36.375 
Q 5.609375 53.953125 15.125 64.078125 
Q 24.65625 74.21875 41.21875 74.21875 
Q 47.75 74.21875 53.53125 72.484375 
Q 59.328125 70.75 64.40625 67.28125 
z
" id="DejaVuSans-43"/>
      <path d="M 11.71875 12.40625 
L 22.015625 12.40625 
L 22.015625 0 
L 11.71875 0 
z
M 11.71875 51.703125 
L 22.015625 51.703125 
L 22.015625 39.3125 
L 11.71875 39.3125 
z
" id="DejaVuSans-3a"/>
      <path d="M 10.984375 1.515625 
L 10.984375 10.5 
Q 14.703125 8.734375 18.5 7.8125 
Q 22.3125 6.890625 25.984375 6.890625 
Q 35.75 6.890625 40.890625 13.453125 
Q 46.046875 20.015625 46.78125 33.40625 
Q 43.953125 29.203125 39.59375 26.953125 
Q 35.25 24.703125 29.984375 24.703125 
Q 19.046875 24.703125 12.671875 31.3125 
Q 6.296875 37.9375 6.296875 49.421875 
Q 6.296875 60.640625 12.9375 67.421875 
Q 19.578125 74.21875 30.609375 74.21875 
Q 43.265625 74.21875 49.921875 64.515625 
Q 56.59375 54.828125 56.59375 36.375 
Q 56.59375 19.140625 48.40625 8.859375 
Q 40.234375 -1.421875 26.421875 -1.421875 
Q 22.703125 -1.421875 18.890625 -0.6875 
Q 15.09375 0.046875 10.984375 1.515625 
z
M 30.609375 32.421875 
Q 37.25 32.421875 41.125 36.953125 
Q 45.015625 41.5 45.015625 49.421875 
Q 45.015625 57.28125 41.125 61.84375 
Q 37.25 66.40625 30.609375 66.40625 
Q 23.96875 66.40625 20.09375 61.84375 
Q 16.21875 57.28125 16.21875 49.421875 
Q 16.21875 41.5 20.09375 36.953125 
Q 23.96875 32.421875 30.609375 32.421875 
z
" id="DejaVuSans-39"/>
      <path d="M 40.578125 39.3125 
Q 47.65625 37.796875 51.625 33 
Q 55.609375 28.21875 55.609375 21.1875 
Q 55.609375 10.40625 48.1875 4.484375 
Q 40.765625 -1.421875 27.09375 -1.421875 
Q 22.515625 -1.421875 17.65625 -0.515625 
Q 12.796875 0.390625 7.625 2.203125 
L 7.625 11.71875 
Q 11.71875 9.328125 16.59375 8.109375 
Q 21.484375 6.890625 26.8125 6.890625 
Q 36.078125 6.890625 40.9375 10.546875 
Q 45.796875 14.203125 45.796875 21.1875 
Q 45.796875 27.640625 41.28125 31.265625 
Q 36.765625 34.90625 28.71875 34.90625 
L 20.21875 34.90625 
L 20.21875 43.015625 
L 29.109375 43.015625 
Q 36.375 43.015625 40.234375 45.921875 
Q 44.09375 48.828125 44.09375 54.296875 
Q 44.09375 59.90625 40.109375 62.90625 
Q 36.140625 65.921875 28.71875 65.921875 
Q 24.65625 65.921875 20.015625 65.03125 
Q 15.375 64.15625 9.8125 62.3125 
L 9.8125 71.09375 
Q 15.4375 72.65625 20.34375 73.4375 
Q 25.25 74.21875 29.59375 74.21875 
Q 40.828125 74.21875 47.359375 69.109375 
Q 53.90625 64.015625 53.90625 55.328125 
Q 53.90625 49.265625 50.4375 45.09375 
Q 46.96875 40.921875 40.578125 39.3125 
z
" id="DejaVuSans-33"/>
     </defs>
     <g transform="translate(192.614063 189.0875)scale(0.1 -0.1)">
      <use transform="translate(0 0.015625)" xlink:href="#DejaVuSans-Oblique-3bc"/>
      <use transform="translate(63.623047 0.015625)" xlink:href="#DejaVuSans-20"/>
      <use transform="translate(95.410156 0.015625)" xlink:href="#DejaVuSans-31"/>
      <use transform="translate(159.033203 0.015625)" xlink:href="#DejaVuSans-20"/>
      <use transform="translate(190.820312 0.015625)" xlink:href="#DejaVuSans-73"/>
      <use transform="translate(242.919922 0.015625)" xlink:href="#DejaVuSans-65"/>
      <use transform="translate(304.443359 0.015625)" xlink:href="#DejaVuSans-65"/>
      <use transform="translate(365.966797 0.015625)" xlink:href="#DejaVuSans-64"/>
      <use transform="translate(429.443359 0.015625)" xlink:href="#DejaVuSans-20"/>
      <use transform="translate(461.230469 0.015625)" xlink:href="#DejaVuSans-6e"/>
      <use transform="translate(524.609375 0.015625)" xlink:href="#DejaVuSans-6f"/>
      <use transform="translate(585.791016 0.015625)" xlink:href="#DejaVuSans-64"/>
      <use transform="translate(649.267578 0.015625)" xlink:href="#DejaVuSans-65"/>
      <use transform="translate(710.791016 0.015625)" xlink:href="#DejaVuSans-28"/>
      <use transform="translate(749.804688 0.015625)" xlink:href="#DejaVuSans-73"/>
      <use transform="translate(801.904297 0.015625)" xlink:href="#DejaVuSans-29"/>
      <use transform="translate(840.917969 0.015625)" xlink:href="#DejaVuSans-20"/>
      <use transform="translate(872.705078 0.015625)" xlink:href="#DejaVuSans-6d"/>
      <use transform="translate(970.117188 0.015625)" xlink:href="#DejaVuSans-65"/>
      <use transform="translate(1031.640625 0.015625)" xlink:href="#DejaVuSans-61"/>
      <use transform="translate(1092.919922 0.015625)" xlink:href="#DejaVuSans-6e"/>
      <use transform="translate(1156.298828 0.015625)" xlink:href="#DejaVuSans-20"/>
      <use transform="translate(1188.085938 0.015625)" xlink:href="#DejaVuSans-41"/>
      <use transform="translate(1256.494141 0.015625)" xlink:href="#DejaVuSans-55"/>
      <use transform="translate(1329.6875 0.015625)" xlink:href="#DejaVuSans-43"/>
      <use transform="translate(1399.511719 0.015625)" xlink:href="#DejaVuSans-3a"/>
      <use transform="translate(1433.203125 0.015625)" xlink:href="#DejaVuSans-20"/>
      <use transform="translate(1464.990234 0.015625)" xlink:href="#DejaVuSans-30"/>
      <use transform="translate(1528.613281 0.015625)" xlink:href="#DejaVuSans-2e"/>
      <use transform="translate(1560.400391 0.015625)" xlink:href="#DejaVuSans-39"/>
      <use transform="translate(1624.023438 0.015625)" xlink:href="#DejaVuSans-30"/>
      <use transform="translate(1687.646484 0.015625)" xlink:href="#DejaVuSans-20"/>
      <use transform="translate(1719.433594 0.015625)" xlink:href="#DejaVuSans-28"/>
      <use transform="translate(1758.447266 0.015625)" xlink:href="#DejaVuSans-73"/>
      <use transform="translate(1810.546875 0.015625)" xlink:href="#DejaVuSans-74"/>
      <use transform="translate(1849.755859 0.015625)" xlink:href="#DejaVuSans-64"/>
      <use transform="translate(1913.232422 0.015625)" xlink:href="#DejaVuSans-3a"/>
      <use transform="translate(1946.923828 0.015625)" xlink:href="#DejaVuSans-20"/>
      <use transform="translate(1978.710938 0.015625)" xlink:href="#DejaVuSans-30"/>
      <use transform="translate(2042.333984 0.015625)" xlink:href="#DejaVuSans-2e"/>
      <use transform="translate(2074.121094 0.015625)" xlink:href="#DejaVuSans-31"/>
      <use transform="translate(2137.744141 0.015625)" xlink:href="#DejaVuSans-33"/>
      <use transform="translate(2201.367188 0.015625)" xlink:href="#DejaVuSans-29"/>
     </g>
    </g>
    <g id="line2d_24">
     <path d="M 164.614063 200.285937 
L 184.614063 200.285937 
" style="fill:none;stroke:#0000ff;stroke-dasharray:5.55,2.4;stroke-dashoffset:0;stroke-width:1.5;"/>
    </g>
    <g id="line2d_25"/>
    <g id="text_16">
     <!-- rwr 1 seed node(s) mean AUC: 0.96 (std: 0.04) -->
     <defs>
      <path d="M 4.203125 54.6875 
L 13.1875 54.6875 
L 24.421875 12.015625 
L 35.59375 54.6875 
L 46.1875 54.6875 
L 57.421875 12.015625 
L 68.609375 54.6875 
L 77.59375 54.6875 
L 63.28125 0 
L 52.6875 0 
L 40.921875 44.828125 
L 29.109375 0 
L 18.5 0 
z
" id="DejaVuSans-77"/>
     </defs>
     <g transform="translate(192.614063 203.785937)scale(0.1 -0.1)">
      <use xlink:href="#DejaVuSans-72"/>
      <use x="41.113281" xlink:href="#DejaVuSans-77"/>
      <use x="122.900391" xlink:href="#DejaVuSans-72"/>
      <use x="164.013672" xlink:href="#DejaVuSans-20"/>
      <use x="195.800781" xlink:href="#DejaVuSans-31"/>
      <use x="259.423828" xlink:href="#DejaVuSans-20"/>
      <use x="291.210938" xlink:href="#DejaVuSans-73"/>
      <use x="343.310547" xlink:href="#DejaVuSans-65"/>
      <use x="404.833984" xlink:href="#DejaVuSans-65"/>
      <use x="466.357422" xlink:href="#DejaVuSans-64"/>
      <use x="529.833984" xlink:href="#DejaVuSans-20"/>
      <use x="561.621094" xlink:href="#DejaVuSans-6e"/>
      <use x="625" xlink:href="#DejaVuSans-6f"/>
      <use x="686.181641" xlink:href="#DejaVuSans-64"/>
      <use x="749.658203" xlink:href="#DejaVuSans-65"/>
      <use x="811.181641" xlink:href="#DejaVuSans-28"/>
      <use x="850.195312" xlink:href="#DejaVuSans-73"/>
      <use x="902.294922" xlink:href="#DejaVuSans-29"/>
      <use x="941.308594" xlink:href="#DejaVuSans-20"/>
      <use x="973.095703" xlink:href="#DejaVuSans-6d"/>
      <use x="1070.507812" xlink:href="#DejaVuSans-65"/>
      <use x="1132.03125" xlink:href="#DejaVuSans-61"/>
      <use x="1193.310547" xlink:href="#DejaVuSans-6e"/>
      <use x="1256.689453" xlink:href="#DejaVuSans-20"/>
      <use x="1288.476562" xlink:href="#DejaVuSans-41"/>
      <use x="1356.884766" xlink:href="#DejaVuSans-55"/>
      <use x="1430.078125" xlink:href="#DejaVuSans-43"/>
      <use x="1499.902344" xlink:href="#DejaVuSans-3a"/>
      <use x="1533.59375" xlink:href="#DejaVuSans-20"/>
      <use x="1565.380859" xlink:href="#DejaVuSans-30"/>
      <use x="1629.003906" xlink:href="#DejaVuSans-2e"/>
      <use x="1660.791016" xlink:href="#DejaVuSans-39"/>
      <use x="1724.414062" xlink:href="#DejaVuSans-36"/>
      <use x="1788.037109" xlink:href="#DejaVuSans-20"/>
      <use x="1819.824219" xlink:href="#DejaVuSans-28"/>
      <use x="1858.837891" xlink:href="#DejaVuSans-73"/>
      <use x="1910.9375" xlink:href="#DejaVuSans-74"/>
      <use x="1950.146484" xlink:href="#DejaVuSans-64"/>
      <use x="2013.623047" xlink:href="#DejaVuSans-3a"/>
      <use x="2047.314453" xlink:href="#DejaVuSans-20"/>
      <use x="2079.101562" xlink:href="#DejaVuSans-30"/>
      <use x="2142.724609" xlink:href="#DejaVuSans-2e"/>
      <use x="2174.511719" xlink:href="#DejaVuSans-30"/>
      <use x="2238.134766" xlink:href="#DejaVuSans-34"/>
      <use x="2301.757812" xlink:href="#DejaVuSans-29"/>
     </g>
    </g>
    <g id="line2d_26">
     <path d="M 164.614063 214.965625 
L 184.614063 214.965625 
" style="fill:none;stroke:#008000;stroke-linecap:square;stroke-width:1.5;"/>
    </g>
    <g id="line2d_27"/>
    <g id="text_17">
     <!-- $\mu$ 3 seed node(s) mean AUC: 0.92 (std: 0.07) -->
     <defs>
      <path d="M 8.203125 72.90625 
L 55.078125 72.90625 
L 55.078125 68.703125 
L 28.609375 0 
L 18.3125 0 
L 43.21875 64.59375 
L 8.203125 64.59375 
z
" id="DejaVuSans-37"/>
     </defs>
     <g transform="translate(192.614063 218.465625)scale(0.1 -0.1)">
      <use transform="translate(0 0.015625)" xlink:href="#DejaVuSans-Oblique-3bc"/>
      <use transform="translate(63.623047 0.015625)" xlink:href="#DejaVuSans-20"/>
      <use transform="translate(95.410156 0.015625)" xlink:href="#DejaVuSans-33"/>
      <use transform="translate(159.033203 0.015625)" xlink:href="#DejaVuSans-20"/>
      <use transform="translate(190.820312 0.015625)" xlink:href="#DejaVuSans-73"/>
      <use transform="translate(242.919922 0.015625)" xlink:href="#DejaVuSans-65"/>
      <use transform="translate(304.443359 0.015625)" xlink:href="#DejaVuSans-65"/>
      <use transform="translate(365.966797 0.015625)" xlink:href="#DejaVuSans-64"/>
      <use transform="translate(429.443359 0.015625)" xlink:href="#DejaVuSans-20"/>
      <use transform="translate(461.230469 0.015625)" xlink:href="#DejaVuSans-6e"/>
      <use transform="translate(524.609375 0.015625)" xlink:href="#DejaVuSans-6f"/>
      <use transform="translate(585.791016 0.015625)" xlink:href="#DejaVuSans-64"/>
      <use transform="translate(649.267578 0.015625)" xlink:href="#DejaVuSans-65"/>
      <use transform="translate(710.791016 0.015625)" xlink:href="#DejaVuSans-28"/>
      <use transform="translate(749.804688 0.015625)" xlink:href="#DejaVuSans-73"/>
      <use transform="translate(801.904297 0.015625)" xlink:href="#DejaVuSans-29"/>
      <use transform="translate(840.917969 0.015625)" xlink:href="#DejaVuSans-20"/>
      <use transform="translate(872.705078 0.015625)" xlink:href="#DejaVuSans-6d"/>
      <use transform="translate(970.117188 0.015625)" xlink:href="#DejaVuSans-65"/>
      <use transform="translate(1031.640625 0.015625)" xlink:href="#DejaVuSans-61"/>
      <use transform="translate(1092.919922 0.015625)" xlink:href="#DejaVuSans-6e"/>
      <use transform="translate(1156.298828 0.015625)" xlink:href="#DejaVuSans-20"/>
      <use transform="translate(1188.085938 0.015625)" xlink:href="#DejaVuSans-41"/>
      <use transform="translate(1256.494141 0.015625)" xlink:href="#DejaVuSans-55"/>
      <use transform="translate(1329.6875 0.015625)" xlink:href="#DejaVuSans-43"/>
      <use transform="translate(1399.511719 0.015625)" xlink:href="#DejaVuSans-3a"/>
      <use transform="translate(1433.203125 0.015625)" xlink:href="#DejaVuSans-20"/>
      <use transform="translate(1464.990234 0.015625)" xlink:href="#DejaVuSans-30"/>
      <use transform="translate(1528.613281 0.015625)" xlink:href="#DejaVuSans-2e"/>
      <use transform="translate(1560.400391 0.015625)" xlink:href="#DejaVuSans-39"/>
      <use transform="translate(1624.007812 0.015625)" xlink:href="#DejaVuSans-32"/>
      <use transform="translate(1687.630859 0.015625)" xlink:href="#DejaVuSans-20"/>
      <use transform="translate(1719.417969 0.015625)" xlink:href="#DejaVuSans-28"/>
      <use transform="translate(1758.431641 0.015625)" xlink:href="#DejaVuSans-73"/>
      <use transform="translate(1810.53125 0.015625)" xlink:href="#DejaVuSans-74"/>
      <use transform="translate(1849.740234 0.015625)" xlink:href="#DejaVuSans-64"/>
      <use transform="translate(1913.216797 0.015625)" xlink:href="#DejaVuSans-3a"/>
      <use transform="translate(1946.908203 0.015625)" xlink:href="#DejaVuSans-20"/>
      <use transform="translate(1978.695312 0.015625)" xlink:href="#DejaVuSans-30"/>
      <use transform="translate(2042.318359 0.015625)" xlink:href="#DejaVuSans-2e"/>
      <use transform="translate(2074.105469 0.015625)" xlink:href="#DejaVuSans-30"/>
      <use transform="translate(2137.728516 0.015625)" xlink:href="#DejaVuSans-37"/>
      <use transform="translate(2201.351562 0.015625)" xlink:href="#DejaVuSans-29"/>
     </g>
    </g>
    <g id="line2d_28">
     <path d="M 164.614063 229.664062 
L 184.614063 229.664062 
" style="fill:none;stroke:#008000;stroke-dasharray:5.55,2.4;stroke-dashoffset:0;stroke-width:1.5;"/>
    </g>
    <g id="line2d_29"/>
    <g id="text_18">
     <!-- rwr 3 seed node(s) mean AUC: 0.96 (std: 0.03) -->
     <g transform="translate(192.614063 233.164062)scale(0.1 -0.1)">
      <use xlink:href="#DejaVuSans-72"/>
      <use x="41.113281" xlink:href="#DejaVuSans-77"/>
      <use x="122.900391" xlink:href="#DejaVuSans-72"/>
      <use x="164.013672" xlink:href="#DejaVuSans-20"/>
      <use x="195.800781" xlink:href="#DejaVuSans-33"/>
      <use x="259.423828" xlink:href="#DejaVuSans-20"/>
      <use x="291.210938" xlink:href="#DejaVuSans-73"/>
      <use x="343.310547" xlink:href="#DejaVuSans-65"/>
      <use x="404.833984" xlink:href="#DejaVuSans-65"/>
      <use x="466.357422" xlink:href="#DejaVuSans-64"/>
      <use x="529.833984" xlink:href="#DejaVuSans-20"/>
      <use x="561.621094" xlink:href="#DejaVuSans-6e"/>
      <use x="625" xlink:href="#DejaVuSans-6f"/>
      <use x="686.181641" xlink:href="#DejaVuSans-64"/>
      <use x="749.658203" xlink:href="#DejaVuSans-65"/>
      <use x="811.181641" xlink:href="#DejaVuSans-28"/>
      <use x="850.195312" xlink:href="#DejaVuSans-73"/>
      <use x="902.294922" xlink:href="#DejaVuSans-29"/>
      <use x="941.308594" xlink:href="#DejaVuSans-20"/>
      <use x="973.095703" xlink:href="#DejaVuSans-6d"/>
      <use x="1070.507812" xlink:href="#DejaVuSans-65"/>
      <use x="1132.03125" xlink:href="#DejaVuSans-61"/>
      <use x="1193.310547" xlink:href="#DejaVuSans-6e"/>
      <use x="1256.689453" xlink:href="#DejaVuSans-20"/>
      <use x="1288.476562" xlink:href="#DejaVuSans-41"/>
      <use x="1356.884766" xlink:href="#DejaVuSans-55"/>
      <use x="1430.078125" xlink:href="#DejaVuSans-43"/>
      <use x="1499.902344" xlink:href="#DejaVuSans-3a"/>
      <use x="1533.59375" xlink:href="#DejaVuSans-20"/>
      <use x="1565.380859" xlink:href="#DejaVuSans-30"/>
      <use x="1629.003906" xlink:href="#DejaVuSans-2e"/>
      <use x="1660.791016" xlink:href="#DejaVuSans-39"/>
      <use x="1724.414062" xlink:href="#DejaVuSans-36"/>
      <use x="1788.037109" xlink:href="#DejaVuSans-20"/>
      <use x="1819.824219" xlink:href="#DejaVuSans-28"/>
      <use x="1858.837891" xlink:href="#DejaVuSans-73"/>
      <use x="1910.9375" xlink:href="#DejaVuSans-74"/>
      <use x="1950.146484" xlink:href="#DejaVuSans-64"/>
      <use x="2013.623047" xlink:href="#DejaVuSans-3a"/>
      <use x="2047.314453" xlink:href="#DejaVuSans-20"/>
      <use x="2079.101562" xlink:href="#DejaVuSans-30"/>
      <use x="2142.724609" xlink:href="#DejaVuSans-2e"/>
      <use x="2174.511719" xlink:href="#DejaVuSans-30"/>
      <use x="2238.134766" xlink:href="#DejaVuSans-33"/>
      <use x="2301.757812" xlink:href="#DejaVuSans-29"/>
     </g>
    </g>
    <g id="line2d_30">
     <path d="M 164.614063 244.34375 
L 184.614063 244.34375 
" style="fill:none;stroke:#bfbf00;stroke-linecap:square;stroke-width:1.5;"/>
    </g>
    <g id="line2d_31"/>
    <g id="text_19">
     <!-- $\mu$ 7 seed node(s) mean AUC: 0.92 (std: 0.08) -->
     <g transform="translate(192.614063 247.84375)scale(0.1 -0.1)">
      <use transform="translate(0 0.015625)" xlink:href="#DejaVuSans-Oblique-3bc"/>
      <use transform="translate(63.623047 0.015625)" xlink:href="#DejaVuSans-20"/>
      <use transform="translate(95.410156 0.015625)" xlink:href="#DejaVuSans-37"/>
      <use transform="translate(159.033203 0.015625)" xlink:href="#DejaVuSans-20"/>
      <use transform="translate(190.820312 0.015625)" xlink:href="#DejaVuSans-73"/>
      <use transform="translate(242.919922 0.015625)" xlink:href="#DejaVuSans-65"/>
      <use transform="translate(304.443359 0.015625)" xlink:href="#DejaVuSans-65"/>
      <use transform="translate(365.966797 0.015625)" xlink:href="#DejaVuSans-64"/>
      <use transform="translate(429.443359 0.015625)" xlink:href="#DejaVuSans-20"/>
      <use transform="translate(461.230469 0.015625)" xlink:href="#DejaVuSans-6e"/>
      <use transform="translate(524.609375 0.015625)" xlink:href="#DejaVuSans-6f"/>
      <use transform="translate(585.791016 0.015625)" xlink:href="#DejaVuSans-64"/>
      <use transform="translate(649.267578 0.015625)" xlink:href="#DejaVuSans-65"/>
      <use transform="translate(710.791016 0.015625)" xlink:href="#DejaVuSans-28"/>
      <use transform="translate(749.804688 0.015625)" xlink:href="#DejaVuSans-73"/>
      <use transform="translate(801.904297 0.015625)" xlink:href="#DejaVuSans-29"/>
      <use transform="translate(840.917969 0.015625)" xlink:href="#DejaVuSans-20"/>
      <use transform="translate(872.705078 0.015625)" xlink:href="#DejaVuSans-6d"/>
      <use transform="translate(970.117188 0.015625)" xlink:href="#DejaVuSans-65"/>
      <use transform="translate(1031.640625 0.015625)" xlink:href="#DejaVuSans-61"/>
      <use transform="translate(1092.919922 0.015625)" xlink:href="#DejaVuSans-6e"/>
      <use transform="translate(1156.298828 0.015625)" xlink:href="#DejaVuSans-20"/>
      <use transform="translate(1188.085938 0.015625)" xlink:href="#DejaVuSans-41"/>
      <use transform="translate(1256.494141 0.015625)" xlink:href="#DejaVuSans-55"/>
      <use transform="translate(1329.6875 0.015625)" xlink:href="#DejaVuSans-43"/>
      <use transform="translate(1399.511719 0.015625)" xlink:href="#DejaVuSans-3a"/>
      <use transform="translate(1433.203125 0.015625)" xlink:href="#DejaVuSans-20"/>
      <use transform="translate(1464.990234 0.015625)" xlink:href="#DejaVuSans-30"/>
      <use transform="translate(1528.613281 0.015625)" xlink:href="#DejaVuSans-2e"/>
      <use transform="translate(1560.400391 0.015625)" xlink:href="#DejaVuSans-39"/>
      <use transform="translate(1624.007812 0.015625)" xlink:href="#DejaVuSans-32"/>
      <use transform="translate(1687.630859 0.015625)" xlink:href="#DejaVuSans-20"/>
      <use transform="translate(1719.417969 0.015625)" xlink:href="#DejaVuSans-28"/>
      <use transform="translate(1758.431641 0.015625)" xlink:href="#DejaVuSans-73"/>
      <use transform="translate(1810.53125 0.015625)" xlink:href="#DejaVuSans-74"/>
      <use transform="translate(1849.740234 0.015625)" xlink:href="#DejaVuSans-64"/>
      <use transform="translate(1913.216797 0.015625)" xlink:href="#DejaVuSans-3a"/>
      <use transform="translate(1946.908203 0.015625)" xlink:href="#DejaVuSans-20"/>
      <use transform="translate(1978.695312 0.015625)" xlink:href="#DejaVuSans-30"/>
      <use transform="translate(2042.318359 0.015625)" xlink:href="#DejaVuSans-2e"/>
      <use transform="translate(2074.105469 0.015625)" xlink:href="#DejaVuSans-30"/>
      <use transform="translate(2137.728516 0.015625)" xlink:href="#DejaVuSans-38"/>
      <use transform="translate(2201.351562 0.015625)" xlink:href="#DejaVuSans-29"/>
     </g>
    </g>
    <g id="line2d_32">
     <path d="M 164.614063 259.042188 
L 184.614063 259.042188 
" style="fill:none;stroke:#bfbf00;stroke-dasharray:5.55,2.4;stroke-dashoffset:0;stroke-width:1.5;"/>
    </g>
    <g id="line2d_33"/>
    <g id="text_20">
     <!-- rwr 7 seed node(s) mean AUC: 0.96 (std: 0.03) -->
     <g transform="translate(192.614063 262.542188)scale(0.1 -0.1)">
      <use xlink:href="#DejaVuSans-72"/>
      <use x="41.113281" xlink:href="#DejaVuSans-77"/>
      <use x="122.900391" xlink:href="#DejaVuSans-72"/>
      <use x="164.013672" xlink:href="#DejaVuSans-20"/>
      <use x="195.800781" xlink:href="#DejaVuSans-37"/>
      <use x="259.423828" xlink:href="#DejaVuSans-20"/>
      <use x="291.210938" xlink:href="#DejaVuSans-73"/>
      <use x="343.310547" xlink:href="#DejaVuSans-65"/>
      <use x="404.833984" xlink:href="#DejaVuSans-65"/>
      <use x="466.357422" xlink:href="#DejaVuSans-64"/>
      <use x="529.833984" xlink:href="#DejaVuSans-20"/>
      <use x="561.621094" xlink:href="#DejaVuSans-6e"/>
      <use x="625" xlink:href="#DejaVuSans-6f"/>
      <use x="686.181641" xlink:href="#DejaVuSans-64"/>
      <use x="749.658203" xlink:href="#DejaVuSans-65"/>
      <use x="811.181641" xlink:href="#DejaVuSans-28"/>
      <use x="850.195312" xlink:href="#DejaVuSans-73"/>
      <use x="902.294922" xlink:href="#DejaVuSans-29"/>
      <use x="941.308594" xlink:href="#DejaVuSans-20"/>
      <use x="973.095703" xlink:href="#DejaVuSans-6d"/>
      <use x="1070.507812" xlink:href="#DejaVuSans-65"/>
      <use x="1132.03125" xlink:href="#DejaVuSans-61"/>
      <use x="1193.310547" xlink:href="#DejaVuSans-6e"/>
      <use x="1256.689453" xlink:href="#DejaVuSans-20"/>
      <use x="1288.476562" xlink:href="#DejaVuSans-41"/>
      <use x="1356.884766" xlink:href="#DejaVuSans-55"/>
      <use x="1430.078125" xlink:href="#DejaVuSans-43"/>
      <use x="1499.902344" xlink:href="#DejaVuSans-3a"/>
      <use x="1533.59375" xlink:href="#DejaVuSans-20"/>
      <use x="1565.380859" xlink:href="#DejaVuSans-30"/>
      <use x="1629.003906" xlink:href="#DejaVuSans-2e"/>
      <use x="1660.791016" xlink:href="#DejaVuSans-39"/>
      <use x="1724.414062" xlink:href="#DejaVuSans-36"/>
      <use x="1788.037109" xlink:href="#DejaVuSans-20"/>
      <use x="1819.824219" xlink:href="#DejaVuSans-28"/>
      <use x="1858.837891" xlink:href="#DejaVuSans-73"/>
      <use x="1910.9375" xlink:href="#DejaVuSans-74"/>
      <use x="1950.146484" xlink:href="#DejaVuSans-64"/>
      <use x="2013.623047" xlink:href="#DejaVuSans-3a"/>
      <use x="2047.314453" xlink:href="#DejaVuSans-20"/>
      <use x="2079.101562" xlink:href="#DejaVuSans-30"/>
      <use x="2142.724609" xlink:href="#DejaVuSans-2e"/>
      <use x="2174.511719" xlink:href="#DejaVuSans-30"/>
      <use x="2238.134766" xlink:href="#DejaVuSans-33"/>
      <use x="2301.757812" xlink:href="#DejaVuSans-29"/>
     </g>
    </g>
    <g id="line2d_34">
     <path d="M 164.614063 273.721875 
L 184.614063 273.721875 
" style="fill:none;stroke:#ff0000;stroke-linecap:square;stroke-width:1.5;"/>
    </g>
    <g id="line2d_35"/>
    <g id="text_21">
     <!-- $\mu$ 15 seed node(s) mean AUC: 0.91 (std: 0.06) -->
     <defs>
      <path d="M 10.796875 72.90625 
L 49.515625 72.90625 
L 49.515625 64.59375 
L 19.828125 64.59375 
L 19.828125 46.734375 
Q 21.96875 47.46875 24.109375 47.828125 
Q 26.265625 48.1875 28.421875 48.1875 
Q 40.625 48.1875 47.75 41.5 
Q 54.890625 34.8125 54.890625 23.390625 
Q 54.890625 11.625 47.5625 5.09375 
Q 40.234375 -1.421875 26.90625 -1.421875 
Q 22.3125 -1.421875 17.546875 -0.640625 
Q 12.796875 0.140625 7.71875 1.703125 
L 7.71875 11.625 
Q 12.109375 9.234375 16.796875 8.0625 
Q 21.484375 6.890625 26.703125 6.890625 
Q 35.15625 6.890625 40.078125 11.328125 
Q 45.015625 15.765625 45.015625 23.390625 
Q 45.015625 31 40.078125 35.4375 
Q 35.15625 39.890625 26.703125 39.890625 
Q 22.75 39.890625 18.8125 39.015625 
Q 14.890625 38.140625 10.796875 36.28125 
z
" id="DejaVuSans-35"/>
     </defs>
     <g transform="translate(192.614063 277.221875)scale(0.1 -0.1)">
      <use transform="translate(0 0.015625)" xlink:href="#DejaVuSans-Oblique-3bc"/>
      <use transform="translate(63.623047 0.015625)" xlink:href="#DejaVuSans-20"/>
      <use transform="translate(95.410156 0.015625)" xlink:href="#DejaVuSans-31"/>
      <use transform="translate(159.033203 0.015625)" xlink:href="#DejaVuSans-35"/>
      <use transform="translate(222.65625 0.015625)" xlink:href="#DejaVuSans-20"/>
      <use transform="translate(254.443359 0.015625)" xlink:href="#DejaVuSans-73"/>
      <use transform="translate(306.542969 0.015625)" xlink:href="#DejaVuSans-65"/>
      <use transform="translate(368.066406 0.015625)" xlink:href="#DejaVuSans-65"/>
      <use transform="translate(429.589844 0.015625)" xlink:href="#DejaVuSans-64"/>
      <use transform="translate(493.066406 0.015625)" xlink:href="#DejaVuSans-20"/>
      <use transform="translate(524.853516 0.015625)" xlink:href="#DejaVuSans-6e"/>
      <use transform="translate(588.232422 0.015625)" xlink:href="#DejaVuSans-6f"/>
      <use transform="translate(649.414062 0.015625)" xlink:href="#DejaVuSans-64"/>
      <use transform="translate(712.890625 0.015625)" xlink:href="#DejaVuSans-65"/>
      <use transform="translate(774.414062 0.015625)" xlink:href="#DejaVuSans-28"/>
      <use transform="translate(813.427734 0.015625)" xlink:href="#DejaVuSans-73"/>
      <use transform="translate(865.527344 0.015625)" xlink:href="#DejaVuSans-29"/>
      <use transform="translate(904.541016 0.015625)" xlink:href="#DejaVuSans-20"/>
      <use transform="translate(936.328125 0.015625)" xlink:href="#DejaVuSans-6d"/>
      <use transform="translate(1033.740234 0.015625)" xlink:href="#DejaVuSans-65"/>
      <use transform="translate(1095.263672 0.015625)" xlink:href="#DejaVuSans-61"/>
      <use transform="translate(1156.542969 0.015625)" xlink:href="#DejaVuSans-6e"/>
      <use transform="translate(1219.921875 0.015625)" xlink:href="#DejaVuSans-20"/>
      <use transform="translate(1251.708984 0.015625)" xlink:href="#DejaVuSans-41"/>
      <use transform="translate(1320.117188 0.015625)" xlink:href="#DejaVuSans-55"/>
      <use transform="translate(1393.310547 0.015625)" xlink:href="#DejaVuSans-43"/>
      <use transform="translate(1463.134766 0.015625)" xlink:href="#DejaVuSans-3a"/>
      <use transform="translate(1496.826172 0.015625)" xlink:href="#DejaVuSans-20"/>
      <use transform="translate(1528.613281 0.015625)" xlink:href="#DejaVuSans-30"/>
      <use transform="translate(1592.236328 0.015625)" xlink:href="#DejaVuSans-2e"/>
      <use transform="translate(1624.023438 0.015625)" xlink:href="#DejaVuSans-39"/>
      <use transform="translate(1687.646484 0.015625)" xlink:href="#DejaVuSans-31"/>
      <use transform="translate(1751.269531 0.015625)" xlink:href="#DejaVuSans-20"/>
      <use transform="translate(1783.056641 0.015625)" xlink:href="#DejaVuSans-28"/>
      <use transform="translate(1822.070312 0.015625)" xlink:href="#DejaVuSans-73"/>
      <use transform="translate(1874.169922 0.015625)" xlink:href="#DejaVuSans-74"/>
      <use transform="translate(1913.378906 0.015625)" xlink:href="#DejaVuSans-64"/>
      <use transform="translate(1976.855469 0.015625)" xlink:href="#DejaVuSans-3a"/>
      <use transform="translate(2010.546875 0.015625)" xlink:href="#DejaVuSans-20"/>
      <use transform="translate(2042.333984 0.015625)" xlink:href="#DejaVuSans-30"/>
      <use transform="translate(2105.957031 0.015625)" xlink:href="#DejaVuSans-2e"/>
      <use transform="translate(2137.744141 0.015625)" xlink:href="#DejaVuSans-30"/>
      <use transform="translate(2201.367188 0.015625)" xlink:href="#DejaVuSans-36"/>
      <use transform="translate(2264.990234 0.015625)" xlink:href="#DejaVuSans-29"/>
     </g>
    </g>
    <g id="line2d_36">
     <path d="M 164.614063 288.420313 
L 184.614063 288.420313 
" style="fill:none;stroke:#ff0000;stroke-dasharray:5.55,2.4;stroke-dashoffset:0;stroke-width:1.5;"/>
    </g>
    <g id="line2d_37"/>
    <g id="text_22">
     <!-- rwr 15 seed node(s) mean AUC: 0.94 (std: 0.02) -->
     <g transform="translate(192.614063 291.920313)scale(0.1 -0.1)">
      <use xlink:href="#DejaVuSans-72"/>
      <use x="41.113281" xlink:href="#DejaVuSans-77"/>
      <use x="122.900391" xlink:href="#DejaVuSans-72"/>
      <use x="164.013672" xlink:href="#DejaVuSans-20"/>
      <use x="195.800781" xlink:href="#DejaVuSans-31"/>
      <use x="259.423828" xlink:href="#DejaVuSans-35"/>
      <use x="323.046875" xlink:href="#DejaVuSans-20"/>
      <use x="354.833984" xlink:href="#DejaVuSans-73"/>
      <use x="406.933594" xlink:href="#DejaVuSans-65"/>
      <use x="468.457031" xlink:href="#DejaVuSans-65"/>
      <use x="529.980469" xlink:href="#DejaVuSans-64"/>
      <use x="593.457031" xlink:href="#DejaVuSans-20"/>
      <use x="625.244141" xlink:href="#DejaVuSans-6e"/>
      <use x="688.623047" xlink:href="#DejaVuSans-6f"/>
      <use x="749.804688" xlink:href="#DejaVuSans-64"/>
      <use x="813.28125" xlink:href="#DejaVuSans-65"/>
      <use x="874.804688" xlink:href="#DejaVuSans-28"/>
      <use x="913.818359" xlink:href="#DejaVuSans-73"/>
      <use x="965.917969" xlink:href="#DejaVuSans-29"/>
      <use x="1004.931641" xlink:href="#DejaVuSans-20"/>
      <use x="1036.71875" xlink:href="#DejaVuSans-6d"/>
      <use x="1134.130859" xlink:href="#DejaVuSans-65"/>
      <use x="1195.654297" xlink:href="#DejaVuSans-61"/>
      <use x="1256.933594" xlink:href="#DejaVuSans-6e"/>
      <use x="1320.3125" xlink:href="#DejaVuSans-20"/>
      <use x="1352.099609" xlink:href="#DejaVuSans-41"/>
      <use x="1420.507812" xlink:href="#DejaVuSans-55"/>
      <use x="1493.701172" xlink:href="#DejaVuSans-43"/>
      <use x="1563.525391" xlink:href="#DejaVuSans-3a"/>
      <use x="1597.216797" xlink:href="#DejaVuSans-20"/>
      <use x="1629.003906" xlink:href="#DejaVuSans-30"/>
      <use x="1692.626953" xlink:href="#DejaVuSans-2e"/>
      <use x="1724.414062" xlink:href="#DejaVuSans-39"/>
      <use x="1788.037109" xlink:href="#DejaVuSans-34"/>
      <use x="1851.660156" xlink:href="#DejaVuSans-20"/>
      <use x="1883.447266" xlink:href="#DejaVuSans-28"/>
      <use x="1922.460938" xlink:href="#DejaVuSans-73"/>
      <use x="1974.560547" xlink:href="#DejaVuSans-74"/>
      <use x="2013.769531" xlink:href="#DejaVuSans-64"/>
      <use x="2077.246094" xlink:href="#DejaVuSans-3a"/>
      <use x="2110.9375" xlink:href="#DejaVuSans-20"/>
      <use x="2142.724609" xlink:href="#DejaVuSans-30"/>
      <use x="2206.347656" xlink:href="#DejaVuSans-2e"/>
      <use x="2238.134766" xlink:href="#DejaVuSans-30"/>
      <use x="2301.757812" xlink:href="#DejaVuSans-32"/>
      <use x="2365.380859" xlink:href="#DejaVuSans-29"/>
     </g>
    </g>
   </g>
  </g>
 </g>
 <defs>
  <clipPath id="p3774bb399b">
   <rect height="289.4" width="393.85" x="48.2" y="13.6"/>
  </clipPath>
 </defs>
</svg>
