<?xml version="1.0" encoding="utf-8" standalone="no"?>
<!DOCTYPE svg PUBLIC "-//W3C//DTD SVG 1.1//EN"
  "http://www.w3.org/Graphics/SVG/1.1/DTD/svg11.dtd">
<!-- Created with matplotlib (http://matplotlib.org/) -->
<svg height="345pt" version="1.1" viewBox="0 0 460 345" width="460pt" xmlns="http://www.w3.org/2000/svg" xmlns:xlink="http://www.w3.org/1999/xlink">
 <defs>
  <style type="text/css">
*{stroke-linecap:butt;stroke-linejoin:round;}
  </style>
 </defs>
 <g id="figure_1">
  <g id="patch_1">
   <path d="M 0 345.6 
L 460.8 345.6 
L 460.8 0 
L 0 0 
z
" style="fill:#ffffff;"/>
  </g>
  <g id="axes_1">
   <g id="patch_2">
    <path d="M 48.2 303 
L 442.05 303 
L 442.05 13.6 
L 48.2 13.6 
z
" style="fill:#ffffff;"/>
   </g>
   <g id="matplotlib.axis_1">
    <g id="xtick_1">
     <g id="line2d_1">
      <defs>
       <path d="M 0 0 
L 0 3.5 
" id="m5bfd5ab61b" style="stroke:#000000;stroke-width:0.8;"/>
      </defs>
      <g>
       <use style="stroke:#000000;stroke-width:0.8;" x="48.2" xlink:href="#m5bfd5ab61b" y="303"/>
      </g>
     </g>
     <g id="text_1">
      <!-- 0.0 -->
      <defs>
       <path d="M 31.78125 66.40625 
Q 24.171875 66.40625 20.328125 58.90625 
Q 16.5 51.421875 16.5 36.375 
Q 16.5 21.390625 20.328125 13.890625 
Q 24.171875 6.390625 31.78125 6.390625 
Q 39.453125 6.390625 43.28125 13.890625 
Q 47.125 21.390625 47.125 36.375 
Q 47.125 51.421875 43.28125 58.90625 
Q 39.453125 66.40625 31.78125 66.40625 
z
M 31.78125 74.21875 
Q 44.046875 74.21875 50.515625 64.515625 
Q 56.984375 54.828125 56.984375 36.375 
Q 56.984375 17.96875 50.515625 8.265625 
Q 44.046875 -1.421875 31.78125 -1.421875 
Q 19.53125 -1.421875 13.0625 8.265625 
Q 6.59375 17.96875 6.59375 36.375 
Q 6.59375 54.828125 13.0625 64.515625 
Q 19.53125 74.21875 31.78125 74.21875 
z
" id="DejaVuSans-30"/>
       <path d="M 10.6875 12.40625 
L 21 12.40625 
L 21 0 
L 10.6875 0 
z
" id="DejaVuSans-2e"/>
      </defs>
      <g transform="translate(40.248438 317.598437)scale(0.1 -0.1)">
       <use xlink:href="#DejaVuSans-30"/>
       <use x="63.623047" xlink:href="#DejaVuSans-2e"/>
       <use x="95.410156" xlink:href="#DejaVuSans-30"/>
      </g>
     </g>
    </g>
    <g id="xtick_2">
     <g id="line2d_2">
      <g>
       <use style="stroke:#000000;stroke-width:0.8;" x="126.97" xlink:href="#m5bfd5ab61b" y="303"/>
      </g>
     </g>
     <g id="text_2">
      <!-- 0.2 -->
      <defs>
       <path d="M 19.1875 8.296875 
L 53.609375 8.296875 
L 53.609375 0 
L 7.328125 0 
L 7.328125 8.296875 
Q 12.9375 14.109375 22.625 23.890625 
Q 32.328125 33.6875 34.8125 36.53125 
Q 39.546875 41.84375 41.421875 45.53125 
Q 43.3125 49.21875 43.3125 52.78125 
Q 43.3125 58.59375 39.234375 62.25 
Q 35.15625 65.921875 28.609375 65.921875 
Q 23.96875 65.921875 18.8125 64.3125 
Q 13.671875 62.703125 7.8125 59.421875 
L 7.8125 69.390625 
Q 13.765625 71.78125 18.9375 73 
Q 24.125 74.21875 28.421875 74.21875 
Q 39.75 74.21875 46.484375 68.546875 
Q 53.21875 62.890625 53.21875 53.421875 
Q 53.21875 48.921875 51.53125 44.890625 
Q 49.859375 40.875 45.40625 35.40625 
Q 44.1875 33.984375 37.640625 27.21875 
Q 31.109375 20.453125 19.1875 8.296875 
z
" id="DejaVuSans-32"/>
      </defs>
      <g transform="translate(119.018438 317.598437)scale(0.1 -0.1)">
       <use xlink:href="#DejaVuSans-30"/>
       <use x="63.623047" xlink:href="#DejaVuSans-2e"/>
       <use x="95.410156" xlink:href="#DejaVuSans-32"/>
      </g>
     </g>
    </g>
    <g id="xtick_3">
     <g id="line2d_3">
      <g>
       <use style="stroke:#000000;stroke-width:0.8;" x="205.74" xlink:href="#m5bfd5ab61b" y="303"/>
      </g>
     </g>
     <g id="text_3">
      <!-- 0.4 -->
      <defs>
       <path d="M 37.796875 64.3125 
L 12.890625 25.390625 
L 37.796875 25.390625 
z
M 35.203125 72.90625 
L 47.609375 72.90625 
L 47.609375 25.390625 
L 58.015625 25.390625 
L 58.015625 17.1875 
L 47.609375 17.1875 
L 47.609375 0 
L 37.796875 0 
L 37.796875 17.1875 
L 4.890625 17.1875 
L 4.890625 26.703125 
z
" id="DejaVuSans-34"/>
      </defs>
      <g transform="translate(197.788438 317.598437)scale(0.1 -0.1)">
       <use xlink:href="#DejaVuSans-30"/>
       <use x="63.623047" xlink:href="#DejaVuSans-2e"/>
       <use x="95.410156" xlink:href="#DejaVuSans-34"/>
      </g>
     </g>
    </g>
    <g id="xtick_4">
     <g id="line2d_4">
      <g>
       <use style="stroke:#000000;stroke-width:0.8;" x="284.51" xlink:href="#m5bfd5ab61b" y="303"/>
      </g>
     </g>
     <g id="text_4">
      <!-- 0.6 -->
      <defs>
       <path d="M 33.015625 40.375 
Q 26.375 40.375 22.484375 35.828125 
Q 18.609375 31.296875 18.609375 23.390625 
Q 18.609375 15.53125 22.484375 10.953125 
Q 26.375 6.390625 33.015625 6.390625 
Q 39.65625 6.390625 43.53125 10.953125 
Q 47.40625 15.53125 47.40625 23.390625 
Q 47.40625 31.296875 43.53125 35.828125 
Q 39.65625 40.375 33.015625 40.375 
z
M 52.59375 71.296875 
L 52.59375 62.3125 
Q 48.875 64.0625 45.09375 64.984375 
Q 41.3125 65.921875 37.59375 65.921875 
Q 27.828125 65.921875 22.671875 59.328125 
Q 17.53125 52.734375 16.796875 39.40625 
Q 19.671875 43.65625 24.015625 45.921875 
Q 28.375 48.1875 33.59375 48.1875 
Q 44.578125 48.1875 50.953125 41.515625 
Q 57.328125 34.859375 57.328125 23.390625 
Q 57.328125 12.15625 50.6875 5.359375 
Q 44.046875 -1.421875 33.015625 -1.421875 
Q 20.359375 -1.421875 13.671875 8.265625 
Q 6.984375 17.96875 6.984375 36.375 
Q 6.984375 53.65625 15.1875 63.9375 
Q 23.390625 74.21875 37.203125 74.21875 
Q 40.921875 74.21875 44.703125 73.484375 
Q 48.484375 72.75 52.59375 71.296875 
z
" id="DejaVuSans-36"/>
      </defs>
      <g transform="translate(276.558438 317.598437)scale(0.1 -0.1)">
       <use xlink:href="#DejaVuSans-30"/>
       <use x="63.623047" xlink:href="#DejaVuSans-2e"/>
       <use x="95.410156" xlink:href="#DejaVuSans-36"/>
      </g>
     </g>
    </g>
    <g id="xtick_5">
     <g id="line2d_5">
      <g>
       <use style="stroke:#000000;stroke-width:0.8;" x="363.28" xlink:href="#m5bfd5ab61b" y="303"/>
      </g>
     </g>
     <g id="text_5">
      <!-- 0.8 -->
      <defs>
       <path d="M 31.78125 34.625 
Q 24.75 34.625 20.71875 30.859375 
Q 16.703125 27.09375 16.703125 20.515625 
Q 16.703125 13.921875 20.71875 10.15625 
Q 24.75 6.390625 31.78125 6.390625 
Q 38.8125 6.390625 42.859375 10.171875 
Q 46.921875 13.96875 46.921875 20.515625 
Q 46.921875 27.09375 42.890625 30.859375 
Q 38.875 34.625 31.78125 34.625 
z
M 21.921875 38.8125 
Q 15.578125 40.375 12.03125 44.71875 
Q 8.5 49.078125 8.5 55.328125 
Q 8.5 64.0625 14.71875 69.140625 
Q 20.953125 74.21875 31.78125 74.21875 
Q 42.671875 74.21875 48.875 69.140625 
Q 55.078125 64.0625 55.078125 55.328125 
Q 55.078125 49.078125 51.53125 44.71875 
Q 48 40.375 41.703125 38.8125 
Q 48.828125 37.15625 52.796875 32.3125 
Q 56.78125 27.484375 56.78125 20.515625 
Q 56.78125 9.90625 50.3125 4.234375 
Q 43.84375 -1.421875 31.78125 -1.421875 
Q 19.734375 -1.421875 13.25 4.234375 
Q 6.78125 9.90625 6.78125 20.515625 
Q 6.78125 27.484375 10.78125 32.3125 
Q 14.796875 37.15625 21.921875 38.8125 
z
M 18.3125 54.390625 
Q 18.3125 48.734375 21.84375 45.5625 
Q 25.390625 42.390625 31.78125 42.390625 
Q 38.140625 42.390625 41.71875 45.5625 
Q 45.3125 48.734375 45.3125 54.390625 
Q 45.3125 60.0625 41.71875 63.234375 
Q 38.140625 66.40625 31.78125 66.40625 
Q 25.390625 66.40625 21.84375 63.234375 
Q 18.3125 60.0625 18.3125 54.390625 
z
" id="DejaVuSans-38"/>
      </defs>
      <g transform="translate(355.328438 317.598437)scale(0.1 -0.1)">
       <use xlink:href="#DejaVuSans-30"/>
       <use x="63.623047" xlink:href="#DejaVuSans-2e"/>
       <use x="95.410156" xlink:href="#DejaVuSans-38"/>
      </g>
     </g>
    </g>
    <g id="xtick_6">
     <g id="line2d_6">
      <g>
       <use style="stroke:#000000;stroke-width:0.8;" x="442.05" xlink:href="#m5bfd5ab61b" y="303"/>
      </g>
     </g>
     <g id="text_6">
      <!-- 1.0 -->
      <defs>
       <path d="M 12.40625 8.296875 
L 28.515625 8.296875 
L 28.515625 63.921875 
L 10.984375 60.40625 
L 10.984375 69.390625 
L 28.421875 72.90625 
L 38.28125 72.90625 
L 38.28125 8.296875 
L 54.390625 8.296875 
L 54.390625 0 
L 12.40625 0 
z
" id="DejaVuSans-31"/>
      </defs>
      <g transform="translate(434.098438 317.598437)scale(0.1 -0.1)">
       <use xlink:href="#DejaVuSans-31"/>
       <use x="63.623047" xlink:href="#DejaVuSans-2e"/>
       <use x="95.410156" xlink:href="#DejaVuSans-30"/>
      </g>
     </g>
    </g>
    <g id="text_7">
     <!-- False positive rate -->
     <defs>
      <path d="M 9.8125 72.90625 
L 51.703125 72.90625 
L 51.703125 64.59375 
L 19.671875 64.59375 
L 19.671875 43.109375 
L 48.578125 43.109375 
L 48.578125 34.8125 
L 19.671875 34.8125 
L 19.671875 0 
L 9.8125 0 
z
" id="DejaVuSans-46"/>
      <path d="M 34.28125 27.484375 
Q 23.390625 27.484375 19.1875 25 
Q 14.984375 22.515625 14.984375 16.5 
Q 14.984375 11.71875 18.140625 8.90625 
Q 21.296875 6.109375 26.703125 6.109375 
Q 34.1875 6.109375 38.703125 11.40625 
Q 43.21875 16.703125 43.21875 25.484375 
L 43.21875 27.484375 
z
M 52.203125 31.203125 
L 52.203125 0 
L 43.21875 0 
L 43.21875 8.296875 
Q 40.140625 3.328125 35.546875 0.953125 
Q 30.953125 -1.421875 24.3125 -1.421875 
Q 15.921875 -1.421875 10.953125 3.296875 
Q 6 8.015625 6 15.921875 
Q 6 25.140625 12.171875 29.828125 
Q 18.359375 34.515625 30.609375 34.515625 
L 43.21875 34.515625 
L 43.21875 35.40625 
Q 43.21875 41.609375 39.140625 45 
Q 35.0625 48.390625 27.6875 48.390625 
Q 23 48.390625 18.546875 47.265625 
Q 14.109375 46.140625 10.015625 43.890625 
L 10.015625 52.203125 
Q 14.9375 54.109375 19.578125 55.046875 
Q 24.21875 56 28.609375 56 
Q 40.484375 56 46.34375 49.84375 
Q 52.203125 43.703125 52.203125 31.203125 
z
" id="DejaVuSans-61"/>
      <path d="M 9.421875 75.984375 
L 18.40625 75.984375 
L 18.40625 0 
L 9.421875 0 
z
" id="DejaVuSans-6c"/>
      <path d="M 44.28125 53.078125 
L 44.28125 44.578125 
Q 40.484375 46.53125 36.375 47.5 
Q 32.28125 48.484375 27.875 48.484375 
Q 21.1875 48.484375 17.84375 46.4375 
Q 14.5 44.390625 14.5 40.28125 
Q 14.5 37.15625 16.890625 35.375 
Q 19.28125 33.59375 26.515625 31.984375 
L 29.59375 31.296875 
Q 39.15625 29.25 43.1875 25.515625 
Q 47.21875 21.78125 47.21875 15.09375 
Q 47.21875 7.46875 41.1875 3.015625 
Q 35.15625 -1.421875 24.609375 -1.421875 
Q 20.21875 -1.421875 15.453125 -0.5625 
Q 10.6875 0.296875 5.421875 2 
L 5.421875 11.28125 
Q 10.40625 8.6875 15.234375 7.390625 
Q 20.0625 6.109375 24.8125 6.109375 
Q 31.15625 6.109375 34.5625 8.28125 
Q 37.984375 10.453125 37.984375 14.40625 
Q 37.984375 18.0625 35.515625 20.015625 
Q 33.0625 21.96875 24.703125 23.78125 
L 21.578125 24.515625 
Q 13.234375 26.265625 9.515625 29.90625 
Q 5.8125 33.546875 5.8125 39.890625 
Q 5.8125 47.609375 11.28125 51.796875 
Q 16.75 56 26.8125 56 
Q 31.78125 56 36.171875 55.265625 
Q 40.578125 54.546875 44.28125 53.078125 
z
" id="DejaVuSans-73"/>
      <path d="M 56.203125 29.59375 
L 56.203125 25.203125 
L 14.890625 25.203125 
Q 15.484375 15.921875 20.484375 11.0625 
Q 25.484375 6.203125 34.421875 6.203125 
Q 39.59375 6.203125 44.453125 7.46875 
Q 49.3125 8.734375 54.109375 11.28125 
L 54.109375 2.78125 
Q 49.265625 0.734375 44.1875 -0.34375 
Q 39.109375 -1.421875 33.890625 -1.421875 
Q 20.796875 -1.421875 13.15625 6.1875 
Q 5.515625 13.8125 5.515625 26.8125 
Q 5.515625 40.234375 12.765625 48.109375 
Q 20.015625 56 32.328125 56 
Q 43.359375 56 49.78125 48.890625 
Q 56.203125 41.796875 56.203125 29.59375 
z
M 47.21875 32.234375 
Q 47.125 39.59375 43.09375 43.984375 
Q 39.0625 48.390625 32.421875 48.390625 
Q 24.90625 48.390625 20.390625 44.140625 
Q 15.875 39.890625 15.1875 32.171875 
z
" id="DejaVuSans-65"/>
      <path id="DejaVuSans-20"/>
      <path d="M 18.109375 8.203125 
L 18.109375 -20.796875 
L 9.078125 -20.796875 
L 9.078125 54.6875 
L 18.109375 54.6875 
L 18.109375 46.390625 
Q 20.953125 51.265625 25.265625 53.625 
Q 29.59375 56 35.59375 56 
Q 45.5625 56 51.78125 48.09375 
Q 58.015625 40.1875 58.015625 27.296875 
Q 58.015625 14.40625 51.78125 6.484375 
Q 45.5625 -1.421875 35.59375 -1.421875 
Q 29.59375 -1.421875 25.265625 0.953125 
Q 20.953125 3.328125 18.109375 8.203125 
z
M 48.6875 27.296875 
Q 48.6875 37.203125 44.609375 42.84375 
Q 40.53125 48.484375 33.40625 48.484375 
Q 26.265625 48.484375 22.1875 42.84375 
Q 18.109375 37.203125 18.109375 27.296875 
Q 18.109375 17.390625 22.1875 11.75 
Q 26.265625 6.109375 33.40625 6.109375 
Q 40.53125 6.109375 44.609375 11.75 
Q 48.6875 17.390625 48.6875 27.296875 
z
" id="DejaVuSans-70"/>
      <path d="M 30.609375 48.390625 
Q 23.390625 48.390625 19.1875 42.75 
Q 14.984375 37.109375 14.984375 27.296875 
Q 14.984375 17.484375 19.15625 11.84375 
Q 23.34375 6.203125 30.609375 6.203125 
Q 37.796875 6.203125 41.984375 11.859375 
Q 46.1875 17.53125 46.1875 27.296875 
Q 46.1875 37.015625 41.984375 42.703125 
Q 37.796875 48.390625 30.609375 48.390625 
z
M 30.609375 56 
Q 42.328125 56 49.015625 48.375 
Q 55.71875 40.765625 55.71875 27.296875 
Q 55.71875 13.875 49.015625 6.21875 
Q 42.328125 -1.421875 30.609375 -1.421875 
Q 18.84375 -1.421875 12.171875 6.21875 
Q 5.515625 13.875 5.515625 27.296875 
Q 5.515625 40.765625 12.171875 48.375 
Q 18.84375 56 30.609375 56 
z
" id="DejaVuSans-6f"/>
      <path d="M 9.421875 54.6875 
L 18.40625 54.6875 
L 18.40625 0 
L 9.421875 0 
z
M 9.421875 75.984375 
L 18.40625 75.984375 
L 18.40625 64.59375 
L 9.421875 64.59375 
z
" id="DejaVuSans-69"/>
      <path d="M 18.3125 70.21875 
L 18.3125 54.6875 
L 36.8125 54.6875 
L 36.8125 47.703125 
L 18.3125 47.703125 
L 18.3125 18.015625 
Q 18.3125 11.328125 20.140625 9.421875 
Q 21.96875 7.515625 27.59375 7.515625 
L 36.8125 7.515625 
L 36.8125 0 
L 27.59375 0 
Q 17.1875 0 13.234375 3.875 
Q 9.28125 7.765625 9.28125 18.015625 
L 9.28125 47.703125 
L 2.6875 47.703125 
L 2.6875 54.6875 
L 9.28125 54.6875 
L 9.28125 70.21875 
z
" id="DejaVuSans-74"/>
      <path d="M 2.984375 54.6875 
L 12.5 54.6875 
L 29.59375 8.796875 
L 46.6875 54.6875 
L 56.203125 54.6875 
L 35.6875 0 
L 23.484375 0 
z
" id="DejaVuSans-76"/>
      <path d="M 41.109375 46.296875 
Q 39.59375 47.171875 37.8125 47.578125 
Q 36.03125 48 33.890625 48 
Q 26.265625 48 22.1875 43.046875 
Q 18.109375 38.09375 18.109375 28.8125 
L 18.109375 0 
L 9.078125 0 
L 9.078125 54.6875 
L 18.109375 54.6875 
L 18.109375 46.1875 
Q 20.953125 51.171875 25.484375 53.578125 
Q 30.03125 56 36.53125 56 
Q 37.453125 56 38.578125 55.875 
Q 39.703125 55.765625 41.0625 55.515625 
z
" id="DejaVuSans-72"/>
     </defs>
     <g transform="translate(199.175 331.276563)scale(0.1 -0.1)">
      <use xlink:href="#DejaVuSans-46"/>
      <use x="57.378906" xlink:href="#DejaVuSans-61"/>
      <use x="118.658203" xlink:href="#DejaVuSans-6c"/>
      <use x="146.441406" xlink:href="#DejaVuSans-73"/>
      <use x="198.541016" xlink:href="#DejaVuSans-65"/>
      <use x="260.064453" xlink:href="#DejaVuSans-20"/>
      <use x="291.851562" xlink:href="#DejaVuSans-70"/>
      <use x="355.328125" xlink:href="#DejaVuSans-6f"/>
      <use x="416.509766" xlink:href="#DejaVuSans-73"/>
      <use x="468.609375" xlink:href="#DejaVuSans-69"/>
      <use x="496.392578" xlink:href="#DejaVuSans-74"/>
      <use x="535.601562" xlink:href="#DejaVuSans-69"/>
      <use x="563.384766" xlink:href="#DejaVuSans-76"/>
      <use x="622.564453" xlink:href="#DejaVuSans-65"/>
      <use x="684.087891" xlink:href="#DejaVuSans-20"/>
      <use x="715.875" xlink:href="#DejaVuSans-72"/>
      <use x="756.988281" xlink:href="#DejaVuSans-61"/>
      <use x="818.267578" xlink:href="#DejaVuSans-74"/>
      <use x="857.476562" xlink:href="#DejaVuSans-65"/>
     </g>
    </g>
   </g>
   <g id="matplotlib.axis_2">
    <g id="ytick_1">
     <g id="line2d_7">
      <defs>
       <path d="M 0 0 
L -3.5 0 
" id="m23afadf1cd" style="stroke:#000000;stroke-width:0.8;"/>
      </defs>
      <g>
       <use style="stroke:#000000;stroke-width:0.8;" x="48.2" xlink:href="#m23afadf1cd" y="303"/>
      </g>
     </g>
     <g id="text_8">
      <!-- 0.0 -->
      <g transform="translate(25.296875 306.799219)scale(0.1 -0.1)">
       <use xlink:href="#DejaVuSans-30"/>
       <use x="63.623047" xlink:href="#DejaVuSans-2e"/>
       <use x="95.410156" xlink:href="#DejaVuSans-30"/>
      </g>
     </g>
    </g>
    <g id="ytick_2">
     <g id="line2d_8">
      <g>
       <use style="stroke:#000000;stroke-width:0.8;" x="48.2" xlink:href="#m23afadf1cd" y="245.693069"/>
      </g>
     </g>
     <g id="text_9">
      <!-- 0.2 -->
      <g transform="translate(25.296875 249.492288)scale(0.1 -0.1)">
       <use xlink:href="#DejaVuSans-30"/>
       <use x="63.623047" xlink:href="#DejaVuSans-2e"/>
       <use x="95.410156" xlink:href="#DejaVuSans-32"/>
      </g>
     </g>
    </g>
    <g id="ytick_3">
     <g id="line2d_9">
      <g>
       <use style="stroke:#000000;stroke-width:0.8;" x="48.2" xlink:href="#m23afadf1cd" y="188.386139"/>
      </g>
     </g>
     <g id="text_10">
      <!-- 0.4 -->
      <g transform="translate(25.296875 192.185357)scale(0.1 -0.1)">
       <use xlink:href="#DejaVuSans-30"/>
       <use x="63.623047" xlink:href="#DejaVuSans-2e"/>
       <use x="95.410156" xlink:href="#DejaVuSans-34"/>
      </g>
     </g>
    </g>
    <g id="ytick_4">
     <g id="line2d_10">
      <g>
       <use style="stroke:#000000;stroke-width:0.8;" x="48.2" xlink:href="#m23afadf1cd" y="131.079208"/>
      </g>
     </g>
     <g id="text_11">
      <!-- 0.6 -->
      <g transform="translate(25.296875 134.878427)scale(0.1 -0.1)">
       <use xlink:href="#DejaVuSans-30"/>
       <use x="63.623047" xlink:href="#DejaVuSans-2e"/>
       <use x="95.410156" xlink:href="#DejaVuSans-36"/>
      </g>
     </g>
    </g>
    <g id="ytick_5">
     <g id="line2d_11">
      <g>
       <use style="stroke:#000000;stroke-width:0.8;" x="48.2" xlink:href="#m23afadf1cd" y="73.772277"/>
      </g>
     </g>
     <g id="text_12">
      <!-- 0.8 -->
      <g transform="translate(25.296875 77.571496)scale(0.1 -0.1)">
       <use xlink:href="#DejaVuSans-30"/>
       <use x="63.623047" xlink:href="#DejaVuSans-2e"/>
       <use x="95.410156" xlink:href="#DejaVuSans-38"/>
      </g>
     </g>
    </g>
    <g id="ytick_6">
     <g id="line2d_12">
      <g>
       <use style="stroke:#000000;stroke-width:0.8;" x="48.2" xlink:href="#m23afadf1cd" y="16.465347"/>
      </g>
     </g>
     <g id="text_13">
      <!-- 1.0 -->
      <g transform="translate(25.296875 20.264565)scale(0.1 -0.1)">
       <use xlink:href="#DejaVuSans-31"/>
       <use x="63.623047" xlink:href="#DejaVuSans-2e"/>
       <use x="95.410156" xlink:href="#DejaVuSans-30"/>
      </g>
     </g>
    </g>
    <g id="text_14">
     <!-- True positive rate -->
     <defs>
      <path d="M -0.296875 72.90625 
L 61.375 72.90625 
L 61.375 64.59375 
L 35.5 64.59375 
L 35.5 0 
L 25.59375 0 
L 25.59375 64.59375 
L -0.296875 64.59375 
z
" id="DejaVuSans-54"/>
      <path d="M 8.5 21.578125 
L 8.5 54.6875 
L 17.484375 54.6875 
L 17.484375 21.921875 
Q 17.484375 14.15625 20.5 10.265625 
Q 23.53125 6.390625 29.59375 6.390625 
Q 36.859375 6.390625 41.078125 11.03125 
Q 45.3125 15.671875 45.3125 23.6875 
L 45.3125 54.6875 
L 54.296875 54.6875 
L 54.296875 0 
L 45.3125 0 
L 45.3125 8.40625 
Q 42.046875 3.421875 37.71875 1 
Q 33.40625 -1.421875 27.6875 -1.421875 
Q 18.265625 -1.421875 13.375 4.4375 
Q 8.5 10.296875 8.5 21.578125 
z
M 31.109375 56 
z
" id="DejaVuSans-75"/>
     </defs>
     <g transform="translate(19.217187 202.590625)rotate(-90)scale(0.1 -0.1)">
      <use xlink:href="#DejaVuSans-54"/>
      <use x="60.865234" xlink:href="#DejaVuSans-72"/>
      <use x="101.978516" xlink:href="#DejaVuSans-75"/>
      <use x="165.357422" xlink:href="#DejaVuSans-65"/>
      <use x="226.880859" xlink:href="#DejaVuSans-20"/>
      <use x="258.667969" xlink:href="#DejaVuSans-70"/>
      <use x="322.144531" xlink:href="#DejaVuSans-6f"/>
      <use x="383.326172" xlink:href="#DejaVuSans-73"/>
      <use x="435.425781" xlink:href="#DejaVuSans-69"/>
      <use x="463.208984" xlink:href="#DejaVuSans-74"/>
      <use x="502.417969" xlink:href="#DejaVuSans-69"/>
      <use x="530.201172" xlink:href="#DejaVuSans-76"/>
      <use x="589.380859" xlink:href="#DejaVuSans-65"/>
      <use x="650.904297" xlink:href="#DejaVuSans-20"/>
      <use x="682.691406" xlink:href="#DejaVuSans-72"/>
      <use x="723.804688" xlink:href="#DejaVuSans-61"/>
      <use x="785.083984" xlink:href="#DejaVuSans-74"/>
      <use x="824.292969" xlink:href="#DejaVuSans-65"/>
     </g>
    </g>
   </g>
   <g id="line2d_13">
    <path clip-path="url(#p9da1dd6171)" d="M 48.2 303 
L 52.178283 300.105711 
L 56.156566 297.211421 
L 60.134848 294.317132 
L 64.113131 291.422842 
L 68.091414 288.528553 
L 72.069697 285.634263 
L 76.04798 282.739974 
L 80.026263 279.845685 
L 84.004545 276.951395 
L 87.982828 274.057106 
L 91.961111 271.162816 
L 95.939394 268.268527 
L 99.917677 265.374237 
L 103.89596 262.479948 
L 107.874242 259.585659 
L 111.852525 256.691369 
L 115.830808 253.79708 
L 119.809091 250.90279 
L 123.787374 248.008501 
L 127.765657 245.114211 
L 131.743939 242.219922 
L 135.722222 239.325633 
L 139.700505 236.431343 
L 143.678788 233.537054 
L 147.657071 230.642764 
L 151.635354 227.748475 
L 155.613636 224.854185 
L 159.591919 221.959896 
L 163.570202 219.065607 
L 167.548485 216.171317 
L 171.526768 213.277028 
L 175.505051 210.382738 
L 179.483333 207.488449 
L 183.461616 204.594159 
L 187.439899 201.69987 
L 191.418182 198.805581 
L 195.396465 195.911291 
L 199.374747 193.017002 
L 203.35303 190.122712 
L 207.331313 187.228423 
L 211.309596 184.334133 
L 215.287879 181.439844 
L 219.266162 178.545555 
L 223.244444 175.651265 
L 227.222727 172.756976 
L 231.20101 169.862686 
L 235.179293 166.968397 
L 239.157576 164.074107 
L 243.135859 161.179818 
L 247.114141 158.285529 
L 251.092424 155.391239 
L 255.070707 152.49695 
L 259.04899 149.60266 
L 263.027273 146.708371 
L 267.005556 143.814081 
L 270.983838 140.919792 
L 274.962121 138.025503 
L 278.940404 135.131213 
L 282.918687 132.236924 
L 286.89697 129.342634 
L 290.875253 126.448345 
L 294.853535 123.554055 
L 298.831818 120.659766 
L 302.810101 117.765477 
L 306.788384 114.871187 
L 310.766667 111.976898 
L 314.744949 109.082608 
L 318.723232 106.188319 
L 322.701515 103.294029 
L 326.679798 100.39974 
L 330.658081 97.505451 
L 334.636364 94.611161 
L 338.614646 91.716872 
L 342.592929 88.822582 
L 346.571212 85.928293 
L 350.549495 83.034003 
L 354.527778 80.139714 
L 358.506061 77.245425 
L 362.484343 74.351135 
L 366.462626 71.456846 
L 370.440909 68.562556 
L 374.419192 65.668267 
L 378.397475 62.773977 
L 382.375758 59.879688 
L 386.35404 56.985399 
L 390.332323 54.091109 
L 394.310606 51.19682 
L 398.288889 48.30253 
L 402.267172 45.408241 
L 406.245455 42.513951 
L 410.223737 39.619662 
L 414.20202 36.725373 
L 418.180303 33.831083 
L 422.158586 30.936794 
L 426.136869 28.042504 
L 430.115152 25.148215 
L 434.093434 22.253925 
L 438.071717 19.359636 
L 442.05 16.465347 
" style="fill:none;stroke:#cccccc;stroke-dasharray:5.55,2.4;stroke-dashoffset:0;stroke-width:1.5;"/>
   </g>
   <g id="line2d_14">
    <path clip-path="url(#p9da1dd6171)" d="M 48.2 303 
L 52.1385 146.441227 
L 56.077 134.189339 
L 60.0155 124.400104 
L 63.954 119.291468 
L 67.8925 114.979573 
L 71.831 108.570908 
L 75.7695 102.416997 
L 79.708 98.888425 
L 83.6465 94.824955 
L 87.585 91.7656 
L 91.5235 89.899672 
L 95.462 87.941308 
L 99.4005 85.723909 
L 103.339 83.882692 
L 107.2775 80.72601 
L 111.216 78.196509 
L 115.1545 76.480449 
L 119.093 74.625509 
L 123.0315 72.784026 
L 126.97 71.450078 
L 130.9085 69.343652 
L 134.847 68.258165 
L 138.7855 67.380242 
L 142.724 66.561394 
L 146.6625 64.3479 
L 150.601 62.141768 
L 154.5395 61.045957 
L 158.478 60.225887 
L 162.4165 59.518608 
L 166.355 58.26981 
L 170.2935 57.137835 
L 174.232 56.310682 
L 178.1705 55.560799 
L 182.109 54.774431 
L 186.0475 54.272955 
L 189.986 53.450269 
L 193.9245 52.474998 
L 197.863 51.681315 
L 201.8015 51.16023 
L 205.74 50.280029 
L 209.6785 49.018278 
L 213.617 47.286033 
L 217.5555 46.595607 
L 221.494 46.123128 
L 225.4325 45.73279 
L 229.371 45.003413 
L 233.3095 44.048752 
L 237.248 43.567763 
L 241.1865 42.809288 
L 245.125 42.33733 
L 249.0635 41.907795 
L 253.002 41.433605 
L 256.9405 40.916613 
L 260.879 40.455778 
L 264.8175 40.083397 
L 268.756 39.581714 
L 272.6945 39.274074 
L 276.633 38.732848 
L 280.5715 38.205715 
L 284.51 37.597682 
L 288.4485 37.195715 
L 292.387 36.49988 
L 296.3255 36.019541 
L 300.264 35.558408 
L 304.2025 35.054171 
L 308.141 34.565282 
L 312.0795 33.891853 
L 316.018 33.305854 
L 319.9565 32.801737 
L 323.895 32.363337 
L 327.8335 31.932938 
L 331.772 31.469674 
L 335.7105 31.013194 
L 339.649 30.486237 
L 343.5875 30.091477 
L 347.526 29.642373 
L 351.4645 29.092689 
L 355.403 28.592223 
L 359.3415 28.178222 
L 363.28 27.863685 
L 367.2185 27.51148 
L 371.157 26.983878 
L 375.0955 26.391372 
L 379.034 25.873899 
L 382.9725 25.373477 
L 386.911 24.915993 
L 390.8495 24.541679 
L 394.788 23.962057 
L 398.7265 23.720453 
L 402.665 23.398034 
L 406.6035 23.175211 
L 410.542 23.004234 
L 414.4805 22.838301 
L 418.419 22.657356 
L 422.3575 22.451288 
L 426.296 22.284873 
L 430.2345 22.096588 
L 434.173 21.567126 
L 438.1115 19.132081 
L 442.05 16.465347 
" style="fill:none;stroke:#0000ff;stroke-linecap:square;stroke-width:1.5;"/>
   </g>
   <g id="line2d_15">
    <path clip-path="url(#p9da1dd6171)" d="M 48.2 303 
L 52.1385 219.447334 
L 56.077 196.315051 
L 60.0155 182.494533 
L 63.954 172.619548 
L 67.8925 164.043029 
L 71.831 157.301605 
L 75.7695 151.955032 
L 79.708 146.505471 
L 83.6465 141.910019 
L 87.585 137.923491 
L 91.5235 134.011481 
L 95.462 130.440988 
L 99.4005 127.177605 
L 103.339 124.334464 
L 107.2775 121.786147 
L 111.216 119.486243 
L 115.1545 116.999095 
L 119.093 114.655524 
L 123.0315 112.511404 
L 126.97 110.607883 
L 130.9085 108.589992 
L 134.847 106.906717 
L 138.7855 105.293622 
L 142.724 103.744522 
L 146.6625 102.188503 
L 150.601 100.80834 
L 154.5395 99.229002 
L 158.478 97.739712 
L 162.4165 96.460304 
L 166.355 95.344626 
L 170.2935 94.088931 
L 174.232 92.857838 
L 178.1705 91.69771 
L 182.109 90.418954 
L 186.0475 89.187839 
L 189.986 87.974793 
L 193.9245 86.82385 
L 197.863 85.647913 
L 201.8015 84.498129 
L 205.74 83.344607 
L 209.6785 82.406639 
L 213.617 81.071488 
L 217.5555 80.108143 
L 221.494 79.07963 
L 225.4325 77.900461 
L 229.371 76.696698 
L 233.3095 75.772659 
L 237.248 74.79412 
L 241.1865 73.716771 
L 245.125 72.793583 
L 249.0635 71.849291 
L 253.002 70.879316 
L 256.9405 69.962082 
L 260.879 68.57897 
L 264.8175 67.705576 
L 268.756 66.892945 
L 272.6945 66.114408 
L 276.633 64.965124 
L 280.5715 64.008037 
L 284.51 62.866333 
L 288.4485 61.625395 
L 292.387 60.678732 
L 296.3255 59.378608 
L 300.264 58.371781 
L 304.2025 57.419434 
L 308.141 56.202929 
L 312.0795 55.22205 
L 316.018 53.894751 
L 319.9565 52.839357 
L 323.895 51.649262 
L 327.8335 50.541509 
L 331.772 49.55374 
L 335.7105 48.485808 
L 339.649 47.202092 
L 343.5875 45.986318 
L 347.526 45.089463 
L 351.4645 44.053486 
L 355.403 42.927147 
L 359.3415 41.81713 
L 363.28 40.678283 
L 367.2185 39.788734 
L 371.157 38.741938 
L 375.0955 37.624599 
L 379.034 36.467741 
L 382.9725 35.226654 
L 386.911 34.097635 
L 390.8495 32.935465 
L 394.788 31.851154 
L 398.7265 30.802267 
L 402.665 29.64142 
L 406.6035 28.406777 
L 410.542 27.186699 
L 414.4805 26.217437 
L 418.419 24.974863 
L 422.3575 24.243749 
L 426.296 23.595383 
L 430.2345 22.833916 
L 434.173 22.330941 
L 438.1115 19.599454 
L 442.05 16.465347 
" style="fill:none;stroke:#0000ff;stroke-dasharray:5.55,2.4;stroke-dashoffset:0;stroke-width:1.5;"/>
   </g>
   <g id="line2d_16">
    <path clip-path="url(#p9da1dd6171)" d="M 48.2 303 
L 52.1385 142.896724 
L 56.077 131.177147 
L 60.0155 122.01686 
L 63.954 114.50144 
L 67.8925 108.299861 
L 71.831 101.117687 
L 75.7695 93.97694 
L 79.708 88.844134 
L 83.6465 83.815808 
L 87.585 78.49113 
L 91.5235 75.679285 
L 95.462 73.097507 
L 99.4005 70.221267 
L 103.339 68.499603 
L 107.2775 65.724844 
L 111.216 63.998304 
L 115.1545 62.36677 
L 119.093 60.66823 
L 123.0315 59.226295 
L 126.97 57.840729 
L 130.9085 56.278391 
L 134.847 55.004884 
L 138.7855 53.66251 
L 142.724 52.593162 
L 146.6625 51.50165 
L 150.601 50.15736 
L 154.5395 49.276402 
L 158.478 48.322807 
L 162.4165 47.326707 
L 166.355 44.836815 
L 170.2935 44.025899 
L 174.232 42.819643 
L 178.1705 41.921644 
L 182.109 41.422467 
L 186.0475 40.819759 
L 189.986 40.300384 
L 193.9245 39.677344 
L 197.863 39.208224 
L 201.8015 38.666801 
L 205.74 38.173047 
L 209.6785 37.506153 
L 213.617 36.481037 
L 217.5555 35.800871 
L 221.494 35.280797 
L 225.4325 34.710354 
L 229.371 34.186333 
L 233.3095 33.680245 
L 237.248 33.142809 
L 241.1865 32.899467 
L 245.125 32.514975 
L 249.0635 32.036554 
L 253.002 31.707607 
L 256.9405 31.140434 
L 260.879 30.614943 
L 264.8175 30.313875 
L 268.756 29.883954 
L 272.6945 29.630651 
L 276.633 29.256118 
L 280.5715 28.954694 
L 284.51 28.60163 
L 288.4485 28.104785 
L 292.387 27.528293 
L 296.3255 27.164369 
L 300.264 26.870602 
L 304.2025 26.662365 
L 308.141 26.430228 
L 312.0795 25.894261 
L 316.018 25.523868 
L 319.9565 25.229792 
L 323.895 25.086954 
L 327.8335 24.963446 
L 331.772 24.817228 
L 335.7105 24.655908 
L 339.649 24.430769 
L 343.5875 24.21174 
L 347.526 23.922564 
L 351.4645 23.660846 
L 355.403 23.427555 
L 359.3415 23.22834 
L 363.28 23.095085 
L 367.2185 22.960062 
L 371.157 22.793627 
L 375.0955 22.592718 
L 379.034 22.3137 
L 382.9725 22.081104 
L 386.911 21.870936 
L 390.8495 21.627384 
L 394.788 21.218987 
L 398.7265 21.007605 
L 402.665 20.787084 
L 406.6035 20.751131 
L 410.542 20.710473 
L 414.4805 20.656291 
L 418.419 20.616658 
L 422.3575 20.583378 
L 426.296 20.559275 
L 430.2345 20.533087 
L 434.173 20.412585 
L 438.1115 18.604695 
L 442.05 16.465347 
" style="fill:none;stroke:#008000;stroke-linecap:square;stroke-width:1.5;"/>
   </g>
   <g id="line2d_17">
    <path clip-path="url(#p9da1dd6171)" d="M 48.2 303 
L 52.1385 195.506929 
L 56.077 169.280499 
L 60.0155 153.652389 
L 63.954 143.64317 
L 67.8925 135.768212 
L 71.831 129.642645 
L 75.7695 124.486693 
L 79.708 119.843772 
L 83.6465 115.745724 
L 87.585 111.625007 
L 91.5235 108.312951 
L 95.462 105.09474 
L 99.4005 102.475148 
L 103.339 100.06939 
L 107.2775 97.765787 
L 111.216 95.685014 
L 115.1545 93.567591 
L 119.093 91.759662 
L 123.0315 90.001448 
L 126.97 88.317725 
L 130.9085 86.663363 
L 134.847 85.303317 
L 138.7855 83.936312 
L 142.724 82.638845 
L 146.6625 81.332509 
L 150.601 80.210955 
L 154.5395 78.863613 
L 158.478 77.908933 
L 162.4165 76.907544 
L 166.355 75.837437 
L 170.2935 74.862853 
L 174.232 73.900477 
L 178.1705 72.867015 
L 182.109 71.566806 
L 186.0475 70.577423 
L 189.986 69.566555 
L 193.9245 68.51273 
L 197.863 67.596928 
L 201.8015 66.593325 
L 205.74 65.700433 
L 209.6785 64.865151 
L 213.617 64.045344 
L 217.5555 63.130902 
L 221.494 62.169266 
L 225.4325 61.237934 
L 229.371 60.411761 
L 233.3095 59.47899 
L 237.248 58.58126 
L 241.1865 57.800335 
L 245.125 56.909161 
L 249.0635 56.056267 
L 253.002 55.22772 
L 256.9405 54.337519 
L 260.879 53.472177 
L 264.8175 52.587931 
L 268.756 51.850679 
L 272.6945 51.175077 
L 276.633 50.299963 
L 280.5715 49.516014 
L 284.51 48.692635 
L 288.4485 47.860919 
L 292.387 47.10462 
L 296.3255 46.394407 
L 300.264 45.739178 
L 304.2025 44.98076 
L 308.141 44.328552 
L 312.0795 43.575166 
L 316.018 42.904378 
L 319.9565 42.151145 
L 323.895 41.37104 
L 327.8335 40.533797 
L 331.772 39.783543 
L 335.7105 38.933321 
L 339.649 38.072668 
L 343.5875 37.18296 
L 347.526 36.398189 
L 351.4645 35.66653 
L 355.403 34.824215 
L 359.3415 33.997326 
L 363.28 33.238975 
L 367.2185 32.515324 
L 371.157 31.862107 
L 375.0955 31.165872 
L 379.034 30.393601 
L 382.9725 29.518122 
L 386.911 28.716002 
L 390.8495 27.900907 
L 394.788 27.036724 
L 398.7265 26.234511 
L 402.665 25.272585 
L 406.6035 24.522309 
L 410.542 23.733678 
L 414.4805 22.954799 
L 418.419 22.149715 
L 422.3575 21.677772 
L 426.296 21.450374 
L 430.2345 21.156359 
L 434.173 20.954337 
L 438.1115 18.951812 
L 442.05 16.465347 
" style="fill:none;stroke:#008000;stroke-dasharray:5.55,2.4;stroke-dashoffset:0;stroke-width:1.5;"/>
   </g>
   <g id="line2d_18">
    <path clip-path="url(#p9da1dd6171)" d="M 48.2 303 
L 52.1385 125.337326 
L 56.077 114.329855 
L 60.0155 105.982478 
L 63.954 99.070782 
L 67.8925 93.723019 
L 71.831 86.491432 
L 75.7695 79.87328 
L 79.708 75.03627 
L 83.6465 69.69061 
L 87.585 65.565515 
L 91.5235 64.046544 
L 95.462 62.347451 
L 99.4005 59.582489 
L 103.339 58.484423 
L 107.2775 56.7819 
L 111.216 55.59463 
L 115.1545 54.39868 
L 119.093 52.750283 
L 123.0315 51.461475 
L 126.97 49.89595 
L 130.9085 48.515787 
L 134.847 47.561662 
L 138.7855 46.823665 
L 142.724 46.159585 
L 146.6625 45.268507 
L 150.601 44.277945 
L 154.5395 43.703561 
L 158.478 43.227085 
L 162.4165 42.384855 
L 166.355 39.870136 
L 170.2935 39.356466 
L 174.232 38.201579 
L 178.1705 37.670429 
L 182.109 37.431279 
L 186.0475 37.056988 
L 189.986 36.631999 
L 193.9245 36.208829 
L 197.863 35.705961 
L 201.8015 35.391589 
L 205.74 34.977099 
L 209.6785 34.47782 
L 213.617 34.088496 
L 217.5555 33.653901 
L 221.494 33.130797 
L 225.4325 32.686421 
L 229.371 32.321694 
L 233.3095 31.961668 
L 237.248 31.653246 
L 241.1865 31.334546 
L 245.125 30.928258 
L 249.0635 30.454855 
L 253.002 30.040591 
L 256.9405 29.569241 
L 260.879 28.820094 
L 264.8175 28.62229 
L 268.756 28.269501 
L 272.6945 28.011152 
L 276.633 27.531034 
L 280.5715 27.186985 
L 284.51 26.808025 
L 288.4485 26.577783 
L 292.387 26.141563 
L 296.3255 25.732792 
L 300.264 25.311098 
L 304.2025 24.935568 
L 308.141 24.781456 
L 312.0795 24.571444 
L 316.018 24.16771 
L 319.9565 24.041176 
L 323.895 23.866475 
L 327.8335 23.75316 
L 331.772 23.575802 
L 335.7105 23.446346 
L 339.649 23.276658 
L 343.5875 23.12145 
L 347.526 23.053779 
L 351.4645 22.923231 
L 355.403 22.787358 
L 359.3415 22.654231 
L 363.28 22.550316 
L 367.2185 22.457862 
L 371.157 22.36607 
L 375.0955 22.219158 
L 379.034 21.950399 
L 382.9725 21.801152 
L 386.911 21.675558 
L 390.8495 21.511788 
L 394.788 21.145322 
L 398.7265 20.966255 
L 402.665 20.882678 
L 406.6035 20.86663 
L 410.542 20.843583 
L 414.4805 20.817101 
L 418.419 20.803733 
L 422.3575 20.792881 
L 426.296 20.776596 
L 430.2345 20.751366 
L 434.173 20.702607 
L 438.1115 18.796604 
L 442.05 16.465347 
" style="fill:none;stroke:#bfbf00;stroke-linecap:square;stroke-width:1.5;"/>
   </g>
   <g id="line2d_19">
    <path clip-path="url(#p9da1dd6171)" d="M 48.2 303 
L 52.1385 180.914681 
L 56.077 154.183157 
L 60.0155 137.925334 
L 63.954 127.50999 
L 67.8925 119.687115 
L 71.831 114.075409 
L 75.7695 109.578075 
L 79.708 105.145827 
L 83.6465 101.562777 
L 87.585 97.987813 
L 91.5235 94.019746 
L 95.462 90.610859 
L 99.4005 87.93527 
L 103.339 85.697737 
L 107.2775 83.921038 
L 111.216 82.074816 
L 115.1545 80.774187 
L 119.093 79.28621 
L 123.0315 77.924372 
L 126.97 76.631221 
L 130.9085 75.540481 
L 134.847 74.474618 
L 138.7855 73.422969 
L 142.724 72.442396 
L 146.6625 71.260414 
L 150.601 70.171234 
L 154.5395 68.952141 
L 158.478 67.674927 
L 162.4165 66.719997 
L 166.355 65.629901 
L 170.2935 64.534439 
L 174.232 63.517393 
L 178.1705 62.466249 
L 182.109 61.616706 
L 186.0475 60.94965 
L 189.986 60.137498 
L 193.9245 59.453647 
L 197.863 58.635194 
L 201.8015 57.735798 
L 205.74 56.859053 
L 209.6785 56.065879 
L 213.617 55.317683 
L 217.5555 54.613983 
L 221.494 54.045438 
L 225.4325 53.406261 
L 229.371 52.714505 
L 233.3095 52.081865 
L 237.248 51.444344 
L 241.1865 50.866612 
L 245.125 50.213839 
L 249.0635 49.402768 
L 253.002 48.327276 
L 256.9405 47.386878 
L 260.879 46.509874 
L 264.8175 45.724363 
L 268.756 44.968634 
L 272.6945 44.163449 
L 276.633 43.482051 
L 280.5715 42.659239 
L 284.51 41.792407 
L 288.4485 41.197434 
L 292.387 40.576679 
L 296.3255 39.93689 
L 300.264 39.402694 
L 304.2025 38.810528 
L 308.141 38.359123 
L 312.0795 37.937189 
L 316.018 37.371185 
L 319.9565 36.83754 
L 323.895 36.217838 
L 327.8335 35.613966 
L 331.772 34.967248 
L 335.7105 34.34471 
L 339.649 33.822659 
L 343.5875 33.394116 
L 347.526 32.903308 
L 351.4645 32.414552 
L 355.403 31.90639 
L 359.3415 31.434084 
L 363.28 30.960129 
L 367.2185 30.299112 
L 371.157 29.723516 
L 375.0955 29.196902 
L 379.034 28.501808 
L 382.9725 27.797277 
L 386.911 27.071226 
L 390.8495 26.419772 
L 394.788 25.593627 
L 398.7265 24.900249 
L 402.665 23.959355 
L 406.6035 23.182456 
L 410.542 22.529178 
L 414.4805 22.142341 
L 418.419 21.721568 
L 422.3575 21.453109 
L 426.296 21.295366 
L 430.2345 21.198446 
L 434.173 21.062213 
L 438.1115 19.078735 
L 442.05 16.465347 
" style="fill:none;stroke:#bfbf00;stroke-dasharray:5.55,2.4;stroke-dashoffset:0;stroke-width:1.5;"/>
   </g>
   <g id="line2d_20">
    <path clip-path="url(#p9da1dd6171)" d="M 48.2 303 
L 52.1385 109.279349 
L 56.077 97.596879 
L 60.0155 91.677384 
L 63.954 86.045742 
L 67.8925 82.214853 
L 71.831 76.377053 
L 75.7695 70.288078 
L 79.708 67.435091 
L 83.6465 65.529785 
L 87.585 63.129897 
L 91.5235 62.459494 
L 95.462 60.938729 
L 99.4005 57.803215 
L 103.339 55.688618 
L 107.2775 53.500762 
L 111.216 52.02045 
L 115.1545 50.965112 
L 119.093 49.358879 
L 123.0315 47.856804 
L 126.97 46.906956 
L 130.9085 45.980494 
L 134.847 44.984556 
L 138.7855 44.391098 
L 142.724 43.304039 
L 146.6625 42.480873 
L 150.601 41.594626 
L 154.5395 41.182072 
L 158.478 40.742134 
L 162.4165 39.715049 
L 166.355 37.920949 
L 170.2935 37.003804 
L 174.232 36.548878 
L 178.1705 36.013305 
L 182.109 35.52168 
L 186.0475 35.178441 
L 189.986 34.930417 
L 193.9245 34.418643 
L 197.863 34.103945 
L 201.8015 33.840763 
L 205.74 33.616663 
L 209.6785 33.289571 
L 213.617 32.96915 
L 217.5555 32.660699 
L 221.494 32.280985 
L 225.4325 31.856527 
L 229.371 31.485668 
L 233.3095 31.278717 
L 237.248 30.945787 
L 241.1865 30.484972 
L 245.125 30.063377 
L 249.0635 29.43491 
L 253.002 28.895549 
L 256.9405 28.480148 
L 260.879 28.016702 
L 264.8175 27.814442 
L 268.756 27.593745 
L 272.6945 27.331752 
L 276.633 27.04019 
L 280.5715 26.83058 
L 284.51 26.5384 
L 288.4485 26.091113 
L 292.387 25.671395 
L 296.3255 25.450392 
L 300.264 24.993616 
L 304.2025 24.403079 
L 308.141 24.013678 
L 312.0795 23.53562 
L 316.018 23.3685 
L 319.9565 23.27974 
L 323.895 23.212914 
L 327.8335 23.040305 
L 331.772 22.955836 
L 335.7105 22.832882 
L 339.649 22.421276 
L 343.5875 22.30234 
L 347.526 22.210794 
L 351.4645 22.150313 
L 355.403 21.908127 
L 359.3415 21.605542 
L 363.28 21.545969 
L 367.2185 21.488052 
L 371.157 21.378732 
L 375.0955 21.205909 
L 379.034 20.899507 
L 382.9725 20.788889 
L 386.911 20.572941 
L 390.8495 20.462417 
L 394.788 20.181176 
L 398.7265 19.974285 
L 402.665 19.802318 
L 406.6035 19.779628 
L 410.542 19.766208 
L 414.4805 19.757089 
L 418.419 19.719243 
L 422.3575 19.701273 
L 426.296 19.691787 
L 430.2345 19.679783 
L 434.173 19.652133 
L 438.1115 18.235036 
L 442.05 16.465347 
" style="fill:none;stroke:#ff0000;stroke-linecap:square;stroke-width:1.5;"/>
   </g>
   <g id="line2d_21">
    <path clip-path="url(#p9da1dd6171)" d="M 48.2 303 
L 52.1385 173.423976 
L 56.077 149.210139 
L 60.0155 136.228164 
L 63.954 127.226816 
L 67.8925 120.568272 
L 71.831 114.110086 
L 75.7695 108.914215 
L 79.708 104.112885 
L 83.6465 100.13301 
L 87.585 95.760186 
L 91.5235 92.271805 
L 95.462 89.264291 
L 99.4005 86.55295 
L 103.339 84.082149 
L 107.2775 81.69682 
L 111.216 79.568855 
L 115.1545 77.532819 
L 119.093 75.340308 
L 123.0315 73.46544 
L 126.97 71.655647 
L 130.9085 70.080425 
L 134.847 68.38991 
L 138.7855 67.098744 
L 142.724 66.003263 
L 146.6625 65.019664 
L 150.601 64.030912 
L 154.5395 62.884722 
L 158.478 61.957437 
L 162.4165 61.107353 
L 166.355 60.408872 
L 170.2935 59.815873 
L 174.232 59.12781 
L 178.1705 58.476557 
L 182.109 57.89311 
L 186.0475 57.274708 
L 189.986 56.649665 
L 193.9245 55.956301 
L 197.863 55.225576 
L 201.8015 54.196925 
L 205.74 53.4192 
L 209.6785 52.644865 
L 213.617 51.84152 
L 217.5555 50.964796 
L 221.494 50.214661 
L 225.4325 49.527605 
L 229.371 48.883866 
L 233.3095 48.211394 
L 237.248 47.639224 
L 241.1865 46.988319 
L 245.125 46.344092 
L 249.0635 45.869432 
L 253.002 45.2884 
L 256.9405 44.810009 
L 260.879 44.354086 
L 264.8175 43.777097 
L 268.756 42.995129 
L 272.6945 42.339623 
L 276.633 41.589826 
L 280.5715 40.882287 
L 284.51 40.16129 
L 288.4485 39.568087 
L 292.387 38.893915 
L 296.3255 38.13052 
L 300.264 37.342631 
L 304.2025 36.699662 
L 308.141 36.038296 
L 312.0795 35.2814 
L 316.018 34.606941 
L 319.9565 34.06582 
L 323.895 33.62362 
L 327.8335 33.104855 
L 331.772 32.444963 
L 335.7105 31.80504 
L 339.649 31.351891 
L 343.5875 30.877874 
L 347.526 30.381101 
L 351.4645 29.941487 
L 355.403 29.443334 
L 359.3415 28.948838 
L 363.28 28.210068 
L 367.2185 27.596478 
L 371.157 27.058665 
L 375.0955 26.593168 
L 379.034 26.143653 
L 382.9725 25.668247 
L 386.911 25.164607 
L 390.8495 24.562943 
L 394.788 23.903377 
L 398.7265 23.343973 
L 402.665 22.801362 
L 406.6035 22.289569 
L 410.542 21.88895 
L 414.4805 21.559216 
L 418.419 21.289728 
L 422.3575 20.959882 
L 426.296 20.799638 
L 430.2345 20.737235 
L 434.173 20.713724 
L 438.1115 18.935302 
L 442.05 16.465347 
" style="fill:none;stroke:#ff0000;stroke-dasharray:5.55,2.4;stroke-dashoffset:0;stroke-width:1.5;"/>
   </g>
   <g id="patch_3">
    <path d="M 48.2 303 
L 48.2 13.6 
" style="fill:none;stroke:#000000;stroke-linecap:square;stroke-linejoin:miter;stroke-width:0.8;"/>
   </g>
   <g id="patch_4">
    <path d="M 442.05 303 
L 442.05 13.6 
" style="fill:none;stroke:#000000;stroke-linecap:square;stroke-linejoin:miter;stroke-width:0.8;"/>
   </g>
   <g id="patch_5">
    <path d="M 48.2 303 
L 442.05 303 
" style="fill:none;stroke:#000000;stroke-linecap:square;stroke-linejoin:miter;stroke-width:0.8;"/>
   </g>
   <g id="patch_6">
    <path d="M 48.2 13.6 
L 442.05 13.6 
" style="fill:none;stroke:#000000;stroke-linecap:square;stroke-linejoin:miter;stroke-width:0.8;"/>
   </g>
   <g id="legend_1">
    <g id="patch_7">
     <path d="M 162.614063 298 
L 435.05 298 
Q 437.05 298 437.05 296 
L 437.05 179.4875 
Q 437.05 177.4875 435.05 177.4875 
L 162.614063 177.4875 
Q 160.614063 177.4875 160.614063 179.4875 
L 160.614063 296 
Q 160.614063 298 162.614063 298 
z
" style="fill:#ffffff;opacity:0.8;stroke:#cccccc;stroke-linejoin:miter;"/>
    </g>
    <g id="line2d_22">
     <path d="M 164.614063 185.5875 
L 184.614063 185.5875 
" style="fill:none;stroke:#0000ff;stroke-linecap:square;stroke-width:1.5;"/>
    </g>
    <g id="line2d_23"/>
    <g id="text_15">
     <!-- $\mu$ 1 seed node(s) mean AUC: 0.88 (std: 0.15) -->
     <defs>
      <path d="M -1.3125 -20.796875 
L 13.375 54.6875 
L 22.40625 54.6875 
L 15.765625 20.65625 
Q 15.578125 19.625 15.421875 18.359375 
Q 15.28125 17.09375 15.28125 15.828125 
Q 15.28125 11.28125 18.140625 8.828125 
Q 21 6.390625 26.3125 6.390625 
Q 33.546875 6.390625 37.984375 10.484375 
Q 42.4375 14.59375 44 22.796875 
L 50.203125 54.6875 
L 59.1875 54.6875 
L 51.03125 12.640625 
Q 50.828125 11.71875 50.75 11.03125 
Q 50.6875 10.359375 50.6875 9.8125 
Q 50.6875 8.296875 51.296875 7.59375 
Q 51.90625 6.890625 53.21875 6.890625 
Q 53.71875 6.890625 54.5625 7.125 
Q 55.421875 7.375 56.984375 8.015625 
L 55.609375 0.78125 
Q 53.46875 -0.296875 51.515625 -0.859375 
Q 49.5625 -1.421875 47.703125 -1.421875 
Q 44.484375 -1.421875 42.65625 0.625 
Q 40.828125 2.6875 40.828125 6.296875 
Q 38.09375 2.390625 34.296875 0.484375 
Q 30.515625 -1.421875 25.390625 -1.421875 
Q 20.84375 -1.421875 17.453125 0.671875 
Q 14.0625 2.78125 12.984375 6.203125 
L 7.71875 -20.796875 
z
" id="DejaVuSans-Oblique-3bc"/>
      <path d="M 45.40625 46.390625 
L 45.40625 75.984375 
L 54.390625 75.984375 
L 54.390625 0 
L 45.40625 0 
L 45.40625 8.203125 
Q 42.578125 3.328125 38.25 0.953125 
Q 33.9375 -1.421875 27.875 -1.421875 
Q 17.96875 -1.421875 11.734375 6.484375 
Q 5.515625 14.40625 5.515625 27.296875 
Q 5.515625 40.1875 11.734375 48.09375 
Q 17.96875 56 27.875 56 
Q 33.9375 56 38.25 53.625 
Q 42.578125 51.265625 45.40625 46.390625 
z
M 14.796875 27.296875 
Q 14.796875 17.390625 18.875 11.75 
Q 22.953125 6.109375 30.078125 6.109375 
Q 37.203125 6.109375 41.296875 11.75 
Q 45.40625 17.390625 45.40625 27.296875 
Q 45.40625 37.203125 41.296875 42.84375 
Q 37.203125 48.484375 30.078125 48.484375 
Q 22.953125 48.484375 18.875 42.84375 
Q 14.796875 37.203125 14.796875 27.296875 
z
" id="DejaVuSans-64"/>
      <path d="M 54.890625 33.015625 
L 54.890625 0 
L 45.90625 0 
L 45.90625 32.71875 
Q 45.90625 40.484375 42.875 44.328125 
Q 39.84375 48.1875 33.796875 48.1875 
Q 26.515625 48.1875 22.3125 43.546875 
Q 18.109375 38.921875 18.109375 30.90625 
L 18.109375 0 
L 9.078125 0 
L 9.078125 54.6875 
L 18.109375 54.6875 
L 18.109375 46.1875 
Q 21.34375 51.125 25.703125 53.5625 
Q 30.078125 56 35.796875 56 
Q 45.21875 56 50.046875 50.171875 
Q 54.890625 44.34375 54.890625 33.015625 
z
" id="DejaVuSans-6e"/>
      <path d="M 31 75.875 
Q 24.46875 64.65625 21.28125 53.65625 
Q 18.109375 42.671875 18.109375 31.390625 
Q 18.109375 20.125 21.3125 9.0625 
Q 24.515625 -2 31 -13.1875 
L 23.1875 -13.1875 
Q 15.875 -1.703125 12.234375 9.375 
Q 8.59375 20.453125 8.59375 31.390625 
Q 8.59375 42.28125 12.203125 53.3125 
Q 15.828125 64.359375 23.1875 75.875 
z
" id="DejaVuSans-28"/>
      <path d="M 8.015625 75.875 
L 15.828125 75.875 
Q 23.140625 64.359375 26.78125 53.3125 
Q 30.421875 42.28125 30.421875 31.390625 
Q 30.421875 20.453125 26.78125 9.375 
Q 23.140625 -1.703125 15.828125 -13.1875 
L 8.015625 -13.1875 
Q 14.5 -2 17.703125 9.0625 
Q 20.90625 20.125 20.90625 31.390625 
Q 20.90625 42.671875 17.703125 53.65625 
Q 14.5 64.65625 8.015625 75.875 
z
" id="DejaVuSans-29"/>
      <path d="M 52 44.1875 
Q 55.375 50.25 60.0625 53.125 
Q 64.75 56 71.09375 56 
Q 79.640625 56 84.28125 50.015625 
Q 88.921875 44.046875 88.921875 33.015625 
L 88.921875 0 
L 79.890625 0 
L 79.890625 32.71875 
Q 79.890625 40.578125 77.09375 44.375 
Q 74.3125 48.1875 68.609375 48.1875 
Q 61.625 48.1875 57.5625 43.546875 
Q 53.515625 38.921875 53.515625 30.90625 
L 53.515625 0 
L 44.484375 0 
L 44.484375 32.71875 
Q 44.484375 40.625 41.703125 44.40625 
Q 38.921875 48.1875 33.109375 48.1875 
Q 26.21875 48.1875 22.15625 43.53125 
Q 18.109375 38.875 18.109375 30.90625 
L 18.109375 0 
L 9.078125 0 
L 9.078125 54.6875 
L 18.109375 54.6875 
L 18.109375 46.1875 
Q 21.1875 51.21875 25.484375 53.609375 
Q 29.78125 56 35.6875 56 
Q 41.65625 56 45.828125 52.96875 
Q 50 49.953125 52 44.1875 
z
" id="DejaVuSans-6d"/>
      <path d="M 34.1875 63.1875 
L 20.796875 26.90625 
L 47.609375 26.90625 
z
M 28.609375 72.90625 
L 39.796875 72.90625 
L 67.578125 0 
L 57.328125 0 
L 50.6875 18.703125 
L 17.828125 18.703125 
L 11.1875 0 
L 0.78125 0 
z
" id="DejaVuSans-41"/>
      <path d="M 8.6875 72.90625 
L 18.609375 72.90625 
L 18.609375 28.609375 
Q 18.609375 16.890625 22.84375 11.734375 
Q 27.09375 6.59375 36.625 6.59375 
Q 46.09375 6.59375 50.34375 11.734375 
Q 54.59375 16.890625 54.59375 28.609375 
L 54.59375 72.90625 
L 64.5 72.90625 
L 64.5 27.390625 
Q 64.5 13.140625 57.4375 5.859375 
Q 50.390625 -1.421875 36.625 -1.421875 
Q 22.796875 -1.421875 15.734375 5.859375 
Q 8.6875 13.140625 8.6875 27.390625 
z
" id="DejaVuSans-55"/>
      <path d="M 64.40625 67.28125 
L 64.40625 56.890625 
Q 59.421875 61.53125 53.78125 63.8125 
Q 48.140625 66.109375 41.796875 66.109375 
Q 29.296875 66.109375 22.65625 58.46875 
Q 16.015625 50.828125 16.015625 36.375 
Q 16.015625 21.96875 22.65625 14.328125 
Q 29.296875 6.6875 41.796875 6.6875 
Q 48.140625 6.6875 53.78125 8.984375 
Q 59.421875 11.28125 64.40625 15.921875 
L 64.40625 5.609375 
Q 59.234375 2.09375 53.4375 0.328125 
Q 47.65625 -1.421875 41.21875 -1.421875 
Q 24.65625 -1.421875 15.125 8.703125 
Q 5.609375 18.84375 5.609375 36.375 
Q 5.609375 53.953125 15.125 64.078125 
Q 24.65625 74.21875 41.21875 74.21875 
Q 47.75 74.21875 53.53125 72.484375 
Q 59.328125 70.75 64.40625 67.28125 
z
" id="DejaVuSans-43"/>
      <path d="M 11.71875 12.40625 
L 22.015625 12.40625 
L 22.015625 0 
L 11.71875 0 
z
M 11.71875 51.703125 
L 22.015625 51.703125 
L 22.015625 39.3125 
L 11.71875 39.3125 
z
" id="DejaVuSans-3a"/>
      <path d="M 10.796875 72.90625 
L 49.515625 72.90625 
L 49.515625 64.59375 
L 19.828125 64.59375 
L 19.828125 46.734375 
Q 21.96875 47.46875 24.109375 47.828125 
Q 26.265625 48.1875 28.421875 48.1875 
Q 40.625 48.1875 47.75 41.5 
Q 54.890625 34.8125 54.890625 23.390625 
Q 54.890625 11.625 47.5625 5.09375 
Q 40.234375 -1.421875 26.90625 -1.421875 
Q 22.3125 -1.421875 17.546875 -0.640625 
Q 12.796875 0.140625 7.71875 1.703125 
L 7.71875 11.625 
Q 12.109375 9.234375 16.796875 8.0625 
Q 21.484375 6.890625 26.703125 6.890625 
Q 35.15625 6.890625 40.078125 11.328125 
Q 45.015625 15.765625 45.015625 23.390625 
Q 45.015625 31 40.078125 35.4375 
Q 35.15625 39.890625 26.703125 39.890625 
Q 22.75 39.890625 18.8125 39.015625 
Q 14.890625 38.140625 10.796875 36.28125 
z
" id="DejaVuSans-35"/>
     </defs>
     <g transform="translate(192.614063 189.0875)scale(0.1 -0.1)">
      <use transform="translate(0 0.015625)" xlink:href="#DejaVuSans-Oblique-3bc"/>
      <use transform="translate(63.623047 0.015625)" xlink:href="#DejaVuSans-20"/>
      <use transform="translate(95.410156 0.015625)" xlink:href="#DejaVuSans-31"/>
      <use transform="translate(159.033203 0.015625)" xlink:href="#DejaVuSans-20"/>
      <use transform="translate(190.820312 0.015625)" xlink:href="#DejaVuSans-73"/>
      <use transform="translate(242.919922 0.015625)" xlink:href="#DejaVuSans-65"/>
      <use transform="translate(304.443359 0.015625)" xlink:href="#DejaVuSans-65"/>
      <use transform="translate(365.966797 0.015625)" xlink:href="#DejaVuSans-64"/>
      <use transform="translate(429.443359 0.015625)" xlink:href="#DejaVuSans-20"/>
      <use transform="translate(461.230469 0.015625)" xlink:href="#DejaVuSans-6e"/>
      <use transform="translate(524.609375 0.015625)" xlink:href="#DejaVuSans-6f"/>
      <use transform="translate(585.791016 0.015625)" xlink:href="#DejaVuSans-64"/>
      <use transform="translate(649.267578 0.015625)" xlink:href="#DejaVuSans-65"/>
      <use transform="translate(710.791016 0.015625)" xlink:href="#DejaVuSans-28"/>
      <use transform="translate(749.804688 0.015625)" xlink:href="#DejaVuSans-73"/>
      <use transform="translate(801.904297 0.015625)" xlink:href="#DejaVuSans-29"/>
      <use transform="translate(840.917969 0.015625)" xlink:href="#DejaVuSans-20"/>
      <use transform="translate(872.705078 0.015625)" xlink:href="#DejaVuSans-6d"/>
      <use transform="translate(970.117188 0.015625)" xlink:href="#DejaVuSans-65"/>
      <use transform="translate(1031.640625 0.015625)" xlink:href="#DejaVuSans-61"/>
      <use transform="translate(1092.919922 0.015625)" xlink:href="#DejaVuSans-6e"/>
      <use transform="translate(1156.298828 0.015625)" xlink:href="#DejaVuSans-20"/>
      <use transform="translate(1188.085938 0.015625)" xlink:href="#DejaVuSans-41"/>
      <use transform="translate(1256.494141 0.015625)" xlink:href="#DejaVuSans-55"/>
      <use transform="translate(1329.6875 0.015625)" xlink:href="#DejaVuSans-43"/>
      <use transform="translate(1399.511719 0.015625)" xlink:href="#DejaVuSans-3a"/>
      <use transform="translate(1433.203125 0.015625)" xlink:href="#DejaVuSans-20"/>
      <use transform="translate(1464.990234 0.015625)" xlink:href="#DejaVuSans-30"/>
      <use transform="translate(1528.613281 0.015625)" xlink:href="#DejaVuSans-2e"/>
      <use transform="translate(1560.369141 0.015625)" xlink:href="#DejaVuSans-38"/>
      <use transform="translate(1623.992188 0.015625)" xlink:href="#DejaVuSans-38"/>
      <use transform="translate(1687.615234 0.015625)" xlink:href="#DejaVuSans-20"/>
      <use transform="translate(1719.402344 0.015625)" xlink:href="#DejaVuSans-28"/>
      <use transform="translate(1758.416016 0.015625)" xlink:href="#DejaVuSans-73"/>
      <use transform="translate(1810.515625 0.015625)" xlink:href="#DejaVuSans-74"/>
      <use transform="translate(1849.724609 0.015625)" xlink:href="#DejaVuSans-64"/>
      <use transform="translate(1913.201172 0.015625)" xlink:href="#DejaVuSans-3a"/>
      <use transform="translate(1946.892578 0.015625)" xlink:href="#DejaVuSans-20"/>
      <use transform="translate(1978.679688 0.015625)" xlink:href="#DejaVuSans-30"/>
      <use transform="translate(2042.302734 0.015625)" xlink:href="#DejaVuSans-2e"/>
      <use transform="translate(2074.089844 0.015625)" xlink:href="#DejaVuSans-31"/>
      <use transform="translate(2137.712891 0.015625)" xlink:href="#DejaVuSans-35"/>
      <use transform="translate(2201.335938 0.015625)" xlink:href="#DejaVuSans-29"/>
     </g>
    </g>
    <g id="line2d_24">
     <path d="M 164.614063 200.285937 
L 184.614063 200.285937 
" style="fill:none;stroke:#0000ff;stroke-dasharray:5.55,2.4;stroke-dashoffset:0;stroke-width:1.5;"/>
    </g>
    <g id="line2d_25"/>
    <g id="text_16">
     <!-- rwr 1 seed node(s) mean AUC: 0.78 (std: 0.15) -->
     <defs>
      <path d="M 4.203125 54.6875 
L 13.1875 54.6875 
L 24.421875 12.015625 
L 35.59375 54.6875 
L 46.1875 54.6875 
L 57.421875 12.015625 
L 68.609375 54.6875 
L 77.59375 54.6875 
L 63.28125 0 
L 52.6875 0 
L 40.921875 44.828125 
L 29.109375 0 
L 18.5 0 
z
" id="DejaVuSans-77"/>
      <path d="M 8.203125 72.90625 
L 55.078125 72.90625 
L 55.078125 68.703125 
L 28.609375 0 
L 18.3125 0 
L 43.21875 64.59375 
L 8.203125 64.59375 
z
" id="DejaVuSans-37"/>
     </defs>
     <g transform="translate(192.614063 203.785937)scale(0.1 -0.1)">
      <use xlink:href="#DejaVuSans-72"/>
      <use x="41.113281" xlink:href="#DejaVuSans-77"/>
      <use x="122.900391" xlink:href="#DejaVuSans-72"/>
      <use x="164.013672" xlink:href="#DejaVuSans-20"/>
      <use x="195.800781" xlink:href="#DejaVuSans-31"/>
      <use x="259.423828" xlink:href="#DejaVuSans-20"/>
      <use x="291.210938" xlink:href="#DejaVuSans-73"/>
      <use x="343.310547" xlink:href="#DejaVuSans-65"/>
      <use x="404.833984" xlink:href="#DejaVuSans-65"/>
      <use x="466.357422" xlink:href="#DejaVuSans-64"/>
      <use x="529.833984" xlink:href="#DejaVuSans-20"/>
      <use x="561.621094" xlink:href="#DejaVuSans-6e"/>
      <use x="625" xlink:href="#DejaVuSans-6f"/>
      <use x="686.181641" xlink:href="#DejaVuSans-64"/>
      <use x="749.658203" xlink:href="#DejaVuSans-65"/>
      <use x="811.181641" xlink:href="#DejaVuSans-28"/>
      <use x="850.195312" xlink:href="#DejaVuSans-73"/>
      <use x="902.294922" xlink:href="#DejaVuSans-29"/>
      <use x="941.308594" xlink:href="#DejaVuSans-20"/>
      <use x="973.095703" xlink:href="#DejaVuSans-6d"/>
      <use x="1070.507812" xlink:href="#DejaVuSans-65"/>
      <use x="1132.03125" xlink:href="#DejaVuSans-61"/>
      <use x="1193.310547" xlink:href="#DejaVuSans-6e"/>
      <use x="1256.689453" xlink:href="#DejaVuSans-20"/>
      <use x="1288.476562" xlink:href="#DejaVuSans-41"/>
      <use x="1356.884766" xlink:href="#DejaVuSans-55"/>
      <use x="1430.078125" xlink:href="#DejaVuSans-43"/>
      <use x="1499.902344" xlink:href="#DejaVuSans-3a"/>
      <use x="1533.59375" xlink:href="#DejaVuSans-20"/>
      <use x="1565.380859" xlink:href="#DejaVuSans-30"/>
      <use x="1629.003906" xlink:href="#DejaVuSans-2e"/>
      <use x="1660.791016" xlink:href="#DejaVuSans-37"/>
      <use x="1724.414062" xlink:href="#DejaVuSans-38"/>
      <use x="1788.037109" xlink:href="#DejaVuSans-20"/>
      <use x="1819.824219" xlink:href="#DejaVuSans-28"/>
      <use x="1858.837891" xlink:href="#DejaVuSans-73"/>
      <use x="1910.9375" xlink:href="#DejaVuSans-74"/>
      <use x="1950.146484" xlink:href="#DejaVuSans-64"/>
      <use x="2013.623047" xlink:href="#DejaVuSans-3a"/>
      <use x="2047.314453" xlink:href="#DejaVuSans-20"/>
      <use x="2079.101562" xlink:href="#DejaVuSans-30"/>
      <use x="2142.724609" xlink:href="#DejaVuSans-2e"/>
      <use x="2174.511719" xlink:href="#DejaVuSans-31"/>
      <use x="2238.134766" xlink:href="#DejaVuSans-35"/>
      <use x="2301.757812" xlink:href="#DejaVuSans-29"/>
     </g>
    </g>
    <g id="line2d_26">
     <path d="M 164.614063 214.965625 
L 184.614063 214.965625 
" style="fill:none;stroke:#008000;stroke-linecap:square;stroke-width:1.5;"/>
    </g>
    <g id="line2d_27"/>
    <g id="text_17">
     <!-- $\mu$ 3 seed node(s) mean AUC: 0.91 (std: 0.10) -->
     <defs>
      <path d="M 40.578125 39.3125 
Q 47.65625 37.796875 51.625 33 
Q 55.609375 28.21875 55.609375 21.1875 
Q 55.609375 10.40625 48.1875 4.484375 
Q 40.765625 -1.421875 27.09375 -1.421875 
Q 22.515625 -1.421875 17.65625 -0.515625 
Q 12.796875 0.390625 7.625 2.203125 
L 7.625 11.71875 
Q 11.71875 9.328125 16.59375 8.109375 
Q 21.484375 6.890625 26.8125 6.890625 
Q 36.078125 6.890625 40.9375 10.546875 
Q 45.796875 14.203125 45.796875 21.1875 
Q 45.796875 27.640625 41.28125 31.265625 
Q 36.765625 34.90625 28.71875 34.90625 
L 20.21875 34.90625 
L 20.21875 43.015625 
L 29.109375 43.015625 
Q 36.375 43.015625 40.234375 45.921875 
Q 44.09375 48.828125 44.09375 54.296875 
Q 44.09375 59.90625 40.109375 62.90625 
Q 36.140625 65.921875 28.71875 65.921875 
Q 24.65625 65.921875 20.015625 65.03125 
Q 15.375 64.15625 9.8125 62.3125 
L 9.8125 71.09375 
Q 15.4375 72.65625 20.34375 73.4375 
Q 25.25 74.21875 29.59375 74.21875 
Q 40.828125 74.21875 47.359375 69.109375 
Q 53.90625 64.015625 53.90625 55.328125 
Q 53.90625 49.265625 50.4375 45.09375 
Q 46.96875 40.921875 40.578125 39.3125 
z
" id="DejaVuSans-33"/>
      <path d="M 10.984375 1.515625 
L 10.984375 10.5 
Q 14.703125 8.734375 18.5 7.8125 
Q 22.3125 6.890625 25.984375 6.890625 
Q 35.75 6.890625 40.890625 13.453125 
Q 46.046875 20.015625 46.78125 33.40625 
Q 43.953125 29.203125 39.59375 26.953125 
Q 35.25 24.703125 29.984375 24.703125 
Q 19.046875 24.703125 12.671875 31.3125 
Q 6.296875 37.9375 6.296875 49.421875 
Q 6.296875 60.640625 12.9375 67.421875 
Q 19.578125 74.21875 30.609375 74.21875 
Q 43.265625 74.21875 49.921875 64.515625 
Q 56.59375 54.828125 56.59375 36.375 
Q 56.59375 19.140625 48.40625 8.859375 
Q 40.234375 -1.421875 26.421875 -1.421875 
Q 22.703125 -1.421875 18.890625 -0.6875 
Q 15.09375 0.046875 10.984375 1.515625 
z
M 30.609375 32.421875 
Q 37.25 32.421875 41.125 36.953125 
Q 45.015625 41.5 45.015625 49.421875 
Q 45.015625 57.28125 41.125 61.84375 
Q 37.25 66.40625 30.609375 66.40625 
Q 23.96875 66.40625 20.09375 61.84375 
Q 16.21875 57.28125 16.21875 49.421875 
Q 16.21875 41.5 20.09375 36.953125 
Q 23.96875 32.421875 30.609375 32.421875 
z
" id="DejaVuSans-39"/>
     </defs>
     <g transform="translate(192.614063 218.465625)scale(0.1 -0.1)">
      <use transform="translate(0 0.015625)" xlink:href="#DejaVuSans-Oblique-3bc"/>
      <use transform="translate(63.623047 0.015625)" xlink:href="#DejaVuSans-20"/>
      <use transform="translate(95.410156 0.015625)" xlink:href="#DejaVuSans-33"/>
      <use transform="translate(159.033203 0.015625)" xlink:href="#DejaVuSans-20"/>
      <use transform="translate(190.820312 0.015625)" xlink:href="#DejaVuSans-73"/>
      <use transform="translate(242.919922 0.015625)" xlink:href="#DejaVuSans-65"/>
      <use transform="translate(304.443359 0.015625)" xlink:href="#DejaVuSans-65"/>
      <use transform="translate(365.966797 0.015625)" xlink:href="#DejaVuSans-64"/>
      <use transform="translate(429.443359 0.015625)" xlink:href="#DejaVuSans-20"/>
      <use transform="translate(461.230469 0.015625)" xlink:href="#DejaVuSans-6e"/>
      <use transform="translate(524.609375 0.015625)" xlink:href="#DejaVuSans-6f"/>
      <use transform="translate(585.791016 0.015625)" xlink:href="#DejaVuSans-64"/>
      <use transform="translate(649.267578 0.015625)" xlink:href="#DejaVuSans-65"/>
      <use transform="translate(710.791016 0.015625)" xlink:href="#DejaVuSans-28"/>
      <use transform="translate(749.804688 0.015625)" xlink:href="#DejaVuSans-73"/>
      <use transform="translate(801.904297 0.015625)" xlink:href="#DejaVuSans-29"/>
      <use transform="translate(840.917969 0.015625)" xlink:href="#DejaVuSans-20"/>
      <use transform="translate(872.705078 0.015625)" xlink:href="#DejaVuSans-6d"/>
      <use transform="translate(970.117188 0.015625)" xlink:href="#DejaVuSans-65"/>
      <use transform="translate(1031.640625 0.015625)" xlink:href="#DejaVuSans-61"/>
      <use transform="translate(1092.919922 0.015625)" xlink:href="#DejaVuSans-6e"/>
      <use transform="translate(1156.298828 0.015625)" xlink:href="#DejaVuSans-20"/>
      <use transform="translate(1188.085938 0.015625)" xlink:href="#DejaVuSans-41"/>
      <use transform="translate(1256.494141 0.015625)" xlink:href="#DejaVuSans-55"/>
      <use transform="translate(1329.6875 0.015625)" xlink:href="#DejaVuSans-43"/>
      <use transform="translate(1399.511719 0.015625)" xlink:href="#DejaVuSans-3a"/>
      <use transform="translate(1433.203125 0.015625)" xlink:href="#DejaVuSans-20"/>
      <use transform="translate(1464.990234 0.015625)" xlink:href="#DejaVuSans-30"/>
      <use transform="translate(1528.613281 0.015625)" xlink:href="#DejaVuSans-2e"/>
      <use transform="translate(1560.400391 0.015625)" xlink:href="#DejaVuSans-39"/>
      <use transform="translate(1624.023438 0.015625)" xlink:href="#DejaVuSans-31"/>
      <use transform="translate(1687.646484 0.015625)" xlink:href="#DejaVuSans-20"/>
      <use transform="translate(1719.433594 0.015625)" xlink:href="#DejaVuSans-28"/>
      <use transform="translate(1758.447266 0.015625)" xlink:href="#DejaVuSans-73"/>
      <use transform="translate(1810.546875 0.015625)" xlink:href="#DejaVuSans-74"/>
      <use transform="translate(1849.755859 0.015625)" xlink:href="#DejaVuSans-64"/>
      <use transform="translate(1913.232422 0.015625)" xlink:href="#DejaVuSans-3a"/>
      <use transform="translate(1946.923828 0.015625)" xlink:href="#DejaVuSans-20"/>
      <use transform="translate(1978.710938 0.015625)" xlink:href="#DejaVuSans-30"/>
      <use transform="translate(2042.333984 0.015625)" xlink:href="#DejaVuSans-2e"/>
      <use transform="translate(2074.121094 0.015625)" xlink:href="#DejaVuSans-31"/>
      <use transform="translate(2137.744141 0.015625)" xlink:href="#DejaVuSans-30"/>
      <use transform="translate(2201.367188 0.015625)" xlink:href="#DejaVuSans-29"/>
     </g>
    </g>
    <g id="line2d_28">
     <path d="M 164.614063 229.664062 
L 184.614063 229.664062 
" style="fill:none;stroke:#008000;stroke-dasharray:5.55,2.4;stroke-dashoffset:0;stroke-width:1.5;"/>
    </g>
    <g id="line2d_29"/>
    <g id="text_18">
     <!-- rwr 3 seed node(s) mean AUC: 0.83 (std: 0.13) -->
     <g transform="translate(192.614063 233.164062)scale(0.1 -0.1)">
      <use xlink:href="#DejaVuSans-72"/>
      <use x="41.113281" xlink:href="#DejaVuSans-77"/>
      <use x="122.900391" xlink:href="#DejaVuSans-72"/>
      <use x="164.013672" xlink:href="#DejaVuSans-20"/>
      <use x="195.800781" xlink:href="#DejaVuSans-33"/>
      <use x="259.423828" xlink:href="#DejaVuSans-20"/>
      <use x="291.210938" xlink:href="#DejaVuSans-73"/>
      <use x="343.310547" xlink:href="#DejaVuSans-65"/>
      <use x="404.833984" xlink:href="#DejaVuSans-65"/>
      <use x="466.357422" xlink:href="#DejaVuSans-64"/>
      <use x="529.833984" xlink:href="#DejaVuSans-20"/>
      <use x="561.621094" xlink:href="#DejaVuSans-6e"/>
      <use x="625" xlink:href="#DejaVuSans-6f"/>
      <use x="686.181641" xlink:href="#DejaVuSans-64"/>
      <use x="749.658203" xlink:href="#DejaVuSans-65"/>
      <use x="811.181641" xlink:href="#DejaVuSans-28"/>
      <use x="850.195312" xlink:href="#DejaVuSans-73"/>
      <use x="902.294922" xlink:href="#DejaVuSans-29"/>
      <use x="941.308594" xlink:href="#DejaVuSans-20"/>
      <use x="973.095703" xlink:href="#DejaVuSans-6d"/>
      <use x="1070.507812" xlink:href="#DejaVuSans-65"/>
      <use x="1132.03125" xlink:href="#DejaVuSans-61"/>
      <use x="1193.310547" xlink:href="#DejaVuSans-6e"/>
      <use x="1256.689453" xlink:href="#DejaVuSans-20"/>
      <use x="1288.476562" xlink:href="#DejaVuSans-41"/>
      <use x="1356.884766" xlink:href="#DejaVuSans-55"/>
      <use x="1430.078125" xlink:href="#DejaVuSans-43"/>
      <use x="1499.902344" xlink:href="#DejaVuSans-3a"/>
      <use x="1533.59375" xlink:href="#DejaVuSans-20"/>
      <use x="1565.380859" xlink:href="#DejaVuSans-30"/>
      <use x="1629.003906" xlink:href="#DejaVuSans-2e"/>
      <use x="1660.791016" xlink:href="#DejaVuSans-38"/>
      <use x="1724.414062" xlink:href="#DejaVuSans-33"/>
      <use x="1788.037109" xlink:href="#DejaVuSans-20"/>
      <use x="1819.824219" xlink:href="#DejaVuSans-28"/>
      <use x="1858.837891" xlink:href="#DejaVuSans-73"/>
      <use x="1910.9375" xlink:href="#DejaVuSans-74"/>
      <use x="1950.146484" xlink:href="#DejaVuSans-64"/>
      <use x="2013.623047" xlink:href="#DejaVuSans-3a"/>
      <use x="2047.314453" xlink:href="#DejaVuSans-20"/>
      <use x="2079.101562" xlink:href="#DejaVuSans-30"/>
      <use x="2142.724609" xlink:href="#DejaVuSans-2e"/>
      <use x="2174.511719" xlink:href="#DejaVuSans-31"/>
      <use x="2238.134766" xlink:href="#DejaVuSans-33"/>
      <use x="2301.757812" xlink:href="#DejaVuSans-29"/>
     </g>
    </g>
    <g id="line2d_30">
     <path d="M 164.614063 244.34375 
L 184.614063 244.34375 
" style="fill:none;stroke:#bfbf00;stroke-linecap:square;stroke-width:1.5;"/>
    </g>
    <g id="line2d_31"/>
    <g id="text_19">
     <!-- $\mu$ 7 seed node(s) mean AUC: 0.92 (std: 0.09) -->
     <g transform="translate(192.614063 247.84375)scale(0.1 -0.1)">
      <use transform="translate(0 0.015625)" xlink:href="#DejaVuSans-Oblique-3bc"/>
      <use transform="translate(63.623047 0.015625)" xlink:href="#DejaVuSans-20"/>
      <use transform="translate(95.410156 0.015625)" xlink:href="#DejaVuSans-37"/>
      <use transform="translate(159.033203 0.015625)" xlink:href="#DejaVuSans-20"/>
      <use transform="translate(190.820312 0.015625)" xlink:href="#DejaVuSans-73"/>
      <use transform="translate(242.919922 0.015625)" xlink:href="#DejaVuSans-65"/>
      <use transform="translate(304.443359 0.015625)" xlink:href="#DejaVuSans-65"/>
      <use transform="translate(365.966797 0.015625)" xlink:href="#DejaVuSans-64"/>
      <use transform="translate(429.443359 0.015625)" xlink:href="#DejaVuSans-20"/>
      <use transform="translate(461.230469 0.015625)" xlink:href="#DejaVuSans-6e"/>
      <use transform="translate(524.609375 0.015625)" xlink:href="#DejaVuSans-6f"/>
      <use transform="translate(585.791016 0.015625)" xlink:href="#DejaVuSans-64"/>
      <use transform="translate(649.267578 0.015625)" xlink:href="#DejaVuSans-65"/>
      <use transform="translate(710.791016 0.015625)" xlink:href="#DejaVuSans-28"/>
      <use transform="translate(749.804688 0.015625)" xlink:href="#DejaVuSans-73"/>
      <use transform="translate(801.904297 0.015625)" xlink:href="#DejaVuSans-29"/>
      <use transform="translate(840.917969 0.015625)" xlink:href="#DejaVuSans-20"/>
      <use transform="translate(872.705078 0.015625)" xlink:href="#DejaVuSans-6d"/>
      <use transform="translate(970.117188 0.015625)" xlink:href="#DejaVuSans-65"/>
      <use transform="translate(1031.640625 0.015625)" xlink:href="#DejaVuSans-61"/>
      <use transform="translate(1092.919922 0.015625)" xlink:href="#DejaVuSans-6e"/>
      <use transform="translate(1156.298828 0.015625)" xlink:href="#DejaVuSans-20"/>
      <use transform="translate(1188.085938 0.015625)" xlink:href="#DejaVuSans-41"/>
      <use transform="translate(1256.494141 0.015625)" xlink:href="#DejaVuSans-55"/>
      <use transform="translate(1329.6875 0.015625)" xlink:href="#DejaVuSans-43"/>
      <use transform="translate(1399.511719 0.015625)" xlink:href="#DejaVuSans-3a"/>
      <use transform="translate(1433.203125 0.015625)" xlink:href="#DejaVuSans-20"/>
      <use transform="translate(1464.990234 0.015625)" xlink:href="#DejaVuSans-30"/>
      <use transform="translate(1528.613281 0.015625)" xlink:href="#DejaVuSans-2e"/>
      <use transform="translate(1560.400391 0.015625)" xlink:href="#DejaVuSans-39"/>
      <use transform="translate(1624.007812 0.015625)" xlink:href="#DejaVuSans-32"/>
      <use transform="translate(1687.630859 0.015625)" xlink:href="#DejaVuSans-20"/>
      <use transform="translate(1719.417969 0.015625)" xlink:href="#DejaVuSans-28"/>
      <use transform="translate(1758.431641 0.015625)" xlink:href="#DejaVuSans-73"/>
      <use transform="translate(1810.53125 0.015625)" xlink:href="#DejaVuSans-74"/>
      <use transform="translate(1849.740234 0.015625)" xlink:href="#DejaVuSans-64"/>
      <use transform="translate(1913.216797 0.015625)" xlink:href="#DejaVuSans-3a"/>
      <use transform="translate(1946.908203 0.015625)" xlink:href="#DejaVuSans-20"/>
      <use transform="translate(1978.695312 0.015625)" xlink:href="#DejaVuSans-30"/>
      <use transform="translate(2042.318359 0.015625)" xlink:href="#DejaVuSans-2e"/>
      <use transform="translate(2074.105469 0.015625)" xlink:href="#DejaVuSans-30"/>
      <use transform="translate(2137.728516 0.015625)" xlink:href="#DejaVuSans-39"/>
      <use transform="translate(2201.351562 0.015625)" xlink:href="#DejaVuSans-29"/>
     </g>
    </g>
    <g id="line2d_32">
     <path d="M 164.614063 259.042188 
L 184.614063 259.042188 
" style="fill:none;stroke:#bfbf00;stroke-dasharray:5.55,2.4;stroke-dashoffset:0;stroke-width:1.5;"/>
    </g>
    <g id="line2d_33"/>
    <g id="text_20">
     <!-- rwr 7 seed node(s) mean AUC: 0.86 (std: 0.12) -->
     <g transform="translate(192.614063 262.542188)scale(0.1 -0.1)">
      <use xlink:href="#DejaVuSans-72"/>
      <use x="41.113281" xlink:href="#DejaVuSans-77"/>
      <use x="122.900391" xlink:href="#DejaVuSans-72"/>
      <use x="164.013672" xlink:href="#DejaVuSans-20"/>
      <use x="195.800781" xlink:href="#DejaVuSans-37"/>
      <use x="259.423828" xlink:href="#DejaVuSans-20"/>
      <use x="291.210938" xlink:href="#DejaVuSans-73"/>
      <use x="343.310547" xlink:href="#DejaVuSans-65"/>
      <use x="404.833984" xlink:href="#DejaVuSans-65"/>
      <use x="466.357422" xlink:href="#DejaVuSans-64"/>
      <use x="529.833984" xlink:href="#DejaVuSans-20"/>
      <use x="561.621094" xlink:href="#DejaVuSans-6e"/>
      <use x="625" xlink:href="#DejaVuSans-6f"/>
      <use x="686.181641" xlink:href="#DejaVuSans-64"/>
      <use x="749.658203" xlink:href="#DejaVuSans-65"/>
      <use x="811.181641" xlink:href="#DejaVuSans-28"/>
      <use x="850.195312" xlink:href="#DejaVuSans-73"/>
      <use x="902.294922" xlink:href="#DejaVuSans-29"/>
      <use x="941.308594" xlink:href="#DejaVuSans-20"/>
      <use x="973.095703" xlink:href="#DejaVuSans-6d"/>
      <use x="1070.507812" xlink:href="#DejaVuSans-65"/>
      <use x="1132.03125" xlink:href="#DejaVuSans-61"/>
      <use x="1193.310547" xlink:href="#DejaVuSans-6e"/>
      <use x="1256.689453" xlink:href="#DejaVuSans-20"/>
      <use x="1288.476562" xlink:href="#DejaVuSans-41"/>
      <use x="1356.884766" xlink:href="#DejaVuSans-55"/>
      <use x="1430.078125" xlink:href="#DejaVuSans-43"/>
      <use x="1499.902344" xlink:href="#DejaVuSans-3a"/>
      <use x="1533.59375" xlink:href="#DejaVuSans-20"/>
      <use x="1565.380859" xlink:href="#DejaVuSans-30"/>
      <use x="1629.003906" xlink:href="#DejaVuSans-2e"/>
      <use x="1660.791016" xlink:href="#DejaVuSans-38"/>
      <use x="1724.414062" xlink:href="#DejaVuSans-36"/>
      <use x="1788.037109" xlink:href="#DejaVuSans-20"/>
      <use x="1819.824219" xlink:href="#DejaVuSans-28"/>
      <use x="1858.837891" xlink:href="#DejaVuSans-73"/>
      <use x="1910.9375" xlink:href="#DejaVuSans-74"/>
      <use x="1950.146484" xlink:href="#DejaVuSans-64"/>
      <use x="2013.623047" xlink:href="#DejaVuSans-3a"/>
      <use x="2047.314453" xlink:href="#DejaVuSans-20"/>
      <use x="2079.101562" xlink:href="#DejaVuSans-30"/>
      <use x="2142.724609" xlink:href="#DejaVuSans-2e"/>
      <use x="2174.511719" xlink:href="#DejaVuSans-31"/>
      <use x="2238.134766" xlink:href="#DejaVuSans-32"/>
      <use x="2301.757812" xlink:href="#DejaVuSans-29"/>
     </g>
    </g>
    <g id="line2d_34">
     <path d="M 164.614063 273.721875 
L 184.614063 273.721875 
" style="fill:none;stroke:#ff0000;stroke-linecap:square;stroke-width:1.5;"/>
    </g>
    <g id="line2d_35"/>
    <g id="text_21">
     <!-- $\mu$ 15 seed node(s) mean AUC: 0.93 (std: 0.08) -->
     <g transform="translate(192.614063 277.221875)scale(0.1 -0.1)">
      <use transform="translate(0 0.015625)" xlink:href="#DejaVuSans-Oblique-3bc"/>
      <use transform="translate(63.623047 0.015625)" xlink:href="#DejaVuSans-20"/>
      <use transform="translate(95.410156 0.015625)" xlink:href="#DejaVuSans-31"/>
      <use transform="translate(159.033203 0.015625)" xlink:href="#DejaVuSans-35"/>
      <use transform="translate(222.65625 0.015625)" xlink:href="#DejaVuSans-20"/>
      <use transform="translate(254.443359 0.015625)" xlink:href="#DejaVuSans-73"/>
      <use transform="translate(306.542969 0.015625)" xlink:href="#DejaVuSans-65"/>
      <use transform="translate(368.066406 0.015625)" xlink:href="#DejaVuSans-65"/>
      <use transform="translate(429.589844 0.015625)" xlink:href="#DejaVuSans-64"/>
      <use transform="translate(493.066406 0.015625)" xlink:href="#DejaVuSans-20"/>
      <use transform="translate(524.853516 0.015625)" xlink:href="#DejaVuSans-6e"/>
      <use transform="translate(588.232422 0.015625)" xlink:href="#DejaVuSans-6f"/>
      <use transform="translate(649.414062 0.015625)" xlink:href="#DejaVuSans-64"/>
      <use transform="translate(712.890625 0.015625)" xlink:href="#DejaVuSans-65"/>
      <use transform="translate(774.414062 0.015625)" xlink:href="#DejaVuSans-28"/>
      <use transform="translate(813.427734 0.015625)" xlink:href="#DejaVuSans-73"/>
      <use transform="translate(865.527344 0.015625)" xlink:href="#DejaVuSans-29"/>
      <use transform="translate(904.541016 0.015625)" xlink:href="#DejaVuSans-20"/>
      <use transform="translate(936.328125 0.015625)" xlink:href="#DejaVuSans-6d"/>
      <use transform="translate(1033.740234 0.015625)" xlink:href="#DejaVuSans-65"/>
      <use transform="translate(1095.263672 0.015625)" xlink:href="#DejaVuSans-61"/>
      <use transform="translate(1156.542969 0.015625)" xlink:href="#DejaVuSans-6e"/>
      <use transform="translate(1219.921875 0.015625)" xlink:href="#DejaVuSans-20"/>
      <use transform="translate(1251.708984 0.015625)" xlink:href="#DejaVuSans-41"/>
      <use transform="translate(1320.117188 0.015625)" xlink:href="#DejaVuSans-55"/>
      <use transform="translate(1393.310547 0.015625)" xlink:href="#DejaVuSans-43"/>
      <use transform="translate(1463.134766 0.015625)" xlink:href="#DejaVuSans-3a"/>
      <use transform="translate(1496.826172 0.015625)" xlink:href="#DejaVuSans-20"/>
      <use transform="translate(1528.613281 0.015625)" xlink:href="#DejaVuSans-30"/>
      <use transform="translate(1592.236328 0.015625)" xlink:href="#DejaVuSans-2e"/>
      <use transform="translate(1624.023438 0.015625)" xlink:href="#DejaVuSans-39"/>
      <use transform="translate(1687.646484 0.015625)" xlink:href="#DejaVuSans-33"/>
      <use transform="translate(1751.269531 0.015625)" xlink:href="#DejaVuSans-20"/>
      <use transform="translate(1783.056641 0.015625)" xlink:href="#DejaVuSans-28"/>
      <use transform="translate(1822.070312 0.015625)" xlink:href="#DejaVuSans-73"/>
      <use transform="translate(1874.169922 0.015625)" xlink:href="#DejaVuSans-74"/>
      <use transform="translate(1913.378906 0.015625)" xlink:href="#DejaVuSans-64"/>
      <use transform="translate(1976.855469 0.015625)" xlink:href="#DejaVuSans-3a"/>
      <use transform="translate(2010.546875 0.015625)" xlink:href="#DejaVuSans-20"/>
      <use transform="translate(2042.333984 0.015625)" xlink:href="#DejaVuSans-30"/>
      <use transform="translate(2105.957031 0.015625)" xlink:href="#DejaVuSans-2e"/>
      <use transform="translate(2137.744141 0.015625)" xlink:href="#DejaVuSans-30"/>
      <use transform="translate(2201.367188 0.015625)" xlink:href="#DejaVuSans-38"/>
      <use transform="translate(2264.990234 0.015625)" xlink:href="#DejaVuSans-29"/>
     </g>
    </g>
    <g id="line2d_36">
     <path d="M 164.614063 288.420313 
L 184.614063 288.420313 
" style="fill:none;stroke:#ff0000;stroke-dasharray:5.55,2.4;stroke-dashoffset:0;stroke-width:1.5;"/>
    </g>
    <g id="line2d_37"/>
    <g id="text_22">
     <!-- rwr 15 seed node(s) mean AUC: 0.87 (std: 0.10) -->
     <g transform="translate(192.614063 291.920313)scale(0.1 -0.1)">
      <use xlink:href="#DejaVuSans-72"/>
      <use x="41.113281" xlink:href="#DejaVuSans-77"/>
      <use x="122.900391" xlink:href="#DejaVuSans-72"/>
      <use x="164.013672" xlink:href="#DejaVuSans-20"/>
      <use x="195.800781" xlink:href="#DejaVuSans-31"/>
      <use x="259.423828" xlink:href="#DejaVuSans-35"/>
      <use x="323.046875" xlink:href="#DejaVuSans-20"/>
      <use x="354.833984" xlink:href="#DejaVuSans-73"/>
      <use x="406.933594" xlink:href="#DejaVuSans-65"/>
      <use x="468.457031" xlink:href="#DejaVuSans-65"/>
      <use x="529.980469" xlink:href="#DejaVuSans-64"/>
      <use x="593.457031" xlink:href="#DejaVuSans-20"/>
      <use x="625.244141" xlink:href="#DejaVuSans-6e"/>
      <use x="688.623047" xlink:href="#DejaVuSans-6f"/>
      <use x="749.804688" xlink:href="#DejaVuSans-64"/>
      <use x="813.28125" xlink:href="#DejaVuSans-65"/>
      <use x="874.804688" xlink:href="#DejaVuSans-28"/>
      <use x="913.818359" xlink:href="#DejaVuSans-73"/>
      <use x="965.917969" xlink:href="#DejaVuSans-29"/>
      <use x="1004.931641" xlink:href="#DejaVuSans-20"/>
      <use x="1036.71875" xlink:href="#DejaVuSans-6d"/>
      <use x="1134.130859" xlink:href="#DejaVuSans-65"/>
      <use x="1195.654297" xlink:href="#DejaVuSans-61"/>
      <use x="1256.933594" xlink:href="#DejaVuSans-6e"/>
      <use x="1320.3125" xlink:href="#DejaVuSans-20"/>
      <use x="1352.099609" xlink:href="#DejaVuSans-41"/>
      <use x="1420.507812" xlink:href="#DejaVuSans-55"/>
      <use x="1493.701172" xlink:href="#DejaVuSans-43"/>
      <use x="1563.525391" xlink:href="#DejaVuSans-3a"/>
      <use x="1597.216797" xlink:href="#DejaVuSans-20"/>
      <use x="1629.003906" xlink:href="#DejaVuSans-30"/>
      <use x="1692.626953" xlink:href="#DejaVuSans-2e"/>
      <use x="1724.414062" xlink:href="#DejaVuSans-38"/>
      <use x="1788.037109" xlink:href="#DejaVuSans-37"/>
      <use x="1851.660156" xlink:href="#DejaVuSans-20"/>
      <use x="1883.447266" xlink:href="#DejaVuSans-28"/>
      <use x="1922.460938" xlink:href="#DejaVuSans-73"/>
      <use x="1974.560547" xlink:href="#DejaVuSans-74"/>
      <use x="2013.769531" xlink:href="#DejaVuSans-64"/>
      <use x="2077.246094" xlink:href="#DejaVuSans-3a"/>
      <use x="2110.9375" xlink:href="#DejaVuSans-20"/>
      <use x="2142.724609" xlink:href="#DejaVuSans-30"/>
      <use x="2206.347656" xlink:href="#DejaVuSans-2e"/>
      <use x="2238.134766" xlink:href="#DejaVuSans-31"/>
      <use x="2301.757812" xlink:href="#DejaVuSans-30"/>
      <use x="2365.380859" xlink:href="#DejaVuSans-29"/>
     </g>
    </g>
   </g>
  </g>
 </g>
 <defs>
  <clipPath id="p9da1dd6171">
   <rect height="289.4" width="393.85" x="48.2" y="13.6"/>
  </clipPath>
 </defs>
</svg>
