<?xml version="1.0" encoding="utf-8" standalone="no"?>
<!DOCTYPE svg PUBLIC "-//W3C//DTD SVG 1.1//EN"
  "http://www.w3.org/Graphics/SVG/1.1/DTD/svg11.dtd">
<!-- Created with matplotlib (http://matplotlib.org/) -->
<svg height="345pt" version="1.1" viewBox="0 0 460 345" width="460pt" xmlns="http://www.w3.org/2000/svg" xmlns:xlink="http://www.w3.org/1999/xlink">
 <defs>
  <style type="text/css">
*{stroke-linecap:butt;stroke-linejoin:round;}
  </style>
 </defs>
 <g id="figure_1">
  <g id="patch_1">
   <path d="M 0 345.6 
L 460.8 345.6 
L 460.8 0 
L 0 0 
z
" style="fill:#ffffff;"/>
  </g>
  <g id="axes_1">
   <g id="patch_2">
    <path d="M 48.2 303 
L 442.05 303 
L 442.05 13.6 
L 48.2 13.6 
z
" style="fill:#ffffff;"/>
   </g>
   <g id="matplotlib.axis_1">
    <g id="xtick_1">
     <g id="line2d_1">
      <defs>
       <path d="M 0 0 
L 0 3.5 
" id="m92d5e12154" style="stroke:#000000;stroke-width:0.8;"/>
      </defs>
      <g>
       <use style="stroke:#000000;stroke-width:0.8;" x="48.2" xlink:href="#m92d5e12154" y="303"/>
      </g>
     </g>
     <g id="text_1">
      <!-- 0.0 -->
      <defs>
       <path d="M 31.78125 66.40625 
Q 24.171875 66.40625 20.328125 58.90625 
Q 16.5 51.421875 16.5 36.375 
Q 16.5 21.390625 20.328125 13.890625 
Q 24.171875 6.390625 31.78125 6.390625 
Q 39.453125 6.390625 43.28125 13.890625 
Q 47.125 21.390625 47.125 36.375 
Q 47.125 51.421875 43.28125 58.90625 
Q 39.453125 66.40625 31.78125 66.40625 
z
M 31.78125 74.21875 
Q 44.046875 74.21875 50.515625 64.515625 
Q 56.984375 54.828125 56.984375 36.375 
Q 56.984375 17.96875 50.515625 8.265625 
Q 44.046875 -1.421875 31.78125 -1.421875 
Q 19.53125 -1.421875 13.0625 8.265625 
Q 6.59375 17.96875 6.59375 36.375 
Q 6.59375 54.828125 13.0625 64.515625 
Q 19.53125 74.21875 31.78125 74.21875 
z
" id="DejaVuSans-30"/>
       <path d="M 10.6875 12.40625 
L 21 12.40625 
L 21 0 
L 10.6875 0 
z
" id="DejaVuSans-2e"/>
      </defs>
      <g transform="translate(40.248438 317.598437)scale(0.1 -0.1)">
       <use xlink:href="#DejaVuSans-30"/>
       <use x="63.623047" xlink:href="#DejaVuSans-2e"/>
       <use x="95.410156" xlink:href="#DejaVuSans-30"/>
      </g>
     </g>
    </g>
    <g id="xtick_2">
     <g id="line2d_2">
      <g>
       <use style="stroke:#000000;stroke-width:0.8;" x="126.97" xlink:href="#m92d5e12154" y="303"/>
      </g>
     </g>
     <g id="text_2">
      <!-- 0.2 -->
      <defs>
       <path d="M 19.1875 8.296875 
L 53.609375 8.296875 
L 53.609375 0 
L 7.328125 0 
L 7.328125 8.296875 
Q 12.9375 14.109375 22.625 23.890625 
Q 32.328125 33.6875 34.8125 36.53125 
Q 39.546875 41.84375 41.421875 45.53125 
Q 43.3125 49.21875 43.3125 52.78125 
Q 43.3125 58.59375 39.234375 62.25 
Q 35.15625 65.921875 28.609375 65.921875 
Q 23.96875 65.921875 18.8125 64.3125 
Q 13.671875 62.703125 7.8125 59.421875 
L 7.8125 69.390625 
Q 13.765625 71.78125 18.9375 73 
Q 24.125 74.21875 28.421875 74.21875 
Q 39.75 74.21875 46.484375 68.546875 
Q 53.21875 62.890625 53.21875 53.421875 
Q 53.21875 48.921875 51.53125 44.890625 
Q 49.859375 40.875 45.40625 35.40625 
Q 44.1875 33.984375 37.640625 27.21875 
Q 31.109375 20.453125 19.1875 8.296875 
z
" id="DejaVuSans-32"/>
      </defs>
      <g transform="translate(119.018438 317.598437)scale(0.1 -0.1)">
       <use xlink:href="#DejaVuSans-30"/>
       <use x="63.623047" xlink:href="#DejaVuSans-2e"/>
       <use x="95.410156" xlink:href="#DejaVuSans-32"/>
      </g>
     </g>
    </g>
    <g id="xtick_3">
     <g id="line2d_3">
      <g>
       <use style="stroke:#000000;stroke-width:0.8;" x="205.74" xlink:href="#m92d5e12154" y="303"/>
      </g>
     </g>
     <g id="text_3">
      <!-- 0.4 -->
      <defs>
       <path d="M 37.796875 64.3125 
L 12.890625 25.390625 
L 37.796875 25.390625 
z
M 35.203125 72.90625 
L 47.609375 72.90625 
L 47.609375 25.390625 
L 58.015625 25.390625 
L 58.015625 17.1875 
L 47.609375 17.1875 
L 47.609375 0 
L 37.796875 0 
L 37.796875 17.1875 
L 4.890625 17.1875 
L 4.890625 26.703125 
z
" id="DejaVuSans-34"/>
      </defs>
      <g transform="translate(197.788438 317.598437)scale(0.1 -0.1)">
       <use xlink:href="#DejaVuSans-30"/>
       <use x="63.623047" xlink:href="#DejaVuSans-2e"/>
       <use x="95.410156" xlink:href="#DejaVuSans-34"/>
      </g>
     </g>
    </g>
    <g id="xtick_4">
     <g id="line2d_4">
      <g>
       <use style="stroke:#000000;stroke-width:0.8;" x="284.51" xlink:href="#m92d5e12154" y="303"/>
      </g>
     </g>
     <g id="text_4">
      <!-- 0.6 -->
      <defs>
       <path d="M 33.015625 40.375 
Q 26.375 40.375 22.484375 35.828125 
Q 18.609375 31.296875 18.609375 23.390625 
Q 18.609375 15.53125 22.484375 10.953125 
Q 26.375 6.390625 33.015625 6.390625 
Q 39.65625 6.390625 43.53125 10.953125 
Q 47.40625 15.53125 47.40625 23.390625 
Q 47.40625 31.296875 43.53125 35.828125 
Q 39.65625 40.375 33.015625 40.375 
z
M 52.59375 71.296875 
L 52.59375 62.3125 
Q 48.875 64.0625 45.09375 64.984375 
Q 41.3125 65.921875 37.59375 65.921875 
Q 27.828125 65.921875 22.671875 59.328125 
Q 17.53125 52.734375 16.796875 39.40625 
Q 19.671875 43.65625 24.015625 45.921875 
Q 28.375 48.1875 33.59375 48.1875 
Q 44.578125 48.1875 50.953125 41.515625 
Q 57.328125 34.859375 57.328125 23.390625 
Q 57.328125 12.15625 50.6875 5.359375 
Q 44.046875 -1.421875 33.015625 -1.421875 
Q 20.359375 -1.421875 13.671875 8.265625 
Q 6.984375 17.96875 6.984375 36.375 
Q 6.984375 53.65625 15.1875 63.9375 
Q 23.390625 74.21875 37.203125 74.21875 
Q 40.921875 74.21875 44.703125 73.484375 
Q 48.484375 72.75 52.59375 71.296875 
z
" id="DejaVuSans-36"/>
      </defs>
      <g transform="translate(276.558438 317.598437)scale(0.1 -0.1)">
       <use xlink:href="#DejaVuSans-30"/>
       <use x="63.623047" xlink:href="#DejaVuSans-2e"/>
       <use x="95.410156" xlink:href="#DejaVuSans-36"/>
      </g>
     </g>
    </g>
    <g id="xtick_5">
     <g id="line2d_5">
      <g>
       <use style="stroke:#000000;stroke-width:0.8;" x="363.28" xlink:href="#m92d5e12154" y="303"/>
      </g>
     </g>
     <g id="text_5">
      <!-- 0.8 -->
      <defs>
       <path d="M 31.78125 34.625 
Q 24.75 34.625 20.71875 30.859375 
Q 16.703125 27.09375 16.703125 20.515625 
Q 16.703125 13.921875 20.71875 10.15625 
Q 24.75 6.390625 31.78125 6.390625 
Q 38.8125 6.390625 42.859375 10.171875 
Q 46.921875 13.96875 46.921875 20.515625 
Q 46.921875 27.09375 42.890625 30.859375 
Q 38.875 34.625 31.78125 34.625 
z
M 21.921875 38.8125 
Q 15.578125 40.375 12.03125 44.71875 
Q 8.5 49.078125 8.5 55.328125 
Q 8.5 64.0625 14.71875 69.140625 
Q 20.953125 74.21875 31.78125 74.21875 
Q 42.671875 74.21875 48.875 69.140625 
Q 55.078125 64.0625 55.078125 55.328125 
Q 55.078125 49.078125 51.53125 44.71875 
Q 48 40.375 41.703125 38.8125 
Q 48.828125 37.15625 52.796875 32.3125 
Q 56.78125 27.484375 56.78125 20.515625 
Q 56.78125 9.90625 50.3125 4.234375 
Q 43.84375 -1.421875 31.78125 -1.421875 
Q 19.734375 -1.421875 13.25 4.234375 
Q 6.78125 9.90625 6.78125 20.515625 
Q 6.78125 27.484375 10.78125 32.3125 
Q 14.796875 37.15625 21.921875 38.8125 
z
M 18.3125 54.390625 
Q 18.3125 48.734375 21.84375 45.5625 
Q 25.390625 42.390625 31.78125 42.390625 
Q 38.140625 42.390625 41.71875 45.5625 
Q 45.3125 48.734375 45.3125 54.390625 
Q 45.3125 60.0625 41.71875 63.234375 
Q 38.140625 66.40625 31.78125 66.40625 
Q 25.390625 66.40625 21.84375 63.234375 
Q 18.3125 60.0625 18.3125 54.390625 
z
" id="DejaVuSans-38"/>
      </defs>
      <g transform="translate(355.328438 317.598437)scale(0.1 -0.1)">
       <use xlink:href="#DejaVuSans-30"/>
       <use x="63.623047" xlink:href="#DejaVuSans-2e"/>
       <use x="95.410156" xlink:href="#DejaVuSans-38"/>
      </g>
     </g>
    </g>
    <g id="xtick_6">
     <g id="line2d_6">
      <g>
       <use style="stroke:#000000;stroke-width:0.8;" x="442.05" xlink:href="#m92d5e12154" y="303"/>
      </g>
     </g>
     <g id="text_6">
      <!-- 1.0 -->
      <defs>
       <path d="M 12.40625 8.296875 
L 28.515625 8.296875 
L 28.515625 63.921875 
L 10.984375 60.40625 
L 10.984375 69.390625 
L 28.421875 72.90625 
L 38.28125 72.90625 
L 38.28125 8.296875 
L 54.390625 8.296875 
L 54.390625 0 
L 12.40625 0 
z
" id="DejaVuSans-31"/>
      </defs>
      <g transform="translate(434.098438 317.598437)scale(0.1 -0.1)">
       <use xlink:href="#DejaVuSans-31"/>
       <use x="63.623047" xlink:href="#DejaVuSans-2e"/>
       <use x="95.410156" xlink:href="#DejaVuSans-30"/>
      </g>
     </g>
    </g>
    <g id="text_7">
     <!-- False positive rate -->
     <defs>
      <path d="M 9.8125 72.90625 
L 51.703125 72.90625 
L 51.703125 64.59375 
L 19.671875 64.59375 
L 19.671875 43.109375 
L 48.578125 43.109375 
L 48.578125 34.8125 
L 19.671875 34.8125 
L 19.671875 0 
L 9.8125 0 
z
" id="DejaVuSans-46"/>
      <path d="M 34.28125 27.484375 
Q 23.390625 27.484375 19.1875 25 
Q 14.984375 22.515625 14.984375 16.5 
Q 14.984375 11.71875 18.140625 8.90625 
Q 21.296875 6.109375 26.703125 6.109375 
Q 34.1875 6.109375 38.703125 11.40625 
Q 43.21875 16.703125 43.21875 25.484375 
L 43.21875 27.484375 
z
M 52.203125 31.203125 
L 52.203125 0 
L 43.21875 0 
L 43.21875 8.296875 
Q 40.140625 3.328125 35.546875 0.953125 
Q 30.953125 -1.421875 24.3125 -1.421875 
Q 15.921875 -1.421875 10.953125 3.296875 
Q 6 8.015625 6 15.921875 
Q 6 25.140625 12.171875 29.828125 
Q 18.359375 34.515625 30.609375 34.515625 
L 43.21875 34.515625 
L 43.21875 35.40625 
Q 43.21875 41.609375 39.140625 45 
Q 35.0625 48.390625 27.6875 48.390625 
Q 23 48.390625 18.546875 47.265625 
Q 14.109375 46.140625 10.015625 43.890625 
L 10.015625 52.203125 
Q 14.9375 54.109375 19.578125 55.046875 
Q 24.21875 56 28.609375 56 
Q 40.484375 56 46.34375 49.84375 
Q 52.203125 43.703125 52.203125 31.203125 
z
" id="DejaVuSans-61"/>
      <path d="M 9.421875 75.984375 
L 18.40625 75.984375 
L 18.40625 0 
L 9.421875 0 
z
" id="DejaVuSans-6c"/>
      <path d="M 44.28125 53.078125 
L 44.28125 44.578125 
Q 40.484375 46.53125 36.375 47.5 
Q 32.28125 48.484375 27.875 48.484375 
Q 21.1875 48.484375 17.84375 46.4375 
Q 14.5 44.390625 14.5 40.28125 
Q 14.5 37.15625 16.890625 35.375 
Q 19.28125 33.59375 26.515625 31.984375 
L 29.59375 31.296875 
Q 39.15625 29.25 43.1875 25.515625 
Q 47.21875 21.78125 47.21875 15.09375 
Q 47.21875 7.46875 41.1875 3.015625 
Q 35.15625 -1.421875 24.609375 -1.421875 
Q 20.21875 -1.421875 15.453125 -0.5625 
Q 10.6875 0.296875 5.421875 2 
L 5.421875 11.28125 
Q 10.40625 8.6875 15.234375 7.390625 
Q 20.0625 6.109375 24.8125 6.109375 
Q 31.15625 6.109375 34.5625 8.28125 
Q 37.984375 10.453125 37.984375 14.40625 
Q 37.984375 18.0625 35.515625 20.015625 
Q 33.0625 21.96875 24.703125 23.78125 
L 21.578125 24.515625 
Q 13.234375 26.265625 9.515625 29.90625 
Q 5.8125 33.546875 5.8125 39.890625 
Q 5.8125 47.609375 11.28125 51.796875 
Q 16.75 56 26.8125 56 
Q 31.78125 56 36.171875 55.265625 
Q 40.578125 54.546875 44.28125 53.078125 
z
" id="DejaVuSans-73"/>
      <path d="M 56.203125 29.59375 
L 56.203125 25.203125 
L 14.890625 25.203125 
Q 15.484375 15.921875 20.484375 11.0625 
Q 25.484375 6.203125 34.421875 6.203125 
Q 39.59375 6.203125 44.453125 7.46875 
Q 49.3125 8.734375 54.109375 11.28125 
L 54.109375 2.78125 
Q 49.265625 0.734375 44.1875 -0.34375 
Q 39.109375 -1.421875 33.890625 -1.421875 
Q 20.796875 -1.421875 13.15625 6.1875 
Q 5.515625 13.8125 5.515625 26.8125 
Q 5.515625 40.234375 12.765625 48.109375 
Q 20.015625 56 32.328125 56 
Q 43.359375 56 49.78125 48.890625 
Q 56.203125 41.796875 56.203125 29.59375 
z
M 47.21875 32.234375 
Q 47.125 39.59375 43.09375 43.984375 
Q 39.0625 48.390625 32.421875 48.390625 
Q 24.90625 48.390625 20.390625 44.140625 
Q 15.875 39.890625 15.1875 32.171875 
z
" id="DejaVuSans-65"/>
      <path id="DejaVuSans-20"/>
      <path d="M 18.109375 8.203125 
L 18.109375 -20.796875 
L 9.078125 -20.796875 
L 9.078125 54.6875 
L 18.109375 54.6875 
L 18.109375 46.390625 
Q 20.953125 51.265625 25.265625 53.625 
Q 29.59375 56 35.59375 56 
Q 45.5625 56 51.78125 48.09375 
Q 58.015625 40.1875 58.015625 27.296875 
Q 58.015625 14.40625 51.78125 6.484375 
Q 45.5625 -1.421875 35.59375 -1.421875 
Q 29.59375 -1.421875 25.265625 0.953125 
Q 20.953125 3.328125 18.109375 8.203125 
z
M 48.6875 27.296875 
Q 48.6875 37.203125 44.609375 42.84375 
Q 40.53125 48.484375 33.40625 48.484375 
Q 26.265625 48.484375 22.1875 42.84375 
Q 18.109375 37.203125 18.109375 27.296875 
Q 18.109375 17.390625 22.1875 11.75 
Q 26.265625 6.109375 33.40625 6.109375 
Q 40.53125 6.109375 44.609375 11.75 
Q 48.6875 17.390625 48.6875 27.296875 
z
" id="DejaVuSans-70"/>
      <path d="M 30.609375 48.390625 
Q 23.390625 48.390625 19.1875 42.75 
Q 14.984375 37.109375 14.984375 27.296875 
Q 14.984375 17.484375 19.15625 11.84375 
Q 23.34375 6.203125 30.609375 6.203125 
Q 37.796875 6.203125 41.984375 11.859375 
Q 46.1875 17.53125 46.1875 27.296875 
Q 46.1875 37.015625 41.984375 42.703125 
Q 37.796875 48.390625 30.609375 48.390625 
z
M 30.609375 56 
Q 42.328125 56 49.015625 48.375 
Q 55.71875 40.765625 55.71875 27.296875 
Q 55.71875 13.875 49.015625 6.21875 
Q 42.328125 -1.421875 30.609375 -1.421875 
Q 18.84375 -1.421875 12.171875 6.21875 
Q 5.515625 13.875 5.515625 27.296875 
Q 5.515625 40.765625 12.171875 48.375 
Q 18.84375 56 30.609375 56 
z
" id="DejaVuSans-6f"/>
      <path d="M 9.421875 54.6875 
L 18.40625 54.6875 
L 18.40625 0 
L 9.421875 0 
z
M 9.421875 75.984375 
L 18.40625 75.984375 
L 18.40625 64.59375 
L 9.421875 64.59375 
z
" id="DejaVuSans-69"/>
      <path d="M 18.3125 70.21875 
L 18.3125 54.6875 
L 36.8125 54.6875 
L 36.8125 47.703125 
L 18.3125 47.703125 
L 18.3125 18.015625 
Q 18.3125 11.328125 20.140625 9.421875 
Q 21.96875 7.515625 27.59375 7.515625 
L 36.8125 7.515625 
L 36.8125 0 
L 27.59375 0 
Q 17.1875 0 13.234375 3.875 
Q 9.28125 7.765625 9.28125 18.015625 
L 9.28125 47.703125 
L 2.6875 47.703125 
L 2.6875 54.6875 
L 9.28125 54.6875 
L 9.28125 70.21875 
z
" id="DejaVuSans-74"/>
      <path d="M 2.984375 54.6875 
L 12.5 54.6875 
L 29.59375 8.796875 
L 46.6875 54.6875 
L 56.203125 54.6875 
L 35.6875 0 
L 23.484375 0 
z
" id="DejaVuSans-76"/>
      <path d="M 41.109375 46.296875 
Q 39.59375 47.171875 37.8125 47.578125 
Q 36.03125 48 33.890625 48 
Q 26.265625 48 22.1875 43.046875 
Q 18.109375 38.09375 18.109375 28.8125 
L 18.109375 0 
L 9.078125 0 
L 9.078125 54.6875 
L 18.109375 54.6875 
L 18.109375 46.1875 
Q 20.953125 51.171875 25.484375 53.578125 
Q 30.03125 56 36.53125 56 
Q 37.453125 56 38.578125 55.875 
Q 39.703125 55.765625 41.0625 55.515625 
z
" id="DejaVuSans-72"/>
     </defs>
     <g transform="translate(199.175 331.276563)scale(0.1 -0.1)">
      <use xlink:href="#DejaVuSans-46"/>
      <use x="57.378906" xlink:href="#DejaVuSans-61"/>
      <use x="118.658203" xlink:href="#DejaVuSans-6c"/>
      <use x="146.441406" xlink:href="#DejaVuSans-73"/>
      <use x="198.541016" xlink:href="#DejaVuSans-65"/>
      <use x="260.064453" xlink:href="#DejaVuSans-20"/>
      <use x="291.851562" xlink:href="#DejaVuSans-70"/>
      <use x="355.328125" xlink:href="#DejaVuSans-6f"/>
      <use x="416.509766" xlink:href="#DejaVuSans-73"/>
      <use x="468.609375" xlink:href="#DejaVuSans-69"/>
      <use x="496.392578" xlink:href="#DejaVuSans-74"/>
      <use x="535.601562" xlink:href="#DejaVuSans-69"/>
      <use x="563.384766" xlink:href="#DejaVuSans-76"/>
      <use x="622.564453" xlink:href="#DejaVuSans-65"/>
      <use x="684.087891" xlink:href="#DejaVuSans-20"/>
      <use x="715.875" xlink:href="#DejaVuSans-72"/>
      <use x="756.988281" xlink:href="#DejaVuSans-61"/>
      <use x="818.267578" xlink:href="#DejaVuSans-74"/>
      <use x="857.476562" xlink:href="#DejaVuSans-65"/>
     </g>
    </g>
   </g>
   <g id="matplotlib.axis_2">
    <g id="ytick_1">
     <g id="line2d_7">
      <defs>
       <path d="M 0 0 
L -3.5 0 
" id="m6def736700" style="stroke:#000000;stroke-width:0.8;"/>
      </defs>
      <g>
       <use style="stroke:#000000;stroke-width:0.8;" x="48.2" xlink:href="#m6def736700" y="303"/>
      </g>
     </g>
     <g id="text_8">
      <!-- 0.0 -->
      <g transform="translate(25.296875 306.799219)scale(0.1 -0.1)">
       <use xlink:href="#DejaVuSans-30"/>
       <use x="63.623047" xlink:href="#DejaVuSans-2e"/>
       <use x="95.410156" xlink:href="#DejaVuSans-30"/>
      </g>
     </g>
    </g>
    <g id="ytick_2">
     <g id="line2d_8">
      <g>
       <use style="stroke:#000000;stroke-width:0.8;" x="48.2" xlink:href="#m6def736700" y="245.693069"/>
      </g>
     </g>
     <g id="text_9">
      <!-- 0.2 -->
      <g transform="translate(25.296875 249.492288)scale(0.1 -0.1)">
       <use xlink:href="#DejaVuSans-30"/>
       <use x="63.623047" xlink:href="#DejaVuSans-2e"/>
       <use x="95.410156" xlink:href="#DejaVuSans-32"/>
      </g>
     </g>
    </g>
    <g id="ytick_3">
     <g id="line2d_9">
      <g>
       <use style="stroke:#000000;stroke-width:0.8;" x="48.2" xlink:href="#m6def736700" y="188.386139"/>
      </g>
     </g>
     <g id="text_10">
      <!-- 0.4 -->
      <g transform="translate(25.296875 192.185357)scale(0.1 -0.1)">
       <use xlink:href="#DejaVuSans-30"/>
       <use x="63.623047" xlink:href="#DejaVuSans-2e"/>
       <use x="95.410156" xlink:href="#DejaVuSans-34"/>
      </g>
     </g>
    </g>
    <g id="ytick_4">
     <g id="line2d_10">
      <g>
       <use style="stroke:#000000;stroke-width:0.8;" x="48.2" xlink:href="#m6def736700" y="131.079208"/>
      </g>
     </g>
     <g id="text_11">
      <!-- 0.6 -->
      <g transform="translate(25.296875 134.878427)scale(0.1 -0.1)">
       <use xlink:href="#DejaVuSans-30"/>
       <use x="63.623047" xlink:href="#DejaVuSans-2e"/>
       <use x="95.410156" xlink:href="#DejaVuSans-36"/>
      </g>
     </g>
    </g>
    <g id="ytick_5">
     <g id="line2d_11">
      <g>
       <use style="stroke:#000000;stroke-width:0.8;" x="48.2" xlink:href="#m6def736700" y="73.772277"/>
      </g>
     </g>
     <g id="text_12">
      <!-- 0.8 -->
      <g transform="translate(25.296875 77.571496)scale(0.1 -0.1)">
       <use xlink:href="#DejaVuSans-30"/>
       <use x="63.623047" xlink:href="#DejaVuSans-2e"/>
       <use x="95.410156" xlink:href="#DejaVuSans-38"/>
      </g>
     </g>
    </g>
    <g id="ytick_6">
     <g id="line2d_12">
      <g>
       <use style="stroke:#000000;stroke-width:0.8;" x="48.2" xlink:href="#m6def736700" y="16.465347"/>
      </g>
     </g>
     <g id="text_13">
      <!-- 1.0 -->
      <g transform="translate(25.296875 20.264565)scale(0.1 -0.1)">
       <use xlink:href="#DejaVuSans-31"/>
       <use x="63.623047" xlink:href="#DejaVuSans-2e"/>
       <use x="95.410156" xlink:href="#DejaVuSans-30"/>
      </g>
     </g>
    </g>
    <g id="text_14">
     <!-- True positive rate -->
     <defs>
      <path d="M -0.296875 72.90625 
L 61.375 72.90625 
L 61.375 64.59375 
L 35.5 64.59375 
L 35.5 0 
L 25.59375 0 
L 25.59375 64.59375 
L -0.296875 64.59375 
z
" id="DejaVuSans-54"/>
      <path d="M 8.5 21.578125 
L 8.5 54.6875 
L 17.484375 54.6875 
L 17.484375 21.921875 
Q 17.484375 14.15625 20.5 10.265625 
Q 23.53125 6.390625 29.59375 6.390625 
Q 36.859375 6.390625 41.078125 11.03125 
Q 45.3125 15.671875 45.3125 23.6875 
L 45.3125 54.6875 
L 54.296875 54.6875 
L 54.296875 0 
L 45.3125 0 
L 45.3125 8.40625 
Q 42.046875 3.421875 37.71875 1 
Q 33.40625 -1.421875 27.6875 -1.421875 
Q 18.265625 -1.421875 13.375 4.4375 
Q 8.5 10.296875 8.5 21.578125 
z
M 31.109375 56 
z
" id="DejaVuSans-75"/>
     </defs>
     <g transform="translate(19.217187 202.590625)rotate(-90)scale(0.1 -0.1)">
      <use xlink:href="#DejaVuSans-54"/>
      <use x="60.865234" xlink:href="#DejaVuSans-72"/>
      <use x="101.978516" xlink:href="#DejaVuSans-75"/>
      <use x="165.357422" xlink:href="#DejaVuSans-65"/>
      <use x="226.880859" xlink:href="#DejaVuSans-20"/>
      <use x="258.667969" xlink:href="#DejaVuSans-70"/>
      <use x="322.144531" xlink:href="#DejaVuSans-6f"/>
      <use x="383.326172" xlink:href="#DejaVuSans-73"/>
      <use x="435.425781" xlink:href="#DejaVuSans-69"/>
      <use x="463.208984" xlink:href="#DejaVuSans-74"/>
      <use x="502.417969" xlink:href="#DejaVuSans-69"/>
      <use x="530.201172" xlink:href="#DejaVuSans-76"/>
      <use x="589.380859" xlink:href="#DejaVuSans-65"/>
      <use x="650.904297" xlink:href="#DejaVuSans-20"/>
      <use x="682.691406" xlink:href="#DejaVuSans-72"/>
      <use x="723.804688" xlink:href="#DejaVuSans-61"/>
      <use x="785.083984" xlink:href="#DejaVuSans-74"/>
      <use x="824.292969" xlink:href="#DejaVuSans-65"/>
     </g>
    </g>
   </g>
   <g id="line2d_13">
    <path clip-path="url(#paeeb3cae4f)" d="M 48.2 303 
L 52.178283 300.105711 
L 56.156566 297.211421 
L 60.134848 294.317132 
L 64.113131 291.422842 
L 68.091414 288.528553 
L 72.069697 285.634263 
L 76.04798 282.739974 
L 80.026263 279.845685 
L 84.004545 276.951395 
L 87.982828 274.057106 
L 91.961111 271.162816 
L 95.939394 268.268527 
L 99.917677 265.374237 
L 103.89596 262.479948 
L 107.874242 259.585659 
L 111.852525 256.691369 
L 115.830808 253.79708 
L 119.809091 250.90279 
L 123.787374 248.008501 
L 127.765657 245.114211 
L 131.743939 242.219922 
L 135.722222 239.325633 
L 139.700505 236.431343 
L 143.678788 233.537054 
L 147.657071 230.642764 
L 151.635354 227.748475 
L 155.613636 224.854185 
L 159.591919 221.959896 
L 163.570202 219.065607 
L 167.548485 216.171317 
L 171.526768 213.277028 
L 175.505051 210.382738 
L 179.483333 207.488449 
L 183.461616 204.594159 
L 187.439899 201.69987 
L 191.418182 198.805581 
L 195.396465 195.911291 
L 199.374747 193.017002 
L 203.35303 190.122712 
L 207.331313 187.228423 
L 211.309596 184.334133 
L 215.287879 181.439844 
L 219.266162 178.545555 
L 223.244444 175.651265 
L 227.222727 172.756976 
L 231.20101 169.862686 
L 235.179293 166.968397 
L 239.157576 164.074107 
L 243.135859 161.179818 
L 247.114141 158.285529 
L 251.092424 155.391239 
L 255.070707 152.49695 
L 259.04899 149.60266 
L 263.027273 146.708371 
L 267.005556 143.814081 
L 270.983838 140.919792 
L 274.962121 138.025503 
L 278.940404 135.131213 
L 282.918687 132.236924 
L 286.89697 129.342634 
L 290.875253 126.448345 
L 294.853535 123.554055 
L 298.831818 120.659766 
L 302.810101 117.765477 
L 306.788384 114.871187 
L 310.766667 111.976898 
L 314.744949 109.082608 
L 318.723232 106.188319 
L 322.701515 103.294029 
L 326.679798 100.39974 
L 330.658081 97.505451 
L 334.636364 94.611161 
L 338.614646 91.716872 
L 342.592929 88.822582 
L 346.571212 85.928293 
L 350.549495 83.034003 
L 354.527778 80.139714 
L 358.506061 77.245425 
L 362.484343 74.351135 
L 366.462626 71.456846 
L 370.440909 68.562556 
L 374.419192 65.668267 
L 378.397475 62.773977 
L 382.375758 59.879688 
L 386.35404 56.985399 
L 390.332323 54.091109 
L 394.310606 51.19682 
L 398.288889 48.30253 
L 402.267172 45.408241 
L 406.245455 42.513951 
L 410.223737 39.619662 
L 414.20202 36.725373 
L 418.180303 33.831083 
L 422.158586 30.936794 
L 426.136869 28.042504 
L 430.115152 25.148215 
L 434.093434 22.253925 
L 438.071717 19.359636 
L 442.05 16.465347 
" style="fill:none;stroke:#cccccc;stroke-dasharray:5.55,2.4;stroke-dashoffset:0;stroke-width:1.5;"/>
   </g>
   <g id="line2d_14">
    <path clip-path="url(#paeeb3cae4f)" d="M 48.2 303 
L 52.1385 192.211544 
L 56.077 167.94024 
L 60.0155 151.345524 
L 63.954 137.333472 
L 67.8925 127.778989 
L 71.831 120.922239 
L 75.7695 115.254217 
L 79.708 111.935524 
L 83.6465 108.875017 
L 87.585 106.897742 
L 91.5235 105.262278 
L 95.462 103.599117 
L 99.4005 101.970234 
L 103.339 99.991991 
L 107.2775 98.087549 
L 111.216 96.398469 
L 115.1545 93.731696 
L 119.093 87.164228 
L 123.0315 85.652681 
L 126.97 83.222985 
L 130.9085 80.531703 
L 134.847 79.340014 
L 138.7855 77.795577 
L 142.724 76.726077 
L 146.6625 75.617506 
L 150.601 73.573334 
L 154.5395 72.908058 
L 158.478 72.243903 
L 162.4165 71.469258 
L 166.355 70.339308 
L 170.2935 69.149575 
L 174.232 68.606319 
L 178.1705 67.317166 
L 182.109 66.278064 
L 186.0475 65.40748 
L 189.986 64.771594 
L 193.9245 64.403808 
L 197.863 63.348098 
L 201.8015 62.394281 
L 205.74 61.186941 
L 209.6785 60.830198 
L 213.617 59.874518 
L 217.5555 59.340858 
L 221.494 58.394946 
L 225.4325 57.712135 
L 229.371 56.933085 
L 233.3095 55.77567 
L 237.248 54.361883 
L 241.1865 53.253569 
L 245.125 52.595598 
L 249.0635 51.58769 
L 253.002 50.761493 
L 256.9405 50.133658 
L 260.879 49.463848 
L 264.8175 48.777002 
L 268.756 46.280461 
L 272.6945 43.287142 
L 276.633 42.558499 
L 280.5715 42.149187 
L 284.51 41.567059 
L 288.4485 40.79404 
L 292.387 40.264509 
L 296.3255 39.832146 
L 300.264 39.544979 
L 304.2025 39.039926 
L 308.141 38.619836 
L 312.0795 37.968156 
L 316.018 37.262693 
L 319.9565 36.728926 
L 323.895 36.079972 
L 327.8335 35.520649 
L 331.772 35.176181 
L 335.7105 34.622871 
L 339.649 34.134365 
L 343.5875 33.595818 
L 347.526 33.150436 
L 351.4645 32.755487 
L 355.403 32.440337 
L 359.3415 31.807849 
L 363.28 31.313717 
L 367.2185 30.755774 
L 371.157 30.328192 
L 375.0955 29.882844 
L 379.034 29.159324 
L 382.9725 28.593985 
L 386.911 28.068542 
L 390.8495 27.633338 
L 394.788 26.806415 
L 398.7265 25.767305 
L 402.665 24.759848 
L 406.6035 23.607905 
L 410.542 22.649289 
L 414.4805 21.655043 
L 418.419 20.682953 
L 422.3575 20.139042 
L 426.296 19.577459 
L 430.2345 18.856822 
L 434.173 17.973809 
L 438.1115 17.21471 
L 442.05 16.465347 
" style="fill:none;stroke:#0000ff;stroke-linecap:square;stroke-width:1.5;"/>
   </g>
   <g id="line2d_15">
    <path clip-path="url(#paeeb3cae4f)" d="M 48.2 303 
L 52.1385 135.520584 
L 56.077 112.138993 
L 60.0155 99.7085 
L 63.954 93.239525 
L 67.8925 89.186109 
L 71.831 85.827359 
L 75.7695 83.017127 
L 79.708 80.470741 
L 83.6465 78.416993 
L 87.585 76.691354 
L 91.5235 75.200733 
L 95.462 73.97544 
L 99.4005 72.882062 
L 103.339 71.550412 
L 107.2775 70.625147 
L 111.216 69.857173 
L 115.1545 68.994469 
L 119.093 68.073547 
L 123.0315 67.176762 
L 126.97 66.481006 
L 130.9085 65.899845 
L 134.847 65.204277 
L 138.7855 64.62397 
L 142.724 64.170317 
L 146.6625 63.694855 
L 150.601 63.215143 
L 154.5395 62.66862 
L 158.478 62.092557 
L 162.4165 61.475864 
L 166.355 61.122147 
L 170.2935 60.45996 
L 174.232 60.018675 
L 178.1705 59.577119 
L 182.109 59.050684 
L 186.0475 58.506416 
L 189.986 58.323857 
L 193.9245 58.074695 
L 197.863 57.456923 
L 201.8015 57.061898 
L 205.74 56.646431 
L 209.6785 56.359726 
L 213.617 55.987384 
L 217.5555 55.640688 
L 221.494 55.185845 
L 225.4325 54.889752 
L 229.371 54.428983 
L 233.3095 54.10371 
L 237.248 53.821455 
L 241.1865 53.449272 
L 245.125 53.030978 
L 249.0635 52.502939 
L 253.002 52.222703 
L 256.9405 51.856395 
L 260.879 51.432781 
L 264.8175 50.929056 
L 268.756 50.549198 
L 272.6945 49.999993 
L 276.633 49.415878 
L 280.5715 48.925558 
L 284.51 48.462531 
L 288.4485 47.623408 
L 292.387 47.05934 
L 296.3255 46.338893 
L 300.264 45.416618 
L 304.2025 44.668594 
L 308.141 43.775478 
L 312.0795 42.640236 
L 316.018 41.263192 
L 319.9565 40.103759 
L 323.895 38.724975 
L 327.8335 36.575839 
L 331.772 33.879799 
L 335.7105 31.691029 
L 339.649 29.708572 
L 343.5875 27.262607 
L 347.526 24.877717 
L 351.4645 22.931509 
L 355.403 21.016614 
L 359.3415 19.122966 
L 363.28 17.499771 
L 367.2185 16.902699 
L 371.157 16.557859 
L 375.0955 16.509881 
L 379.034 16.469479 
L 382.9725 16.469479 
L 386.911 16.469479 
L 390.8495 16.465347 
L 394.788 16.465347 
L 398.7265 16.465347 
L 402.665 16.465347 
L 406.6035 16.465347 
L 410.542 16.465347 
L 414.4805 16.465347 
L 418.419 16.465347 
L 422.3575 16.465347 
L 426.296 16.465347 
L 430.2345 16.465347 
L 434.173 16.465347 
L 438.1115 16.465347 
L 442.05 16.465347 
" style="fill:none;stroke:#0000ff;stroke-dasharray:5.55,2.4;stroke-dashoffset:0;stroke-width:1.5;"/>
   </g>
   <g id="line2d_16">
    <path clip-path="url(#paeeb3cae4f)" d="M 48.2 303 
L 52.1385 161.840678 
L 56.077 133.008987 
L 60.0155 117.230932 
L 63.954 103.689379 
L 67.8925 94.941153 
L 71.831 88.82425 
L 75.7695 84.102577 
L 79.708 81.200864 
L 83.6465 78.967028 
L 87.585 77.893956 
L 91.5235 76.996735 
L 95.462 75.480333 
L 99.4005 74.697234 
L 103.339 72.926259 
L 107.2775 71.939295 
L 111.216 70.738943 
L 115.1545 68.394346 
L 119.093 62.153724 
L 123.0315 61.346423 
L 126.97 59.920298 
L 130.9085 58.650687 
L 134.847 57.975247 
L 138.7855 56.674825 
L 142.724 56.329739 
L 146.6625 56.030627 
L 150.601 54.261413 
L 154.5395 53.850873 
L 158.478 53.537644 
L 162.4165 53.067366 
L 166.355 52.748435 
L 170.2935 52.524356 
L 174.232 52.307902 
L 178.1705 51.829454 
L 182.109 50.736049 
L 186.0475 50.121391 
L 189.986 49.857844 
L 193.9245 49.508057 
L 197.863 49.035041 
L 201.8015 48.315756 
L 205.74 47.520655 
L 209.6785 47.21922 
L 213.617 46.849127 
L 217.5555 46.223441 
L 221.494 45.364583 
L 225.4325 45.082048 
L 229.371 44.543342 
L 233.3095 43.352187 
L 237.248 41.50293 
L 241.1865 40.686212 
L 245.125 40.333721 
L 249.0635 39.881054 
L 253.002 39.651717 
L 256.9405 39.314196 
L 260.879 39.032697 
L 264.8175 38.403263 
L 268.756 35.626507 
L 272.6945 33.746366 
L 276.633 33.162305 
L 280.5715 32.877716 
L 284.51 32.690108 
L 288.4485 32.329773 
L 292.387 32.089588 
L 296.3255 31.810289 
L 300.264 31.399214 
L 304.2025 31.01773 
L 308.141 30.784658 
L 312.0795 30.444717 
L 316.018 30.176216 
L 319.9565 29.929796 
L 323.895 29.395236 
L 327.8335 28.869787 
L 331.772 28.511127 
L 335.7105 27.679685 
L 339.649 27.250834 
L 343.5875 27.108901 
L 347.526 27.052387 
L 351.4645 27.019127 
L 355.403 26.621436 
L 359.3415 26.149826 
L 363.28 25.95398 
L 367.2185 25.616822 
L 371.157 25.352699 
L 375.0955 24.969862 
L 379.034 24.450621 
L 382.9725 24.119792 
L 386.911 23.896244 
L 390.8495 23.337734 
L 394.788 22.460463 
L 398.7265 22.07683 
L 402.665 21.578596 
L 406.6035 21.203454 
L 410.542 20.702115 
L 414.4805 20.246173 
L 418.419 19.8239 
L 422.3575 19.469392 
L 426.296 18.973146 
L 430.2345 18.532256 
L 434.173 17.863588 
L 438.1115 17.188522 
L 442.05 16.465347 
" style="fill:none;stroke:#008000;stroke-linecap:square;stroke-width:1.5;"/>
   </g>
   <g id="line2d_17">
    <path clip-path="url(#paeeb3cae4f)" d="M 48.2 303 
L 52.1385 86.973869 
L 56.077 76.00203 
L 60.0155 71.082422 
L 63.954 67.82725 
L 67.8925 65.649279 
L 71.831 64.09777 
L 75.7695 62.951192 
L 79.708 61.885761 
L 83.6465 60.990936 
L 87.585 60.204406 
L 91.5235 59.593681 
L 95.462 59.004807 
L 99.4005 58.480069 
L 103.339 58.090677 
L 107.2775 57.77178 
L 111.216 57.450684 
L 115.1545 57.095544 
L 119.093 56.820237 
L 123.0315 56.520784 
L 126.97 56.278848 
L 130.9085 56.020435 
L 134.847 55.840561 
L 138.7855 55.631452 
L 142.724 55.387614 
L 146.6625 55.202393 
L 150.601 54.952468 
L 154.5395 54.726709 
L 158.478 54.546876 
L 162.4165 54.323631 
L 166.355 54.110371 
L 170.2935 53.799843 
L 174.232 53.544262 
L 178.1705 53.166315 
L 182.109 52.829269 
L 186.0475 52.526988 
L 189.986 52.217199 
L 193.9245 51.92408 
L 197.863 51.582059 
L 201.8015 51.256817 
L 205.74 51.018495 
L 209.6785 50.781433 
L 213.617 50.617642 
L 217.5555 50.431704 
L 221.494 50.301022 
L 225.4325 50.117913 
L 229.371 49.98814 
L 233.3095 49.809833 
L 237.248 49.705874 
L 241.1865 49.532221 
L 245.125 49.410792 
L 249.0635 49.270323 
L 253.002 49.079851 
L 256.9405 48.809379 
L 260.879 48.409946 
L 264.8175 48.14245 
L 268.756 47.880071 
L 272.6945 47.511497 
L 276.633 47.158831 
L 280.5715 46.718507 
L 284.51 46.32155 
L 288.4485 45.818843 
L 292.387 45.254002 
L 296.3255 44.511315 
L 300.264 43.751453 
L 304.2025 42.795021 
L 308.141 41.829371 
L 312.0795 40.663227 
L 316.018 39.423291 
L 319.9565 37.921479 
L 323.895 36.350906 
L 327.8335 34.442309 
L 331.772 32.240629 
L 335.7105 30.04144 
L 339.649 27.32516 
L 343.5875 24.730401 
L 347.526 22.263625 
L 351.4645 20.008489 
L 355.403 18.311188 
L 359.3415 17.313655 
L 363.28 16.807047 
L 367.2185 16.513976 
L 371.157 16.465347 
L 375.0955 16.465347 
L 379.034 16.465347 
L 382.9725 16.465347 
L 386.911 16.465347 
L 390.8495 16.465347 
L 394.788 16.465347 
L 398.7265 16.465347 
L 402.665 16.465347 
L 406.6035 16.465347 
L 410.542 16.465347 
L 414.4805 16.465347 
L 418.419 16.465347 
L 422.3575 16.465347 
L 426.296 16.465347 
L 430.2345 16.465347 
L 434.173 16.465347 
L 438.1115 16.465347 
L 442.05 16.465347 
" style="fill:none;stroke:#008000;stroke-dasharray:5.55,2.4;stroke-dashoffset:0;stroke-width:1.5;"/>
   </g>
   <g id="line2d_18">
    <path clip-path="url(#paeeb3cae4f)" d="M 48.2 303 
L 52.1385 154.24041 
L 56.077 126.719079 
L 60.0155 111.748227 
L 63.954 99.317484 
L 67.8925 90.870099 
L 71.831 84.636709 
L 75.7695 80.363596 
L 79.708 77.764265 
L 83.6465 76.317515 
L 87.585 76.147509 
L 91.5235 75.994807 
L 95.462 75.139535 
L 99.4005 74.137984 
L 103.339 72.630214 
L 107.2775 72.281379 
L 111.216 71.416471 
L 115.1545 68.805292 
L 119.093 62.031594 
L 123.0315 61.218592 
L 126.97 60.095529 
L 130.9085 59.591957 
L 134.847 59.333287 
L 138.7855 58.104817 
L 142.724 57.912905 
L 146.6625 57.777316 
L 150.601 56.062102 
L 154.5395 55.734854 
L 158.478 55.292388 
L 162.4165 55.097558 
L 166.355 54.878828 
L 170.2935 54.816762 
L 174.232 54.765506 
L 178.1705 54.6534 
L 182.109 52.931787 
L 186.0475 52.613378 
L 189.986 52.201066 
L 193.9245 51.971689 
L 197.863 51.713131 
L 201.8015 50.998103 
L 205.74 50.433414 
L 209.6785 50.187171 
L 213.617 49.851073 
L 217.5555 49.614679 
L 221.494 48.239353 
L 225.4325 47.077033 
L 229.371 46.711844 
L 233.3095 44.892176 
L 237.248 41.404685 
L 241.1865 40.838235 
L 245.125 40.575313 
L 249.0635 40.088494 
L 253.002 39.659036 
L 256.9405 38.230407 
L 260.879 37.268729 
L 264.8175 36.815308 
L 268.756 33.186428 
L 272.6945 31.962444 
L 276.633 31.621743 
L 280.5715 31.385219 
L 284.51 31.227063 
L 288.4485 31.206212 
L 292.387 31.095945 
L 296.3255 31.010781 
L 300.264 30.614585 
L 304.2025 30.065507 
L 308.141 29.889273 
L 312.0795 29.792419 
L 316.018 29.734024 
L 319.9565 29.646217 
L 323.895 29.518841 
L 327.8335 29.404229 
L 331.772 29.180209 
L 335.7105 28.829453 
L 339.649 28.601488 
L 343.5875 28.571415 
L 347.526 28.384018 
L 351.4645 27.587321 
L 355.403 27.040695 
L 359.3415 26.910383 
L 363.28 26.849097 
L 367.2185 26.302213 
L 371.157 25.628671 
L 375.0955 25.38116 
L 379.034 24.643683 
L 382.9725 23.790157 
L 386.911 23.061432 
L 390.8495 22.573488 
L 394.788 22.031574 
L 398.7265 21.64066 
L 402.665 21.338188 
L 406.6035 21.028744 
L 410.542 20.854298 
L 414.4805 20.63675 
L 418.419 20.372674 
L 422.3575 20.091994 
L 426.296 19.507274 
L 430.2345 19.298702 
L 434.173 18.447124 
L 438.1115 17.546636 
L 442.05 16.465347 
" style="fill:none;stroke:#bfbf00;stroke-linecap:square;stroke-width:1.5;"/>
   </g>
   <g id="line2d_19">
    <path clip-path="url(#paeeb3cae4f)" d="M 48.2 303 
L 52.1385 85.499337 
L 56.077 78.006089 
L 60.0155 75.155754 
L 63.954 73.192973 
L 67.8925 71.597518 
L 71.831 69.871353 
L 75.7695 68.269837 
L 79.708 66.949498 
L 83.6465 65.807693 
L 87.585 64.826475 
L 91.5235 63.935624 
L 95.462 63.206039 
L 99.4005 62.609522 
L 103.339 62.12677 
L 107.2775 61.68564 
L 111.216 61.344406 
L 115.1545 61.087775 
L 119.093 60.860673 
L 123.0315 60.697109 
L 126.97 60.514014 
L 130.9085 60.389341 
L 134.847 60.260732 
L 138.7855 60.16323 
L 142.724 60.036554 
L 146.6625 59.906645 
L 150.601 59.775017 
L 154.5395 59.384571 
L 158.478 59.002241 
L 162.4165 58.530311 
L 166.355 57.984367 
L 170.2935 57.362088 
L 174.232 56.834075 
L 178.1705 56.446769 
L 182.109 56.274646 
L 186.0475 56.090996 
L 189.986 55.932585 
L 193.9245 55.662459 
L 197.863 55.405389 
L 201.8015 54.841038 
L 205.74 54.42635 
L 209.6785 54.199543 
L 213.617 54.086163 
L 217.5555 53.950455 
L 221.494 53.736732 
L 225.4325 53.394586 
L 229.371 52.992652 
L 233.3095 52.598715 
L 237.248 52.420303 
L 241.1865 52.307502 
L 245.125 52.050188 
L 249.0635 51.73961 
L 253.002 51.472034 
L 256.9405 51.258871 
L 260.879 50.990456 
L 264.8175 50.762268 
L 268.756 50.581823 
L 272.6945 50.501903 
L 276.633 50.425241 
L 280.5715 50.343478 
L 284.51 50.084011 
L 288.4485 49.543368 
L 292.387 48.98916 
L 296.3255 48.503491 
L 300.264 47.655509 
L 304.2025 47.027491 
L 308.141 46.157379 
L 312.0795 44.93734 
L 316.018 43.154325 
L 319.9565 41.228984 
L 323.895 39.381192 
L 327.8335 37.674696 
L 331.772 34.601668 
L 335.7105 30.775948 
L 339.649 26.909583 
L 343.5875 22.854082 
L 347.526 19.803484 
L 351.4645 17.959441 
L 355.403 16.8292 
L 359.3415 16.487939 
L 363.28 16.465347 
L 367.2185 16.465347 
L 371.157 16.465347 
L 375.0955 16.465347 
L 379.034 16.465347 
L 382.9725 16.465347 
L 386.911 16.465347 
L 390.8495 16.465347 
L 394.788 16.465347 
L 398.7265 16.465347 
L 402.665 16.465347 
L 406.6035 16.465347 
L 410.542 16.465347 
L 414.4805 16.465347 
L 418.419 16.465347 
L 422.3575 16.465347 
L 426.296 16.465347 
L 430.2345 16.465347 
L 434.173 16.465347 
L 438.1115 16.465347 
L 442.05 16.465347 
" style="fill:none;stroke:#bfbf00;stroke-dasharray:5.55,2.4;stroke-dashoffset:0;stroke-width:1.5;"/>
   </g>
   <g id="line2d_20">
    <path clip-path="url(#paeeb3cae4f)" d="M 48.2 303 
L 52.1385 148.422658 
L 56.077 116.639811 
L 60.0155 106.774285 
L 63.954 95.656887 
L 67.8925 85.440465 
L 71.831 80.324181 
L 75.7695 78.849795 
L 79.708 78.364971 
L 83.6465 76.548232 
L 87.585 76.33046 
L 91.5235 76.115678 
L 95.462 75.683837 
L 99.4005 73.753549 
L 103.339 72.225364 
L 107.2775 71.964034 
L 111.216 70.880146 
L 115.1545 66.347165 
L 119.093 59.099957 
L 123.0315 58.837359 
L 126.97 58.382352 
L 130.9085 58.012245 
L 134.847 57.762854 
L 138.7855 56.51476 
L 142.724 56.225573 
L 146.6625 56.088136 
L 150.601 55.500444 
L 154.5395 53.083887 
L 158.478 52.719528 
L 162.4165 52.021829 
L 166.355 51.659635 
L 170.2935 51.596156 
L 174.232 51.536649 
L 178.1705 51.507323 
L 182.109 51.48465 
L 186.0475 51.427637 
L 189.986 51.356897 
L 193.9245 51.293416 
L 197.863 50.612223 
L 201.8015 48.31875 
L 205.74 47.03264 
L 209.6785 46.798753 
L 213.617 46.376551 
L 217.5555 46.086369 
L 221.494 45.37388 
L 225.4325 45.081674 
L 229.371 44.529678 
L 233.3095 42.453038 
L 237.248 42.378594 
L 241.1865 42.333768 
L 245.125 42.051007 
L 249.0635 41.707735 
L 253.002 41.546299 
L 256.9405 40.971788 
L 260.879 40.839178 
L 264.8175 40.770955 
L 268.756 39.927168 
L 272.6945 34.348533 
L 276.633 34.331902 
L 280.5715 34.329526 
L 284.51 34.32715 
L 288.4485 34.32715 
L 292.387 34.32715 
L 296.3255 34.32715 
L 300.264 34.324774 
L 304.2025 34.324774 
L 308.141 34.324774 
L 312.0795 34.317171 
L 316.018 34.28676 
L 319.9565 34.251121 
L 323.895 34.224986 
L 327.8335 34.215482 
L 331.772 34.194099 
L 335.7105 34.167964 
L 339.649 33.268683 
L 343.5875 33.242983 
L 347.526 31.944516 
L 351.4645 31.587727 
L 355.403 30.791797 
L 359.3415 30.790948 
L 363.28 29.578692 
L 367.2185 26.078242 
L 371.157 24.974808 
L 375.0955 24.659867 
L 379.034 24.027056 
L 382.9725 24.000721 
L 386.911 23.96013 
L 390.8495 23.924035 
L 394.788 23.870206 
L 398.7265 23.772316 
L 402.665 23.619026 
L 406.6035 23.465165 
L 410.542 23.304176 
L 414.4805 23.150314 
L 418.419 22.998829 
L 422.3575 22.847343 
L 426.296 22.695858 
L 430.2345 22.335662 
L 434.173 16.768318 
L 438.1115 16.616832 
L 442.05 16.465347 
" style="fill:none;stroke:#ff0000;stroke-linecap:square;stroke-width:1.5;"/>
   </g>
   <g id="line2d_21">
    <path clip-path="url(#paeeb3cae4f)" d="M 48.2 303 
L 52.1385 115.13223 
L 56.077 106.36547 
L 60.0155 101.298949 
L 63.954 97.192688 
L 67.8925 93.628004 
L 71.831 91.038204 
L 75.7695 88.965192 
L 79.708 86.569294 
L 83.6465 84.0948 
L 87.585 81.612919 
L 91.5235 79.279722 
L 95.462 77.258106 
L 99.4005 75.21599 
L 103.339 73.591355 
L 107.2775 72.294662 
L 111.216 71.134708 
L 115.1545 70.272854 
L 119.093 69.642952 
L 123.0315 68.9457 
L 126.97 68.457808 
L 130.9085 68.029312 
L 134.847 67.638666 
L 138.7855 67.346649 
L 142.724 67.048279 
L 146.6625 66.844006 
L 150.601 66.644264 
L 154.5395 66.518506 
L 158.478 66.393521 
L 162.4165 66.301022 
L 166.355 66.23632 
L 170.2935 66.162608 
L 174.232 66.088717 
L 178.1705 66.06678 
L 182.109 65.880845 
L 186.0475 65.707899 
L 189.986 65.679546 
L 193.9245 65.63179 
L 197.863 65.610565 
L 201.8015 65.424849 
L 205.74 64.114218 
L 209.6785 63.243671 
L 213.617 63.058067 
L 217.5555 62.979358 
L 221.494 62.915631 
L 225.4325 62.847706 
L 229.371 62.746176 
L 233.3095 62.310962 
L 237.248 62.142444 
L 241.1865 62.081594 
L 245.125 61.82823 
L 249.0635 61.772132 
L 253.002 61.651093 
L 256.9405 61.579354 
L 260.879 61.527348 
L 264.8175 61.484845 
L 268.756 61.300844 
L 272.6945 60.344739 
L 276.633 58.911181 
L 280.5715 58.140515 
L 284.51 57.523228 
L 288.4485 57.083091 
L 292.387 56.811373 
L 296.3255 56.479353 
L 300.264 55.933706 
L 304.2025 55.353299 
L 308.141 54.738959 
L 312.0795 54.10649 
L 316.018 53.293011 
L 319.9565 52.644711 
L 323.895 48.813759 
L 327.8335 40.516907 
L 331.772 35.100006 
L 335.7105 30.94155 
L 339.649 27.333672 
L 343.5875 24.607737 
L 347.526 20.485049 
L 351.4645 17.300125 
L 355.403 16.624532 
L 359.3415 16.465347 
L 363.28 16.465347 
L 367.2185 16.465347 
L 371.157 16.465347 
L 375.0955 16.465347 
L 379.034 16.465347 
L 382.9725 16.465347 
L 386.911 16.465347 
L 390.8495 16.465347 
L 394.788 16.465347 
L 398.7265 16.465347 
L 402.665 16.465347 
L 406.6035 16.465347 
L 410.542 16.465347 
L 414.4805 16.465347 
L 418.419 16.465347 
L 422.3575 16.465347 
L 426.296 16.465347 
L 430.2345 16.465347 
L 434.173 16.465347 
L 438.1115 16.465347 
L 442.05 16.465347 
" style="fill:none;stroke:#ff0000;stroke-dasharray:5.55,2.4;stroke-dashoffset:0;stroke-width:1.5;"/>
   </g>
   <g id="patch_3">
    <path d="M 48.2 303 
L 48.2 13.6 
" style="fill:none;stroke:#000000;stroke-linecap:square;stroke-linejoin:miter;stroke-width:0.8;"/>
   </g>
   <g id="patch_4">
    <path d="M 442.05 303 
L 442.05 13.6 
" style="fill:none;stroke:#000000;stroke-linecap:square;stroke-linejoin:miter;stroke-width:0.8;"/>
   </g>
   <g id="patch_5">
    <path d="M 48.2 303 
L 442.05 303 
" style="fill:none;stroke:#000000;stroke-linecap:square;stroke-linejoin:miter;stroke-width:0.8;"/>
   </g>
   <g id="patch_6">
    <path d="M 48.2 13.6 
L 442.05 13.6 
" style="fill:none;stroke:#000000;stroke-linecap:square;stroke-linejoin:miter;stroke-width:0.8;"/>
   </g>
   <g id="legend_1">
    <g id="patch_7">
     <path d="M 162.614063 298 
L 435.05 298 
Q 437.05 298 437.05 296 
L 437.05 179.4875 
Q 437.05 177.4875 435.05 177.4875 
L 162.614063 177.4875 
Q 160.614063 177.4875 160.614063 179.4875 
L 160.614063 296 
Q 160.614063 298 162.614063 298 
z
" style="fill:#ffffff;opacity:0.8;stroke:#cccccc;stroke-linejoin:miter;"/>
    </g>
    <g id="line2d_22">
     <path d="M 164.614063 185.5875 
L 184.614063 185.5875 
" style="fill:none;stroke:#0000ff;stroke-linecap:square;stroke-width:1.5;"/>
    </g>
    <g id="line2d_23"/>
    <g id="text_15">
     <!-- $\mu$ 1 seed node(s) mean AUC: 0.85 (std: 0.13) -->
     <defs>
      <path d="M -1.3125 -20.796875 
L 13.375 54.6875 
L 22.40625 54.6875 
L 15.765625 20.65625 
Q 15.578125 19.625 15.421875 18.359375 
Q 15.28125 17.09375 15.28125 15.828125 
Q 15.28125 11.28125 18.140625 8.828125 
Q 21 6.390625 26.3125 6.390625 
Q 33.546875 6.390625 37.984375 10.484375 
Q 42.4375 14.59375 44 22.796875 
L 50.203125 54.6875 
L 59.1875 54.6875 
L 51.03125 12.640625 
Q 50.828125 11.71875 50.75 11.03125 
Q 50.6875 10.359375 50.6875 9.8125 
Q 50.6875 8.296875 51.296875 7.59375 
Q 51.90625 6.890625 53.21875 6.890625 
Q 53.71875 6.890625 54.5625 7.125 
Q 55.421875 7.375 56.984375 8.015625 
L 55.609375 0.78125 
Q 53.46875 -0.296875 51.515625 -0.859375 
Q 49.5625 -1.421875 47.703125 -1.421875 
Q 44.484375 -1.421875 42.65625 0.625 
Q 40.828125 2.6875 40.828125 6.296875 
Q 38.09375 2.390625 34.296875 0.484375 
Q 30.515625 -1.421875 25.390625 -1.421875 
Q 20.84375 -1.421875 17.453125 0.671875 
Q 14.0625 2.78125 12.984375 6.203125 
L 7.71875 -20.796875 
z
" id="DejaVuSans-Oblique-3bc"/>
      <path d="M 45.40625 46.390625 
L 45.40625 75.984375 
L 54.390625 75.984375 
L 54.390625 0 
L 45.40625 0 
L 45.40625 8.203125 
Q 42.578125 3.328125 38.25 0.953125 
Q 33.9375 -1.421875 27.875 -1.421875 
Q 17.96875 -1.421875 11.734375 6.484375 
Q 5.515625 14.40625 5.515625 27.296875 
Q 5.515625 40.1875 11.734375 48.09375 
Q 17.96875 56 27.875 56 
Q 33.9375 56 38.25 53.625 
Q 42.578125 51.265625 45.40625 46.390625 
z
M 14.796875 27.296875 
Q 14.796875 17.390625 18.875 11.75 
Q 22.953125 6.109375 30.078125 6.109375 
Q 37.203125 6.109375 41.296875 11.75 
Q 45.40625 17.390625 45.40625 27.296875 
Q 45.40625 37.203125 41.296875 42.84375 
Q 37.203125 48.484375 30.078125 48.484375 
Q 22.953125 48.484375 18.875 42.84375 
Q 14.796875 37.203125 14.796875 27.296875 
z
" id="DejaVuSans-64"/>
      <path d="M 54.890625 33.015625 
L 54.890625 0 
L 45.90625 0 
L 45.90625 32.71875 
Q 45.90625 40.484375 42.875 44.328125 
Q 39.84375 48.1875 33.796875 48.1875 
Q 26.515625 48.1875 22.3125 43.546875 
Q 18.109375 38.921875 18.109375 30.90625 
L 18.109375 0 
L 9.078125 0 
L 9.078125 54.6875 
L 18.109375 54.6875 
L 18.109375 46.1875 
Q 21.34375 51.125 25.703125 53.5625 
Q 30.078125 56 35.796875 56 
Q 45.21875 56 50.046875 50.171875 
Q 54.890625 44.34375 54.890625 33.015625 
z
" id="DejaVuSans-6e"/>
      <path d="M 31 75.875 
Q 24.46875 64.65625 21.28125 53.65625 
Q 18.109375 42.671875 18.109375 31.390625 
Q 18.109375 20.125 21.3125 9.0625 
Q 24.515625 -2 31 -13.1875 
L 23.1875 -13.1875 
Q 15.875 -1.703125 12.234375 9.375 
Q 8.59375 20.453125 8.59375 31.390625 
Q 8.59375 42.28125 12.203125 53.3125 
Q 15.828125 64.359375 23.1875 75.875 
z
" id="DejaVuSans-28"/>
      <path d="M 8.015625 75.875 
L 15.828125 75.875 
Q 23.140625 64.359375 26.78125 53.3125 
Q 30.421875 42.28125 30.421875 31.390625 
Q 30.421875 20.453125 26.78125 9.375 
Q 23.140625 -1.703125 15.828125 -13.1875 
L 8.015625 -13.1875 
Q 14.5 -2 17.703125 9.0625 
Q 20.90625 20.125 20.90625 31.390625 
Q 20.90625 42.671875 17.703125 53.65625 
Q 14.5 64.65625 8.015625 75.875 
z
" id="DejaVuSans-29"/>
      <path d="M 52 44.1875 
Q 55.375 50.25 60.0625 53.125 
Q 64.75 56 71.09375 56 
Q 79.640625 56 84.28125 50.015625 
Q 88.921875 44.046875 88.921875 33.015625 
L 88.921875 0 
L 79.890625 0 
L 79.890625 32.71875 
Q 79.890625 40.578125 77.09375 44.375 
Q 74.3125 48.1875 68.609375 48.1875 
Q 61.625 48.1875 57.5625 43.546875 
Q 53.515625 38.921875 53.515625 30.90625 
L 53.515625 0 
L 44.484375 0 
L 44.484375 32.71875 
Q 44.484375 40.625 41.703125 44.40625 
Q 38.921875 48.1875 33.109375 48.1875 
Q 26.21875 48.1875 22.15625 43.53125 
Q 18.109375 38.875 18.109375 30.90625 
L 18.109375 0 
L 9.078125 0 
L 9.078125 54.6875 
L 18.109375 54.6875 
L 18.109375 46.1875 
Q 21.1875 51.21875 25.484375 53.609375 
Q 29.78125 56 35.6875 56 
Q 41.65625 56 45.828125 52.96875 
Q 50 49.953125 52 44.1875 
z
" id="DejaVuSans-6d"/>
      <path d="M 34.1875 63.1875 
L 20.796875 26.90625 
L 47.609375 26.90625 
z
M 28.609375 72.90625 
L 39.796875 72.90625 
L 67.578125 0 
L 57.328125 0 
L 50.6875 18.703125 
L 17.828125 18.703125 
L 11.1875 0 
L 0.78125 0 
z
" id="DejaVuSans-41"/>
      <path d="M 8.6875 72.90625 
L 18.609375 72.90625 
L 18.609375 28.609375 
Q 18.609375 16.890625 22.84375 11.734375 
Q 27.09375 6.59375 36.625 6.59375 
Q 46.09375 6.59375 50.34375 11.734375 
Q 54.59375 16.890625 54.59375 28.609375 
L 54.59375 72.90625 
L 64.5 72.90625 
L 64.5 27.390625 
Q 64.5 13.140625 57.4375 5.859375 
Q 50.390625 -1.421875 36.625 -1.421875 
Q 22.796875 -1.421875 15.734375 5.859375 
Q 8.6875 13.140625 8.6875 27.390625 
z
" id="DejaVuSans-55"/>
      <path d="M 64.40625 67.28125 
L 64.40625 56.890625 
Q 59.421875 61.53125 53.78125 63.8125 
Q 48.140625 66.109375 41.796875 66.109375 
Q 29.296875 66.109375 22.65625 58.46875 
Q 16.015625 50.828125 16.015625 36.375 
Q 16.015625 21.96875 22.65625 14.328125 
Q 29.296875 6.6875 41.796875 6.6875 
Q 48.140625 6.6875 53.78125 8.984375 
Q 59.421875 11.28125 64.40625 15.921875 
L 64.40625 5.609375 
Q 59.234375 2.09375 53.4375 0.328125 
Q 47.65625 -1.421875 41.21875 -1.421875 
Q 24.65625 -1.421875 15.125 8.703125 
Q 5.609375 18.84375 5.609375 36.375 
Q 5.609375 53.953125 15.125 64.078125 
Q 24.65625 74.21875 41.21875 74.21875 
Q 47.75 74.21875 53.53125 72.484375 
Q 59.328125 70.75 64.40625 67.28125 
z
" id="DejaVuSans-43"/>
      <path d="M 11.71875 12.40625 
L 22.015625 12.40625 
L 22.015625 0 
L 11.71875 0 
z
M 11.71875 51.703125 
L 22.015625 51.703125 
L 22.015625 39.3125 
L 11.71875 39.3125 
z
" id="DejaVuSans-3a"/>
      <path d="M 10.796875 72.90625 
L 49.515625 72.90625 
L 49.515625 64.59375 
L 19.828125 64.59375 
L 19.828125 46.734375 
Q 21.96875 47.46875 24.109375 47.828125 
Q 26.265625 48.1875 28.421875 48.1875 
Q 40.625 48.1875 47.75 41.5 
Q 54.890625 34.8125 54.890625 23.390625 
Q 54.890625 11.625 47.5625 5.09375 
Q 40.234375 -1.421875 26.90625 -1.421875 
Q 22.3125 -1.421875 17.546875 -0.640625 
Q 12.796875 0.140625 7.71875 1.703125 
L 7.71875 11.625 
Q 12.109375 9.234375 16.796875 8.0625 
Q 21.484375 6.890625 26.703125 6.890625 
Q 35.15625 6.890625 40.078125 11.328125 
Q 45.015625 15.765625 45.015625 23.390625 
Q 45.015625 31 40.078125 35.4375 
Q 35.15625 39.890625 26.703125 39.890625 
Q 22.75 39.890625 18.8125 39.015625 
Q 14.890625 38.140625 10.796875 36.28125 
z
" id="DejaVuSans-35"/>
      <path d="M 40.578125 39.3125 
Q 47.65625 37.796875 51.625 33 
Q 55.609375 28.21875 55.609375 21.1875 
Q 55.609375 10.40625 48.1875 4.484375 
Q 40.765625 -1.421875 27.09375 -1.421875 
Q 22.515625 -1.421875 17.65625 -0.515625 
Q 12.796875 0.390625 7.625 2.203125 
L 7.625 11.71875 
Q 11.71875 9.328125 16.59375 8.109375 
Q 21.484375 6.890625 26.8125 6.890625 
Q 36.078125 6.890625 40.9375 10.546875 
Q 45.796875 14.203125 45.796875 21.1875 
Q 45.796875 27.640625 41.28125 31.265625 
Q 36.765625 34.90625 28.71875 34.90625 
L 20.21875 34.90625 
L 20.21875 43.015625 
L 29.109375 43.015625 
Q 36.375 43.015625 40.234375 45.921875 
Q 44.09375 48.828125 44.09375 54.296875 
Q 44.09375 59.90625 40.109375 62.90625 
Q 36.140625 65.921875 28.71875 65.921875 
Q 24.65625 65.921875 20.015625 65.03125 
Q 15.375 64.15625 9.8125 62.3125 
L 9.8125 71.09375 
Q 15.4375 72.65625 20.34375 73.4375 
Q 25.25 74.21875 29.59375 74.21875 
Q 40.828125 74.21875 47.359375 69.109375 
Q 53.90625 64.015625 53.90625 55.328125 
Q 53.90625 49.265625 50.4375 45.09375 
Q 46.96875 40.921875 40.578125 39.3125 
z
" id="DejaVuSans-33"/>
     </defs>
     <g transform="translate(192.614063 189.0875)scale(0.1 -0.1)">
      <use transform="translate(0 0.015625)" xlink:href="#DejaVuSans-Oblique-3bc"/>
      <use transform="translate(63.623047 0.015625)" xlink:href="#DejaVuSans-20"/>
      <use transform="translate(95.410156 0.015625)" xlink:href="#DejaVuSans-31"/>
      <use transform="translate(159.033203 0.015625)" xlink:href="#DejaVuSans-20"/>
      <use transform="translate(190.820312 0.015625)" xlink:href="#DejaVuSans-73"/>
      <use transform="translate(242.919922 0.015625)" xlink:href="#DejaVuSans-65"/>
      <use transform="translate(304.443359 0.015625)" xlink:href="#DejaVuSans-65"/>
      <use transform="translate(365.966797 0.015625)" xlink:href="#DejaVuSans-64"/>
      <use transform="translate(429.443359 0.015625)" xlink:href="#DejaVuSans-20"/>
      <use transform="translate(461.230469 0.015625)" xlink:href="#DejaVuSans-6e"/>
      <use transform="translate(524.609375 0.015625)" xlink:href="#DejaVuSans-6f"/>
      <use transform="translate(585.791016 0.015625)" xlink:href="#DejaVuSans-64"/>
      <use transform="translate(649.267578 0.015625)" xlink:href="#DejaVuSans-65"/>
      <use transform="translate(710.791016 0.015625)" xlink:href="#DejaVuSans-28"/>
      <use transform="translate(749.804688 0.015625)" xlink:href="#DejaVuSans-73"/>
      <use transform="translate(801.904297 0.015625)" xlink:href="#DejaVuSans-29"/>
      <use transform="translate(840.917969 0.015625)" xlink:href="#DejaVuSans-20"/>
      <use transform="translate(872.705078 0.015625)" xlink:href="#DejaVuSans-6d"/>
      <use transform="translate(970.117188 0.015625)" xlink:href="#DejaVuSans-65"/>
      <use transform="translate(1031.640625 0.015625)" xlink:href="#DejaVuSans-61"/>
      <use transform="translate(1092.919922 0.015625)" xlink:href="#DejaVuSans-6e"/>
      <use transform="translate(1156.298828 0.015625)" xlink:href="#DejaVuSans-20"/>
      <use transform="translate(1188.085938 0.015625)" xlink:href="#DejaVuSans-41"/>
      <use transform="translate(1256.494141 0.015625)" xlink:href="#DejaVuSans-55"/>
      <use transform="translate(1329.6875 0.015625)" xlink:href="#DejaVuSans-43"/>
      <use transform="translate(1399.511719 0.015625)" xlink:href="#DejaVuSans-3a"/>
      <use transform="translate(1433.203125 0.015625)" xlink:href="#DejaVuSans-20"/>
      <use transform="translate(1464.990234 0.015625)" xlink:href="#DejaVuSans-30"/>
      <use transform="translate(1528.613281 0.015625)" xlink:href="#DejaVuSans-2e"/>
      <use transform="translate(1560.369141 0.015625)" xlink:href="#DejaVuSans-38"/>
      <use transform="translate(1623.992188 0.015625)" xlink:href="#DejaVuSans-35"/>
      <use transform="translate(1687.615234 0.015625)" xlink:href="#DejaVuSans-20"/>
      <use transform="translate(1719.402344 0.015625)" xlink:href="#DejaVuSans-28"/>
      <use transform="translate(1758.416016 0.015625)" xlink:href="#DejaVuSans-73"/>
      <use transform="translate(1810.515625 0.015625)" xlink:href="#DejaVuSans-74"/>
      <use transform="translate(1849.724609 0.015625)" xlink:href="#DejaVuSans-64"/>
      <use transform="translate(1913.201172 0.015625)" xlink:href="#DejaVuSans-3a"/>
      <use transform="translate(1946.892578 0.015625)" xlink:href="#DejaVuSans-20"/>
      <use transform="translate(1978.679688 0.015625)" xlink:href="#DejaVuSans-30"/>
      <use transform="translate(2042.302734 0.015625)" xlink:href="#DejaVuSans-2e"/>
      <use transform="translate(2074.089844 0.015625)" xlink:href="#DejaVuSans-31"/>
      <use transform="translate(2137.712891 0.015625)" xlink:href="#DejaVuSans-33"/>
      <use transform="translate(2201.335938 0.015625)" xlink:href="#DejaVuSans-29"/>
     </g>
    </g>
    <g id="line2d_24">
     <path d="M 164.614063 200.285937 
L 184.614063 200.285937 
" style="fill:none;stroke:#0000ff;stroke-dasharray:5.55,2.4;stroke-dashoffset:0;stroke-width:1.5;"/>
    </g>
    <g id="line2d_25"/>
    <g id="text_16">
     <!-- rwr 1 seed node(s) mean AUC: 0.88 (std: 0.07) -->
     <defs>
      <path d="M 4.203125 54.6875 
L 13.1875 54.6875 
L 24.421875 12.015625 
L 35.59375 54.6875 
L 46.1875 54.6875 
L 57.421875 12.015625 
L 68.609375 54.6875 
L 77.59375 54.6875 
L 63.28125 0 
L 52.6875 0 
L 40.921875 44.828125 
L 29.109375 0 
L 18.5 0 
z
" id="DejaVuSans-77"/>
      <path d="M 8.203125 72.90625 
L 55.078125 72.90625 
L 55.078125 68.703125 
L 28.609375 0 
L 18.3125 0 
L 43.21875 64.59375 
L 8.203125 64.59375 
z
" id="DejaVuSans-37"/>
     </defs>
     <g transform="translate(192.614063 203.785937)scale(0.1 -0.1)">
      <use xlink:href="#DejaVuSans-72"/>
      <use x="41.113281" xlink:href="#DejaVuSans-77"/>
      <use x="122.900391" xlink:href="#DejaVuSans-72"/>
      <use x="164.013672" xlink:href="#DejaVuSans-20"/>
      <use x="195.800781" xlink:href="#DejaVuSans-31"/>
      <use x="259.423828" xlink:href="#DejaVuSans-20"/>
      <use x="291.210938" xlink:href="#DejaVuSans-73"/>
      <use x="343.310547" xlink:href="#DejaVuSans-65"/>
      <use x="404.833984" xlink:href="#DejaVuSans-65"/>
      <use x="466.357422" xlink:href="#DejaVuSans-64"/>
      <use x="529.833984" xlink:href="#DejaVuSans-20"/>
      <use x="561.621094" xlink:href="#DejaVuSans-6e"/>
      <use x="625" xlink:href="#DejaVuSans-6f"/>
      <use x="686.181641" xlink:href="#DejaVuSans-64"/>
      <use x="749.658203" xlink:href="#DejaVuSans-65"/>
      <use x="811.181641" xlink:href="#DejaVuSans-28"/>
      <use x="850.195312" xlink:href="#DejaVuSans-73"/>
      <use x="902.294922" xlink:href="#DejaVuSans-29"/>
      <use x="941.308594" xlink:href="#DejaVuSans-20"/>
      <use x="973.095703" xlink:href="#DejaVuSans-6d"/>
      <use x="1070.507812" xlink:href="#DejaVuSans-65"/>
      <use x="1132.03125" xlink:href="#DejaVuSans-61"/>
      <use x="1193.310547" xlink:href="#DejaVuSans-6e"/>
      <use x="1256.689453" xlink:href="#DejaVuSans-20"/>
      <use x="1288.476562" xlink:href="#DejaVuSans-41"/>
      <use x="1356.884766" xlink:href="#DejaVuSans-55"/>
      <use x="1430.078125" xlink:href="#DejaVuSans-43"/>
      <use x="1499.902344" xlink:href="#DejaVuSans-3a"/>
      <use x="1533.59375" xlink:href="#DejaVuSans-20"/>
      <use x="1565.380859" xlink:href="#DejaVuSans-30"/>
      <use x="1629.003906" xlink:href="#DejaVuSans-2e"/>
      <use x="1660.791016" xlink:href="#DejaVuSans-38"/>
      <use x="1724.414062" xlink:href="#DejaVuSans-38"/>
      <use x="1788.037109" xlink:href="#DejaVuSans-20"/>
      <use x="1819.824219" xlink:href="#DejaVuSans-28"/>
      <use x="1858.837891" xlink:href="#DejaVuSans-73"/>
      <use x="1910.9375" xlink:href="#DejaVuSans-74"/>
      <use x="1950.146484" xlink:href="#DejaVuSans-64"/>
      <use x="2013.623047" xlink:href="#DejaVuSans-3a"/>
      <use x="2047.314453" xlink:href="#DejaVuSans-20"/>
      <use x="2079.101562" xlink:href="#DejaVuSans-30"/>
      <use x="2142.724609" xlink:href="#DejaVuSans-2e"/>
      <use x="2174.511719" xlink:href="#DejaVuSans-30"/>
      <use x="2238.134766" xlink:href="#DejaVuSans-37"/>
      <use x="2301.757812" xlink:href="#DejaVuSans-29"/>
     </g>
    </g>
    <g id="line2d_26">
     <path d="M 164.614063 214.965625 
L 184.614063 214.965625 
" style="fill:none;stroke:#008000;stroke-linecap:square;stroke-width:1.5;"/>
    </g>
    <g id="line2d_27"/>
    <g id="text_17">
     <!-- $\mu$ 3 seed node(s) mean AUC: 0.89 (std: 0.08) -->
     <defs>
      <path d="M 10.984375 1.515625 
L 10.984375 10.5 
Q 14.703125 8.734375 18.5 7.8125 
Q 22.3125 6.890625 25.984375 6.890625 
Q 35.75 6.890625 40.890625 13.453125 
Q 46.046875 20.015625 46.78125 33.40625 
Q 43.953125 29.203125 39.59375 26.953125 
Q 35.25 24.703125 29.984375 24.703125 
Q 19.046875 24.703125 12.671875 31.3125 
Q 6.296875 37.9375 6.296875 49.421875 
Q 6.296875 60.640625 12.9375 67.421875 
Q 19.578125 74.21875 30.609375 74.21875 
Q 43.265625 74.21875 49.921875 64.515625 
Q 56.59375 54.828125 56.59375 36.375 
Q 56.59375 19.140625 48.40625 8.859375 
Q 40.234375 -1.421875 26.421875 -1.421875 
Q 22.703125 -1.421875 18.890625 -0.6875 
Q 15.09375 0.046875 10.984375 1.515625 
z
M 30.609375 32.421875 
Q 37.25 32.421875 41.125 36.953125 
Q 45.015625 41.5 45.015625 49.421875 
Q 45.015625 57.28125 41.125 61.84375 
Q 37.25 66.40625 30.609375 66.40625 
Q 23.96875 66.40625 20.09375 61.84375 
Q 16.21875 57.28125 16.21875 49.421875 
Q 16.21875 41.5 20.09375 36.953125 
Q 23.96875 32.421875 30.609375 32.421875 
z
" id="DejaVuSans-39"/>
     </defs>
     <g transform="translate(192.614063 218.465625)scale(0.1 -0.1)">
      <use transform="translate(0 0.015625)" xlink:href="#DejaVuSans-Oblique-3bc"/>
      <use transform="translate(63.623047 0.015625)" xlink:href="#DejaVuSans-20"/>
      <use transform="translate(95.410156 0.015625)" xlink:href="#DejaVuSans-33"/>
      <use transform="translate(159.033203 0.015625)" xlink:href="#DejaVuSans-20"/>
      <use transform="translate(190.820312 0.015625)" xlink:href="#DejaVuSans-73"/>
      <use transform="translate(242.919922 0.015625)" xlink:href="#DejaVuSans-65"/>
      <use transform="translate(304.443359 0.015625)" xlink:href="#DejaVuSans-65"/>
      <use transform="translate(365.966797 0.015625)" xlink:href="#DejaVuSans-64"/>
      <use transform="translate(429.443359 0.015625)" xlink:href="#DejaVuSans-20"/>
      <use transform="translate(461.230469 0.015625)" xlink:href="#DejaVuSans-6e"/>
      <use transform="translate(524.609375 0.015625)" xlink:href="#DejaVuSans-6f"/>
      <use transform="translate(585.791016 0.015625)" xlink:href="#DejaVuSans-64"/>
      <use transform="translate(649.267578 0.015625)" xlink:href="#DejaVuSans-65"/>
      <use transform="translate(710.791016 0.015625)" xlink:href="#DejaVuSans-28"/>
      <use transform="translate(749.804688 0.015625)" xlink:href="#DejaVuSans-73"/>
      <use transform="translate(801.904297 0.015625)" xlink:href="#DejaVuSans-29"/>
      <use transform="translate(840.917969 0.015625)" xlink:href="#DejaVuSans-20"/>
      <use transform="translate(872.705078 0.015625)" xlink:href="#DejaVuSans-6d"/>
      <use transform="translate(970.117188 0.015625)" xlink:href="#DejaVuSans-65"/>
      <use transform="translate(1031.640625 0.015625)" xlink:href="#DejaVuSans-61"/>
      <use transform="translate(1092.919922 0.015625)" xlink:href="#DejaVuSans-6e"/>
      <use transform="translate(1156.298828 0.015625)" xlink:href="#DejaVuSans-20"/>
      <use transform="translate(1188.085938 0.015625)" xlink:href="#DejaVuSans-41"/>
      <use transform="translate(1256.494141 0.015625)" xlink:href="#DejaVuSans-55"/>
      <use transform="translate(1329.6875 0.015625)" xlink:href="#DejaVuSans-43"/>
      <use transform="translate(1399.511719 0.015625)" xlink:href="#DejaVuSans-3a"/>
      <use transform="translate(1433.203125 0.015625)" xlink:href="#DejaVuSans-20"/>
      <use transform="translate(1464.990234 0.015625)" xlink:href="#DejaVuSans-30"/>
      <use transform="translate(1528.613281 0.015625)" xlink:href="#DejaVuSans-2e"/>
      <use transform="translate(1560.369141 0.015625)" xlink:href="#DejaVuSans-38"/>
      <use transform="translate(1623.992188 0.015625)" xlink:href="#DejaVuSans-39"/>
      <use transform="translate(1687.615234 0.015625)" xlink:href="#DejaVuSans-20"/>
      <use transform="translate(1719.402344 0.015625)" xlink:href="#DejaVuSans-28"/>
      <use transform="translate(1758.416016 0.015625)" xlink:href="#DejaVuSans-73"/>
      <use transform="translate(1810.515625 0.015625)" xlink:href="#DejaVuSans-74"/>
      <use transform="translate(1849.724609 0.015625)" xlink:href="#DejaVuSans-64"/>
      <use transform="translate(1913.201172 0.015625)" xlink:href="#DejaVuSans-3a"/>
      <use transform="translate(1946.892578 0.015625)" xlink:href="#DejaVuSans-20"/>
      <use transform="translate(1978.679688 0.015625)" xlink:href="#DejaVuSans-30"/>
      <use transform="translate(2042.302734 0.015625)" xlink:href="#DejaVuSans-2e"/>
      <use transform="translate(2074.089844 0.015625)" xlink:href="#DejaVuSans-30"/>
      <use transform="translate(2137.712891 0.015625)" xlink:href="#DejaVuSans-38"/>
      <use transform="translate(2201.335938 0.015625)" xlink:href="#DejaVuSans-29"/>
     </g>
    </g>
    <g id="line2d_28">
     <path d="M 164.614063 229.664062 
L 184.614063 229.664062 
" style="fill:none;stroke:#008000;stroke-dasharray:5.55,2.4;stroke-dashoffset:0;stroke-width:1.5;"/>
    </g>
    <g id="line2d_29"/>
    <g id="text_18">
     <!-- rwr 3 seed node(s) mean AUC: 0.91 (std: 0.06) -->
     <g transform="translate(192.614063 233.164062)scale(0.1 -0.1)">
      <use xlink:href="#DejaVuSans-72"/>
      <use x="41.113281" xlink:href="#DejaVuSans-77"/>
      <use x="122.900391" xlink:href="#DejaVuSans-72"/>
      <use x="164.013672" xlink:href="#DejaVuSans-20"/>
      <use x="195.800781" xlink:href="#DejaVuSans-33"/>
      <use x="259.423828" xlink:href="#DejaVuSans-20"/>
      <use x="291.210938" xlink:href="#DejaVuSans-73"/>
      <use x="343.310547" xlink:href="#DejaVuSans-65"/>
      <use x="404.833984" xlink:href="#DejaVuSans-65"/>
      <use x="466.357422" xlink:href="#DejaVuSans-64"/>
      <use x="529.833984" xlink:href="#DejaVuSans-20"/>
      <use x="561.621094" xlink:href="#DejaVuSans-6e"/>
      <use x="625" xlink:href="#DejaVuSans-6f"/>
      <use x="686.181641" xlink:href="#DejaVuSans-64"/>
      <use x="749.658203" xlink:href="#DejaVuSans-65"/>
      <use x="811.181641" xlink:href="#DejaVuSans-28"/>
      <use x="850.195312" xlink:href="#DejaVuSans-73"/>
      <use x="902.294922" xlink:href="#DejaVuSans-29"/>
      <use x="941.308594" xlink:href="#DejaVuSans-20"/>
      <use x="973.095703" xlink:href="#DejaVuSans-6d"/>
      <use x="1070.507812" xlink:href="#DejaVuSans-65"/>
      <use x="1132.03125" xlink:href="#DejaVuSans-61"/>
      <use x="1193.310547" xlink:href="#DejaVuSans-6e"/>
      <use x="1256.689453" xlink:href="#DejaVuSans-20"/>
      <use x="1288.476562" xlink:href="#DejaVuSans-41"/>
      <use x="1356.884766" xlink:href="#DejaVuSans-55"/>
      <use x="1430.078125" xlink:href="#DejaVuSans-43"/>
      <use x="1499.902344" xlink:href="#DejaVuSans-3a"/>
      <use x="1533.59375" xlink:href="#DejaVuSans-20"/>
      <use x="1565.380859" xlink:href="#DejaVuSans-30"/>
      <use x="1629.003906" xlink:href="#DejaVuSans-2e"/>
      <use x="1660.791016" xlink:href="#DejaVuSans-39"/>
      <use x="1724.414062" xlink:href="#DejaVuSans-31"/>
      <use x="1788.037109" xlink:href="#DejaVuSans-20"/>
      <use x="1819.824219" xlink:href="#DejaVuSans-28"/>
      <use x="1858.837891" xlink:href="#DejaVuSans-73"/>
      <use x="1910.9375" xlink:href="#DejaVuSans-74"/>
      <use x="1950.146484" xlink:href="#DejaVuSans-64"/>
      <use x="2013.623047" xlink:href="#DejaVuSans-3a"/>
      <use x="2047.314453" xlink:href="#DejaVuSans-20"/>
      <use x="2079.101562" xlink:href="#DejaVuSans-30"/>
      <use x="2142.724609" xlink:href="#DejaVuSans-2e"/>
      <use x="2174.511719" xlink:href="#DejaVuSans-30"/>
      <use x="2238.134766" xlink:href="#DejaVuSans-36"/>
      <use x="2301.757812" xlink:href="#DejaVuSans-29"/>
     </g>
    </g>
    <g id="line2d_30">
     <path d="M 164.614063 244.34375 
L 184.614063 244.34375 
" style="fill:none;stroke:#bfbf00;stroke-linecap:square;stroke-width:1.5;"/>
    </g>
    <g id="line2d_31"/>
    <g id="text_19">
     <!-- $\mu$ 7 seed node(s) mean AUC: 0.89 (std: 0.06) -->
     <g transform="translate(192.614063 247.84375)scale(0.1 -0.1)">
      <use transform="translate(0 0.015625)" xlink:href="#DejaVuSans-Oblique-3bc"/>
      <use transform="translate(63.623047 0.015625)" xlink:href="#DejaVuSans-20"/>
      <use transform="translate(95.410156 0.015625)" xlink:href="#DejaVuSans-37"/>
      <use transform="translate(159.033203 0.015625)" xlink:href="#DejaVuSans-20"/>
      <use transform="translate(190.820312 0.015625)" xlink:href="#DejaVuSans-73"/>
      <use transform="translate(242.919922 0.015625)" xlink:href="#DejaVuSans-65"/>
      <use transform="translate(304.443359 0.015625)" xlink:href="#DejaVuSans-65"/>
      <use transform="translate(365.966797 0.015625)" xlink:href="#DejaVuSans-64"/>
      <use transform="translate(429.443359 0.015625)" xlink:href="#DejaVuSans-20"/>
      <use transform="translate(461.230469 0.015625)" xlink:href="#DejaVuSans-6e"/>
      <use transform="translate(524.609375 0.015625)" xlink:href="#DejaVuSans-6f"/>
      <use transform="translate(585.791016 0.015625)" xlink:href="#DejaVuSans-64"/>
      <use transform="translate(649.267578 0.015625)" xlink:href="#DejaVuSans-65"/>
      <use transform="translate(710.791016 0.015625)" xlink:href="#DejaVuSans-28"/>
      <use transform="translate(749.804688 0.015625)" xlink:href="#DejaVuSans-73"/>
      <use transform="translate(801.904297 0.015625)" xlink:href="#DejaVuSans-29"/>
      <use transform="translate(840.917969 0.015625)" xlink:href="#DejaVuSans-20"/>
      <use transform="translate(872.705078 0.015625)" xlink:href="#DejaVuSans-6d"/>
      <use transform="translate(970.117188 0.015625)" xlink:href="#DejaVuSans-65"/>
      <use transform="translate(1031.640625 0.015625)" xlink:href="#DejaVuSans-61"/>
      <use transform="translate(1092.919922 0.015625)" xlink:href="#DejaVuSans-6e"/>
      <use transform="translate(1156.298828 0.015625)" xlink:href="#DejaVuSans-20"/>
      <use transform="translate(1188.085938 0.015625)" xlink:href="#DejaVuSans-41"/>
      <use transform="translate(1256.494141 0.015625)" xlink:href="#DejaVuSans-55"/>
      <use transform="translate(1329.6875 0.015625)" xlink:href="#DejaVuSans-43"/>
      <use transform="translate(1399.511719 0.015625)" xlink:href="#DejaVuSans-3a"/>
      <use transform="translate(1433.203125 0.015625)" xlink:href="#DejaVuSans-20"/>
      <use transform="translate(1464.990234 0.015625)" xlink:href="#DejaVuSans-30"/>
      <use transform="translate(1528.613281 0.015625)" xlink:href="#DejaVuSans-2e"/>
      <use transform="translate(1560.369141 0.015625)" xlink:href="#DejaVuSans-38"/>
      <use transform="translate(1623.992188 0.015625)" xlink:href="#DejaVuSans-39"/>
      <use transform="translate(1687.615234 0.015625)" xlink:href="#DejaVuSans-20"/>
      <use transform="translate(1719.402344 0.015625)" xlink:href="#DejaVuSans-28"/>
      <use transform="translate(1758.416016 0.015625)" xlink:href="#DejaVuSans-73"/>
      <use transform="translate(1810.515625 0.015625)" xlink:href="#DejaVuSans-74"/>
      <use transform="translate(1849.724609 0.015625)" xlink:href="#DejaVuSans-64"/>
      <use transform="translate(1913.201172 0.015625)" xlink:href="#DejaVuSans-3a"/>
      <use transform="translate(1946.892578 0.015625)" xlink:href="#DejaVuSans-20"/>
      <use transform="translate(1978.679688 0.015625)" xlink:href="#DejaVuSans-30"/>
      <use transform="translate(2042.302734 0.015625)" xlink:href="#DejaVuSans-2e"/>
      <use transform="translate(2074.089844 0.015625)" xlink:href="#DejaVuSans-30"/>
      <use transform="translate(2137.712891 0.015625)" xlink:href="#DejaVuSans-36"/>
      <use transform="translate(2201.335938 0.015625)" xlink:href="#DejaVuSans-29"/>
     </g>
    </g>
    <g id="line2d_32">
     <path d="M 164.614063 259.042188 
L 184.614063 259.042188 
" style="fill:none;stroke:#bfbf00;stroke-dasharray:5.55,2.4;stroke-dashoffset:0;stroke-width:1.5;"/>
    </g>
    <g id="line2d_33"/>
    <g id="text_20">
     <!-- rwr 7 seed node(s) mean AUC: 0.90 (std: 0.06) -->
     <g transform="translate(192.614063 262.542188)scale(0.1 -0.1)">
      <use xlink:href="#DejaVuSans-72"/>
      <use x="41.113281" xlink:href="#DejaVuSans-77"/>
      <use x="122.900391" xlink:href="#DejaVuSans-72"/>
      <use x="164.013672" xlink:href="#DejaVuSans-20"/>
      <use x="195.800781" xlink:href="#DejaVuSans-37"/>
      <use x="259.423828" xlink:href="#DejaVuSans-20"/>
      <use x="291.210938" xlink:href="#DejaVuSans-73"/>
      <use x="343.310547" xlink:href="#DejaVuSans-65"/>
      <use x="404.833984" xlink:href="#DejaVuSans-65"/>
      <use x="466.357422" xlink:href="#DejaVuSans-64"/>
      <use x="529.833984" xlink:href="#DejaVuSans-20"/>
      <use x="561.621094" xlink:href="#DejaVuSans-6e"/>
      <use x="625" xlink:href="#DejaVuSans-6f"/>
      <use x="686.181641" xlink:href="#DejaVuSans-64"/>
      <use x="749.658203" xlink:href="#DejaVuSans-65"/>
      <use x="811.181641" xlink:href="#DejaVuSans-28"/>
      <use x="850.195312" xlink:href="#DejaVuSans-73"/>
      <use x="902.294922" xlink:href="#DejaVuSans-29"/>
      <use x="941.308594" xlink:href="#DejaVuSans-20"/>
      <use x="973.095703" xlink:href="#DejaVuSans-6d"/>
      <use x="1070.507812" xlink:href="#DejaVuSans-65"/>
      <use x="1132.03125" xlink:href="#DejaVuSans-61"/>
      <use x="1193.310547" xlink:href="#DejaVuSans-6e"/>
      <use x="1256.689453" xlink:href="#DejaVuSans-20"/>
      <use x="1288.476562" xlink:href="#DejaVuSans-41"/>
      <use x="1356.884766" xlink:href="#DejaVuSans-55"/>
      <use x="1430.078125" xlink:href="#DejaVuSans-43"/>
      <use x="1499.902344" xlink:href="#DejaVuSans-3a"/>
      <use x="1533.59375" xlink:href="#DejaVuSans-20"/>
      <use x="1565.380859" xlink:href="#DejaVuSans-30"/>
      <use x="1629.003906" xlink:href="#DejaVuSans-2e"/>
      <use x="1660.791016" xlink:href="#DejaVuSans-39"/>
      <use x="1724.414062" xlink:href="#DejaVuSans-30"/>
      <use x="1788.037109" xlink:href="#DejaVuSans-20"/>
      <use x="1819.824219" xlink:href="#DejaVuSans-28"/>
      <use x="1858.837891" xlink:href="#DejaVuSans-73"/>
      <use x="1910.9375" xlink:href="#DejaVuSans-74"/>
      <use x="1950.146484" xlink:href="#DejaVuSans-64"/>
      <use x="2013.623047" xlink:href="#DejaVuSans-3a"/>
      <use x="2047.314453" xlink:href="#DejaVuSans-20"/>
      <use x="2079.101562" xlink:href="#DejaVuSans-30"/>
      <use x="2142.724609" xlink:href="#DejaVuSans-2e"/>
      <use x="2174.511719" xlink:href="#DejaVuSans-30"/>
      <use x="2238.134766" xlink:href="#DejaVuSans-36"/>
      <use x="2301.757812" xlink:href="#DejaVuSans-29"/>
     </g>
    </g>
    <g id="line2d_34">
     <path d="M 164.614063 273.721875 
L 184.614063 273.721875 
" style="fill:none;stroke:#ff0000;stroke-linecap:square;stroke-width:1.5;"/>
    </g>
    <g id="line2d_35"/>
    <g id="text_21">
     <!-- $\mu$ 15 seed node(s) mean AUC: 0.89 (std: 0.09) -->
     <g transform="translate(192.614063 277.221875)scale(0.1 -0.1)">
      <use transform="translate(0 0.015625)" xlink:href="#DejaVuSans-Oblique-3bc"/>
      <use transform="translate(63.623047 0.015625)" xlink:href="#DejaVuSans-20"/>
      <use transform="translate(95.410156 0.015625)" xlink:href="#DejaVuSans-31"/>
      <use transform="translate(159.033203 0.015625)" xlink:href="#DejaVuSans-35"/>
      <use transform="translate(222.65625 0.015625)" xlink:href="#DejaVuSans-20"/>
      <use transform="translate(254.443359 0.015625)" xlink:href="#DejaVuSans-73"/>
      <use transform="translate(306.542969 0.015625)" xlink:href="#DejaVuSans-65"/>
      <use transform="translate(368.066406 0.015625)" xlink:href="#DejaVuSans-65"/>
      <use transform="translate(429.589844 0.015625)" xlink:href="#DejaVuSans-64"/>
      <use transform="translate(493.066406 0.015625)" xlink:href="#DejaVuSans-20"/>
      <use transform="translate(524.853516 0.015625)" xlink:href="#DejaVuSans-6e"/>
      <use transform="translate(588.232422 0.015625)" xlink:href="#DejaVuSans-6f"/>
      <use transform="translate(649.414062 0.015625)" xlink:href="#DejaVuSans-64"/>
      <use transform="translate(712.890625 0.015625)" xlink:href="#DejaVuSans-65"/>
      <use transform="translate(774.414062 0.015625)" xlink:href="#DejaVuSans-28"/>
      <use transform="translate(813.427734 0.015625)" xlink:href="#DejaVuSans-73"/>
      <use transform="translate(865.527344 0.015625)" xlink:href="#DejaVuSans-29"/>
      <use transform="translate(904.541016 0.015625)" xlink:href="#DejaVuSans-20"/>
      <use transform="translate(936.328125 0.015625)" xlink:href="#DejaVuSans-6d"/>
      <use transform="translate(1033.740234 0.015625)" xlink:href="#DejaVuSans-65"/>
      <use transform="translate(1095.263672 0.015625)" xlink:href="#DejaVuSans-61"/>
      <use transform="translate(1156.542969 0.015625)" xlink:href="#DejaVuSans-6e"/>
      <use transform="translate(1219.921875 0.015625)" xlink:href="#DejaVuSans-20"/>
      <use transform="translate(1251.708984 0.015625)" xlink:href="#DejaVuSans-41"/>
      <use transform="translate(1320.117188 0.015625)" xlink:href="#DejaVuSans-55"/>
      <use transform="translate(1393.310547 0.015625)" xlink:href="#DejaVuSans-43"/>
      <use transform="translate(1463.134766 0.015625)" xlink:href="#DejaVuSans-3a"/>
      <use transform="translate(1496.826172 0.015625)" xlink:href="#DejaVuSans-20"/>
      <use transform="translate(1528.613281 0.015625)" xlink:href="#DejaVuSans-30"/>
      <use transform="translate(1592.236328 0.015625)" xlink:href="#DejaVuSans-2e"/>
      <use transform="translate(1623.992188 0.015625)" xlink:href="#DejaVuSans-38"/>
      <use transform="translate(1687.615234 0.015625)" xlink:href="#DejaVuSans-39"/>
      <use transform="translate(1751.238281 0.015625)" xlink:href="#DejaVuSans-20"/>
      <use transform="translate(1783.025391 0.015625)" xlink:href="#DejaVuSans-28"/>
      <use transform="translate(1822.039062 0.015625)" xlink:href="#DejaVuSans-73"/>
      <use transform="translate(1874.138672 0.015625)" xlink:href="#DejaVuSans-74"/>
      <use transform="translate(1913.347656 0.015625)" xlink:href="#DejaVuSans-64"/>
      <use transform="translate(1976.824219 0.015625)" xlink:href="#DejaVuSans-3a"/>
      <use transform="translate(2010.515625 0.015625)" xlink:href="#DejaVuSans-20"/>
      <use transform="translate(2042.302734 0.015625)" xlink:href="#DejaVuSans-30"/>
      <use transform="translate(2105.925781 0.015625)" xlink:href="#DejaVuSans-2e"/>
      <use transform="translate(2137.712891 0.015625)" xlink:href="#DejaVuSans-30"/>
      <use transform="translate(2201.335938 0.015625)" xlink:href="#DejaVuSans-39"/>
      <use transform="translate(2264.958984 0.015625)" xlink:href="#DejaVuSans-29"/>
     </g>
    </g>
    <g id="line2d_36">
     <path d="M 164.614063 288.420313 
L 184.614063 288.420313 
" style="fill:none;stroke:#ff0000;stroke-dasharray:5.55,2.4;stroke-dashoffset:0;stroke-width:1.5;"/>
    </g>
    <g id="line2d_37"/>
    <g id="text_22">
     <!-- rwr 15 seed node(s) mean AUC: 0.87 (std: 0.07) -->
     <g transform="translate(192.614063 291.920313)scale(0.1 -0.1)">
      <use xlink:href="#DejaVuSans-72"/>
      <use x="41.113281" xlink:href="#DejaVuSans-77"/>
      <use x="122.900391" xlink:href="#DejaVuSans-72"/>
      <use x="164.013672" xlink:href="#DejaVuSans-20"/>
      <use x="195.800781" xlink:href="#DejaVuSans-31"/>
      <use x="259.423828" xlink:href="#DejaVuSans-35"/>
      <use x="323.046875" xlink:href="#DejaVuSans-20"/>
      <use x="354.833984" xlink:href="#DejaVuSans-73"/>
      <use x="406.933594" xlink:href="#DejaVuSans-65"/>
      <use x="468.457031" xlink:href="#DejaVuSans-65"/>
      <use x="529.980469" xlink:href="#DejaVuSans-64"/>
      <use x="593.457031" xlink:href="#DejaVuSans-20"/>
      <use x="625.244141" xlink:href="#DejaVuSans-6e"/>
      <use x="688.623047" xlink:href="#DejaVuSans-6f"/>
      <use x="749.804688" xlink:href="#DejaVuSans-64"/>
      <use x="813.28125" xlink:href="#DejaVuSans-65"/>
      <use x="874.804688" xlink:href="#DejaVuSans-28"/>
      <use x="913.818359" xlink:href="#DejaVuSans-73"/>
      <use x="965.917969" xlink:href="#DejaVuSans-29"/>
      <use x="1004.931641" xlink:href="#DejaVuSans-20"/>
      <use x="1036.71875" xlink:href="#DejaVuSans-6d"/>
      <use x="1134.130859" xlink:href="#DejaVuSans-65"/>
      <use x="1195.654297" xlink:href="#DejaVuSans-61"/>
      <use x="1256.933594" xlink:href="#DejaVuSans-6e"/>
      <use x="1320.3125" xlink:href="#DejaVuSans-20"/>
      <use x="1352.099609" xlink:href="#DejaVuSans-41"/>
      <use x="1420.507812" xlink:href="#DejaVuSans-55"/>
      <use x="1493.701172" xlink:href="#DejaVuSans-43"/>
      <use x="1563.525391" xlink:href="#DejaVuSans-3a"/>
      <use x="1597.216797" xlink:href="#DejaVuSans-20"/>
      <use x="1629.003906" xlink:href="#DejaVuSans-30"/>
      <use x="1692.626953" xlink:href="#DejaVuSans-2e"/>
      <use x="1724.414062" xlink:href="#DejaVuSans-38"/>
      <use x="1788.037109" xlink:href="#DejaVuSans-37"/>
      <use x="1851.660156" xlink:href="#DejaVuSans-20"/>
      <use x="1883.447266" xlink:href="#DejaVuSans-28"/>
      <use x="1922.460938" xlink:href="#DejaVuSans-73"/>
      <use x="1974.560547" xlink:href="#DejaVuSans-74"/>
      <use x="2013.769531" xlink:href="#DejaVuSans-64"/>
      <use x="2077.246094" xlink:href="#DejaVuSans-3a"/>
      <use x="2110.9375" xlink:href="#DejaVuSans-20"/>
      <use x="2142.724609" xlink:href="#DejaVuSans-30"/>
      <use x="2206.347656" xlink:href="#DejaVuSans-2e"/>
      <use x="2238.134766" xlink:href="#DejaVuSans-30"/>
      <use x="2301.757812" xlink:href="#DejaVuSans-37"/>
      <use x="2365.380859" xlink:href="#DejaVuSans-29"/>
     </g>
    </g>
   </g>
  </g>
 </g>
 <defs>
  <clipPath id="paeeb3cae4f">
   <rect height="289.4" width="393.85" x="48.2" y="13.6"/>
  </clipPath>
 </defs>
</svg>
