<?xml version="1.0" encoding="utf-8" standalone="no"?>
<!DOCTYPE svg PUBLIC "-//W3C//DTD SVG 1.1//EN"
  "http://www.w3.org/Graphics/SVG/1.1/DTD/svg11.dtd">
<!-- Created with matplotlib (http://matplotlib.org/) -->
<svg height="288pt" version="1.1" viewBox="0 0 432 288" width="432pt" xmlns="http://www.w3.org/2000/svg" xmlns:xlink="http://www.w3.org/1999/xlink">
 <defs>
  <style type="text/css">
*{stroke-linecap:butt;stroke-linejoin:round;}
  </style>
 </defs>
 <g id="figure_1">
  <g id="patch_1">
   <path d="M 0 288 
L 432 288 
L 432 0 
L 0 0 
z
" style="fill:#ffffff;"/>
  </g>
  <g id="axes_1">
   <g id="patch_2">
    <path d="M 54 252 
L 388.8 252 
L 388.8 34.56 
L 54 34.56 
z
" style="fill:#ffffff;"/>
   </g>
   <g id="PolyCollection_1">
    <defs>
     <path d="M 54 -36 
L 54 -36 
L 57.348 -46.693624 
L 60.696 -59.841422 
L 64.044 -72.958749 
L 67.392 -86.076674 
L 70.74 -99.734141 
L 74.088 -113.466262 
L 77.436 -145.253729 
L 80.784 -176.855208 
L 84.132 -251.287129 
L 87.48 -251.287129 
L 90.828 -251.287129 
L 94.176 -251.287129 
L 97.524 -251.287129 
L 100.872 -251.287129 
L 104.22 -251.287129 
L 107.568 -251.287129 
L 110.916 -251.287129 
L 114.264 -251.287129 
L 117.612 -251.287129 
L 120.96 -251.287129 
L 124.308 -251.287129 
L 127.656 -251.287129 
L 131.004 -251.287129 
L 134.352 -251.287129 
L 137.7 -251.287129 
L 141.048 -251.287129 
L 144.396 -251.287129 
L 147.744 -251.287129 
L 151.092 -251.287129 
L 154.44 -251.287129 
L 157.788 -251.287129 
L 161.136 -251.287129 
L 164.484 -251.287129 
L 167.832 -251.287129 
L 171.18 -251.287129 
L 174.528 -251.287129 
L 177.876 -251.287129 
L 181.224 -251.287129 
L 184.572 -251.287129 
L 187.92 -251.287129 
L 191.268 -251.287129 
L 194.616 -251.287129 
L 197.964 -251.287129 
L 201.312 -251.287129 
L 204.66 -251.287129 
L 208.008 -251.287129 
L 211.356 -251.287129 
L 214.704 -251.287129 
L 218.052 -251.287129 
L 221.4 -251.287129 
L 224.748 -251.287129 
L 228.096 -251.287129 
L 231.444 -251.287129 
L 234.792 -251.287129 
L 238.14 -251.287129 
L 241.488 -251.287129 
L 244.836 -251.287129 
L 248.184 -251.287129 
L 251.532 -251.287129 
L 254.88 -251.287129 
L 258.228 -251.287129 
L 261.576 -251.287129 
L 264.924 -251.287129 
L 268.272 -251.287129 
L 271.62 -251.287129 
L 274.968 -251.287129 
L 278.316 -251.287129 
L 281.664 -251.287129 
L 285.012 -251.287129 
L 288.36 -251.287129 
L 291.708 -251.287129 
L 295.056 -251.287129 
L 298.404 -251.287129 
L 301.752 -251.287129 
L 305.1 -251.287129 
L 308.448 -251.287129 
L 311.796 -251.287129 
L 315.144 -251.287129 
L 318.492 -251.287129 
L 321.84 -251.287129 
L 325.188 -251.287129 
L 328.536 -251.287129 
L 331.884 -251.287129 
L 335.232 -251.287129 
L 338.58 -251.287129 
L 341.928 -251.287129 
L 345.276 -251.287129 
L 348.624 -251.287129 
L 351.972 -251.287129 
L 355.32 -251.287129 
L 358.668 -251.287129 
L 362.016 -251.287129 
L 365.364 -251.287129 
L 368.712 -251.287129 
L 372.06 -251.287129 
L 375.408 -251.287129 
L 378.756 -251.287129 
L 382.104 -251.287129 
L 385.452 -251.287129 
L 388.8 -251.287129 
L 388.8 -251.287129 
L 388.8 -251.287129 
L 385.452 -251.287129 
L 382.104 -251.287129 
L 378.756 -251.287129 
L 375.408 -251.287129 
L 372.06 -251.287129 
L 368.712 -251.287129 
L 365.364 -251.287129 
L 362.016 -251.287129 
L 358.668 -251.287129 
L 355.32 -251.287129 
L 351.972 -251.287129 
L 348.624 -251.287129 
L 345.276 -251.287129 
L 341.928 -251.287129 
L 338.58 -251.287129 
L 335.232 -251.287129 
L 331.884 -251.287129 
L 328.536 -251.287129 
L 325.188 -251.287129 
L 321.84 -251.287129 
L 318.492 -251.287129 
L 315.144 -251.287129 
L 311.796 -251.287129 
L 308.448 -251.287129 
L 305.1 -251.287129 
L 301.752 -251.287129 
L 298.404 -251.287129 
L 295.056 -251.287129 
L 291.708 -251.287129 
L 288.36 -251.287129 
L 285.012 -251.287129 
L 281.664 -251.287129 
L 278.316 -251.287129 
L 274.968 -251.287129 
L 271.62 -251.287129 
L 268.272 -251.287129 
L 264.924 -251.287129 
L 261.576 -251.287129 
L 258.228 -251.287129 
L 254.88 -251.287129 
L 251.532 -251.287129 
L 248.184 -251.287129 
L 244.836 -251.287129 
L 241.488 -251.287129 
L 238.14 -251.287129 
L 234.792 -251.287129 
L 231.444 -251.287129 
L 228.096 -251.287129 
L 224.748 -251.287129 
L 221.4 -251.287129 
L 218.052 -251.287129 
L 214.704 -251.287129 
L 211.356 -251.287129 
L 208.008 -251.287129 
L 204.66 -251.287129 
L 201.312 -251.287129 
L 197.964 -251.287129 
L 194.616 -251.287129 
L 191.268 -251.287129 
L 187.92 -251.287129 
L 184.572 -251.287129 
L 181.224 -251.287129 
L 177.876 -251.287129 
L 174.528 -251.287129 
L 171.18 -251.287129 
L 167.832 -251.287129 
L 164.484 -251.287129 
L 161.136 -251.287129 
L 157.788 -251.287129 
L 154.44 -251.287129 
L 151.092 -251.287129 
L 147.744 -251.287129 
L 144.396 -251.287129 
L 141.048 -251.287129 
L 137.7 -251.287129 
L 134.352 -251.287129 
L 131.004 -251.287129 
L 127.656 -251.287129 
L 124.308 -251.287129 
L 120.96 -251.287129 
L 117.612 -251.287129 
L 114.264 -251.287129 
L 110.916 -251.287129 
L 107.568 -251.287129 
L 104.22 -251.287129 
L 100.872 -251.287129 
L 97.524 -251.287129 
L 94.176 -251.287129 
L 90.828 -251.287129 
L 87.48 -251.287129 
L 84.132 -251.287129 
L 80.784 -251.287129 
L 77.436 -241.155182 
L 74.088 -208.282219 
L 70.74 -194.816725 
L 67.392 -181.444454 
L 64.044 -168.41231 
L 60.696 -155.374406 
L 57.348 -142.153271 
L 54 -36 
z
" id="m6f9a801181" style="stroke:#0000ff;stroke-opacity:0.1;"/>
    </defs>
    <g clip-path="url(#p082990e26f)">
     <use style="fill:#0000ff;fill-opacity:0.1;stroke:#0000ff;stroke-opacity:0.1;" x="0" xlink:href="#m6f9a801181" y="288"/>
    </g>
   </g>
   <g id="matplotlib.axis_1">
    <g id="xtick_1">
     <g id="line2d_1">
      <defs>
       <path d="M 0 0 
L 0 3.5 
" id="me065a0d1ed" style="stroke:#000000;stroke-width:0.8;"/>
      </defs>
      <g>
       <use style="stroke:#000000;stroke-width:0.8;" x="54" xlink:href="#me065a0d1ed" y="252"/>
      </g>
     </g>
     <g id="text_1">
      <!-- 0.0 -->
      <defs>
       <path d="M 31.78125 66.40625 
Q 24.171875 66.40625 20.328125 58.90625 
Q 16.5 51.421875 16.5 36.375 
Q 16.5 21.390625 20.328125 13.890625 
Q 24.171875 6.390625 31.78125 6.390625 
Q 39.453125 6.390625 43.28125 13.890625 
Q 47.125 21.390625 47.125 36.375 
Q 47.125 51.421875 43.28125 58.90625 
Q 39.453125 66.40625 31.78125 66.40625 
z
M 31.78125 74.21875 
Q 44.046875 74.21875 50.515625 64.515625 
Q 56.984375 54.828125 56.984375 36.375 
Q 56.984375 17.96875 50.515625 8.265625 
Q 44.046875 -1.421875 31.78125 -1.421875 
Q 19.53125 -1.421875 13.0625 8.265625 
Q 6.59375 17.96875 6.59375 36.375 
Q 6.59375 54.828125 13.0625 64.515625 
Q 19.53125 74.21875 31.78125 74.21875 
z
" id="DejaVuSans-30"/>
       <path d="M 10.6875 12.40625 
L 21 12.40625 
L 21 0 
L 10.6875 0 
z
" id="DejaVuSans-2e"/>
      </defs>
      <g transform="translate(46.048437 266.598437)scale(0.1 -0.1)">
       <use xlink:href="#DejaVuSans-30"/>
       <use x="63.623047" xlink:href="#DejaVuSans-2e"/>
       <use x="95.410156" xlink:href="#DejaVuSans-30"/>
      </g>
     </g>
    </g>
    <g id="xtick_2">
     <g id="line2d_2">
      <g>
       <use style="stroke:#000000;stroke-width:0.8;" x="120.96" xlink:href="#me065a0d1ed" y="252"/>
      </g>
     </g>
     <g id="text_2">
      <!-- 0.2 -->
      <defs>
       <path d="M 19.1875 8.296875 
L 53.609375 8.296875 
L 53.609375 0 
L 7.328125 0 
L 7.328125 8.296875 
Q 12.9375 14.109375 22.625 23.890625 
Q 32.328125 33.6875 34.8125 36.53125 
Q 39.546875 41.84375 41.421875 45.53125 
Q 43.3125 49.21875 43.3125 52.78125 
Q 43.3125 58.59375 39.234375 62.25 
Q 35.15625 65.921875 28.609375 65.921875 
Q 23.96875 65.921875 18.8125 64.3125 
Q 13.671875 62.703125 7.8125 59.421875 
L 7.8125 69.390625 
Q 13.765625 71.78125 18.9375 73 
Q 24.125 74.21875 28.421875 74.21875 
Q 39.75 74.21875 46.484375 68.546875 
Q 53.21875 62.890625 53.21875 53.421875 
Q 53.21875 48.921875 51.53125 44.890625 
Q 49.859375 40.875 45.40625 35.40625 
Q 44.1875 33.984375 37.640625 27.21875 
Q 31.109375 20.453125 19.1875 8.296875 
z
" id="DejaVuSans-32"/>
      </defs>
      <g transform="translate(113.008438 266.598437)scale(0.1 -0.1)">
       <use xlink:href="#DejaVuSans-30"/>
       <use x="63.623047" xlink:href="#DejaVuSans-2e"/>
       <use x="95.410156" xlink:href="#DejaVuSans-32"/>
      </g>
     </g>
    </g>
    <g id="xtick_3">
     <g id="line2d_3">
      <g>
       <use style="stroke:#000000;stroke-width:0.8;" x="187.92" xlink:href="#me065a0d1ed" y="252"/>
      </g>
     </g>
     <g id="text_3">
      <!-- 0.4 -->
      <defs>
       <path d="M 37.796875 64.3125 
L 12.890625 25.390625 
L 37.796875 25.390625 
z
M 35.203125 72.90625 
L 47.609375 72.90625 
L 47.609375 25.390625 
L 58.015625 25.390625 
L 58.015625 17.1875 
L 47.609375 17.1875 
L 47.609375 0 
L 37.796875 0 
L 37.796875 17.1875 
L 4.890625 17.1875 
L 4.890625 26.703125 
z
" id="DejaVuSans-34"/>
      </defs>
      <g transform="translate(179.968438 266.598437)scale(0.1 -0.1)">
       <use xlink:href="#DejaVuSans-30"/>
       <use x="63.623047" xlink:href="#DejaVuSans-2e"/>
       <use x="95.410156" xlink:href="#DejaVuSans-34"/>
      </g>
     </g>
    </g>
    <g id="xtick_4">
     <g id="line2d_4">
      <g>
       <use style="stroke:#000000;stroke-width:0.8;" x="254.88" xlink:href="#me065a0d1ed" y="252"/>
      </g>
     </g>
     <g id="text_4">
      <!-- 0.6 -->
      <defs>
       <path d="M 33.015625 40.375 
Q 26.375 40.375 22.484375 35.828125 
Q 18.609375 31.296875 18.609375 23.390625 
Q 18.609375 15.53125 22.484375 10.953125 
Q 26.375 6.390625 33.015625 6.390625 
Q 39.65625 6.390625 43.53125 10.953125 
Q 47.40625 15.53125 47.40625 23.390625 
Q 47.40625 31.296875 43.53125 35.828125 
Q 39.65625 40.375 33.015625 40.375 
z
M 52.59375 71.296875 
L 52.59375 62.3125 
Q 48.875 64.0625 45.09375 64.984375 
Q 41.3125 65.921875 37.59375 65.921875 
Q 27.828125 65.921875 22.671875 59.328125 
Q 17.53125 52.734375 16.796875 39.40625 
Q 19.671875 43.65625 24.015625 45.921875 
Q 28.375 48.1875 33.59375 48.1875 
Q 44.578125 48.1875 50.953125 41.515625 
Q 57.328125 34.859375 57.328125 23.390625 
Q 57.328125 12.15625 50.6875 5.359375 
Q 44.046875 -1.421875 33.015625 -1.421875 
Q 20.359375 -1.421875 13.671875 8.265625 
Q 6.984375 17.96875 6.984375 36.375 
Q 6.984375 53.65625 15.1875 63.9375 
Q 23.390625 74.21875 37.203125 74.21875 
Q 40.921875 74.21875 44.703125 73.484375 
Q 48.484375 72.75 52.59375 71.296875 
z
" id="DejaVuSans-36"/>
      </defs>
      <g transform="translate(246.928438 266.598437)scale(0.1 -0.1)">
       <use xlink:href="#DejaVuSans-30"/>
       <use x="63.623047" xlink:href="#DejaVuSans-2e"/>
       <use x="95.410156" xlink:href="#DejaVuSans-36"/>
      </g>
     </g>
    </g>
    <g id="xtick_5">
     <g id="line2d_5">
      <g>
       <use style="stroke:#000000;stroke-width:0.8;" x="321.84" xlink:href="#me065a0d1ed" y="252"/>
      </g>
     </g>
     <g id="text_5">
      <!-- 0.8 -->
      <defs>
       <path d="M 31.78125 34.625 
Q 24.75 34.625 20.71875 30.859375 
Q 16.703125 27.09375 16.703125 20.515625 
Q 16.703125 13.921875 20.71875 10.15625 
Q 24.75 6.390625 31.78125 6.390625 
Q 38.8125 6.390625 42.859375 10.171875 
Q 46.921875 13.96875 46.921875 20.515625 
Q 46.921875 27.09375 42.890625 30.859375 
Q 38.875 34.625 31.78125 34.625 
z
M 21.921875 38.8125 
Q 15.578125 40.375 12.03125 44.71875 
Q 8.5 49.078125 8.5 55.328125 
Q 8.5 64.0625 14.71875 69.140625 
Q 20.953125 74.21875 31.78125 74.21875 
Q 42.671875 74.21875 48.875 69.140625 
Q 55.078125 64.0625 55.078125 55.328125 
Q 55.078125 49.078125 51.53125 44.71875 
Q 48 40.375 41.703125 38.8125 
Q 48.828125 37.15625 52.796875 32.3125 
Q 56.78125 27.484375 56.78125 20.515625 
Q 56.78125 9.90625 50.3125 4.234375 
Q 43.84375 -1.421875 31.78125 -1.421875 
Q 19.734375 -1.421875 13.25 4.234375 
Q 6.78125 9.90625 6.78125 20.515625 
Q 6.78125 27.484375 10.78125 32.3125 
Q 14.796875 37.15625 21.921875 38.8125 
z
M 18.3125 54.390625 
Q 18.3125 48.734375 21.84375 45.5625 
Q 25.390625 42.390625 31.78125 42.390625 
Q 38.140625 42.390625 41.71875 45.5625 
Q 45.3125 48.734375 45.3125 54.390625 
Q 45.3125 60.0625 41.71875 63.234375 
Q 38.140625 66.40625 31.78125 66.40625 
Q 25.390625 66.40625 21.84375 63.234375 
Q 18.3125 60.0625 18.3125 54.390625 
z
" id="DejaVuSans-38"/>
      </defs>
      <g transform="translate(313.888438 266.598437)scale(0.1 -0.1)">
       <use xlink:href="#DejaVuSans-30"/>
       <use x="63.623047" xlink:href="#DejaVuSans-2e"/>
       <use x="95.410156" xlink:href="#DejaVuSans-38"/>
      </g>
     </g>
    </g>
    <g id="xtick_6">
     <g id="line2d_6">
      <g>
       <use style="stroke:#000000;stroke-width:0.8;" x="388.8" xlink:href="#me065a0d1ed" y="252"/>
      </g>
     </g>
     <g id="text_6">
      <!-- 1.0 -->
      <defs>
       <path d="M 12.40625 8.296875 
L 28.515625 8.296875 
L 28.515625 63.921875 
L 10.984375 60.40625 
L 10.984375 69.390625 
L 28.421875 72.90625 
L 38.28125 72.90625 
L 38.28125 8.296875 
L 54.390625 8.296875 
L 54.390625 0 
L 12.40625 0 
z
" id="DejaVuSans-31"/>
      </defs>
      <g transform="translate(380.848437 266.598437)scale(0.1 -0.1)">
       <use xlink:href="#DejaVuSans-31"/>
       <use x="63.623047" xlink:href="#DejaVuSans-2e"/>
       <use x="95.410156" xlink:href="#DejaVuSans-30"/>
      </g>
     </g>
    </g>
    <g id="text_7">
     <!-- False positive rate -->
     <defs>
      <path d="M 9.8125 72.90625 
L 51.703125 72.90625 
L 51.703125 64.59375 
L 19.671875 64.59375 
L 19.671875 43.109375 
L 48.578125 43.109375 
L 48.578125 34.8125 
L 19.671875 34.8125 
L 19.671875 0 
L 9.8125 0 
z
" id="DejaVuSans-46"/>
      <path d="M 34.28125 27.484375 
Q 23.390625 27.484375 19.1875 25 
Q 14.984375 22.515625 14.984375 16.5 
Q 14.984375 11.71875 18.140625 8.90625 
Q 21.296875 6.109375 26.703125 6.109375 
Q 34.1875 6.109375 38.703125 11.40625 
Q 43.21875 16.703125 43.21875 25.484375 
L 43.21875 27.484375 
z
M 52.203125 31.203125 
L 52.203125 0 
L 43.21875 0 
L 43.21875 8.296875 
Q 40.140625 3.328125 35.546875 0.953125 
Q 30.953125 -1.421875 24.3125 -1.421875 
Q 15.921875 -1.421875 10.953125 3.296875 
Q 6 8.015625 6 15.921875 
Q 6 25.140625 12.171875 29.828125 
Q 18.359375 34.515625 30.609375 34.515625 
L 43.21875 34.515625 
L 43.21875 35.40625 
Q 43.21875 41.609375 39.140625 45 
Q 35.0625 48.390625 27.6875 48.390625 
Q 23 48.390625 18.546875 47.265625 
Q 14.109375 46.140625 10.015625 43.890625 
L 10.015625 52.203125 
Q 14.9375 54.109375 19.578125 55.046875 
Q 24.21875 56 28.609375 56 
Q 40.484375 56 46.34375 49.84375 
Q 52.203125 43.703125 52.203125 31.203125 
z
" id="DejaVuSans-61"/>
      <path d="M 9.421875 75.984375 
L 18.40625 75.984375 
L 18.40625 0 
L 9.421875 0 
z
" id="DejaVuSans-6c"/>
      <path d="M 44.28125 53.078125 
L 44.28125 44.578125 
Q 40.484375 46.53125 36.375 47.5 
Q 32.28125 48.484375 27.875 48.484375 
Q 21.1875 48.484375 17.84375 46.4375 
Q 14.5 44.390625 14.5 40.28125 
Q 14.5 37.15625 16.890625 35.375 
Q 19.28125 33.59375 26.515625 31.984375 
L 29.59375 31.296875 
Q 39.15625 29.25 43.1875 25.515625 
Q 47.21875 21.78125 47.21875 15.09375 
Q 47.21875 7.46875 41.1875 3.015625 
Q 35.15625 -1.421875 24.609375 -1.421875 
Q 20.21875 -1.421875 15.453125 -0.5625 
Q 10.6875 0.296875 5.421875 2 
L 5.421875 11.28125 
Q 10.40625 8.6875 15.234375 7.390625 
Q 20.0625 6.109375 24.8125 6.109375 
Q 31.15625 6.109375 34.5625 8.28125 
Q 37.984375 10.453125 37.984375 14.40625 
Q 37.984375 18.0625 35.515625 20.015625 
Q 33.0625 21.96875 24.703125 23.78125 
L 21.578125 24.515625 
Q 13.234375 26.265625 9.515625 29.90625 
Q 5.8125 33.546875 5.8125 39.890625 
Q 5.8125 47.609375 11.28125 51.796875 
Q 16.75 56 26.8125 56 
Q 31.78125 56 36.171875 55.265625 
Q 40.578125 54.546875 44.28125 53.078125 
z
" id="DejaVuSans-73"/>
      <path d="M 56.203125 29.59375 
L 56.203125 25.203125 
L 14.890625 25.203125 
Q 15.484375 15.921875 20.484375 11.0625 
Q 25.484375 6.203125 34.421875 6.203125 
Q 39.59375 6.203125 44.453125 7.46875 
Q 49.3125 8.734375 54.109375 11.28125 
L 54.109375 2.78125 
Q 49.265625 0.734375 44.1875 -0.34375 
Q 39.109375 -1.421875 33.890625 -1.421875 
Q 20.796875 -1.421875 13.15625 6.1875 
Q 5.515625 13.8125 5.515625 26.8125 
Q 5.515625 40.234375 12.765625 48.109375 
Q 20.015625 56 32.328125 56 
Q 43.359375 56 49.78125 48.890625 
Q 56.203125 41.796875 56.203125 29.59375 
z
M 47.21875 32.234375 
Q 47.125 39.59375 43.09375 43.984375 
Q 39.0625 48.390625 32.421875 48.390625 
Q 24.90625 48.390625 20.390625 44.140625 
Q 15.875 39.890625 15.1875 32.171875 
z
" id="DejaVuSans-65"/>
      <path id="DejaVuSans-20"/>
      <path d="M 18.109375 8.203125 
L 18.109375 -20.796875 
L 9.078125 -20.796875 
L 9.078125 54.6875 
L 18.109375 54.6875 
L 18.109375 46.390625 
Q 20.953125 51.265625 25.265625 53.625 
Q 29.59375 56 35.59375 56 
Q 45.5625 56 51.78125 48.09375 
Q 58.015625 40.1875 58.015625 27.296875 
Q 58.015625 14.40625 51.78125 6.484375 
Q 45.5625 -1.421875 35.59375 -1.421875 
Q 29.59375 -1.421875 25.265625 0.953125 
Q 20.953125 3.328125 18.109375 8.203125 
z
M 48.6875 27.296875 
Q 48.6875 37.203125 44.609375 42.84375 
Q 40.53125 48.484375 33.40625 48.484375 
Q 26.265625 48.484375 22.1875 42.84375 
Q 18.109375 37.203125 18.109375 27.296875 
Q 18.109375 17.390625 22.1875 11.75 
Q 26.265625 6.109375 33.40625 6.109375 
Q 40.53125 6.109375 44.609375 11.75 
Q 48.6875 17.390625 48.6875 27.296875 
z
" id="DejaVuSans-70"/>
      <path d="M 30.609375 48.390625 
Q 23.390625 48.390625 19.1875 42.75 
Q 14.984375 37.109375 14.984375 27.296875 
Q 14.984375 17.484375 19.15625 11.84375 
Q 23.34375 6.203125 30.609375 6.203125 
Q 37.796875 6.203125 41.984375 11.859375 
Q 46.1875 17.53125 46.1875 27.296875 
Q 46.1875 37.015625 41.984375 42.703125 
Q 37.796875 48.390625 30.609375 48.390625 
z
M 30.609375 56 
Q 42.328125 56 49.015625 48.375 
Q 55.71875 40.765625 55.71875 27.296875 
Q 55.71875 13.875 49.015625 6.21875 
Q 42.328125 -1.421875 30.609375 -1.421875 
Q 18.84375 -1.421875 12.171875 6.21875 
Q 5.515625 13.875 5.515625 27.296875 
Q 5.515625 40.765625 12.171875 48.375 
Q 18.84375 56 30.609375 56 
z
" id="DejaVuSans-6f"/>
      <path d="M 9.421875 54.6875 
L 18.40625 54.6875 
L 18.40625 0 
L 9.421875 0 
z
M 9.421875 75.984375 
L 18.40625 75.984375 
L 18.40625 64.59375 
L 9.421875 64.59375 
z
" id="DejaVuSans-69"/>
      <path d="M 18.3125 70.21875 
L 18.3125 54.6875 
L 36.8125 54.6875 
L 36.8125 47.703125 
L 18.3125 47.703125 
L 18.3125 18.015625 
Q 18.3125 11.328125 20.140625 9.421875 
Q 21.96875 7.515625 27.59375 7.515625 
L 36.8125 7.515625 
L 36.8125 0 
L 27.59375 0 
Q 17.1875 0 13.234375 3.875 
Q 9.28125 7.765625 9.28125 18.015625 
L 9.28125 47.703125 
L 2.6875 47.703125 
L 2.6875 54.6875 
L 9.28125 54.6875 
L 9.28125 70.21875 
z
" id="DejaVuSans-74"/>
      <path d="M 2.984375 54.6875 
L 12.5 54.6875 
L 29.59375 8.796875 
L 46.6875 54.6875 
L 56.203125 54.6875 
L 35.6875 0 
L 23.484375 0 
z
" id="DejaVuSans-76"/>
      <path d="M 41.109375 46.296875 
Q 39.59375 47.171875 37.8125 47.578125 
Q 36.03125 48 33.890625 48 
Q 26.265625 48 22.1875 43.046875 
Q 18.109375 38.09375 18.109375 28.8125 
L 18.109375 0 
L 9.078125 0 
L 9.078125 54.6875 
L 18.109375 54.6875 
L 18.109375 46.1875 
Q 20.953125 51.171875 25.484375 53.578125 
Q 30.03125 56 36.53125 56 
Q 37.453125 56 38.578125 55.875 
Q 39.703125 55.765625 41.0625 55.515625 
z
" id="DejaVuSans-72"/>
     </defs>
     <g transform="translate(175.45 280.276563)scale(0.1 -0.1)">
      <use xlink:href="#DejaVuSans-46"/>
      <use x="57.378906" xlink:href="#DejaVuSans-61"/>
      <use x="118.658203" xlink:href="#DejaVuSans-6c"/>
      <use x="146.441406" xlink:href="#DejaVuSans-73"/>
      <use x="198.541016" xlink:href="#DejaVuSans-65"/>
      <use x="260.064453" xlink:href="#DejaVuSans-20"/>
      <use x="291.851562" xlink:href="#DejaVuSans-70"/>
      <use x="355.328125" xlink:href="#DejaVuSans-6f"/>
      <use x="416.509766" xlink:href="#DejaVuSans-73"/>
      <use x="468.609375" xlink:href="#DejaVuSans-69"/>
      <use x="496.392578" xlink:href="#DejaVuSans-74"/>
      <use x="535.601562" xlink:href="#DejaVuSans-69"/>
      <use x="563.384766" xlink:href="#DejaVuSans-76"/>
      <use x="622.564453" xlink:href="#DejaVuSans-65"/>
      <use x="684.087891" xlink:href="#DejaVuSans-20"/>
      <use x="715.875" xlink:href="#DejaVuSans-72"/>
      <use x="756.988281" xlink:href="#DejaVuSans-61"/>
      <use x="818.267578" xlink:href="#DejaVuSans-74"/>
      <use x="857.476562" xlink:href="#DejaVuSans-65"/>
     </g>
    </g>
   </g>
   <g id="matplotlib.axis_2">
    <g id="ytick_1">
     <g id="line2d_7">
      <defs>
       <path d="M 0 0 
L -3.5 0 
" id="m74168857a4" style="stroke:#000000;stroke-width:0.8;"/>
      </defs>
      <g>
       <use style="stroke:#000000;stroke-width:0.8;" x="54" xlink:href="#m74168857a4" y="252"/>
      </g>
     </g>
     <g id="text_8">
      <!-- 0.0 -->
      <g transform="translate(31.096875 255.799219)scale(0.1 -0.1)">
       <use xlink:href="#DejaVuSans-30"/>
       <use x="63.623047" xlink:href="#DejaVuSans-2e"/>
       <use x="95.410156" xlink:href="#DejaVuSans-30"/>
      </g>
     </g>
    </g>
    <g id="ytick_2">
     <g id="line2d_8">
      <g>
       <use style="stroke:#000000;stroke-width:0.8;" x="54" xlink:href="#m74168857a4" y="208.942574"/>
      </g>
     </g>
     <g id="text_9">
      <!-- 0.2 -->
      <g transform="translate(31.096875 212.741793)scale(0.1 -0.1)">
       <use xlink:href="#DejaVuSans-30"/>
       <use x="63.623047" xlink:href="#DejaVuSans-2e"/>
       <use x="95.410156" xlink:href="#DejaVuSans-32"/>
      </g>
     </g>
    </g>
    <g id="ytick_3">
     <g id="line2d_9">
      <g>
       <use style="stroke:#000000;stroke-width:0.8;" x="54" xlink:href="#m74168857a4" y="165.885149"/>
      </g>
     </g>
     <g id="text_10">
      <!-- 0.4 -->
      <g transform="translate(31.096875 169.684367)scale(0.1 -0.1)">
       <use xlink:href="#DejaVuSans-30"/>
       <use x="63.623047" xlink:href="#DejaVuSans-2e"/>
       <use x="95.410156" xlink:href="#DejaVuSans-34"/>
      </g>
     </g>
    </g>
    <g id="ytick_4">
     <g id="line2d_10">
      <g>
       <use style="stroke:#000000;stroke-width:0.8;" x="54" xlink:href="#m74168857a4" y="122.827723"/>
      </g>
     </g>
     <g id="text_11">
      <!-- 0.6 -->
      <g transform="translate(31.096875 126.626942)scale(0.1 -0.1)">
       <use xlink:href="#DejaVuSans-30"/>
       <use x="63.623047" xlink:href="#DejaVuSans-2e"/>
       <use x="95.410156" xlink:href="#DejaVuSans-36"/>
      </g>
     </g>
    </g>
    <g id="ytick_5">
     <g id="line2d_11">
      <g>
       <use style="stroke:#000000;stroke-width:0.8;" x="54" xlink:href="#m74168857a4" y="79.770297"/>
      </g>
     </g>
     <g id="text_12">
      <!-- 0.8 -->
      <g transform="translate(31.096875 83.569516)scale(0.1 -0.1)">
       <use xlink:href="#DejaVuSans-30"/>
       <use x="63.623047" xlink:href="#DejaVuSans-2e"/>
       <use x="95.410156" xlink:href="#DejaVuSans-38"/>
      </g>
     </g>
    </g>
    <g id="ytick_6">
     <g id="line2d_12">
      <g>
       <use style="stroke:#000000;stroke-width:0.8;" x="54" xlink:href="#m74168857a4" y="36.712871"/>
      </g>
     </g>
     <g id="text_13">
      <!-- 1.0 -->
      <g transform="translate(31.096875 40.51209)scale(0.1 -0.1)">
       <use xlink:href="#DejaVuSans-31"/>
       <use x="63.623047" xlink:href="#DejaVuSans-2e"/>
       <use x="95.410156" xlink:href="#DejaVuSans-30"/>
      </g>
     </g>
    </g>
    <g id="text_14">
     <!-- True positive rate -->
     <defs>
      <path d="M -0.296875 72.90625 
L 61.375 72.90625 
L 61.375 64.59375 
L 35.5 64.59375 
L 35.5 0 
L 25.59375 0 
L 25.59375 64.59375 
L -0.296875 64.59375 
z
" id="DejaVuSans-54"/>
      <path d="M 8.5 21.578125 
L 8.5 54.6875 
L 17.484375 54.6875 
L 17.484375 21.921875 
Q 17.484375 14.15625 20.5 10.265625 
Q 23.53125 6.390625 29.59375 6.390625 
Q 36.859375 6.390625 41.078125 11.03125 
Q 45.3125 15.671875 45.3125 23.6875 
L 45.3125 54.6875 
L 54.296875 54.6875 
L 54.296875 0 
L 45.3125 0 
L 45.3125 8.40625 
Q 42.046875 3.421875 37.71875 1 
Q 33.40625 -1.421875 27.6875 -1.421875 
Q 18.265625 -1.421875 13.375 4.4375 
Q 8.5 10.296875 8.5 21.578125 
z
M 31.109375 56 
z
" id="DejaVuSans-75"/>
     </defs>
     <g transform="translate(25.017187 187.570625)rotate(-90)scale(0.1 -0.1)">
      <use xlink:href="#DejaVuSans-54"/>
      <use x="60.865234" xlink:href="#DejaVuSans-72"/>
      <use x="101.978516" xlink:href="#DejaVuSans-75"/>
      <use x="165.357422" xlink:href="#DejaVuSans-65"/>
      <use x="226.880859" xlink:href="#DejaVuSans-20"/>
      <use x="258.667969" xlink:href="#DejaVuSans-70"/>
      <use x="322.144531" xlink:href="#DejaVuSans-6f"/>
      <use x="383.326172" xlink:href="#DejaVuSans-73"/>
      <use x="435.425781" xlink:href="#DejaVuSans-69"/>
      <use x="463.208984" xlink:href="#DejaVuSans-74"/>
      <use x="502.417969" xlink:href="#DejaVuSans-69"/>
      <use x="530.201172" xlink:href="#DejaVuSans-76"/>
      <use x="589.380859" xlink:href="#DejaVuSans-65"/>
      <use x="650.904297" xlink:href="#DejaVuSans-20"/>
      <use x="682.691406" xlink:href="#DejaVuSans-72"/>
      <use x="723.804688" xlink:href="#DejaVuSans-61"/>
      <use x="785.083984" xlink:href="#DejaVuSans-74"/>
      <use x="824.292969" xlink:href="#DejaVuSans-65"/>
     </g>
    </g>
   </g>
   <g id="line2d_13">
    <path clip-path="url(#p082990e26f)" d="M 54 252 
L 57.381818 249.825383 
L 60.763636 247.650765 
L 64.145455 245.476148 
L 67.527273 243.30153 
L 70.909091 241.126913 
L 74.290909 238.952295 
L 77.672727 236.777678 
L 81.054545 234.60306 
L 84.436364 232.428443 
L 87.818182 230.253825 
L 91.2 228.079208 
L 94.581818 225.90459 
L 97.963636 223.729973 
L 101.345455 221.555356 
L 104.727273 219.380738 
L 108.109091 217.206121 
L 111.490909 215.031503 
L 114.872727 212.856886 
L 118.254545 210.682268 
L 121.636364 208.507651 
L 125.018182 206.333033 
L 128.4 204.158416 
L 131.781818 201.983798 
L 135.163636 199.809181 
L 138.545455 197.634563 
L 141.927273 195.459946 
L 145.309091 193.285329 
L 148.690909 191.110711 
L 152.072727 188.936094 
L 155.454545 186.761476 
L 158.836364 184.586859 
L 162.218182 182.412241 
L 165.6 180.237624 
L 168.981818 178.063006 
L 172.363636 175.888389 
L 175.745455 173.713771 
L 179.127273 171.539154 
L 182.509091 169.364536 
L 185.890909 167.189919 
L 189.272727 165.015302 
L 192.654545 162.840684 
L 196.036364 160.666067 
L 199.418182 158.491449 
L 202.8 156.316832 
L 206.181818 154.142214 
L 209.563636 151.967597 
L 212.945455 149.792979 
L 216.327273 147.618362 
L 219.709091 145.443744 
L 223.090909 143.269127 
L 226.472727 141.094509 
L 229.854545 138.919892 
L 233.236364 136.745275 
L 236.618182 134.570657 
L 240 132.39604 
L 243.381818 130.221422 
L 246.763636 128.046805 
L 250.145455 125.872187 
L 253.527273 123.69757 
L 256.909091 121.522952 
L 260.290909 119.348335 
L 263.672727 117.173717 
L 267.054545 114.9991 
L 270.436364 112.824482 
L 273.818182 110.649865 
L 277.2 108.475248 
L 280.581818 106.30063 
L 283.963636 104.126013 
L 287.345455 101.951395 
L 290.727273 99.776778 
L 294.109091 97.60216 
L 297.490909 95.427543 
L 300.872727 93.252925 
L 304.254545 91.078308 
L 307.636364 88.90369 
L 311.018182 86.729073 
L 314.4 84.554455 
L 317.781818 82.379838 
L 321.163636 80.205221 
L 324.545455 78.030603 
L 327.927273 75.855986 
L 331.309091 73.681368 
L 334.690909 71.506751 
L 338.072727 69.332133 
L 341.454545 67.157516 
L 344.836364 64.982898 
L 348.218182 62.808281 
L 351.6 60.633663 
L 354.981818 58.459046 
L 358.363636 56.284428 
L 361.745455 54.109811 
L 365.127273 51.935194 
L 368.509091 49.760576 
L 371.890909 47.585959 
L 375.272727 45.411341 
L 378.654545 43.236724 
L 382.036364 41.062106 
L 385.418182 38.887489 
L 388.8 36.712871 
" style="fill:none;stroke:#cccccc;stroke-dasharray:5.55,2.4;stroke-dashoffset:0;stroke-width:1.5;"/>
   </g>
   <g id="line2d_14">
    <path clip-path="url(#p082990e26f)" d="M 54 252 
L 57.348 193.576552 
L 60.696 180.392086 
L 64.044 167.314471 
L 67.392 154.239436 
L 70.74 140.724567 
L 74.088 127.125759 
L 77.436 94.795545 
L 80.784 71.472772 
L 84.132 36.712871 
L 87.48 36.712871 
L 90.828 36.712871 
L 94.176 36.712871 
L 97.524 36.712871 
L 100.872 36.712871 
L 104.22 36.712871 
L 107.568 36.712871 
L 110.916 36.712871 
L 114.264 36.712871 
L 117.612 36.712871 
L 120.96 36.712871 
L 124.308 36.712871 
L 127.656 36.712871 
L 131.004 36.712871 
L 134.352 36.712871 
L 137.7 36.712871 
L 141.048 36.712871 
L 144.396 36.712871 
L 147.744 36.712871 
L 151.092 36.712871 
L 154.44 36.712871 
L 157.788 36.712871 
L 161.136 36.712871 
L 164.484 36.712871 
L 167.832 36.712871 
L 171.18 36.712871 
L 174.528 36.712871 
L 177.876 36.712871 
L 181.224 36.712871 
L 184.572 36.712871 
L 187.92 36.712871 
L 191.268 36.712871 
L 194.616 36.712871 
L 197.964 36.712871 
L 201.312 36.712871 
L 204.66 36.712871 
L 208.008 36.712871 
L 211.356 36.712871 
L 214.704 36.712871 
L 218.052 36.712871 
L 221.4 36.712871 
L 224.748 36.712871 
L 228.096 36.712871 
L 231.444 36.712871 
L 234.792 36.712871 
L 238.14 36.712871 
L 241.488 36.712871 
L 244.836 36.712871 
L 248.184 36.712871 
L 251.532 36.712871 
L 254.88 36.712871 
L 258.228 36.712871 
L 261.576 36.712871 
L 264.924 36.712871 
L 268.272 36.712871 
L 271.62 36.712871 
L 274.968 36.712871 
L 278.316 36.712871 
L 281.664 36.712871 
L 285.012 36.712871 
L 288.36 36.712871 
L 291.708 36.712871 
L 295.056 36.712871 
L 298.404 36.712871 
L 301.752 36.712871 
L 305.1 36.712871 
L 308.448 36.712871 
L 311.796 36.712871 
L 315.144 36.712871 
L 318.492 36.712871 
L 321.84 36.712871 
L 325.188 36.712871 
L 328.536 36.712871 
L 331.884 36.712871 
L 335.232 36.712871 
L 338.58 36.712871 
L 341.928 36.712871 
L 345.276 36.712871 
L 348.624 36.712871 
L 351.972 36.712871 
L 355.32 36.712871 
L 358.668 36.712871 
L 362.016 36.712871 
L 365.364 36.712871 
L 368.712 36.712871 
L 372.06 36.712871 
L 375.408 36.712871 
L 378.756 36.712871 
L 382.104 36.712871 
L 385.452 36.712871 
L 388.8 36.712871 
" style="fill:none;stroke:#0000ff;stroke-linecap:square;stroke-width:1.5;"/>
   </g>
   <g id="patch_3">
    <path d="M 54 252 
L 54 34.56 
" style="fill:none;stroke:#000000;stroke-linecap:square;stroke-linejoin:miter;stroke-width:0.8;"/>
   </g>
   <g id="patch_4">
    <path d="M 388.8 252 
L 388.8 34.56 
" style="fill:none;stroke:#000000;stroke-linecap:square;stroke-linejoin:miter;stroke-width:0.8;"/>
   </g>
   <g id="patch_5">
    <path d="M 54 252 
L 388.8 252 
" style="fill:none;stroke:#000000;stroke-linecap:square;stroke-linejoin:miter;stroke-width:0.8;"/>
   </g>
   <g id="patch_6">
    <path d="M 54 34.56 
L 388.8 34.56 
" style="fill:none;stroke:#000000;stroke-linecap:square;stroke-linejoin:miter;stroke-width:0.8;"/>
   </g>
  </g>
 </g>
 <defs>
  <clipPath id="p082990e26f">
   <rect height="217.44" width="334.8" x="54" y="34.56"/>
  </clipPath>
 </defs>
</svg>
